<svg width="32" height="32" viewBox="0 0 32 32" fill="none" xmlns="http://www.w3.org/2000/svg">
<g clip-path="url(#clip0_1476_70116)">
<path d="M20 20C22.2091 20 24 18.2091 24 16C24 13.7909 22.2091 12 20 12C17.7909 12 16 13.7909 16 16C16 18.2091 17.7909 20 20 20Z" stroke="#0CE7FA" stroke-width="2" stroke-linecap="round" stroke-linejoin="round"/>
<path d="M20 4H12C9.79086 4 8 5.79086 8 8C8 10.2091 9.79086 12 12 12H20C22.2091 12 24 10.2091 24 8C24 5.79086 22.2091 4 20 4Z" stroke="#0CE7FA" stroke-width="2" stroke-linecap="round" stroke-linejoin="round"/>
<path d="M12 12C10.9391 12 9.92172 12.4214 9.17157 13.1716C8.42143 13.9217 8 14.9391 8 16C8 17.0609 8.42143 18.0783 9.17157 18.8284C9.92172 19.5786 10.9391 20 12 20M12 20H16M12 20C11.2089 20 10.4355 20.2346 9.77772 20.6741C9.11992 21.1136 8.60723 21.7384 8.30448 22.4693C8.00173 23.2002 7.92252 24.0044 8.07686 24.7804C8.2312 25.5563 8.61216 26.269 9.17157 26.8284C9.73098 27.3878 10.4437 27.7688 11.2196 27.9231C11.9956 28.0775 12.7998 27.9983 13.5307 27.6955C14.2616 27.3928 14.8864 26.8801 15.3259 26.2223C15.7654 25.5645 16 24.7911 16 24V4" stroke="#0CE7FA" stroke-width="2" stroke-linecap="round" stroke-linejoin="round"/>
</g>
<defs>
<clipPath id="clip0_1476_70116">
<rect width="32" height="32" fill="white"/>
</clipPath>
</defs>
</svg>
