<svg width="26" height="26" viewBox="0 0 26 26" fill="none" xmlns="http://www.w3.org/2000/svg">
<path d="M19.2508 4.6665H6.75081C5.60022 4.6665 4.66748 5.59924 4.66748 6.74984V19.2498C4.66748 20.4004 5.60022 21.3332 6.75081 21.3332H19.2508C20.4014 21.3332 21.3341 20.4004 21.3341 19.2498V6.74984C21.3341 5.59924 20.4014 4.6665 19.2508 4.6665Z" stroke="white" stroke-width="1.5" stroke-linecap="round" stroke-linejoin="round"/>
<path d="M8.83252 11.9585V17.1668" stroke="white" stroke-width="1.5" stroke-linecap="round" stroke-linejoin="round"/>
<path d="M8.83252 8.8335V8.84391" stroke="white" stroke-width="1.5" stroke-linecap="round" stroke-linejoin="round"/>
<path d="M13 17.1668V11.9585" stroke="white" stroke-width="1.5" stroke-linecap="round" stroke-linejoin="round"/>
<path d="M17.1667 17.1668V14.0418C17.1667 13.4893 16.9472 12.9594 16.5565 12.5687C16.1658 12.178 15.6359 11.9585 15.0833 11.9585C14.5308 11.9585 14.0009 12.178 13.6102 12.5687C13.2195 12.9594 13 13.4893 13 14.0418" stroke="white" stroke-width="1.5" stroke-linecap="round" stroke-linejoin="round"/>
</svg>
