<svg width="26" height="26" viewBox="0 0 26 26" fill="none" xmlns="http://www.w3.org/2000/svg">
<path d="M23.4159 4.67722C22.3742 5.18764 21.3534 5.39493 20.2909 5.70847C19.1231 4.39076 17.3919 4.31784 15.7284 4.94076C14.0648 5.56368 12.9752 7.08659 12.9992 8.83347V9.87514C9.61898 9.96159 6.60856 8.42201 4.66585 5.70847C4.66585 5.70847 0.309603 13.4512 8.83252 17.1668C6.88252 18.4658 4.93773 19.3418 2.58252 19.2501C6.02835 21.1283 9.78356 21.7741 13.0346 20.8303C16.7638 19.747 19.8284 16.9522 21.0044 12.7658C21.3552 11.4925 21.5294 10.1771 21.5221 8.85639C21.52 8.59701 23.095 5.96889 23.4159 4.67618V4.67722Z" stroke="white" stroke-width="1.5" stroke-linecap="round" stroke-linejoin="round"/>
</svg>
