<svg width="73" height="72" viewBox="0 0 73 72" fill="none" xmlns="http://www.w3.org/2000/svg">
<circle cx="36.5" cy="36" r="35" fill="white" stroke="#111112" stroke-width="2"/>
<g clip-path="url(#clip0_1471_42613)">
<path d="M49.8333 29.334H23.1667C22.2462 29.334 21.5 30.0802 21.5 31.0007V34.334C21.5 35.2545 22.2462 36.0007 23.1667 36.0007H49.8333C50.7538 36.0007 51.5 35.2545 51.5 34.334V31.0007C51.5 30.0802 50.7538 29.334 49.8333 29.334Z" stroke="#4669FA" stroke-width="2.5" stroke-linecap="round" stroke-linejoin="round"/>
<path d="M36.5 29.334V51.0007" stroke="#4669FA" stroke-width="2.5" stroke-linecap="round" stroke-linejoin="round"/>
<path d="M48.1673 36V47.6667C48.1673 48.5507 47.8161 49.3986 47.191 50.0237C46.5659 50.6488 45.718 51 44.834 51H28.1673C27.2833 51 26.4354 50.6488 25.8103 50.0237C25.1852 49.3986 24.834 48.5507 24.834 47.6667V36" stroke="#4669FA" stroke-width="2.5" stroke-linecap="round" stroke-linejoin="round"/>
<path d="M29.0007 29.3341C27.8956 29.3341 26.8358 28.8951 26.0544 28.1137C25.273 27.3323 24.834 26.2725 24.834 25.1674C24.834 24.0623 25.273 23.0025 26.0544 22.2211C26.8358 21.4397 27.8956 21.0007 29.0007 21.0007C30.6085 20.9727 32.184 21.7528 33.5219 23.2393C34.8597 24.7258 35.8978 26.8497 36.5007 29.3341C37.1035 26.8497 38.1416 24.7258 39.4794 23.2393C40.8173 21.7528 42.3928 20.9727 44.0007 21.0007C45.1057 21.0007 46.1655 21.4397 46.9469 22.2211C47.7283 23.0025 48.1673 24.0623 48.1673 25.1674C48.1673 26.2725 47.7283 27.3323 46.9469 28.1137C46.1655 28.8951 45.1057 29.3341 44.0007 29.3341" stroke="#4669FA" stroke-width="2.5" stroke-linecap="round" stroke-linejoin="round"/>
</g>
<defs>
<clipPath id="clip0_1471_42613">
<rect width="40" height="40" fill="white" transform="translate(16.5 16)"/>
</clipPath>
</defs>
</svg>
