<svg width="500" height="378" viewBox="0 0 500 378" fill="none" xmlns="http://www.w3.org/2000/svg">
<path d="M169.676 211.209L173.913 214.961L188.976 196.878L193.838 201.88C193.838 201.88 181.338 228.054 172.476 228.654C170.08 228.924 167.66 228.418 165.574 227.209C163.488 226 161.845 224.152 160.888 221.939L169.676 211.209Z" fill="white"/>
<path d="M171.463 229.254C169.101 229.304 166.778 228.65 164.79 227.373C162.802 226.097 161.239 224.257 160.3 222.089C160.261 221.986 160.251 221.875 160.271 221.767C160.291 221.658 160.34 221.558 160.413 221.476L169.163 210.809C169.274 210.68 169.431 210.599 169.6 210.584C169.684 210.576 169.768 210.585 169.847 210.611C169.927 210.637 170 210.679 170.063 210.734L173.813 214.035L188.5 196.503C188.554 196.435 188.622 196.379 188.7 196.34C188.778 196.301 188.863 196.28 188.95 196.278C189.038 196.274 189.126 196.289 189.208 196.321C189.29 196.354 189.364 196.403 189.425 196.466L194.288 201.468C194.375 201.562 194.432 201.68 194.452 201.807C194.472 201.934 194.454 202.064 194.4 202.181C193.888 203.256 181.663 228.691 172.513 229.304L171.463 229.254ZM161.613 221.976C162.558 223.984 164.111 225.643 166.052 226.718C167.993 227.794 170.223 228.23 172.425 227.966C180.288 227.441 191.488 205.182 193.088 201.943L189.013 197.754L174.4 215.261C174.347 215.327 174.281 215.382 174.206 215.42C174.13 215.459 174.047 215.482 173.963 215.486C173.88 215.493 173.796 215.484 173.716 215.458C173.637 215.432 173.563 215.391 173.5 215.336L169.75 212.047L161.613 221.976Z" fill="#231F20"/>
<path d="M139.25 318.94C139.25 318.94 136.85 325.718 137.063 327.381C137.275 329.044 145.363 337.56 147.613 337.548C149.863 337.535 156.363 336.973 156.763 335.547C157.163 334.121 151.063 332.908 150.15 332.383C149.238 331.858 149.2 327.381 149.2 327.381L139.25 318.94Z" fill="white"/>
<path d="M147.613 338.173C144.913 338.173 136.675 329.257 136.438 327.456C136.2 325.656 138.413 319.441 138.663 318.703C138.699 318.61 138.756 318.527 138.83 318.459C138.904 318.392 138.992 318.343 139.088 318.315C139.186 318.285 139.291 318.28 139.392 318.302C139.492 318.324 139.586 318.372 139.663 318.44L149.663 326.894C149.732 326.95 149.787 327.02 149.826 327.1C149.865 327.18 149.886 327.267 149.888 327.356C149.803 328.878 150.029 330.401 150.55 331.833C151.078 332.038 151.616 332.213 152.163 332.358C154.763 333.146 156.8 333.821 157.325 334.859C157.402 334.992 157.451 335.14 157.468 335.293C157.485 335.446 157.471 335.6 157.425 335.747C156.7 338.036 147.763 338.248 147.675 338.248L147.613 338.173ZM139.55 320.003C138.663 322.617 137.563 326.318 137.688 327.294C137.963 329.332 146.225 336.923 147.613 336.923C150.9 336.923 155.813 336.135 156.163 335.36C155.938 334.834 152.888 333.921 151.738 333.584C151.091 333.423 150.459 333.206 149.85 332.934C148.838 332.358 148.6 329.52 148.6 327.681L139.55 320.003Z" fill="#231F20"/>
<path d="M153.988 249.362C153.988 249.362 166.588 286.052 164.788 291.667C162.988 297.281 149.2 327.394 149.2 327.394L139.2 318.94C139.2 318.94 146.263 292.029 145.625 287.677C144.988 283.326 135 261.767 135 261.767C135 261.767 122.5 291.441 114.725 291.629C106.95 291.817 80.6001 294.43 80.6001 294.43L83.7501 282.913C83.7501 282.913 110 277.036 111.9 274.159C113.8 271.283 120.163 240.096 120.163 240.096L152.5 246.798" fill="#231F20"/>
<path d="M149.2 328.019C149.051 328.013 148.907 327.96 148.788 327.869L138.788 319.415C138.696 319.34 138.629 319.239 138.593 319.126C138.558 319.013 138.556 318.892 138.588 318.778C141.013 309.511 145.475 291.116 145 287.79C144.475 284.201 137.1 267.982 135 263.293C133.913 265.794 131.375 271.358 128.325 276.923C122.775 287.015 118.2 292.167 114.713 292.254C107.013 292.429 80.963 295.03 80.638 295.055C80.536 295.066 80.4331 295.052 80.3375 295.015C80.2419 294.978 80.1564 294.919 80.088 294.843C80.0251 294.763 79.9811 294.669 79.9595 294.57C79.9378 294.47 79.939 294.367 79.963 294.268L83.088 282.75C83.1175 282.642 83.1763 282.544 83.2579 282.467C83.3395 282.39 83.4407 282.336 83.5504 282.313C93.5504 280.062 110.025 275.76 111.325 273.822C112.85 271.571 117.738 248.624 119.488 239.983C119.501 239.902 119.531 239.824 119.577 239.755C119.622 239.686 119.681 239.628 119.75 239.583C119.891 239.493 120.062 239.461 120.225 239.495L152.575 246.186C152.658 246.202 152.736 246.235 152.805 246.281C152.875 246.328 152.934 246.388 152.981 246.457C153.027 246.527 153.059 246.605 153.076 246.687C153.092 246.769 153.092 246.854 153.075 246.936C153.059 247.018 153.027 247.096 152.98 247.166C152.933 247.235 152.874 247.295 152.804 247.341C152.734 247.388 152.656 247.42 152.574 247.436C152.492 247.453 152.408 247.453 152.325 247.436L120.588 240.871C119.525 246.061 114.213 271.809 112.363 274.547C110.513 277.286 88.2005 282.563 84.2005 283.476L81.4129 293.742C86.1004 293.292 107.75 291.241 114.688 291.029C120.775 290.879 130.938 269.695 134.4 261.542C134.447 261.431 134.525 261.336 134.625 261.27C134.725 261.203 134.843 261.167 134.963 261.167C135.082 261.166 135.198 261.2 135.298 261.264C135.398 261.329 135.477 261.421 135.525 261.529C135.938 262.405 145.638 283.276 146.275 287.64C146.875 291.804 140.825 315.314 139.938 318.74L148.95 326.406C151.088 321.716 162.563 296.531 164.175 291.504C165.6 287.052 156.85 259.741 153.363 249.587C153.31 249.421 153.325 249.241 153.405 249.086C153.484 248.932 153.622 248.815 153.788 248.762C153.954 248.709 154.134 248.724 154.288 248.803C154.443 248.883 154.56 249.021 154.613 249.187C155.125 250.687 167.263 286.127 165.425 291.892C163.588 297.656 150.425 326.443 149.8 327.669C149.765 327.758 149.707 327.837 149.633 327.898C149.558 327.959 149.47 328.001 149.375 328.019H149.2Z" fill="#231F20"/>
<path d="M173.913 214.923C172.463 218.425 165.45 225.978 165.75 226.328C164.363 224.702 162.388 223.489 160.888 221.876C159.938 220.851 155.563 217.162 155.588 215.836C155.375 227.091 154.925 238.145 153.988 249.362C143.988 254.277 117.5 248.699 117.15 247.524C115.9 243.172 118.288 235.632 118.775 231.205C119.675 222.839 120.1 214.398 121.388 206.095C121.629 203.734 122.352 201.449 123.513 199.379C126.1 195.34 132.438 193.827 136.863 195.628C143.55 198.367 152.913 194.29 158.938 197.804C160.407 198.773 161.714 199.967 162.813 201.343L169.063 208.396C170.125 209.646 171.138 210.897 172.3 212.01C172.8 212.472 173.913 212.922 174.113 213.623C174.179 214.066 174.11 214.52 173.913 214.923V214.923Z" fill="#68E1FD"/>
<path d="M132.95 173.994C133.344 173.783 133.765 173.627 134.2 173.531C135.863 173.119 135.938 173.531 137.1 172.281C138.873 170.475 141.153 169.254 143.638 168.779C148.425 167.854 152.238 169.83 151.813 175.27C151.55 177.437 150.835 179.525 149.713 181.397C147.475 185.524 144.05 189.438 139.45 190.376C138.088 190.663 135.488 190.863 134.338 189.875C132.722 188.445 131.499 186.623 130.788 184.585C130.077 182.546 129.9 180.359 130.275 178.233C130.426 177.322 130.748 176.448 131.225 175.657C131.654 174.969 132.247 174.397 132.95 173.994V173.994Z" fill="white"/>
<path d="M137.1 191.151C135.961 191.235 134.827 190.926 133.888 190.276C132.184 188.777 130.895 186.864 130.146 184.722C129.398 182.579 129.214 180.28 129.613 178.046C129.771 177.053 130.123 176.101 130.65 175.245C131.156 174.476 131.849 173.848 132.663 173.419C133.083 173.184 133.533 173.007 134 172.894C134.45 172.781 134.788 172.731 135.075 172.681C135.75 172.568 135.875 172.543 136.588 171.781C138.446 169.867 140.853 168.578 143.475 168.092C146.388 167.529 148.875 168.004 150.475 169.442C151.23 170.189 151.797 171.105 152.13 172.113C152.462 173.122 152.551 174.195 152.388 175.245C152.131 177.502 151.389 179.678 150.213 181.622C148.225 185.274 144.763 189.85 139.525 190.913C138.727 191.072 137.915 191.152 137.1 191.151V191.151ZM145.775 169.117C145.083 169.117 144.391 169.188 143.713 169.33C141.34 169.762 139.158 170.914 137.463 172.631C137.201 172.985 136.868 173.279 136.484 173.495C136.101 173.71 135.676 173.842 135.238 173.882C134.988 173.882 134.675 173.969 134.263 174.069C133.896 174.158 133.543 174.297 133.213 174.482C132.583 174.811 132.049 175.298 131.663 175.895C131.225 176.61 130.932 177.405 130.8 178.233C130.44 180.255 130.606 182.335 131.283 184.273C131.959 186.211 133.123 187.943 134.663 189.3C135.463 189.976 137.563 190.001 139.238 189.65C144 188.675 147.225 184.398 149.088 180.984C150.168 179.19 150.854 177.187 151.1 175.107C151.252 174.252 151.196 173.373 150.937 172.544C150.678 171.714 150.224 170.96 149.613 170.343C148.526 169.479 147.161 169.044 145.775 169.117V169.117Z" fill="#231F20"/>
<path d="M148.163 193.364L149.075 200.655C148.672 201.899 147.828 202.953 146.702 203.619C145.577 204.284 144.247 204.516 142.963 204.269C138.038 203.656 137.025 200.305 137.025 200.305L135.538 186.799C135.538 186.799 138.863 184.498 136.938 176.908C141.046 178.143 145.412 178.247 149.575 177.208C149.575 177.208 152.075 185.449 152.075 189.238C152.075 193.027 148.213 193.302 148.163 193.364Z" fill="white"/>
<path d="M143.9 204.957C143.563 204.974 143.225 204.974 142.888 204.957C137.625 204.306 136.475 200.705 136.425 200.555L134.913 186.924C134.902 186.812 134.92 186.699 134.966 186.596C135.012 186.493 135.084 186.403 135.175 186.337C135.175 186.337 138.113 184.123 136.338 177.12C136.308 177.011 136.31 176.895 136.343 176.787C136.376 176.678 136.439 176.582 136.525 176.508C136.605 176.427 136.708 176.373 136.819 176.351C136.93 176.328 137.045 176.339 137.15 176.383C141.146 177.554 145.381 177.649 149.425 176.658C149.581 176.622 149.744 176.645 149.883 176.724C150.022 176.803 150.126 176.931 150.175 177.083C150.275 177.433 152.675 185.474 152.675 189.3C152.68 190.397 152.298 191.46 151.596 192.302C150.894 193.144 149.917 193.711 148.838 193.902L149.688 200.63C149.7 200.713 149.7 200.797 149.688 200.88C149.276 202.083 148.495 203.126 147.455 203.858C146.416 204.59 145.171 204.975 143.9 204.957V204.957ZM136.25 187.049L137.65 200.255C137.65 200.255 138.625 203.118 143.038 203.669C144.156 203.894 145.317 203.708 146.309 203.145C147.301 202.582 148.057 201.68 148.438 200.605L147.538 193.452C147.526 193.359 147.535 193.264 147.565 193.175C147.596 193.086 147.646 193.006 147.713 192.939C147.834 192.828 147.987 192.758 148.15 192.739C149.031 192.657 149.851 192.256 150.457 191.611C151.062 190.966 151.411 190.122 151.438 189.238C151.438 186.162 149.7 179.871 149.138 177.983C145.394 178.809 141.51 178.761 137.788 177.846C138.988 183.686 136.988 186.287 136.25 187.049Z" fill="#231F20"/>
<path d="M138.313 186.236C138.072 185.599 137.634 185.056 137.063 184.686C136.512 184.37 135.912 184.15 135.288 184.035C134.956 183.934 134.605 183.913 134.263 183.973C134.02 184.03 133.794 184.141 133.6 184.298C133.113 184.608 132.753 185.083 132.588 185.636C132.503 186.096 132.537 186.569 132.688 187.012C132.799 187.504 132.976 187.979 133.213 188.425C133.725 189.309 134.565 189.956 135.55 190.225C136.038 190.354 136.547 190.385 137.047 190.316C137.546 190.248 138.028 190.081 138.463 189.825" fill="white"/>
<path d="M136.525 190.976C136.141 190.976 135.759 190.926 135.388 190.826C134.821 190.674 134.289 190.411 133.824 190.052C133.358 189.694 132.968 189.247 132.675 188.738C132.403 188.243 132.201 187.713 132.075 187.162C131.908 186.62 131.874 186.045 131.975 185.486C132.182 184.791 132.624 184.19 133.225 183.786C133.489 183.593 133.786 183.449 134.1 183.36C134.512 183.269 134.939 183.269 135.35 183.36C136.047 183.49 136.715 183.739 137.325 184.098C138.015 184.539 138.542 185.193 138.825 185.962C138.856 186.039 138.871 186.122 138.869 186.206C138.867 186.29 138.848 186.372 138.814 186.448C138.779 186.524 138.73 186.593 138.669 186.65C138.607 186.706 138.535 186.75 138.457 186.779C138.378 186.807 138.295 186.82 138.211 186.815C138.128 186.811 138.046 186.79 137.971 186.753C137.896 186.717 137.829 186.665 137.774 186.602C137.719 186.539 137.677 186.466 137.65 186.387C137.463 185.871 137.112 185.432 136.65 185.136C136.161 184.861 135.628 184.671 135.075 184.573C134.832 184.503 134.578 184.477 134.325 184.498C134.168 184.548 134.02 184.624 133.888 184.724C133.531 184.958 133.262 185.306 133.125 185.711C133.069 186.072 133.099 186.44 133.213 186.787C133.315 187.223 133.474 187.644 133.688 188.037C134.117 188.776 134.816 189.319 135.638 189.55C136.056 189.663 136.493 189.691 136.922 189.633C137.351 189.575 137.765 189.432 138.138 189.213C138.208 189.171 138.286 189.143 138.367 189.131C138.449 189.12 138.531 189.125 138.611 189.145C138.69 189.166 138.764 189.203 138.829 189.253C138.894 189.304 138.948 189.366 138.988 189.438C139.071 189.579 139.095 189.748 139.056 189.907C139.016 190.066 138.915 190.203 138.775 190.288C138.102 190.718 137.324 190.955 136.525 190.976Z" fill="#231F20"/>
<path d="M146.5 182.522C146.5 182.522 149.563 185.874 149 186.612C148.438 187.349 146.788 187.174 146.788 187.174" fill="white"/>
<path d="M147.313 187.825H146.775C146.609 187.806 146.458 187.723 146.353 187.593C146.249 187.463 146.201 187.296 146.219 187.131C146.237 186.965 146.32 186.813 146.451 186.709C146.581 186.604 146.747 186.556 146.913 186.574C147.447 186.651 147.993 186.577 148.488 186.362C147.84 185.106 146.996 183.962 145.988 182.973C145.872 182.854 145.808 182.694 145.808 182.529C145.808 182.363 145.872 182.204 145.988 182.085C146.045 182.027 146.113 181.98 146.188 181.949C146.263 181.917 146.344 181.901 146.425 181.901C146.507 181.901 146.587 181.917 146.662 181.949C146.738 181.98 146.806 182.027 146.863 182.085C150.25 185.836 149.675 186.662 149.488 186.937C149.213 187.236 148.876 187.471 148.5 187.625C148.124 187.778 147.718 187.847 147.313 187.825V187.825Z" fill="#231F20"/>
<path d="M144.398 182.844C144.743 182.822 144.997 182.413 144.966 181.931C144.934 181.448 144.63 181.075 144.286 181.098C143.941 181.12 143.687 181.529 143.718 182.011C143.749 182.493 144.054 182.866 144.398 182.844Z" fill="#231F20"/>
<path d="M149.839 182.171C150.177 182.104 150.375 181.665 150.281 181.191C150.187 180.717 149.836 180.387 149.498 180.455C149.159 180.522 148.961 180.961 149.055 181.435C149.149 181.909 149.5 182.239 149.839 182.171Z" fill="#231F20"/>
<path d="M146.038 190.175C144.87 190.221 143.712 189.949 142.688 189.387C142.547 189.299 142.446 189.16 142.406 188.999C142.367 188.838 142.391 188.668 142.475 188.525C142.517 188.454 142.574 188.392 142.64 188.343C142.707 188.294 142.783 188.259 142.864 188.24C142.944 188.222 143.028 188.22 143.109 188.234C143.191 188.249 143.268 188.279 143.338 188.325C145.05 189.375 148.213 188.775 149.288 188.462C149.37 188.439 149.456 188.433 149.54 188.443C149.625 188.453 149.707 188.48 149.781 188.522C149.855 188.563 149.92 188.619 149.973 188.686C150.026 188.753 150.065 188.83 150.088 188.912C150.111 188.994 150.117 189.08 150.107 189.165C150.097 189.249 150.07 189.331 150.028 189.405C149.987 189.48 149.931 189.545 149.863 189.598C149.796 189.65 149.72 189.689 149.638 189.712C148.462 190.017 147.252 190.172 146.038 190.175V190.175Z" fill="#231F20"/>
<path d="M148.163 193.365C148.163 193.365 143.763 194.99 140.9 193.802C140.9 193.802 144.65 199.529 148.788 198.367L148.163 193.365Z" fill="#231F20"/>
<path d="M147.638 199.142C143.675 199.142 140.513 194.365 140.375 194.14C140.305 194.028 140.272 193.897 140.281 193.765C140.29 193.633 140.34 193.507 140.425 193.406C140.51 193.305 140.624 193.233 140.752 193.2C140.88 193.168 141.015 193.177 141.138 193.227C143.738 194.302 147.9 192.802 147.938 192.777C148.024 192.736 148.118 192.716 148.213 192.716C148.308 192.716 148.402 192.736 148.488 192.777C148.568 192.824 148.636 192.889 148.686 192.967C148.736 193.045 148.767 193.134 148.775 193.227L149.413 198.229C149.434 198.379 149.4 198.531 149.317 198.657C149.234 198.784 149.108 198.876 148.963 198.917C148.533 199.051 148.088 199.127 147.638 199.142V199.142ZM142.5 194.815C143.75 196.216 145.863 198.154 148.125 197.866L147.663 194.19C145.996 194.719 144.245 194.931 142.5 194.815V194.815Z" fill="#231F20"/>
<path d="M83.7501 282.913C83.7501 282.913 77.6501 282.05 75.4001 282.538C73.1501 283.026 65.2001 309.049 68.6751 308.023C72.1501 306.998 80.5876 294.43 80.5876 294.43L83.7501 282.913Z" fill="white"/>
<path d="M68.4878 308.686C68.3464 308.687 68.2062 308.659 68.0754 308.606C67.9445 308.552 67.8256 308.473 67.7253 308.373C66.3753 307.048 67.8753 300.52 69.3878 295.281C70.0003 293.13 73.1378 282.375 75.2128 281.925C77.5503 281.412 83.5378 282.263 83.7878 282.3C83.8758 282.313 83.9603 282.344 84.0356 282.392C84.111 282.439 84.1756 282.502 84.2253 282.575C84.2744 282.65 84.3067 282.735 84.3196 282.823C84.3326 282.912 84.326 283.002 84.3003 283.088L81.2503 294.593C81.2313 294.66 81.2018 294.723 81.1628 294.78C80.2878 296.031 72.5128 307.523 68.9253 308.623C68.7843 308.67 68.6362 308.691 68.4878 308.686ZM77.3003 283.013C76.693 282.998 76.0858 283.044 75.4878 283.151C74.2378 283.863 70.1378 295.493 68.8003 303.046C68.2378 306.222 68.4628 307.16 68.5628 307.41C71.2878 306.435 77.6753 297.632 80.0128 294.168L82.9128 283.451C81.0521 283.196 79.178 283.049 77.3003 283.013V283.013Z" fill="#231F20"/>
<path d="M249.063 219.012C249.063 219.012 264.288 224.752 266.025 223.952C267.763 223.151 263.313 203.281 263.313 203.281L269.225 201.905C269.225 201.905 276.788 228.491 273.463 233.018C270.138 237.545 252.975 233.268 249.063 228.604C245.15 223.939 249.063 219.012 249.063 219.012Z" fill="white"/>
<path d="M267.5 235.556C260.775 235.556 251.45 232.343 248.638 228.991C244.45 223.989 248.638 218.662 248.638 218.612C248.722 218.51 248.835 218.436 248.963 218.401C249.09 218.365 249.225 218.369 249.35 218.412C256.438 221.088 264.35 223.639 265.75 223.414C266.363 222.026 264.738 212.259 262.763 203.406C262.744 203.325 262.742 203.242 262.756 203.161C262.77 203.079 262.8 203.001 262.844 202.932C262.888 202.862 262.945 202.802 263.013 202.754C263.081 202.707 263.157 202.673 263.238 202.656L269.15 201.28C269.306 201.245 269.469 201.271 269.606 201.352C269.743 201.434 269.844 201.564 269.888 201.718C270.675 204.469 277.388 228.729 274.025 233.368C273.038 234.719 271.063 235.444 268.163 235.544L267.5 235.556ZM249.35 219.75C248.452 220.986 247.989 222.486 248.034 224.013C248.08 225.541 248.63 227.01 249.6 228.191C252.263 231.355 261.775 234.443 268.1 234.293C270.6 234.206 272.275 233.631 273.013 232.63C275.513 229.204 270.988 210.359 268.838 202.618L264.113 203.719C267.013 216.849 267.763 223.839 266.338 224.502C264.513 225.265 253.375 221.288 249.3 219.75H249.35Z" fill="#231F20"/>
<path d="M238.863 126.975L319.925 170.055C296.3 214.56 240.275 231.705 195.788 208.07C151.3 184.436 134.163 128.375 157.788 83.8823C181.413 39.3893 237.463 22.2323 281.938 45.8669C296.935 53.8393 309.427 65.8172 318.025 80.4684L238.863 126.975Z" fill="white"/>
<path d="M238.426 219.362C218.721 219.327 199.551 212.953 183.747 201.18C167.943 189.407 156.344 172.861 150.663 153.986C144.051 132.349 145.608 109.036 155.039 88.4707C164.469 67.9057 181.118 51.519 201.825 42.4197C222.532 33.3204 245.857 32.1415 267.376 39.1067C288.894 46.0719 307.109 60.6965 318.563 80.206C318.605 80.2763 318.633 80.3544 318.645 80.4356C318.656 80.5168 318.651 80.5995 318.63 80.6788C318.609 80.7581 318.573 80.8324 318.522 80.8973C318.472 80.9621 318.41 81.0162 318.338 81.0564L240.138 126.987L320.226 169.505C320.371 169.584 320.481 169.718 320.53 169.877C320.579 170.035 320.564 170.207 320.488 170.355C314.806 181.084 307.052 190.577 297.675 198.286C288.298 205.994 277.485 211.764 265.863 215.261C256.972 217.986 247.724 219.369 238.426 219.362V219.362ZM239.313 35.8381C230.135 35.8454 221.009 37.2236 212.238 39.9272C197.981 44.3336 185.027 52.1796 174.515 62.7741C164.003 73.3686 156.257 86.3865 151.958 100.681C147.659 114.976 146.94 130.109 149.864 144.747C152.788 159.385 159.265 173.079 168.725 184.623C178.185 196.168 190.338 205.207 204.113 210.947C217.887 216.686 232.861 218.949 247.716 217.535C262.57 216.122 276.849 211.076 289.295 202.842C301.742 194.608 311.973 183.439 319.088 170.318L238.563 127.525C238.465 127.473 238.384 127.396 238.326 127.301C238.269 127.207 238.239 127.098 238.238 126.987C238.237 126.875 238.265 126.763 238.32 126.665C238.375 126.566 238.454 126.483 238.551 126.425L317.176 80.206C308.637 65.914 296.346 54.2365 281.638 46.4424C268.613 39.4881 254.077 35.8463 239.313 35.8381V35.8381Z" fill="#231F20"/>
<path d="M185.125 198.516C183.513 200.355 176.763 205.719 176.763 205.719C176.763 205.719 164.875 228.591 159.263 228.591C153.65 228.591 126.313 213.41 126.313 213.41C126.313 213.41 123.238 210.509 126.313 205.219C129.388 199.93 155.563 215.836 155.563 215.836L170.838 200.517C170.838 200.517 172.188 196.441 172.45 194.89C172.713 193.339 172.525 189.888 174.15 190.351C175.775 190.813 174.713 195.94 174.713 195.94C174.713 195.94 180.163 189.3 182.038 191.426C183.913 193.552 186.713 196.678 185.125 198.516Z" fill="white"/>
<path d="M159.288 229.216C153.613 229.216 127.163 214.573 126.038 213.96L125.913 213.86C125.775 213.735 122.513 210.559 125.8 204.907C125.992 204.588 126.248 204.312 126.551 204.097C126.854 203.882 127.199 203.732 127.563 203.656C133.575 202.118 152.35 213.147 155.5 215.036L170.325 200.255C170.55 199.517 171.638 196.178 171.85 194.852C171.85 194.527 171.938 194.127 171.975 193.689C172.1 192.189 172.225 190.638 173.113 190C173.293 189.876 173.499 189.793 173.715 189.758C173.931 189.723 174.153 189.738 174.363 189.8C175.738 190.163 175.85 192.301 175.7 194.027C177.15 192.514 179.45 190.476 181.1 190.438C181.375 190.436 181.647 190.492 181.899 190.602C182.151 190.712 182.377 190.873 182.563 191.076L182.738 191.263C184.75 193.602 187.525 196.791 185.638 198.992C182.986 201.527 180.207 203.927 177.313 206.182C175.763 209.008 165 229.216 159.288 229.216ZM126.725 212.96C136.163 218.187 155.013 227.966 159.288 227.966C163.563 227.966 172.95 211.709 176.213 205.457C176.249 205.378 176.305 205.309 176.375 205.257C176.45 205.257 183.1 199.904 184.65 198.141C185.838 196.753 183.4 193.927 181.75 192.051L181.588 191.864C181.528 191.79 181.452 191.732 181.364 191.695C181.277 191.658 181.182 191.643 181.088 191.651C179.6 191.651 176.7 194.552 175.225 196.366C175.135 196.47 175.013 196.543 174.877 196.572C174.742 196.602 174.601 196.586 174.475 196.528C174.348 196.469 174.245 196.369 174.182 196.245C174.118 196.12 174.098 195.978 174.125 195.84C174.613 193.477 174.55 191.113 174.013 190.976C173.888 190.976 173.85 190.976 173.838 190.976C173.425 191.263 173.3 192.814 173.225 193.752C173.225 194.215 173.138 194.652 173.088 195.003C172.825 196.578 171.513 200.567 171.463 200.73C171.425 200.82 171.374 200.904 171.313 200.98L156.038 216.286C155.936 216.384 155.805 216.446 155.665 216.462C155.525 216.478 155.383 216.447 155.263 216.374C149.313 212.76 132.763 203.618 127.875 204.894C127.674 204.926 127.482 205.001 127.312 205.113C127.141 205.225 126.997 205.372 126.888 205.544C124.288 209.996 126.363 212.51 126.725 212.91V212.96Z" fill="#231F20"/>
<path d="M146.5 208.208L138.463 221.963C138.463 221.963 124.113 216.286 122.75 211.172C121.388 206.057 124 197.579 127.338 198.479C130.675 199.379 146.5 208.208 146.5 208.208Z" fill="#68E1FD"/>
<path d="M368.663 201.918L356.25 198.642L352.5 173.994L342.913 169.992C342.913 169.992 344.163 202.443 348.513 205.282C356.963 210.884 371.763 212.785 371.763 212.785L368.663 201.918Z" fill="white"/>
<path d="M371.8 213.472H371.713C371.1 213.385 356.713 211.434 348.2 205.819C343.763 202.881 342.463 173.394 342.325 170.03C342.325 169.925 342.35 169.821 342.398 169.728C342.446 169.634 342.515 169.554 342.6 169.492C342.689 169.436 342.789 169.401 342.893 169.39C342.997 169.379 343.102 169.393 343.2 169.43L352.775 173.431C352.875 173.469 352.963 173.533 353.029 173.617C353.095 173.701 353.137 173.801 353.15 173.906L356.825 198.141L368.825 201.318C368.929 201.343 369.025 201.396 369.102 201.47C369.179 201.545 369.234 201.639 369.263 201.743L372.4 212.685C372.424 212.785 372.425 212.889 372.401 212.989C372.377 213.089 372.329 213.182 372.263 213.26C372.206 213.327 372.135 213.381 372.055 213.418C371.975 213.454 371.888 213.473 371.8 213.472V213.472ZM343.625 170.955C344.188 183.873 346 202.856 348.888 204.719C355.9 209.358 367.538 211.484 370.925 212.022L368.163 202.368L356.113 199.179C355.995 199.151 355.888 199.088 355.806 198.999C355.723 198.91 355.669 198.799 355.65 198.679L351.975 174.382L343.625 170.955Z" fill="#231F20"/>
<path d="M421.325 330.445C421.563 331.12 423.825 334.922 423.325 335.659C422.825 336.397 415.625 340.999 417.763 341.687C419.9 342.375 432.188 340.712 432.188 340.712L424.75 321.204L421.325 330.445Z" fill="white"/>
<path d="M419.688 342.475C418.978 342.508 418.268 342.445 417.575 342.287C417.373 342.238 417.188 342.132 417.044 341.981C416.9 341.831 416.802 341.642 416.763 341.437C416.575 340.361 418.013 339.073 421.25 336.572C421.794 336.185 422.315 335.767 422.813 335.322C422.431 334.11 421.924 332.94 421.3 331.833C421.09 331.453 420.902 331.06 420.738 330.657C420.688 330.52 420.688 330.37 420.738 330.232L424.175 321.004C424.215 320.883 424.292 320.778 424.395 320.703C424.499 320.629 424.623 320.59 424.75 320.591V320.591C424.877 320.59 425.001 320.628 425.106 320.699C425.211 320.771 425.292 320.873 425.338 320.991L432.838 340.499C432.87 340.588 432.883 340.682 432.874 340.776C432.866 340.87 432.837 340.961 432.789 341.043C432.741 341.124 432.676 341.194 432.598 341.247C432.52 341.3 432.431 341.335 432.338 341.349C431.25 341.474 423.75 342.475 419.688 342.475ZM418.038 341.112C419.738 341.499 426.575 340.812 431.325 340.199L424.763 322.979L422 330.482L422.413 331.308C423.775 334.009 424.313 335.322 423.863 336.047C423.313 336.651 422.687 337.18 422 337.623C420.538 338.614 419.207 339.787 418.038 341.112V341.112Z" fill="#231F20"/>
<path d="M386.663 326.668C386.663 326.668 390.925 338.948 390.2 339.236C389.475 339.524 371.45 343.675 372.238 342.575C373.025 341.474 381.425 337.085 381.525 337.573C381.625 338.061 380.388 331.608 380.388 331.608L386.663 326.668Z" fill="white"/>
<path d="M372.775 343.275C372.225 343.275 371.85 343.213 371.738 343.063C371.655 342.936 371.611 342.788 371.611 342.637C371.611 342.486 371.655 342.339 371.738 342.212C372.375 341.312 378.5 337.823 380.85 337.073C380.625 336.16 380.313 334.572 379.788 331.758C379.764 331.645 379.772 331.528 379.812 331.419C379.852 331.311 379.921 331.216 380.013 331.145L386.263 326.143C386.342 326.083 386.433 326.041 386.531 326.021C386.628 326.002 386.729 326.005 386.825 326.031C386.921 326.059 387.008 326.111 387.08 326.18C387.152 326.25 387.206 326.336 387.238 326.431C391.7 339.261 391.05 339.524 390.425 339.774C390.3 339.874 376.75 343.275 372.775 343.275ZM381.288 338.211C378.744 339.283 376.29 340.558 373.95 342.025C377.8 341.487 387.55 339.349 389.65 338.748C388.782 335.003 387.684 331.316 386.363 327.706L381.075 331.895C381.3 333.146 382.038 336.998 382.125 337.448C382.155 337.615 382.12 337.787 382.027 337.929C381.934 338.071 381.79 338.172 381.625 338.211C381.5 338.261 381.388 338.286 381.25 338.211H381.288ZM381.013 337.71H380.913C380.928 337.791 380.961 337.867 381.008 337.934C381.056 338.001 381.117 338.057 381.188 338.098C381.112 337.977 381.053 337.847 381.013 337.71V337.71Z" fill="#231F20"/>
<path d="M379.9 254.352C379.9 254.352 367.3 280.412 367.138 288.666C366.975 296.919 377.775 331.633 377.775 331.633L388.75 329.807C388.75 329.807 380.563 295.118 381.8 291.492C383.038 287.865 392.5 264.531 392.5 264.531C392.5 264.531 396.25 284.539 398.863 291.904C401.475 299.27 418.225 330.883 418.225 330.883L429.725 328.669C429.725 328.669 414.488 293.317 413.925 287.215C413.363 281.112 410.363 248.449 410.363 248.449L379.9 254.352Z" fill="#231F20"/>
<path d="M377.775 332.258C377.642 332.259 377.511 332.217 377.403 332.138C377.295 332.059 377.215 331.948 377.175 331.821C376.738 330.395 366.363 296.919 366.513 288.653C366.663 280.387 378.825 255.152 379.338 254.077C379.381 253.989 379.445 253.913 379.523 253.854C379.601 253.796 379.692 253.756 379.788 253.739L410.238 247.887C410.324 247.867 410.414 247.867 410.5 247.887C410.587 247.906 410.668 247.945 410.738 247.999C410.806 248.051 410.863 248.117 410.904 248.192C410.945 248.268 410.969 248.351 410.975 248.437L414.538 287.202C415.088 293.142 430.15 328.119 430.3 328.469C430.34 328.553 430.361 328.645 430.361 328.738C430.361 328.831 430.34 328.923 430.3 329.007C430.257 329.088 430.196 329.159 430.123 329.215C430.05 329.271 429.965 329.311 429.875 329.332L418.338 331.558C418.205 331.584 418.068 331.566 417.946 331.508C417.825 331.449 417.725 331.353 417.663 331.233C416.988 329.982 400.913 299.52 398.275 292.179C396.125 286.177 393.275 272.171 392.275 266.807C389.975 272.509 383.413 288.803 382.413 291.817C381.538 294.318 386.1 315.914 389.375 329.795C389.395 329.878 389.397 329.964 389.382 330.048C389.367 330.131 389.335 330.211 389.288 330.282C389.238 330.353 389.175 330.412 389.102 330.457C389.029 330.502 388.948 330.532 388.863 330.545L377.875 332.371L377.775 332.258ZM380.275 254.902C378.925 257.741 367.863 281.163 367.713 288.666C367.563 296.169 376.813 326.556 378.163 330.92L387.95 329.295C386.613 323.58 379.963 294.793 381.175 291.267C382.388 287.74 391.488 265.244 391.863 264.281C391.916 264.156 392.008 264.052 392.125 263.985C392.243 263.917 392.379 263.889 392.513 263.906C392.647 263.917 392.773 263.972 392.872 264.063C392.972 264.153 393.039 264.274 393.063 264.406C393.063 264.606 396.813 284.414 399.4 291.692C401.9 298.482 416.538 326.443 418.513 330.17L428.8 328.182C426.575 323.004 413.8 292.98 413.25 287.252C412.7 281.525 410.188 253.964 409.75 249.225L380.275 254.902Z" fill="#231F20"/>
<path d="M386.688 207.92L357.375 196.853L358.313 212.36L381.588 222.664L386.688 207.92Z" fill="#68E1FD"/>
<path d="M378.438 210.371C379.313 209.121 397.413 205.019 402.888 209.559C408.363 214.098 412.038 246.173 412.888 256.077L377.263 258.653C377.263 258.653 373.6 216.962 378.438 210.371Z" fill="#68E1FD"/>
<path d="M376.975 255.79C376.82 255.787 376.671 255.727 376.558 255.62C376.445 255.514 376.375 255.369 376.363 255.214C376.263 254.027 374.113 226.115 375.7 219.212C375.718 219.132 375.751 219.055 375.799 218.988C375.846 218.92 375.906 218.863 375.976 218.818C376.046 218.774 376.124 218.744 376.205 218.73C376.286 218.716 376.37 218.719 376.45 218.737C376.53 218.755 376.606 218.788 376.673 218.836C376.741 218.884 376.797 218.944 376.841 219.014C376.884 219.084 376.912 219.162 376.925 219.244C376.937 219.325 376.933 219.408 376.913 219.488C375.375 226.203 377.588 254.827 377.6 255.114C377.607 255.197 377.598 255.279 377.572 255.358C377.547 255.436 377.507 255.509 377.453 255.572C377.4 255.635 377.334 255.686 377.261 255.724C377.187 255.761 377.107 255.783 377.025 255.79H376.975Z" fill="#231F20"/>
<path d="M396.5 204.294C398.271 204.881 400.169 204.972 401.988 204.556C402.813 204.391 403.568 203.976 404.15 203.368C404.434 203.06 404.61 202.667 404.651 202.249C404.691 201.832 404.595 201.412 404.375 201.055C404.839 201.051 405.294 200.936 405.703 200.718C406.113 200.5 406.463 200.187 406.725 199.804C407.257 199.049 407.572 198.163 407.638 197.241C407.756 196.655 407.723 196.049 407.542 195.48C407.36 194.911 407.036 194.398 406.6 193.99C407.475 193.477 408.438 192.827 408.6 191.826C408.653 191.317 408.585 190.803 408.4 190.326C408.072 189.363 407.654 188.433 407.15 187.549C406.9 187.087 406.513 186.562 405.975 186.587C406.286 185.666 406.333 184.678 406.112 183.732C405.891 182.787 405.411 181.922 404.725 181.234C404.055 180.549 403.175 180.109 402.225 179.984C401.212 180.014 400.204 180.135 399.213 180.347C398.67 179.734 397.992 179.257 397.232 178.953C396.473 178.649 395.653 178.526 394.838 178.596C394.208 178.736 393.627 179.041 393.154 179.481C392.682 179.921 392.335 180.478 392.15 181.097C391.01 181.001 389.862 181.154 388.788 181.547C388.254 181.748 387.771 182.063 387.374 182.472C386.976 182.88 386.674 183.372 386.488 183.91C386.322 184.459 386.344 185.047 386.55 185.581C386.756 186.116 387.135 186.566 387.625 186.862C386.975 187.005 386.399 187.382 386.008 187.921C385.616 188.461 385.436 189.125 385.5 189.788C385.593 190.447 385.88 191.064 386.326 191.559C386.771 192.053 387.354 192.403 388 192.564C388.186 192.583 388.363 192.652 388.513 192.764C388.66 192.945 388.759 193.16 388.8 193.389C389.038 194.09 389.713 194.365 390.05 194.952C390.472 195.84 390.823 196.76 391.1 197.704C391.447 198.584 391.844 199.444 392.288 200.28C392.671 201.283 393.152 202.247 393.725 203.156C394.325 203.881 394.975 203.831 395.813 204.094L396.5 204.294Z" fill="white"/>
<path d="M399.838 205.444C398.647 205.423 397.466 205.238 396.325 204.894V204.894L395.663 204.707C395.475 204.644 395.288 204.607 395.125 204.569C394.41 204.466 393.757 204.106 393.288 203.556C392.825 202.938 392.454 202.255 392.188 201.53C392.067 201.205 391.925 200.887 391.763 200.58C391.375 199.805 390.913 198.879 390.513 197.941C390.4 197.654 390.3 197.329 390.2 197.003C390.03 196.41 389.8 195.836 389.513 195.29C389.383 195.103 389.227 194.934 389.05 194.79C388.668 194.473 388.371 194.064 388.188 193.602V193.452C388.171 193.379 388.146 193.307 388.113 193.239H387.938C387.154 193.055 386.444 192.637 385.902 192.041C385.359 191.445 385.01 190.699 384.9 189.901C384.846 189.276 384.964 188.648 385.242 188.086C385.52 187.523 385.946 187.048 386.475 186.712C386.163 186.302 385.95 185.826 385.853 185.321C385.755 184.815 385.776 184.294 385.913 183.798C386.122 183.165 386.47 182.586 386.93 182.104C387.391 181.622 387.953 181.248 388.575 181.01C389.589 180.63 390.669 180.46 391.75 180.509C392.015 179.885 392.423 179.333 392.943 178.899C393.462 178.464 394.077 178.159 394.738 178.008C395.598 177.923 396.467 178.028 397.282 178.318C398.096 178.608 398.837 179.074 399.45 179.684C400.403 179.502 401.369 179.402 402.338 179.384C403.427 179.543 404.433 180.057 405.2 180.847C405.897 181.534 406.41 182.386 406.692 183.323C406.973 184.261 407.015 185.254 406.813 186.212C407.22 186.484 407.548 186.859 407.763 187.3C408.264 188.219 408.682 189.182 409.013 190.176C409.238 190.747 409.32 191.366 409.25 191.976C409.14 192.433 408.938 192.863 408.657 193.239C408.375 193.615 408.02 193.93 407.613 194.165C408.221 195.109 408.462 196.244 408.288 197.354C408.211 198.389 407.852 199.384 407.25 200.23C406.76 200.881 406.071 201.355 405.288 201.58C405.344 201.971 405.317 202.37 405.207 202.75C405.097 203.129 404.907 203.481 404.65 203.781C403.984 204.493 403.108 204.975 402.15 205.157C401.395 205.352 400.618 205.448 399.838 205.444V205.444ZM396.663 203.694C398.334 204.239 400.122 204.325 401.838 203.944C402.536 203.816 403.178 203.475 403.675 202.968C403.864 202.765 403.985 202.507 404.021 202.231C404.057 201.956 404.006 201.676 403.875 201.43C403.812 201.331 403.778 201.216 403.778 201.099C403.778 200.981 403.812 200.866 403.875 200.768C403.923 200.658 404.005 200.568 404.109 200.509C404.212 200.45 404.332 200.427 404.45 200.442C404.809 200.429 405.159 200.334 405.475 200.165C405.791 199.996 406.065 199.757 406.275 199.467C406.744 198.805 407.021 198.026 407.075 197.216C407.075 196.766 407.2 195.228 406.275 194.553C406.193 194.49 406.128 194.408 406.084 194.314C406.041 194.221 406.02 194.118 406.025 194.015C406.029 193.911 406.058 193.81 406.111 193.721C406.163 193.631 406.237 193.556 406.325 193.502C407.088 193.052 407.913 192.502 408.038 191.764C408.079 191.338 408.014 190.909 407.85 190.513C407.548 189.593 407.163 188.701 406.7 187.85C406.438 187.375 406.263 187.225 406.1 187.212C405.997 187.222 405.893 187.203 405.8 187.157C405.707 187.11 405.629 187.038 405.575 186.949C405.512 186.867 405.471 186.77 405.456 186.667C405.44 186.564 405.451 186.459 405.488 186.362C405.754 185.553 405.789 184.685 405.591 183.857C405.392 183.029 404.967 182.273 404.363 181.672C403.784 181.076 403.023 180.689 402.2 180.572C401.913 180.572 400.025 180.772 399.575 180.872C399.45 180.945 399.302 180.97 399.16 180.942C399.017 180.915 398.89 180.836 398.8 180.722C398.33 180.202 397.748 179.794 397.1 179.528C396.451 179.262 395.751 179.144 395.05 179.184C394.532 179.297 394.054 179.547 393.665 179.908C393.276 180.268 392.99 180.727 392.838 181.235C392.801 181.37 392.719 181.488 392.605 181.57C392.491 181.652 392.353 181.693 392.213 181.685C391.163 181.586 390.104 181.723 389.113 182.085C388.666 182.249 388.262 182.51 387.929 182.849C387.596 183.189 387.343 183.598 387.188 184.048C387.06 184.457 387.071 184.896 387.218 185.299C387.364 185.701 387.639 186.044 388 186.274C388.113 186.336 388.204 186.432 388.261 186.548C388.318 186.664 388.337 186.794 388.317 186.922C388.296 187.049 388.237 187.167 388.146 187.259C388.056 187.352 387.94 187.414 387.813 187.437C387.322 187.56 386.891 187.855 386.598 188.267C386.304 188.68 386.168 189.184 386.213 189.688C386.292 190.22 386.529 190.716 386.892 191.112C387.255 191.509 387.728 191.788 388.25 191.914C388.533 191.967 388.799 192.087 389.025 192.264C389.232 192.481 389.378 192.748 389.45 193.039C389.556 193.348 389.752 193.619 390.013 193.815C390.276 194.041 390.507 194.302 390.7 194.59C391.035 195.219 391.303 195.881 391.5 196.566C391.6 196.878 391.688 197.166 391.8 197.441C392.137 198.296 392.521 199.131 392.95 199.942C393.125 200.28 393.275 200.63 393.425 200.993C393.641 201.604 393.944 202.181 394.325 202.706C394.619 203.041 395.032 203.247 395.475 203.281L396.113 203.444L396.738 203.631L396.663 203.694Z" fill="#231F20"/>
<path d="M388.175 193.402C388.175 193.402 384.588 196.416 384.863 197.341C385.138 198.266 387 198.266 387 198.266" fill="white"/>
<path d="M386.988 198.892C386.725 198.892 384.663 198.892 384.263 197.516C384 196.641 385.175 195.103 387.775 192.927C387.837 192.873 387.909 192.832 387.987 192.807C388.065 192.782 388.147 192.772 388.228 192.779C388.31 192.786 388.389 192.81 388.462 192.848C388.534 192.886 388.598 192.938 388.65 193.002C388.756 193.13 388.807 193.295 388.793 193.461C388.779 193.627 388.701 193.781 388.575 193.89C387.338 194.8 386.286 195.937 385.475 197.241C385.538 197.429 386.35 197.641 387 197.641C387.166 197.641 387.325 197.707 387.442 197.824C387.559 197.941 387.625 198.101 387.625 198.266C387.625 198.432 387.559 198.591 387.442 198.708C387.325 198.826 387.166 198.892 387 198.892H386.988Z" fill="#231F20"/>
<path d="M391.413 185.461C391.134 185.518 390.886 185.673 390.713 185.899C390.06 186.633 389.547 187.481 389.2 188.4C388.47 190.224 387.852 192.09 387.35 193.99C386.625 196.491 385.963 198.992 385.363 201.493C384.975 203.093 389.038 204.356 389.9 204.094L387.4 210.134C387.4 210.134 389.188 211.259 392.938 210.709C396.688 210.159 396.95 209.396 396.95 209.396L398.825 202.131C397.928 201.769 397.145 201.171 396.56 200.401C395.975 199.63 395.608 198.715 395.5 197.754C395.5 197.095 395.442 196.438 395.325 195.79C395.05 195.128 394.438 194.828 394.338 194.027C394.291 193.659 394.332 193.286 394.455 192.936C394.579 192.586 394.783 192.271 395.05 192.014C395.175 191.901 395.313 191.764 395.275 191.614C395.243 191.522 395.182 191.443 395.1 191.389C394.72 191.007 394.507 190.49 394.507 189.951C394.507 189.412 394.72 188.895 395.1 188.513C394.075 188.2 393.7 186.962 393.475 185.911C393.55 186.237 391.838 185.499 391.813 185.499C391.683 185.46 391.547 185.447 391.413 185.461V185.461Z" fill="white"/>
<path d="M390.988 211.572C389.636 211.642 388.288 211.362 387.075 210.759C386.95 210.679 386.856 210.558 386.811 210.416C386.765 210.275 386.77 210.122 386.825 209.984L388.975 204.781C387.666 204.572 386.434 204.024 385.4 203.193C385.139 202.992 384.94 202.721 384.825 202.411C384.71 202.102 384.684 201.766 384.75 201.443C385.363 198.942 386 196.441 386.75 193.94L386.9 193.414C387.368 191.667 387.944 189.95 388.625 188.275C388.994 187.257 389.554 186.319 390.275 185.511C390.544 185.191 390.915 184.975 391.325 184.898V184.898C391.524 184.862 391.727 184.862 391.925 184.898L392.1 184.961C392.453 185.116 392.817 185.245 393.188 185.349H393.325C393.406 185.33 393.489 185.329 393.571 185.344C393.652 185.358 393.729 185.39 393.798 185.435C393.867 185.481 393.926 185.54 393.971 185.609C394.017 185.678 394.048 185.755 394.063 185.836C394.25 186.712 394.55 187.75 395.313 187.962C395.419 187.994 395.514 188.053 395.589 188.135C395.664 188.216 395.715 188.317 395.738 188.425C395.761 188.533 395.756 188.645 395.723 188.75C395.69 188.855 395.631 188.95 395.55 189.025C395.297 189.286 395.155 189.636 395.155 190.001C395.155 190.365 395.297 190.715 395.55 190.976C395.733 191.107 395.865 191.297 395.925 191.514C395.957 191.701 395.936 191.893 395.865 192.07C395.795 192.246 395.677 192.4 395.525 192.514C395.329 192.705 395.18 192.938 395.089 193.197C394.997 193.455 394.967 193.73 395 194.002C395.063 194.287 395.206 194.547 395.413 194.752C395.63 195.01 395.811 195.296 395.95 195.603C396.097 196.054 396.156 196.53 396.125 197.003C396.106 197.236 396.106 197.471 396.125 197.704C396.201 198.568 396.511 199.395 397.022 200.096C397.533 200.796 398.226 201.344 399.025 201.68C399.181 201.724 399.313 201.827 399.392 201.968C399.472 202.108 399.493 202.275 399.45 202.431L397.588 209.708C397.388 210.271 396.463 210.959 393.063 211.484C392.374 211.565 391.681 211.594 390.988 211.572V211.572ZM388.213 209.896C389.717 210.366 391.312 210.465 392.863 210.184C394.101 210.124 395.31 209.787 396.4 209.196L398.1 202.581C397.228 202.105 396.481 201.428 395.923 200.606C395.364 199.784 395.009 198.84 394.888 197.854C394.841 197.556 394.82 197.255 394.825 196.953C394.847 196.638 394.818 196.321 394.738 196.015C394.646 195.818 394.528 195.633 394.388 195.465C394.034 195.082 393.8 194.604 393.713 194.09C393.659 193.651 393.702 193.206 393.841 192.787C393.979 192.367 394.209 191.984 394.513 191.664C394.096 191.19 393.865 190.582 393.863 189.95C393.857 189.517 393.956 189.088 394.15 188.7C393.54 188.124 393.125 187.372 392.963 186.549C392.511 186.426 392.068 186.271 391.638 186.086C391.588 186.078 391.537 186.078 391.488 186.086C391.425 186.086 391.338 186.174 391.15 186.349C390.553 187.052 390.087 187.857 389.775 188.725C389.116 190.355 388.56 192.026 388.113 193.727L387.95 194.265C387.238 196.766 386.563 199.267 385.963 201.768C385.963 201.918 386.05 202.093 386.225 202.293C387.225 203.09 388.449 203.554 389.725 203.619C389.84 203.594 389.959 203.599 390.071 203.634C390.182 203.669 390.283 203.733 390.363 203.819C390.441 203.903 390.493 204.008 390.512 204.121C390.532 204.234 390.52 204.35 390.475 204.456L388.213 209.896Z" fill="#231F20"/>
<path d="M394.25 195.928C394.517 195.323 394.95 194.806 395.5 194.44C395.87 194.089 396.292 193.798 396.751 193.577C396.979 193.469 397.229 193.413 397.482 193.413C397.735 193.413 397.984 193.469 398.213 193.577C398.406 193.69 398.573 193.844 398.703 194.027C398.832 194.211 398.921 194.419 398.963 194.64C399.036 195.081 399.015 195.533 398.901 195.965C398.664 196.915 398.182 197.785 397.501 198.488C396.821 199.19 395.967 199.701 395.025 199.967L395.213 199.854" fill="white"/>
<path d="M395 200.58C394.878 200.58 394.759 200.545 394.657 200.478C394.554 200.412 394.474 200.317 394.425 200.205C394.369 200.065 394.363 199.91 394.409 199.766C394.455 199.622 394.549 199.499 394.675 199.417L394.875 199.304C394.983 199.237 395.112 199.211 395.238 199.229C395.979 198.943 396.641 198.483 397.169 197.89C397.697 197.296 398.076 196.585 398.275 195.815C398.354 195.47 398.354 195.111 398.275 194.765C398.254 194.632 398.203 194.504 398.128 194.392C398.052 194.28 397.953 194.185 397.838 194.115C397.695 194.048 397.539 194.013 397.382 194.013C397.224 194.013 397.068 194.048 396.925 194.115C396.529 194.312 396.167 194.569 395.85 194.878C395.397 195.189 395.042 195.622 394.825 196.128C394.769 196.28 394.657 196.404 394.511 196.475C394.366 196.545 394.199 196.557 394.045 196.506C393.891 196.456 393.763 196.348 393.687 196.206C393.611 196.063 393.593 195.896 393.638 195.74C393.919 195.044 394.392 194.442 395 194.002C395.41 193.611 395.878 193.286 396.388 193.039C396.702 192.888 397.046 192.809 397.394 192.809C397.743 192.809 398.086 192.888 398.4 193.039C398.671 193.197 398.906 193.409 399.089 193.664C399.272 193.918 399.399 194.208 399.463 194.515C399.559 195.051 399.538 195.601 399.4 196.128C399.137 197.187 398.599 198.156 397.839 198.938C397.079 199.72 396.125 200.287 395.075 200.58H395Z" fill="#231F20"/>
<path d="M389.9 204.181C391.239 204.156 392.541 203.743 393.65 202.993C393.65 202.993 392.4 206.745 388.8 206.87L389.9 204.181Z" fill="#231F20"/>
<path d="M388.75 207.495C388.65 207.494 388.552 207.469 388.463 207.424C388.374 207.378 388.297 207.313 388.238 207.232C388.181 207.144 388.147 207.044 388.136 206.94C388.125 206.835 388.138 206.73 388.175 206.632L389.288 203.944C389.335 203.829 389.414 203.732 389.517 203.663C389.619 203.594 389.739 203.557 389.863 203.556C391.051 203.535 392.209 203.174 393.2 202.518C393.309 202.439 393.44 202.396 393.575 202.396C393.71 202.396 393.841 202.439 393.95 202.518C394.063 202.594 394.148 202.705 394.191 202.834C394.234 202.963 394.233 203.102 394.188 203.231C394.125 203.406 392.738 207.395 388.775 207.533L388.75 207.495ZM390.3 204.781L389.75 206.032C390.675 205.745 391.488 205.177 392.075 204.406C391.51 204.587 390.928 204.713 390.338 204.781H390.3Z" fill="#231F20"/>
<path d="M390.963 191.974C391.091 191.479 391.037 191.038 390.843 190.988C390.649 190.938 390.389 191.298 390.261 191.793C390.133 192.287 390.187 192.729 390.381 192.779C390.575 192.829 390.835 192.469 390.963 191.974Z" fill="#231F20"/>
<path d="M387.975 200.804C387.616 200.813 387.258 200.75 386.923 200.62C386.589 200.489 386.283 200.292 386.025 200.042C385.963 199.983 385.913 199.912 385.879 199.834C385.845 199.755 385.827 199.67 385.827 199.584C385.827 199.499 385.845 199.414 385.879 199.335C385.914 199.257 385.964 199.186 386.026 199.128C386.089 199.069 386.163 199.025 386.244 198.996C386.325 198.967 386.41 198.956 386.496 198.962C386.581 198.968 386.665 198.991 386.741 199.031C386.817 199.07 386.884 199.125 386.938 199.192C387.038 199.292 387.925 200.104 389.625 198.967C389.763 198.876 389.931 198.844 390.093 198.876C390.254 198.909 390.396 199.005 390.488 199.142C390.534 199.209 390.567 199.286 390.583 199.366C390.599 199.446 390.599 199.529 390.583 199.61C390.567 199.69 390.534 199.767 390.488 199.834C390.442 199.902 390.382 199.96 390.313 200.004C389.634 200.504 388.818 200.783 387.975 200.804V200.804Z" fill="#231F20"/>
<path d="M358.875 188.925L358.65 189.213L284.525 135.053L369.288 99.7639C375.313 114.277 377.52 130.093 375.697 145.702C373.874 161.311 368.082 176.192 358.875 188.925V188.925Z" fill="white"/>
<path d="M358.65 189.838C358.521 189.837 358.395 189.798 358.288 189.725L284.163 135.553C284.073 135.489 284.003 135.401 283.958 135.3C283.914 135.199 283.899 135.088 283.913 134.978C283.926 134.868 283.968 134.763 284.033 134.673C284.099 134.583 284.187 134.512 284.288 134.465L369.038 99.1761C369.194 99.1141 369.369 99.1141 369.525 99.1761C369.677 99.2407 369.798 99.3617 369.863 99.5138C375.882 114.139 378.078 130.057 376.243 145.766C374.408 161.475 368.603 176.458 359.375 189.3L359.15 189.6C359.092 189.677 359.016 189.739 358.929 189.78C358.842 189.822 358.746 189.841 358.65 189.838V189.838ZM285.8 135.153L358.525 188.3C367.503 175.728 373.165 161.093 374.987 145.75C376.81 130.408 374.733 114.853 368.95 100.527L285.8 135.153Z" fill="#231F20"/>
<path d="M401.7 213.535C401.7 213.535 374.05 202.781 372.837 199.905C371.887 197.679 372.112 194.64 371.787 192.289C371.275 188.612 371.362 184.936 370.537 181.259C370.421 180.853 370.4 180.425 370.475 180.009C370.588 179.669 370.766 179.355 371 179.084C371.45 178.421 374.237 173.606 371.9 173.731C371.65 173.778 371.425 173.911 371.262 174.107C370.962 174.419 370.012 175.357 370.012 175.357C369.853 173.811 369.59 172.278 369.225 170.768C369.002 170.117 368.538 169.576 367.93 169.255C367.321 168.934 366.613 168.858 365.95 169.042C365.303 169.148 364.694 169.415 364.178 169.82C363.662 170.224 363.257 170.752 363 171.355C362.896 171.84 362.867 172.338 362.912 172.831C363.262 176.246 363.349 179.682 363.175 183.11C362.786 186.11 362.553 189.128 362.475 192.151C362.442 195.225 362.584 198.298 362.9 201.355C363.137 203.318 363.337 205.919 364.662 207.508C368.125 211.697 391.938 225.69 398.413 222.689C404.888 219.688 401.7 213.535 401.7 213.535Z" fill="white"/>
<path d="M396.15 223.702C391.538 223.702 384.45 220.5 380.15 218.324C373.1 214.748 366.1 210.159 364.213 207.883C362.875 206.257 362.6 203.806 362.375 201.843V201.405C362.053 198.323 361.906 195.225 361.938 192.126C361.989 189.458 362.185 186.795 362.525 184.148L362.638 183.023C362.831 180.633 362.806 178.23 362.563 175.845C362.488 174.857 362.413 173.844 362.375 172.831C362.322 172.274 362.36 171.712 362.488 171.168C362.773 170.455 363.237 169.828 363.834 169.346C364.432 168.864 365.143 168.544 365.9 168.417C366.704 168.198 367.561 168.29 368.3 168.675C369.039 169.059 369.606 169.708 369.888 170.493C370.217 171.642 370.443 172.817 370.563 174.007L370.925 173.644C371.188 173.333 371.559 173.132 371.963 173.081C372.235 173.038 372.514 173.08 372.762 173.201C373.011 173.322 373.216 173.516 373.35 173.756C374.25 175.382 371.638 179.384 371.6 179.421C371.427 179.643 371.284 179.887 371.175 180.147C371.129 180.473 371.154 180.806 371.25 181.122C371.659 183.294 371.918 185.492 372.025 187.7C372.138 189.175 372.25 190.713 372.45 192.201C372.563 193.002 372.613 193.84 372.663 194.702C372.657 196.373 372.927 198.034 373.463 199.617C374.225 201.43 390.6 208.495 401.975 212.922C402.119 212.975 402.238 213.077 402.313 213.21C403.194 215.028 403.377 217.106 402.825 219.05C402.472 219.986 401.927 220.837 401.225 221.55C400.523 222.263 399.68 222.821 398.75 223.189C397.933 223.554 397.045 223.729 396.15 223.702V223.702ZM366.738 169.555C366.531 169.556 366.326 169.581 366.125 169.63C365.588 169.716 365.079 169.931 364.643 170.258C364.208 170.585 363.858 171.013 363.625 171.506C363.543 171.917 363.522 172.338 363.563 172.756C363.563 173.756 363.675 174.744 363.738 175.732C363.986 178.192 364.015 180.67 363.825 183.135L363.7 184.261C363.365 186.862 363.173 189.479 363.125 192.101C363.089 195.15 363.231 198.198 363.55 201.23V201.668C363.763 203.481 364.013 205.719 365.113 207.057C368.713 211.422 392.125 224.84 398.113 222.063C398.887 221.762 399.59 221.303 400.177 220.715C400.765 220.127 401.224 219.424 401.525 218.65C401.978 217.118 401.88 215.477 401.25 214.01C396.1 211.997 373.5 203.043 372.275 200.117C371.683 198.403 371.379 196.603 371.375 194.79C371.375 193.915 371.288 193.102 371.175 192.289C370.963 190.751 370.85 189.2 370.75 187.7C370.641 185.551 370.39 183.412 370 181.297C369.853 180.789 369.832 180.252 369.938 179.734C370.052 179.355 370.238 179.003 370.488 178.696C371.4 177.445 372.588 174.669 372.213 174.269C372.144 174.247 372.069 174.247 372 174.269C371.914 174.322 371.838 174.389 371.775 174.469L370.525 175.72C370.445 175.804 370.342 175.863 370.229 175.889C370.116 175.916 369.997 175.909 369.888 175.87C369.777 175.827 369.679 175.756 369.605 175.664C369.53 175.572 369.481 175.462 369.463 175.345C369.329 173.861 369.082 172.389 368.725 170.943C368.581 170.532 368.312 170.177 367.955 169.928C367.599 169.679 367.173 169.549 366.738 169.555V169.555Z" fill="#231F20"/>
<path d="M401.1 227.191L378.538 219.35L380.138 200.592C380.138 200.592 401.175 208.42 404.375 212.672C407.575 216.924 409.813 227.991 401.1 227.191Z" fill="#68E1FD"/>
<path d="M402.263 227.978C397.163 227.978 383.401 221.313 381.726 220.475C381.652 220.441 381.586 220.392 381.532 220.331C381.477 220.271 381.436 220.2 381.409 220.123C381.382 220.046 381.371 219.965 381.376 219.884C381.381 219.802 381.402 219.723 381.438 219.65C381.474 219.576 381.524 219.51 381.586 219.455C381.648 219.401 381.719 219.359 381.797 219.332C381.875 219.306 381.957 219.294 382.039 219.3C382.121 219.305 382.202 219.326 382.276 219.362C389.251 222.776 400.501 227.516 402.951 226.628C403.817 226.296 404.536 225.664 404.976 224.847C405.417 224.031 405.549 223.083 405.351 222.176C405.317 222.01 405.351 221.838 405.445 221.697C405.539 221.557 405.685 221.459 405.851 221.426C406.016 221.393 406.188 221.427 406.329 221.52C406.47 221.614 406.567 221.76 406.601 221.926C406.873 223.127 406.698 224.387 406.109 225.469C405.52 226.551 404.557 227.381 403.401 227.803C403.035 227.93 402.65 227.99 402.263 227.978V227.978Z" fill="#231F20"/>
<path d="M251.413 276.536L250.163 279.037C246.763 285.589 244.476 299.532 237.588 305.985C235.088 308.361 211.413 324.818 211.413 324.818L208.338 316.552C208.338 316.552 226.201 298.332 228.051 296.419C230.413 294.005 240.488 259.053 240.488 259.053L251.413 276.536Z" fill="white"/>
<path d="M211.35 325.38C211.288 325.392 211.225 325.392 211.163 325.38C211.07 325.352 210.986 325.302 210.916 325.235C210.846 325.167 210.794 325.084 210.763 324.993L207.75 316.727C207.71 316.616 207.701 316.497 207.725 316.382C207.75 316.267 207.806 316.161 207.888 316.076L227.613 295.943C229.263 294.255 235.85 272.834 239.875 258.841C239.911 258.724 239.98 258.62 240.073 258.54C240.166 258.46 240.279 258.409 240.4 258.391C240.519 258.376 240.639 258.396 240.748 258.446C240.856 258.497 240.948 258.578 241.013 258.678L251.938 276.185C251.99 276.281 252.018 276.389 252.018 276.498C252.018 276.607 251.99 276.715 251.938 276.811L250.688 279.312C249.414 282.047 248.333 284.867 247.45 287.753C245.213 294.455 242.663 302.033 237.975 306.435C235.475 308.811 212.7 324.655 211.725 325.318C211.609 325.375 211.479 325.397 211.35 325.38V325.38ZM209.063 316.627L211.663 323.755C215.513 321.066 234.85 307.498 237.088 305.447C241.563 301.27 244.05 293.842 246.25 287.29C247.145 284.339 248.248 281.456 249.55 278.661L250.688 276.473L240.688 260.479C238.65 267.532 230.688 294.505 228.5 296.744C226.788 298.569 211.325 314.338 209.063 316.652V316.627Z" fill="#231F20"/>
<path d="M208.338 316.552C208.338 316.552 201.525 317.69 201.575 318.703C201.625 319.716 207.05 336.885 209.075 336.21C211.1 335.534 211.35 324.88 211.35 324.88L208.338 316.552Z" fill="#231F20"/>
<path d="M208.95 336.735C208.7 336.727 208.458 336.649 208.25 336.51C205.65 334.772 201 319.478 200.95 318.665C200.95 318.203 200.875 317.102 208.238 315.877C208.381 315.85 208.529 315.876 208.655 315.95C208.781 316.023 208.877 316.139 208.925 316.277L211.938 324.543C211.951 324.621 211.951 324.701 211.938 324.78C211.875 327.356 211.513 335.86 209.25 336.672C209.154 336.71 209.053 336.731 208.95 336.735V336.735ZM202.225 318.753C202.613 320.891 207.338 334.909 208.988 335.485C209.738 335.184 210.588 330.332 210.725 324.868L207.925 317.202C205.964 317.462 204.047 317.983 202.225 318.753V318.753Z" fill="#231F20"/>
<path d="M259.563 271.358C259.563 271.358 259.888 272.384 260.4 274.06C262.613 281.1 268.35 302.509 268.538 305.322C268.763 308.799 257.388 334.009 257.388 334.009L248.75 332.483C248.75 332.483 255.063 305.422 255 302.796C255 299.407 239.45 266.707 239.45 266.707L259.563 271.358Z" fill="white"/>
<path d="M257.388 334.634H257.288L248.625 333.109C248.54 333.097 248.458 333.067 248.387 333.019C248.315 332.971 248.256 332.908 248.213 332.833C248.164 332.763 248.131 332.683 248.116 332.599C248.101 332.515 248.104 332.429 248.125 332.346C249.875 324.843 254.438 304.91 254.375 302.784C254.375 300.408 245.1 280.062 238.888 266.957C238.837 266.852 238.818 266.736 238.831 266.621C238.844 266.506 238.89 266.397 238.963 266.306C239.036 266.215 239.133 266.146 239.244 266.106C239.354 266.066 239.473 266.058 239.588 266.081L259.663 270.758C259.768 270.784 259.865 270.837 259.944 270.911C260.023 270.986 260.081 271.08 260.113 271.183L260.963 273.885C263.088 280.662 268.925 302.296 269.125 305.285C269.35 308.824 259.125 331.683 257.875 334.284C257.83 334.379 257.761 334.46 257.676 334.521C257.591 334.583 257.492 334.621 257.388 334.634ZM249.488 331.983L256.988 333.309C261.525 323.217 268.038 307.761 267.875 305.36C267.7 302.671 262.05 281.6 259.775 274.247L259.038 271.884L240.563 267.582C243.625 274.047 255.563 299.595 255.625 302.759C255.688 305.297 250.475 327.806 249.488 331.983Z" fill="#231F20"/>
<path d="M228.025 197.391C226.189 197.517 224.397 198.019 222.763 198.867C219.913 200.23 217.188 202.481 216.513 205.582C216.206 208.151 216.793 210.748 218.175 212.935C219.552 215.097 220.688 217.403 221.563 219.813C222.25 222.314 221.938 225.265 219.975 226.928C222.62 225.904 225.084 224.465 227.275 222.664C228.565 221.599 229.411 220.092 229.65 218.437C229.634 217.074 229.3 215.734 228.675 214.523C227.746 212.721 227.141 210.77 226.888 208.758C226.769 207.752 226.925 206.733 227.339 205.808C227.753 204.883 228.409 204.088 229.238 203.506C230.763 202.618 235.75 202.693 234.963 199.892C234.4 197.754 229.8 197.328 228.025 197.391Z" fill="white"/>
<path d="M220.001 227.553C219.873 227.552 219.749 227.512 219.646 227.438C219.542 227.365 219.463 227.261 219.419 227.142C219.376 227.022 219.37 226.892 219.402 226.769C219.435 226.646 219.504 226.536 219.6 226.453C221.5 224.84 221.538 221.964 220.988 219.988C220.414 218.228 219.62 216.547 218.625 214.986C218.3 214.411 217.963 213.835 217.65 213.248C216.013 210.196 215.463 207.72 215.926 205.469C216.713 201.605 220.363 199.329 222.463 198.316C224.176 197.433 226.052 196.909 227.976 196.778V196.778C227.976 196.778 234.701 196.553 235.588 199.73C235.687 200.027 235.722 200.342 235.692 200.655C235.662 200.967 235.567 201.269 235.413 201.543C234.726 202.718 232.975 203.131 231.438 203.494C230.799 203.603 230.177 203.797 229.588 204.069C228.86 204.591 228.285 205.3 227.925 206.12C227.564 206.941 227.431 207.843 227.538 208.733C227.776 210.58 228.326 212.373 229.163 214.035L229.263 214.285C229.945 215.585 230.297 217.032 230.288 218.5C230.054 220.318 229.132 221.978 227.713 223.139C225.463 224.989 222.93 226.467 220.213 227.516C220.145 227.54 220.073 227.553 220.001 227.553V227.553ZM228.026 198.016C226.28 198.139 224.578 198.62 223.026 199.429C221.126 200.342 217.838 202.368 217.163 205.682C216.763 207.633 217.275 209.834 218.763 212.61C219.075 213.185 219.401 213.76 219.726 214.335C220.783 215.984 221.624 217.762 222.226 219.625C222.773 221.507 222.68 223.517 221.963 225.34C223.777 224.538 225.461 223.472 226.963 222.176C228.119 221.231 228.892 219.898 229.138 218.425C229.116 217.16 228.799 215.919 228.213 214.798L228.101 214.548C227.203 212.756 226.619 210.823 226.376 208.833C226.25 207.71 226.432 206.574 226.901 205.545C227.369 204.517 228.108 203.635 229.038 202.993C229.737 202.662 230.477 202.427 231.238 202.293C232.488 201.993 234 201.63 234.425 200.918C234.483 200.785 234.513 200.643 234.513 200.499C234.513 200.354 234.483 200.212 234.425 200.08C233.975 198.479 230.063 197.954 228.063 198.041L228.026 198.016Z" fill="#231F20"/>
<path d="M230.25 198.029C229.649 199.077 229.42 200.298 229.6 201.493C229.659 202.296 229.95 203.065 230.438 203.706C230.767 204.068 231.175 204.348 231.63 204.526C232.085 204.704 232.576 204.774 233.063 204.731C233.502 204.722 233.921 204.548 234.238 204.244C234.468 203.96 234.616 203.618 234.663 203.256C235.2 200.742 233.363 193.114 230.25 198.029Z" fill="#231F20"/>
<path d="M232.813 205.369C232.276 205.377 231.744 205.269 231.252 205.054C230.76 204.838 230.321 204.519 229.963 204.119C229.392 203.402 229.048 202.531 228.975 201.618C228.778 200.282 229.043 198.919 229.725 197.754V197.754C230.975 195.753 232.138 195.678 232.863 195.978C234.838 196.778 235.688 201.48 235.275 203.481C235.199 203.942 235.001 204.374 234.7 204.731C234.28 205.158 233.711 205.404 233.113 205.419L232.813 205.369ZM230.775 198.354C230.249 199.283 230.051 200.362 230.213 201.418C230.261 202.097 230.504 202.749 230.913 203.293C231.179 203.578 231.506 203.8 231.87 203.94C232.233 204.081 232.624 204.138 233.013 204.106C233.292 204.098 233.56 203.997 233.775 203.819C233.926 203.618 234.021 203.38 234.05 203.131C234.425 201.38 233.513 197.529 232.4 197.066C231.825 196.853 231.075 197.891 230.775 198.316V198.354Z" fill="#231F20"/>
<path d="M246.638 214.435C246.171 214.944 245.579 215.32 244.92 215.527C244.262 215.733 243.561 215.762 242.888 215.611C241.353 215.395 239.893 214.807 238.638 213.898C236.187 212.176 234.266 209.804 233.089 207.049C231.912 204.294 231.526 201.266 231.975 198.304C232.975 192.314 238.938 186.349 245.363 188.625C246.446 189.018 247.431 189.644 248.247 190.459C249.063 191.273 249.692 192.256 250.088 193.339C250.523 193.195 250.99 193.179 251.434 193.295C251.877 193.41 252.278 193.652 252.588 193.99C254.25 195.64 254.188 197.416 253.3 199.404C251.838 202.681 250.038 205.795 248.725 209.133C248.013 211.072 247.725 213.16 246.638 214.435Z" fill="white"/>
<path d="M243.675 216.274C243.405 216.292 243.133 216.292 242.863 216.274C241.217 216.063 239.652 215.439 238.313 214.46C235.749 212.675 233.741 210.203 232.518 207.327C231.296 204.452 230.908 201.29 231.4 198.204C231.729 196.299 232.455 194.485 233.532 192.879C234.609 191.274 236.012 189.914 237.65 188.888C238.82 188.161 240.14 187.707 241.509 187.56C242.879 187.412 244.264 187.576 245.563 188.037C246.642 188.427 247.632 189.031 248.472 189.813C249.312 190.595 249.985 191.54 250.45 192.589C250.924 192.549 251.4 192.615 251.846 192.781C252.291 192.948 252.694 193.211 253.025 193.552C253.828 194.331 254.347 195.356 254.499 196.465C254.651 197.573 254.427 198.701 253.863 199.667C253.263 201.018 252.613 202.356 251.95 203.656C251.025 205.507 250.075 207.408 249.313 209.358C249.063 209.984 248.863 210.609 248.675 211.259C248.385 212.552 247.836 213.773 247.063 214.848V214.848C246.64 215.323 246.116 215.698 245.53 215.945C244.944 216.192 244.31 216.304 243.675 216.274V216.274ZM242.563 188.763C241.068 188.794 239.609 189.226 238.338 190.013C236.849 190.943 235.571 192.174 234.587 193.628C233.604 195.082 232.935 196.726 232.625 198.454C232.198 201.303 232.571 204.214 233.701 206.864C234.831 209.513 236.674 211.797 239.025 213.46C240.189 214.323 241.552 214.878 242.988 215.073C243.554 215.209 244.145 215.193 244.703 215.026C245.261 214.859 245.764 214.547 246.163 214.123V214.123C246.811 213.172 247.273 212.107 247.525 210.984C247.725 210.321 247.938 209.646 248.2 208.983C248.988 206.995 249.95 205.057 250.875 203.181C251.525 201.93 252.188 200.567 252.775 199.242C253.675 197.229 253.5 195.815 252.188 194.515C251.967 194.268 251.68 194.088 251.362 193.998C251.043 193.907 250.705 193.908 250.388 194.002C250.309 194.039 250.224 194.058 250.138 194.058C250.051 194.058 249.966 194.039 249.888 194.002C249.807 193.969 249.735 193.92 249.674 193.858C249.614 193.795 249.568 193.721 249.538 193.64C249.178 192.641 248.601 191.735 247.849 190.987C247.097 190.238 246.188 189.667 245.188 189.313C244.353 188.971 243.464 188.78 242.563 188.75V188.763Z" fill="#231F20"/>
<path d="M251.401 200.605C251.401 200.605 255.301 203.919 254.988 204.931C254.676 205.944 252.651 205.919 252.651 205.919" fill="white"/>
<path d="M252.675 206.507C252.594 206.507 252.513 206.491 252.438 206.459C252.363 206.428 252.295 206.382 252.238 206.323C252.18 206.265 252.136 206.196 252.106 206.12C252.076 206.044 252.061 205.963 252.063 205.882C252.063 205.716 252.128 205.557 252.246 205.44C252.363 205.323 252.522 205.257 252.688 205.257C253.338 205.257 254.288 205.057 254.4 204.706C253.491 203.299 252.345 202.059 251.013 201.042C250.939 200.994 250.877 200.93 250.83 200.856C250.783 200.781 250.752 200.698 250.74 200.61C250.727 200.523 250.733 200.434 250.758 200.35C250.782 200.265 250.824 200.186 250.88 200.119C250.937 200.052 251.007 199.997 251.087 199.959C251.166 199.92 251.253 199.899 251.341 199.897C251.429 199.894 251.516 199.91 251.597 199.944C251.679 199.978 251.752 200.028 251.813 200.092C253.738 201.73 255.95 203.919 255.563 205.094C255.15 206.507 253.05 206.507 252.675 206.507Z" fill="#231F20"/>
<path d="M253.563 222.964C249.2 223.314 241.713 218.925 241.663 218.762C240.86 215.921 240.201 213.041 239.688 210.134C240.694 209.742 241.571 209.079 242.222 208.218C242.873 207.357 243.273 206.332 243.375 205.257C244.1 201.23 247.813 200.617 249.25 195.34C251.388 196.241 251.75 199.367 252.288 201.305C253.063 204.031 253.763 206.77 254.413 209.534C254.813 211.284 250.363 212.622 249.413 212.335L253.563 222.964Z" fill="white"/>
<path d="M253.125 223.614C248.825 223.614 241.325 219.725 241.075 218.95C240.251 216.07 239.583 213.148 239.075 210.196C239.051 210.043 239.083 209.886 239.166 209.755C239.248 209.624 239.376 209.527 239.525 209.483C240.413 209.123 241.184 208.525 241.755 207.755C242.326 206.986 242.675 206.074 242.763 205.119C243.158 203.322 244.101 201.692 245.463 200.455C246.971 198.992 248.07 197.16 248.65 195.14C248.675 195.055 248.717 194.975 248.775 194.908C248.833 194.84 248.904 194.785 248.985 194.747C249.065 194.71 249.153 194.689 249.242 194.688C249.33 194.687 249.419 194.704 249.5 194.74C251.563 195.615 252.15 198.079 252.625 200.067C252.713 200.43 252.8 200.78 252.9 201.105C253.663 203.844 254.375 206.62 255.013 209.371C255.085 209.714 255.057 210.071 254.933 210.399C254.809 210.726 254.594 211.012 254.313 211.222C253.164 212.135 251.791 212.722 250.338 212.922C251.063 214.798 251.388 215.648 254.088 222.689C254.131 222.776 254.153 222.873 254.153 222.97C254.153 223.068 254.131 223.164 254.088 223.251C254.033 223.333 253.961 223.401 253.877 223.451C253.792 223.501 253.698 223.531 253.6 223.539L253.125 223.614ZM242.2 218.387C243.225 219.075 248.85 222.139 252.65 222.351L248.838 212.585C248.796 212.475 248.785 212.357 248.807 212.242C248.829 212.127 248.883 212.02 248.963 211.934C249.043 211.846 249.147 211.783 249.262 211.752C249.377 211.721 249.499 211.723 249.613 211.759C251.022 211.702 252.377 211.203 253.488 210.334C253.738 210.096 253.838 209.884 253.8 209.696C253.163 206.97 252.45 204.206 251.688 201.493C251.6 201.168 251.513 200.792 251.413 200.405C251.214 198.898 250.59 197.479 249.613 196.316C248.922 198.202 247.82 199.91 246.388 201.318C245.188 202.388 244.35 203.803 243.988 205.369C243.854 206.452 243.457 207.485 242.831 208.379C242.206 209.273 241.371 210 240.4 210.496C240.663 211.947 241.463 216.061 242.2 218.387Z" fill="#231F20"/>
<path d="M253.75 207.545C253.534 207.796 253.267 207.998 252.966 208.136C252.665 208.274 252.338 208.345 252.007 208.345C251.676 208.345 251.348 208.274 251.047 208.136C250.746 207.998 250.479 207.796 250.263 207.545" fill="white"/>
<path d="M251.925 209.008C251.522 208.995 251.126 208.898 250.762 208.724C250.399 208.55 250.075 208.301 249.813 207.995C249.754 207.937 249.708 207.868 249.676 207.792C249.644 207.715 249.628 207.634 249.628 207.551C249.628 207.469 249.644 207.387 249.676 207.311C249.708 207.235 249.754 207.166 249.813 207.108C249.932 206.992 250.091 206.928 250.257 206.928C250.422 206.928 250.581 206.992 250.7 207.108C250.845 207.303 251.033 207.462 251.25 207.57C251.468 207.679 251.708 207.734 251.95 207.733C252.471 207.674 252.955 207.44 253.325 207.07C253.382 207.01 253.449 206.963 253.525 206.93C253.6 206.897 253.681 206.881 253.763 206.881C253.845 206.881 253.926 206.897 254.001 206.93C254.077 206.963 254.144 207.01 254.2 207.07C254.315 207.187 254.379 207.344 254.379 207.508C254.379 207.671 254.315 207.828 254.2 207.945C253.598 208.568 252.789 208.95 251.925 209.02V209.008Z" fill="#231F20"/>
<path d="M249.425 212.36C248.766 212.506 248.084 212.517 247.42 212.392C246.756 212.268 246.124 212.01 245.563 211.634C245.563 211.634 246.925 215.773 250.813 215.936L249.425 212.36Z" fill="#231F20"/>
<path d="M250.813 216.511C246.538 216.324 245.063 211.972 245 211.784C244.959 211.656 244.96 211.517 245.003 211.389C245.045 211.261 245.128 211.15 245.238 211.072C245.346 210.99 245.477 210.947 245.613 210.947C245.748 210.947 245.879 210.99 245.988 211.072C246.472 211.387 247.015 211.602 247.584 211.703C248.153 211.804 248.737 211.789 249.3 211.659C249.449 211.625 249.606 211.645 249.741 211.716C249.876 211.787 249.982 211.905 250.038 212.047L251.425 215.623C251.463 215.72 251.476 215.824 251.463 215.927C251.45 216.03 251.411 216.128 251.35 216.211C251.293 216.303 251.214 216.378 251.12 216.43C251.026 216.483 250.92 216.511 250.813 216.511ZM246.938 212.922C247.615 213.977 248.649 214.753 249.85 215.111L249.025 213.01C248.332 213.111 247.627 213.098 246.938 212.972V212.922Z" fill="#231F20"/>
<path d="M250.319 200.544C250.535 200.497 250.615 200.016 250.497 199.469C250.379 198.923 250.109 198.517 249.893 198.564C249.677 198.611 249.597 199.092 249.715 199.638C249.833 200.185 250.103 200.59 250.319 200.544Z" fill="#231F20"/>
<path d="M246.25 203.606C245.989 202.957 245.557 202.391 245 201.968C244.604 201.587 244.153 201.266 243.663 201.018C243.413 200.897 243.14 200.834 242.863 200.834C242.586 200.834 242.312 200.897 242.063 201.018C241.853 201.14 241.671 201.305 241.531 201.504C241.391 201.703 241.295 201.929 241.25 202.168C241.138 202.645 241.138 203.142 241.25 203.619C241.5 204.656 242.018 205.609 242.753 206.382C243.489 207.155 244.415 207.72 245.438 208.02L245.238 207.895" fill="white"/>
<path d="M245.438 208.621H245.275C244.14 208.295 243.112 207.672 242.297 206.817C241.482 205.963 240.91 204.906 240.638 203.756C240.508 203.188 240.508 202.598 240.638 202.03C240.704 201.704 240.84 201.395 241.037 201.125C241.233 200.855 241.485 200.631 241.775 200.467C242.11 200.309 242.475 200.227 242.844 200.227C243.214 200.227 243.579 200.309 243.913 200.467C244.465 200.736 244.971 201.091 245.413 201.518C246.084 202.008 246.6 202.681 246.9 203.456C246.927 203.534 246.938 203.617 246.931 203.699C246.925 203.781 246.901 203.861 246.863 203.934C246.824 204.006 246.771 204.07 246.706 204.121C246.642 204.173 246.568 204.21 246.488 204.231C246.33 204.278 246.161 204.261 246.016 204.184C245.871 204.107 245.762 203.976 245.713 203.819C245.469 203.274 245.085 202.804 244.6 202.456C244.251 202.116 243.85 201.833 243.413 201.618C243.248 201.542 243.069 201.502 242.888 201.502C242.707 201.502 242.528 201.542 242.363 201.618C242.23 201.697 242.115 201.804 242.027 201.931C241.939 202.059 241.878 202.203 241.85 202.356C241.765 202.743 241.765 203.144 241.85 203.531C242.071 204.38 242.491 205.163 243.076 205.816C243.661 206.468 244.394 206.971 245.213 207.283C245.336 207.27 245.46 207.301 245.563 207.37L245.763 207.483C245.881 207.553 245.973 207.66 246.024 207.788C246.075 207.915 246.083 208.056 246.046 208.189C246.009 208.321 245.929 208.438 245.819 208.52C245.71 208.603 245.575 208.647 245.438 208.646V208.621Z" fill="#231F20"/>
<path d="M256.963 221.201C256.963 221.201 244.213 214.748 239.688 219.05C235.163 223.352 235.413 237.395 235.175 260.892L262.675 258.991C262.675 258.991 263.15 224.615 256.963 221.201Z" fill="#68E1FD"/>
<path d="M235.175 260.892L222.088 295.906C222.088 295.906 255.663 307.411 271.063 304.747L262.725 259.029L235.175 260.892Z" fill="#231F20"/>
<path d="M265.688 305.835C249.175 305.835 223.113 296.981 221.938 296.556C221.859 296.529 221.786 296.486 221.724 296.43C221.661 296.375 221.611 296.307 221.575 296.231C221.513 296.074 221.513 295.9 221.575 295.743L234.663 260.729C234.706 260.615 234.78 260.515 234.878 260.442C234.975 260.369 235.091 260.325 235.213 260.316L262.713 258.416C262.866 258.401 263.019 258.447 263.14 258.542C263.261 258.637 263.341 258.776 263.363 258.928L271.7 304.747C271.719 304.827 271.72 304.91 271.703 304.99C271.685 305.07 271.65 305.145 271.6 305.21C271.555 305.278 271.496 305.337 271.427 305.382C271.358 305.427 271.281 305.458 271.2 305.472C269.377 305.75 267.532 305.872 265.688 305.835V305.835ZM222.9 295.581C227.45 297.081 256.163 306.335 270.4 304.334L262.275 259.704L235.625 261.529L222.9 295.581Z" fill="#231F20"/>
<path d="M248.75 332.483C248.75 332.483 246.325 338.948 247.225 339.411C248.125 339.874 265.7 343.775 266.088 341.649C266.475 339.523 257.413 334.009 257.413 334.009L248.75 332.483Z" fill="#231F20"/>
<path d="M263.75 342.888C258.575 342.888 247.5 340.274 246.875 339.961C246.25 339.649 245.463 339.249 248.125 332.258C248.176 332.123 248.273 332.01 248.398 331.939C248.524 331.868 248.671 331.844 248.813 331.871L257.475 333.396C257.55 333.408 257.622 333.433 257.688 333.471C259.9 334.822 267.075 339.399 266.65 341.762C266.61 341.941 266.528 342.108 266.41 342.25C266.293 342.391 266.144 342.502 265.975 342.575C265.264 342.835 264.506 342.941 263.75 342.888V342.888ZM247.575 338.911C249.625 339.649 264.125 342.562 265.45 341.412C265.563 340.612 261.775 337.448 257.113 334.597L249.088 333.171C248.35 335.012 247.858 336.942 247.625 338.911H247.575Z" fill="#231F20"/>
<path d="M249.713 221.013C253.863 222.464 268.588 232.455 269.713 231.017C270.838 229.579 276.463 214.21 276.438 213.172C276.413 212.135 273.15 211.384 274.213 210.984L277.638 209.734C277.638 209.734 276.638 203.331 280.638 203.006C282.2 202.868 283.363 205.657 283.038 209.859C282.863 212.21 280.013 236.319 276.425 240.721C272.838 245.123 267.05 244.085 256.275 238.095C245.5 232.105 240.438 227.303 241.9 223.839C243.363 220.375 244.888 219.337 249.713 221.013Z" fill="white"/>
<path d="M270.7 244.023C266.763 244.023 261.825 241.859 256.038 238.645C244.588 232.28 239.788 227.391 241.388 223.639C243.113 219.563 245.138 218.837 249.913 220.513C252.885 221.856 255.766 223.394 258.538 225.115C262.388 227.353 268.163 230.767 269.35 230.605C270.6 228.879 275.775 214.561 275.875 213.223C275.501 212.897 275.08 212.632 274.625 212.435C273.9 212.035 273.375 211.747 273.375 211.184C273.393 211.014 273.462 210.853 273.574 210.723C273.686 210.594 273.834 210.501 274 210.459L276.963 209.358C276.85 208.208 276.75 205.432 278.063 203.756C278.361 203.37 278.738 203.052 279.169 202.823C279.601 202.594 280.076 202.461 280.563 202.431C280.86 202.413 281.157 202.461 281.434 202.571C281.71 202.681 281.959 202.851 282.163 203.068C283.325 204.219 283.875 206.82 283.638 209.959C283.638 210.209 280.85 236.307 276.888 241.159C276.147 242.082 275.203 242.82 274.13 243.317C273.056 243.814 271.882 244.055 270.7 244.023V244.023ZM246.013 220.888C244.138 220.888 243.4 222.039 242.538 224.089C241.675 226.14 243.388 230.179 256.638 237.545C267.475 243.572 272.725 244.323 276 240.321C279.275 236.319 282.25 213.36 282.488 209.809C282.725 206.507 282.038 204.569 281.363 203.906C281.293 203.811 281.2 203.735 281.093 203.687C280.986 203.639 280.867 203.62 280.75 203.631C280.431 203.641 280.118 203.722 279.834 203.869C279.551 204.016 279.304 204.226 279.113 204.481C277.863 206.145 278.313 209.596 278.325 209.634C278.345 209.776 278.314 209.922 278.239 210.045C278.164 210.168 278.049 210.261 277.913 210.309L275.263 211.297C276.125 211.759 277.113 212.297 277.125 213.173C277.125 214.273 271.55 229.867 270.263 231.43C269.338 232.555 266.663 231.242 257.913 226.165C255.208 224.481 252.398 222.973 249.5 221.651C248.388 221.195 247.211 220.921 246.013 220.838V220.888Z" fill="#231F20"/>
</svg>
