<svg width="600" height="452" viewBox="0 0 600 452" fill="none" xmlns="http://www.w3.org/2000/svg">
<path d="M439.575 307.111C439.575 307.111 488.97 178.323 463.38 158.682C437.79 139.042 330.465 146.973 324.585 153.989C318.705 161.006 284.085 316.032 284.085 316.032L439.575 307.111Z" fill="#231F20"/>
<path d="M284.01 316.811C283.903 316.81 283.796 316.787 283.698 316.743C283.6 316.7 283.512 316.636 283.44 316.557C283.365 316.469 283.313 316.365 283.286 316.252C283.26 316.14 283.262 316.023 283.29 315.912C284.7 309.57 318.075 160.616 324.015 153.54C327.27 149.657 355.92 146.043 386.58 145.638C404.58 145.399 448.215 146.133 463.845 158.112C474.72 166.449 474.03 194.095 461.805 240.453C452.805 274.742 440.4 307.051 440.28 307.366C440.23 307.502 440.14 307.62 440.023 307.706C439.905 307.791 439.765 307.84 439.62 307.846L284.055 316.841L284.01 316.811ZM392.25 147.093H386.61C355.11 147.513 327.735 151.396 325.11 154.469C320.61 159.882 296.97 261.413 284.91 315.237L439.005 306.361C442.17 297.98 487.005 177.753 462.885 159.267C452.73 151.486 427.125 147.093 392.25 147.093Z" fill="#231F20"/>
<path d="M239.01 195.835L216.75 270.514C216.75 270.514 262.665 276.436 262.665 274.742C262.665 273.048 271.665 192.566 271.665 192.566L239.01 195.835Z" fill="white"/>
<path d="M260.355 275.716C252.6 275.716 230.595 273.047 216.66 271.218C216.553 271.203 216.45 271.165 216.358 271.107C216.266 271.049 216.188 270.972 216.128 270.881C216.069 270.79 216.029 270.688 216.012 270.58C215.995 270.473 216.001 270.364 216.03 270.259L238.29 195.58C238.331 195.436 238.415 195.307 238.53 195.211C238.645 195.115 238.786 195.055 238.935 195.04L271.605 191.771C271.716 191.761 271.827 191.776 271.931 191.815C272.035 191.854 272.129 191.916 272.205 191.996C272.286 192.072 272.347 192.166 272.383 192.271C272.42 192.375 272.431 192.487 272.415 192.596C269.31 220.333 263.415 273.182 263.415 274.697C263.401 274.942 263.294 275.173 263.115 275.341C262.236 275.674 261.292 275.802 260.355 275.716ZM217.665 269.884C233.625 271.923 258.405 274.757 261.885 274.262C262.455 267.785 269.76 202.416 270.765 193.406L239.535 196.539L217.665 269.884Z" fill="#231F20"/>
<path d="M196.815 177.288C197.01 177.498 204.915 175.384 208.995 180.287C213.075 185.189 207.78 189.567 194.895 187.034C182.01 184.5 196.815 177.288 196.815 177.288Z" fill="white"/>
<path d="M201.69 188.518C199.357 188.495 197.031 188.249 194.745 187.783C191.025 187.049 189.105 185.849 188.88 184.095C188.445 180.707 195.135 177.273 196.485 176.599C196.641 176.546 196.809 176.546 196.965 176.599H197.46C199.56 176.344 205.95 175.534 209.58 179.882C211.2 181.801 211.545 183.765 210.585 185.414C209.34 187.378 206.115 188.518 201.69 188.518ZM196.98 178.023C194.055 179.522 190.2 182.161 190.41 183.825C190.41 184.38 191.19 185.429 195.045 186.194C203.76 187.903 208.14 186.314 209.25 184.44C209.515 183.804 209.575 183.101 209.422 182.429C209.269 181.757 208.91 181.15 208.395 180.692C205.305 177.003 199.74 177.693 197.655 177.963C197.37 178.023 197.16 178.023 196.98 178.023Z" fill="#231F20"/>
<path d="M177 161.621C177 161.621 175.38 159.762 176.4 158.457C176.63 158.193 176.919 157.986 177.244 157.856C177.57 157.725 177.921 157.673 178.27 157.706C178.619 157.738 178.956 157.853 179.251 158.041C179.547 158.229 179.793 158.485 179.97 158.787C179.97 158.787 177.42 159.702 177 161.621Z" fill="white"/>
<path d="M177 162.386C176.89 162.387 176.781 162.365 176.681 162.321C176.58 162.277 176.489 162.212 176.415 162.131C175.665 161.261 174.675 159.402 175.8 157.993C176.052 157.662 176.376 157.394 176.748 157.21C177.12 157.025 177.53 156.929 177.945 156.928C178.457 156.937 178.959 157.065 179.412 157.302C179.865 157.538 180.257 157.878 180.555 158.293C180.638 158.388 180.694 158.503 180.721 158.626C180.747 158.749 180.742 158.877 180.705 158.997C180.674 159.117 180.614 159.227 180.53 159.319C180.447 159.41 180.342 159.48 180.225 159.522C179.625 159.732 178.02 160.571 177.75 161.786C177.722 161.925 177.654 162.054 177.556 162.157C177.458 162.261 177.333 162.334 177.195 162.371L177 162.386ZM177.975 158.472C177.793 158.475 177.614 158.518 177.451 158.599C177.287 158.679 177.144 158.795 177.03 158.937C176.945 159.102 176.9 159.284 176.9 159.47C176.9 159.655 176.945 159.837 177.03 160.002C177.482 159.448 178.031 158.98 178.65 158.622C178.443 158.532 178.214 158.5 177.99 158.532L177.975 158.472Z" fill="#231F20"/>
<path d="M180.54 158.712C179.648 158.785 178.805 159.151 178.143 159.753C177.48 160.355 177.037 161.16 176.88 162.041L209.055 203.886C209.254 201.88 210.12 200 211.516 198.545C212.911 197.091 214.754 196.147 216.75 195.865L180.54 158.712Z" fill="white"/>
<path d="M209.04 204.65C208.924 204.649 208.81 204.621 208.706 204.57C208.602 204.518 208.511 204.443 208.44 204.35L176.265 162.505C176.193 162.411 176.143 162.301 176.119 162.184C176.096 162.067 176.1 161.946 176.13 161.831C176.342 160.79 176.887 159.847 177.683 159.144C178.478 158.441 179.481 158.016 180.54 157.933C180.644 157.934 180.747 157.955 180.842 157.997C180.937 158.038 181.023 158.098 181.095 158.173L217.305 195.325C217.406 195.424 217.476 195.551 217.508 195.688C217.54 195.826 217.532 195.971 217.485 196.104C217.443 196.238 217.365 196.358 217.259 196.451C217.153 196.544 217.024 196.605 216.885 196.629C215.057 196.879 213.366 197.736 212.084 199.064C210.803 200.391 210.005 202.11 209.82 203.946C209.808 204.101 209.748 204.249 209.649 204.37C209.549 204.491 209.416 204.578 209.265 204.62L209.04 204.65ZM177.735 161.891L208.65 202.086C209.086 200.504 209.92 199.06 211.072 197.892C212.225 196.724 213.659 195.871 215.235 195.415L180.255 159.522C179.657 159.645 179.105 159.932 178.66 160.35C178.215 160.768 177.895 161.301 177.735 161.891Z" fill="#231F20"/>
<path d="M209.055 203.886L220.035 209.583L221.4 208.309L216.75 195.865C216.75 195.865 208.2 195.01 209.055 203.886Z" fill="white"/>
<path d="M220.035 210.347C219.909 210.349 219.785 210.318 219.675 210.257L208.695 204.56C208.578 204.502 208.478 204.415 208.405 204.307C208.331 204.2 208.287 204.075 208.275 203.945C208.066 202.753 208.132 201.528 208.467 200.364C208.802 199.2 209.398 198.128 210.21 197.229C211.115 196.451 212.166 195.86 213.302 195.492C214.437 195.124 215.635 194.986 216.825 195.085C216.972 195.099 217.112 195.154 217.229 195.244C217.345 195.334 217.434 195.456 217.485 195.595L222.12 208.039C222.175 208.182 222.187 208.339 222.152 208.488C222.117 208.638 222.038 208.774 221.925 208.878L220.56 210.153C220.414 210.279 220.228 210.348 220.035 210.347ZM209.79 203.391L219.9 208.638L220.5 208.099L216.21 196.614C214.416 196.563 212.665 197.171 211.29 198.323C210.687 199.009 210.241 199.817 209.982 200.692C209.723 201.567 209.658 202.488 209.79 203.391Z" fill="#231F20"/>
<path d="M220.035 209.583L222.135 211.832L223.125 210.707L221.4 208.309L220.035 209.583Z" fill="white"/>
<path d="M222.135 212.611C222.03 212.612 221.925 212.59 221.829 212.546C221.734 212.502 221.649 212.437 221.58 212.356L219.465 210.108C219.329 209.955 219.254 209.757 219.255 209.553C219.267 209.347 219.358 209.153 219.51 209.013L220.875 207.739C220.957 207.665 221.052 207.61 221.156 207.576C221.261 207.541 221.371 207.53 221.48 207.541C221.589 207.552 221.694 207.586 221.789 207.641C221.884 207.696 221.966 207.77 222.03 207.859L223.755 210.257C223.865 210.393 223.925 210.563 223.925 210.737C223.925 210.912 223.865 211.081 223.755 211.217L222.765 212.341C222.696 212.426 222.609 212.494 222.511 212.541C222.412 212.587 222.304 212.611 222.195 212.611H222.135ZM221.13 209.613L222.12 210.677L221.265 209.493L221.13 209.613Z" fill="#231F20"/>
<path d="M198.855 207.169C200.625 203.586 205.065 195.984 206.085 192.686C208.905 183.69 192.39 175.264 187.05 175.264C181.71 175.264 170.55 193.915 170.55 203.886C170.55 213.856 207.525 290.199 207.525 290.199L243 273.977L198.855 207.169Z" fill="white"/>
<path d="M207.57 290.979C207.426 290.979 207.284 290.938 207.162 290.861C207.04 290.784 206.942 290.674 206.88 290.544C205.38 287.426 169.815 213.901 169.815 203.886C169.815 193.871 181.095 174.485 187.05 174.485C191.16 174.485 200.715 178.863 205.05 184.68C206.01 185.798 206.68 187.135 207.002 188.573C207.323 190.011 207.287 191.506 206.895 192.926C205.465 196.461 203.791 199.893 201.885 203.196C201.09 204.695 200.385 206.045 199.815 207.109L243.75 273.527C243.811 273.622 243.852 273.728 243.87 273.839C243.889 273.95 243.883 274.063 243.855 274.172C243.823 274.277 243.769 274.374 243.696 274.457C243.624 274.539 243.535 274.606 243.435 274.652L207.945 290.904C207.832 290.971 207.7 290.998 207.57 290.979ZM187.05 176.029C182.355 176.029 171.375 194.02 171.375 203.886C171.375 213.061 204.27 281.563 207.93 289.195L241.905 273.632L198.21 207.664C198.144 207.545 198.11 207.41 198.11 207.274C198.11 207.138 198.144 207.004 198.21 206.884C198.78 205.745 199.605 204.201 200.505 202.521C202.36 199.303 203.994 195.962 205.395 192.521C205.712 191.333 205.731 190.085 205.451 188.887C205.171 187.69 204.601 186.58 203.79 185.655C199.605 179.972 190.5 176.029 187.05 176.029Z" fill="#231F20"/>
<path d="M387.6 222.282L431.325 211.142C429.825 209.028 412.185 153.06 393.585 143.9C377.31 133.105 338.715 125.908 304.62 128.352C304.62 128.352 295.62 128.022 279.84 134.274C241.41 149.537 234 202.686 234 202.686L264 213.046C264 213.046 258.27 281.788 252.855 317.726C252.855 317.726 319.185 330.695 415.755 314.728C415.83 314.698 387.78 232.447 387.6 222.282Z" fill="#68E1FD"/>
<path d="M384 145.444C378.21 151.441 373.695 158.637 367.305 164.29C353.535 176.464 335.52 186.104 316.635 184.935C294.375 183.555 275.13 168.353 270.3 146.208C267.3 132.325 270.42 119.431 281.16 109.626C288.585 102.849 298.095 98.711 307.815 96.1323C333.63 89.2206 362.595 92.8938 384.63 108.037C388.231 110.252 391.27 113.269 393.51 116.852C399.015 126.823 392.685 137.078 385.545 143.929C385.065 144.394 384.555 144.919 384 145.444Z" fill="#68E1FD"/>
<path d="M308.055 161.156C307.83 161.156 303.69 166.194 303.48 166.269C305.835 175.144 308.325 186.704 318.375 187.843C338.76 190.167 341.85 163 345.69 150.181C331.575 154.139 321.615 155.729 308.055 161.156Z" fill="#231F20"/>
<path d="M320.76 188.743C319.938 188.736 319.117 188.686 318.3 188.593C308.265 187.454 305.43 176.599 303.135 167.918L302.746 166.419C302.709 166.271 302.718 166.117 302.772 165.975C302.826 165.833 302.921 165.711 303.045 165.624C303.285 165.399 304.38 164.125 305.175 163.195C307.5 160.526 307.53 160.511 307.77 160.407C316.073 157.198 324.595 154.588 333.27 152.595C337.095 151.636 341.04 150.646 345.42 149.417C345.549 149.381 345.685 149.38 345.815 149.414C345.944 149.448 346.061 149.517 346.155 149.612C346.245 149.709 346.309 149.827 346.341 149.956C346.372 150.084 346.37 150.219 346.335 150.346C345.765 152.25 345.21 154.499 344.61 156.883C341.505 169.717 336.75 188.728 320.76 188.743ZM304.26 166.509L304.531 167.543C306.826 176.239 309.405 186.089 318.42 187.034C335.115 188.938 339.78 170.182 343.2 156.478C343.665 154.604 344.115 152.805 344.565 151.186C340.68 152.25 337.065 153.15 333.66 154.02C325.064 155.97 316.622 158.546 308.401 161.726C308.101 162.026 307.05 163.225 306.27 164.14C305.22 165.489 304.635 166.149 304.305 166.509H304.26Z" fill="#231F20"/>
<path d="M327.795 56.5815C324.795 56.4615 322.875 57.7659 320.295 58.6955C315.27 60.4646 312.93 56.2666 308.61 54.0327C301.808 50.4984 293.993 49.4259 286.49 50.9973C278.987 52.5688 272.259 56.6873 267.45 62.6536C264.457 66.1967 262.518 70.5081 261.855 75.0976C261.225 80.2851 262.68 85.5926 261.78 90.7201C261.23 93.6649 259.939 96.4213 258.028 98.7295C256.118 101.038 253.651 102.822 250.86 103.914C255.662 104.284 260.492 103.828 265.14 102.564C263.804 104.151 262.143 105.434 260.27 106.326C258.397 107.219 256.354 107.7 254.28 107.737C259.063 111.413 264.941 113.382 270.975 113.329L260.4 115.803C269.4 121.575 280.365 123.299 290.97 122.82C312.09 121.725 347.46 113.089 346.845 85.7425C346.5 75.2625 340.74 57.1812 327.795 56.5815Z" fill="white"/>
<path d="M287.34 123.704C279.255 123.704 268.905 122.205 259.935 116.478C259.812 116.396 259.716 116.28 259.657 116.144C259.599 116.008 259.581 115.859 259.605 115.713C259.636 115.57 259.706 115.439 259.806 115.333C259.907 115.227 260.034 115.151 260.175 115.113L266.055 113.749C261.579 112.987 257.357 111.144 253.755 108.381C253.629 108.287 253.536 108.155 253.489 108.005C253.443 107.855 253.444 107.694 253.494 107.545C253.544 107.395 253.639 107.266 253.767 107.174C253.895 107.082 254.048 107.032 254.205 107.032C257.285 106.982 260.259 105.899 262.65 103.959C258.736 104.77 254.726 105.022 250.74 104.708C250.572 104.693 250.413 104.621 250.29 104.504C250.168 104.387 250.088 104.231 250.065 104.064C250.038 103.894 250.071 103.72 250.159 103.572C250.246 103.424 250.383 103.311 250.545 103.254C253.227 102.223 255.599 100.523 257.437 98.3155C259.275 96.1084 260.517 93.4677 261.045 90.6449C261.406 87.95 261.436 85.2211 261.135 82.5188C260.901 80.0255 260.901 77.5157 261.135 75.0224C261.818 70.2905 263.813 65.8444 266.895 62.1886C271.814 56.0876 278.694 51.8772 286.367 50.2728C294.04 48.6684 302.032 49.7691 308.985 53.3878C310.263 54.0853 311.478 54.893 312.615 55.8017C315.045 57.6458 316.965 59.1001 320.115 58.0056C320.79 57.7657 321.42 57.4958 322.035 57.241C323.866 56.3117 325.892 55.8336 327.945 55.8466C340.935 56.4164 347.445 74.0179 347.655 85.7423C347.925 98.1713 341.13 107.962 327.45 114.813C313.77 121.665 297.45 123.254 291.075 123.584C289.815 123.674 288.6 123.704 287.34 123.704ZM262.29 116.208C271.98 121.83 283.095 122.58 290.88 122.205C297.12 121.875 313.08 120.391 326.655 113.584C339.78 107.017 346.29 97.7066 346.035 85.8922C345.78 74.7376 339.795 57.9906 327.765 57.4059C325.935 57.4187 324.133 57.8548 322.5 58.6803C321.855 58.9501 321.195 59.235 320.49 59.4749C316.605 60.8392 314.175 58.9951 311.61 57.0461C310.544 56.1925 309.405 55.4349 308.205 54.7821C301.561 51.3174 293.921 50.262 286.585 51.7956C279.25 53.3293 272.673 57.3571 267.975 63.1931C265.081 66.6081 263.196 70.7614 262.53 75.1874C262.305 77.5759 262.305 79.9803 262.53 82.3689C262.835 85.1919 262.795 88.0416 262.41 90.8548C261.936 93.4231 260.919 95.8606 259.427 98.0041C257.934 100.148 256 101.948 253.755 103.284C257.496 103.279 261.219 102.775 264.825 101.785C264.981 101.74 265.146 101.746 265.298 101.803C265.449 101.859 265.578 101.963 265.665 102.099C265.757 102.229 265.806 102.383 265.806 102.542C265.806 102.7 265.757 102.855 265.665 102.984C263.291 105.807 259.979 107.681 256.335 108.261C260.674 111.089 265.752 112.57 270.93 112.519C271.116 112.515 271.296 112.58 271.435 112.702C271.574 112.825 271.662 112.995 271.68 113.179C271.704 113.363 271.659 113.548 271.554 113.701C271.448 113.853 271.29 113.961 271.11 114.004L262.29 116.208Z" fill="#231F20"/>
<path d="M301.98 140.451L303.48 166.269C303.48 166.269 315.285 179.762 330.48 171.471C345.675 163.18 345.09 150.032 345.09 150.032L335.115 101.56C335.115 101.56 321.33 98.3814 317.82 71.2444C306.061 80.5508 292.006 86.5126 277.14 88.5011C277.14 88.5011 277.41 118.862 282.765 130.931C288.12 143 301.98 140.451 301.98 140.451Z" fill="white"/>
<path d="M320.505 174.905C310.185 174.905 303 166.883 302.91 166.763C302.799 166.64 302.735 166.48 302.73 166.314L301.23 141.291C298.065 141.606 286.785 141.905 282.03 131.186C276.675 119.191 276.36 89.7004 276.345 88.456C276.347 88.275 276.412 88.1003 276.53 87.963C276.648 87.8257 276.811 87.7348 276.99 87.7064C291.699 85.7018 305.607 79.8122 317.28 70.6446C317.383 70.5544 317.509 70.4942 317.644 70.4704C317.779 70.4466 317.918 70.4602 318.045 70.5096C318.171 70.5584 318.282 70.6396 318.366 70.7449C318.45 70.8502 318.505 70.9759 318.525 71.1093C320.295 84.8428 324.765 92.1742 328.2 95.9225C330.056 98.1614 332.497 99.8427 335.25 100.78C335.388 100.816 335.513 100.89 335.611 100.993C335.709 101.097 335.776 101.225 335.805 101.365L345.795 149.882C345.795 150.136 346.245 163.705 330.795 172.131C327.656 173.912 324.115 174.867 320.505 174.905ZM304.2 165.909C305.7 167.543 316.44 178.248 330.135 170.767C344.715 162.79 344.355 150.121 344.355 150.002L334.47 102.025C331.98 101.2 320.7 96.2223 317.265 72.5337C305.734 81.2394 292.2 86.9103 277.905 89.0258C277.905 93.5236 278.655 119.701 283.44 130.511C288.495 141.875 301.305 139.731 301.845 139.641C301.949 139.621 302.056 139.623 302.159 139.646C302.263 139.669 302.36 139.714 302.445 139.776C302.527 139.845 302.595 139.93 302.643 140.025C302.692 140.12 302.722 140.224 302.73 140.331L304.2 165.909Z" fill="#231F20"/>
<path d="M329.49 115.143C333.015 115.674 336.606 114.79 339.48 112.684C341.421 111.148 342.935 109.139 343.875 106.849C344.816 104.56 345.151 102.067 344.85 99.6107C344.758 97.7747 344.245 95.9844 343.35 94.3782C342.913 93.5749 342.307 92.8752 341.574 92.3267C340.842 91.7783 340 91.3939 339.105 91.1997C336.89 91.062 334.69 91.646 332.835 92.8639C329.925 94.3632 329.835 96.0274 328.245 98.4862C328.425 98.2613 328.56 97.6316 328.74 97.4067" fill="white"/>
<path d="M331.5 116.058C330.787 116.055 330.075 116 329.37 115.893C329.172 115.86 328.994 115.75 328.876 115.587C328.759 115.425 328.709 115.222 328.74 115.023C328.754 114.926 328.788 114.833 328.839 114.749C328.89 114.666 328.958 114.593 329.038 114.536C329.117 114.478 329.208 114.438 329.303 114.416C329.399 114.394 329.498 114.392 329.595 114.409C332.918 114.898 336.299 114.051 339 112.055C340.838 110.593 342.268 108.684 343.153 106.509C344.039 104.335 344.349 101.97 344.055 99.6407C343.995 97.9206 343.538 96.2376 342.72 94.7231C342.333 94.0213 341.801 93.4097 341.16 92.9289C340.518 92.4481 339.782 92.1091 339 91.9344C337.14 91.6046 335.28 92.4592 333.21 93.5237C331.787 94.2153 330.675 95.413 330.09 96.8821C329.775 97.4518 329.43 98.0965 328.965 98.8012C328.934 98.862 328.893 98.9176 328.845 98.9661C328.724 99.1152 328.55 99.2112 328.359 99.2336C328.169 99.2561 327.977 99.2031 327.825 99.086C327.666 98.9742 327.558 98.8043 327.525 98.6133C327.491 98.4223 327.534 98.2258 327.645 98.0665C327.645 98.0665 327.645 97.8716 327.75 97.7666C327.838 97.4952 327.964 97.2378 328.125 97.002C328.202 96.9111 328.3 96.8393 328.41 96.7921L328.695 96.2524C329.436 94.5131 330.777 93.0978 332.475 92.2643C334.245 91.3497 336.69 90.0903 339.195 90.5251C340.213 90.7271 341.175 91.1482 342.015 91.7592C342.854 92.3703 343.55 93.1565 344.055 94.0634C344.975 95.7782 345.488 97.6813 345.555 99.6258C345.872 102.207 345.516 104.826 344.523 107.229C343.53 109.633 341.932 111.739 339.885 113.344C337.449 115.116 334.512 116.067 331.5 116.058Z" fill="#231F20"/>
<path d="M302.76 154.035C305.714 153.822 308.572 152.892 311.084 151.324C313.596 149.756 315.687 147.599 317.175 145.039C322.47 136.208 320.355 130.556 320.355 130.556C320.355 130.556 313.215 139.657 301.98 140.391L302.76 154.035Z" fill="#231F20"/>
<path d="M302.76 154.769C302.57 154.769 302.388 154.696 302.251 154.565C302.114 154.433 302.033 154.254 302.025 154.065L301.23 140.571C301.224 140.473 301.238 140.374 301.27 140.281C301.302 140.187 301.352 140.101 301.418 140.027C301.483 139.954 301.563 139.893 301.651 139.85C301.74 139.807 301.837 139.782 301.935 139.776C312.69 139.087 319.695 130.331 319.77 130.241C319.852 130.135 319.96 130.053 320.084 130.003C320.208 129.953 320.343 129.937 320.475 129.956C320.606 129.979 320.729 130.035 320.831 130.119C320.934 130.203 321.013 130.312 321.06 130.436C321.15 130.676 323.235 136.523 317.805 145.564C316.26 148.223 314.083 150.46 311.467 152.079C308.85 153.698 305.876 154.647 302.805 154.844L302.76 154.769ZM302.76 141.126L303.465 153.225C306.144 152.895 308.712 151.956 310.972 150.48C313.232 149.003 315.123 147.029 316.5 144.709C320.085 138.712 320.175 134.334 319.905 132.235C315.414 137.121 309.343 140.269 302.76 141.126Z" fill="#231F20"/>
<path d="M300 99.4158C300 99.4158 294.375 114.229 296.925 115.998C299.475 117.767 304.86 114.948 304.86 114.948" fill="white"/>
<path d="M299.145 117.332C298.206 117.375 297.278 117.123 296.49 116.612C293.67 114.663 297.99 102.759 299.28 99.1457C299.35 98.9616 299.491 98.8128 299.67 98.7314C299.85 98.65 300.055 98.6427 300.24 98.7109C300.333 98.7458 300.418 98.7988 300.49 98.8669C300.563 98.9349 300.621 99.0167 300.661 99.1073C300.702 99.198 300.724 99.2958 300.726 99.395C300.728 99.4943 300.711 99.593 300.675 99.6855C298.065 106.567 296.175 114.528 297.345 115.368C299.13 116.597 303.12 115.008 304.5 114.288C304.677 114.198 304.883 114.18 305.074 114.239C305.264 114.297 305.424 114.428 305.52 114.603C305.609 114.78 305.624 114.985 305.562 115.174C305.5 115.362 305.366 115.518 305.19 115.608C303.321 116.608 301.26 117.196 299.145 117.332Z" fill="#231F20"/>
<path d="M311.064 99.041C312.207 98.6718 312.71 97.0631 312.188 95.4479C311.666 93.8327 310.316 92.8226 309.173 93.1918C308.03 93.561 307.527 95.1697 308.049 96.7849C308.571 98.4001 309.921 99.4102 311.064 99.041Z" fill="#231F20"/>
<path d="M290.078 103.946C291.28 103.929 292.235 102.54 292.211 100.843C292.188 99.1456 291.196 97.7829 289.995 97.7993C288.794 97.8156 287.839 99.2048 287.862 100.902C287.885 102.599 288.877 103.962 290.078 103.946Z" fill="#231F20"/>
<path d="M301.785 135.024C300.345 135.061 298.929 134.647 297.735 133.839C293.01 130.391 292.665 122.775 292.65 122.445C292.646 122.268 292.704 122.094 292.813 121.955C292.923 121.815 293.077 121.718 293.25 121.68C312.66 117.437 312.87 117.587 313.215 117.842C313.301 117.907 313.373 117.988 313.427 118.08C313.481 118.173 313.516 118.275 313.53 118.382C313.831 121.404 313.415 124.455 312.315 127.287C311.655 129.024 310.608 130.587 309.254 131.86C307.9 133.132 306.275 134.081 304.5 134.634C303.618 134.889 302.704 135.02 301.785 135.024ZM294.21 123.029C294.39 124.844 295.2 130.151 298.59 132.61C299.398 133.105 300.304 133.416 301.246 133.519C302.187 133.623 303.14 133.517 304.035 133.21C305.599 132.723 307.032 131.889 308.227 130.77C309.422 129.651 310.348 128.276 310.935 126.748C311.864 124.363 312.253 121.804 312.075 119.251C309.495 119.716 300.39 121.665 294.21 123.014V123.029Z" fill="#231F20"/>
<path d="M311.626 127.047C308.746 134.004 301.531 135.668 298.126 133.254C298.891 130.601 300.286 127.842 302.881 126.838C305.728 125.867 308.828 125.941 311.626 127.047Z" fill="#231F20"/>
<path d="M301.785 135.009C300.347 135.049 298.931 134.64 297.735 133.839C297.612 133.749 297.519 133.623 297.471 133.478C297.422 133.332 297.42 133.176 297.465 133.03C298.485 129.371 300.24 127.032 302.655 126.118C305.658 125.098 308.924 125.167 311.88 126.313C311.976 126.348 312.064 126.402 312.139 126.471C312.214 126.541 312.274 126.625 312.315 126.718C312.39 126.905 312.39 127.115 312.315 127.302C311.651 129.035 310.602 130.594 309.249 131.864C307.895 133.133 306.272 134.08 304.5 134.634C303.617 134.883 302.703 135.009 301.785 135.009ZM299.055 132.895C300.615 133.631 302.399 133.739 304.035 133.195C305.472 132.755 306.8 132.018 307.932 131.031C309.064 130.045 309.975 128.83 310.605 127.467C308.2 126.668 305.601 126.668 303.195 127.467C301.35 128.217 300 130.046 299.055 132.895Z" fill="#231F20"/>
<path d="M276.435 111.38C275.409 111.38 274.413 111.029 273.614 110.385C272.815 109.742 272.259 108.844 272.04 107.842L270.465 100.69C270.211 99.5252 270.43 98.3069 271.074 97.3032C271.718 96.2996 272.735 95.5926 273.9 95.3378L290.625 91.6646C291.203 91.5365 291.801 91.5238 292.384 91.6272C292.968 91.7306 293.524 91.948 294.023 92.267C294.522 92.5859 294.953 93.0002 295.292 93.486C295.63 93.9718 295.869 94.5196 295.995 95.0979L297.495 102.249C297.738 103.4 297.521 104.599 296.89 105.591C296.259 106.583 295.265 107.288 294.12 107.557L277.395 111.215C277.083 111.307 276.761 111.363 276.435 111.38ZM291.6 93.1189C291.386 93.0967 291.17 93.0967 290.955 93.1189L274.245 96.7771C273.483 96.9529 272.819 97.4198 272.395 98.0781C271.972 98.7363 271.823 99.5339 271.98 100.3L273.555 107.557C273.735 108.313 274.201 108.971 274.856 109.39C275.51 109.81 276.303 109.959 277.065 109.806L293.79 106.058C294.547 105.879 295.205 105.413 295.625 104.758C296.044 104.103 296.193 103.312 296.04 102.549L294.54 95.3978C294.389 94.7443 294.024 94.1602 293.502 93.739C292.979 93.3177 292.331 93.0835 291.66 93.0739L291.6 93.1189Z" fill="#231F20"/>
<path d="M306.24 104.858C305.378 104.856 304.534 104.606 303.81 104.138C302.808 103.496 302.101 102.482 301.845 101.32L300.345 94.1683C300.088 93.004 300.304 91.7852 300.945 90.7799C301.264 90.2795 301.678 89.847 302.165 89.5073C302.651 89.1677 303.2 88.9276 303.78 88.8008L320.49 85.1426C321.068 85.0146 321.666 85.0019 322.249 85.1053C322.832 85.2086 323.389 85.426 323.888 85.745C324.387 86.064 324.818 86.4782 325.157 86.964C325.495 87.4498 325.734 87.9976 325.86 88.5759L327.36 95.7275C327.621 96.8842 327.414 98.0971 326.785 99.1022C326.156 100.107 325.155 100.824 324 101.095L307.29 104.753C306.944 104.822 306.593 104.857 306.24 104.858ZM321.405 86.5669C321.188 86.5696 320.972 86.5947 320.76 86.6419L304.05 90.3151C303.67 90.3949 303.309 90.5502 302.99 90.7716C302.67 90.9931 302.398 91.2763 302.19 91.6045C301.767 92.2673 301.622 93.0695 301.785 93.8384L303.36 100.99C303.539 101.747 304.006 102.404 304.66 102.823C305.315 103.243 306.108 103.392 306.87 103.239L323.595 99.5807C324.36 99.4101 325.027 98.9473 325.455 98.2913C325.873 97.6264 326.013 96.8243 325.845 96.0574L324.345 88.9058C324.195 88.2396 323.822 87.6446 323.287 87.2193C322.752 86.794 322.088 86.5638 321.405 86.5669Z" fill="#231F20"/>
<path d="M295.23 96.0425C295.093 96.0454 294.958 96.009 294.84 95.9375C294.665 95.8342 294.538 95.6666 294.485 95.4706C294.431 95.2746 294.457 95.0656 294.555 94.888C295.26 93.6736 297.555 91.7695 301.32 93.2838C301.519 93.3593 301.68 93.5108 301.767 93.7048C301.854 93.8988 301.861 94.1195 301.785 94.3183C301.71 94.5171 301.558 94.6778 301.364 94.7649C301.17 94.8521 300.949 94.8586 300.75 94.7831C297.39 93.4337 296.04 95.4877 295.905 95.7276C295.827 95.8312 295.725 95.9141 295.607 95.9689C295.489 96.0238 295.36 96.0491 295.23 96.0425Z" fill="#231F20"/>
<path d="M145.8 295.627H454.2L503.685 385.958H96.3153L145.8 295.627Z" fill="white"/>
<path d="M503.685 386.708H96.315C96.1859 386.707 96.059 386.674 95.9462 386.611C95.8334 386.548 95.7384 386.458 95.67 386.348C95.607 386.233 95.574 386.104 95.574 385.973C95.574 385.842 95.607 385.713 95.67 385.599L145.17 295.267C145.234 295.147 145.329 295.048 145.445 294.979C145.562 294.91 145.695 294.875 145.83 294.877H454.185C454.32 294.875 454.453 294.91 454.57 294.979C454.686 295.048 454.782 295.147 454.845 295.267L504.345 385.599C504.408 385.713 504.441 385.842 504.441 385.973C504.441 386.104 504.408 386.233 504.345 386.348C504.275 386.46 504.178 386.552 504.062 386.615C503.947 386.678 503.817 386.71 503.685 386.708ZM97.59 385.209H502.41L453.75 296.376H146.25L97.59 385.209Z" fill="#D1D3D4"/>
<path d="M150.585 237.35L151.245 234.501C152.745 231.652 154.41 229.733 158.28 229.733H305.085C306.86 229.736 308.586 230.313 310.006 231.378C311.425 232.443 312.462 233.938 312.96 235.641L336.825 317.591C337.441 319.349 337.363 321.274 336.608 322.976C335.853 324.678 334.477 326.029 332.76 326.752L330.165 327.367L150.585 237.35Z" fill="white"/>
<path d="M330.165 328.116C330.052 328.113 329.94 328.087 329.835 328.041L150.255 237.994C150.104 237.92 149.982 237.796 149.911 237.644C149.84 237.491 149.824 237.318 149.865 237.155L150.525 234.306C150.519 234.241 150.519 234.176 150.525 234.111C152.025 231.397 153.75 228.954 158.22 228.954H305.025C306.961 228.961 308.843 229.593 310.391 230.754C311.94 231.916 313.072 233.545 313.62 235.401L337.5 317.456C338.171 319.393 338.079 321.512 337.243 323.383C336.408 325.254 334.891 326.738 333 327.531L330.315 328.176L330.165 328.116ZM151.5 236.945L330.315 326.572L332.64 326.032C336.255 324.623 337.005 320.77 336.15 317.801L312.285 235.85C311.828 234.306 310.885 232.95 309.596 231.984C308.308 231.017 306.742 230.491 305.13 230.483H158.28C154.965 230.483 153.54 231.982 151.95 234.771L151.5 236.945Z" fill="#231F20"/>
<path d="M330.165 327.366H180.36C179.342 327.355 178.355 327.017 177.545 326.401C176.734 325.785 176.144 324.925 175.86 323.948L150.645 237.35C150.55 237.017 150.534 236.668 150.596 236.328C150.659 235.988 150.8 235.668 151.008 235.392C151.216 235.115 151.485 234.891 151.795 234.737C152.104 234.582 152.445 234.502 152.79 234.501H306.6L332.655 324.053C332.77 324.439 332.793 324.847 332.722 325.243C332.65 325.64 332.487 326.014 332.245 326.336C332.003 326.659 331.689 326.92 331.328 327.098C330.967 327.277 330.568 327.369 330.165 327.366Z" fill="#231F20"/>
<path d="M330.165 328.116H180.36C179.171 328.11 178.016 327.722 177.065 327.01C176.114 326.297 175.418 325.297 175.08 324.158L149.865 237.559C149.743 237.117 149.725 236.652 149.811 236.201C149.898 235.75 150.087 235.324 150.363 234.958C150.64 234.591 150.998 234.293 151.408 234.087C151.818 233.88 152.271 233.77 152.73 233.766H306.6C306.759 233.764 306.914 233.814 307.042 233.909C307.169 234.004 307.262 234.138 307.305 234.291L333.375 323.843C333.519 324.341 333.546 324.865 333.452 325.375C333.359 325.885 333.148 326.366 332.837 326.78C332.525 327.195 332.122 327.531 331.658 327.763C331.195 327.995 330.683 328.116 330.165 328.116ZM152.73 235.251C152.502 235.254 152.277 235.31 152.074 235.413C151.87 235.516 151.693 235.665 151.556 235.847C151.418 236.029 151.324 236.24 151.281 236.464C151.237 236.688 151.246 236.919 151.305 237.14L176.505 323.738C176.753 324.568 177.262 325.296 177.956 325.815C178.65 326.333 179.493 326.614 180.36 326.617H330.165C330.455 326.618 330.741 326.553 331.001 326.426C331.262 326.298 331.489 326.112 331.665 325.882C331.835 325.653 331.949 325.387 331.998 325.106C332.047 324.825 332.031 324.536 331.95 324.263L306 235.251H152.73Z" fill="#231F20"/>
<path d="M305.04 290.469L295.935 329.165C295.453 331.237 294.283 333.083 292.616 334.404C290.948 335.725 288.882 336.441 286.755 336.437H192C190.578 336.436 189.174 336.114 187.894 335.495C186.613 334.876 185.49 333.975 184.607 332.86C183.724 331.746 183.105 330.446 182.795 329.058C182.486 327.671 182.494 326.231 182.82 324.848L190.845 290.469H183L175.32 323.078C174.74 325.589 174.735 328.199 175.303 330.712C175.872 333.226 177.001 335.579 178.605 337.596C180.21 339.613 182.249 341.243 184.57 342.363C186.892 343.484 189.437 344.067 192.015 344.068H286.83C290.672 344.066 294.401 342.77 297.416 340.39C300.431 338.01 302.557 334.685 303.45 330.95L312.96 290.469H305.04Z" fill="white"/>
<path d="M286.755 344.923H192C189.302 344.922 186.64 344.312 184.211 343.137C181.783 341.963 179.651 340.255 177.977 338.141C176.302 336.027 175.127 333.562 174.539 330.931C173.952 328.299 173.968 325.568 174.585 322.944L182.25 290.319C182.29 290.155 182.385 290.01 182.518 289.907C182.652 289.803 182.816 289.748 182.985 289.75H190.905C191.017 289.751 191.128 289.777 191.229 289.827C191.33 289.876 191.419 289.947 191.49 290.034C191.559 290.122 191.607 290.225 191.63 290.334C191.654 290.443 191.652 290.556 191.625 290.664L183.54 325.043C183.242 326.317 183.236 327.643 183.522 328.921C183.808 330.198 184.379 331.395 185.192 332.421C186.005 333.447 187.04 334.277 188.219 334.848C189.398 335.418 190.69 335.716 192 335.717H286.815C288.775 335.721 290.679 335.06 292.216 333.843C293.752 332.626 294.831 330.924 295.275 329.016L304.38 290.319C304.417 290.157 304.509 290.012 304.64 289.908C304.771 289.805 304.933 289.749 305.1 289.75H313.02C313.132 289.752 313.242 289.778 313.342 289.828C313.443 289.877 313.531 289.948 313.601 290.035C313.671 290.122 313.721 290.224 313.748 290.333C313.775 290.441 313.777 290.554 313.755 290.664L304.23 331.145C303.314 335.083 301.085 338.592 297.909 341.096C294.733 343.6 290.8 344.95 286.755 344.923ZM183.51 291.249L176.01 323.288C175.441 325.696 175.425 328.202 175.964 330.616C176.503 333.031 177.583 335.292 179.122 337.23C180.661 339.168 182.619 340.732 184.849 341.805C187.08 342.878 189.525 343.431 192 343.424H286.815C290.514 343.434 294.107 342.19 297.006 339.894C299.906 337.598 301.939 334.386 302.775 330.785L312.075 291.249H305.7L296.7 329.361C296.186 331.601 294.923 333.599 293.121 335.027C291.319 336.455 289.085 337.227 286.785 337.217H192C190.463 337.217 188.946 336.87 187.563 336.201C186.18 335.532 184.966 334.559 184.012 333.355C183.058 332.151 182.389 330.747 182.056 329.247C181.722 327.748 181.732 326.193 182.085 324.698L189.945 291.249H183.51Z" fill="#231F20"/>
<path d="M427.231 211.562C427.231 211.562 440.641 271.083 429.661 286.286C418.681 301.489 342.001 299.09 342.001 299.09C342.001 299.09 329.566 314.008 318.766 313.018C307.966 312.029 314.266 291.609 326.971 283.108L325.216 276.016L392.821 265.176L383.821 222.402" fill="white"/>
<path d="M319.755 313.813C319.385 313.813 319.01 313.813 318.63 313.813C317.233 313.743 315.897 313.212 314.834 312.304C313.77 311.395 313.037 310.159 312.75 308.79C311.055 302.149 316.485 289.48 326.04 282.823L324.42 276.241C324.394 276.143 324.388 276.04 324.404 275.939C324.419 275.839 324.456 275.742 324.51 275.656C324.567 275.568 324.642 275.493 324.73 275.436C324.818 275.379 324.917 275.342 325.02 275.326L391.845 264.607L382.995 222.627C382.976 222.53 382.975 222.431 382.994 222.334C383.013 222.237 383.05 222.145 383.104 222.063C383.159 221.981 383.229 221.91 383.31 221.855C383.392 221.8 383.484 221.762 383.58 221.742C383.676 221.72 383.775 221.718 383.872 221.734C383.968 221.751 384.061 221.787 384.143 221.84C384.225 221.894 384.296 221.963 384.352 222.044C384.407 222.125 384.446 222.216 384.465 222.312L393.465 265.086C393.487 265.187 393.488 265.291 393.467 265.391C393.447 265.492 393.405 265.587 393.345 265.671C393.289 265.755 393.216 265.826 393.131 265.88C393.045 265.934 392.95 265.97 392.85 265.986L326.055 276.706L327.555 283.003C327.594 283.15 327.586 283.305 327.532 283.448C327.478 283.59 327.381 283.712 327.255 283.797C318.075 289.944 312.57 302.313 314.145 308.461C314.347 309.52 314.902 310.48 315.719 311.185C316.536 311.89 317.567 312.298 318.645 312.344C328.92 313.303 341.145 298.85 341.235 298.685C341.308 298.598 341.4 298.528 341.504 298.481C341.608 298.434 341.721 298.412 341.835 298.415C342.6 298.415 418.335 300.619 428.925 285.911C439.515 271.203 426.525 212.447 426.39 211.802C426.369 211.703 426.367 211.602 426.384 211.502C426.402 211.403 426.439 211.308 426.493 211.223C426.548 211.139 426.618 211.065 426.701 211.007C426.784 210.95 426.877 210.909 426.975 210.887C427.074 210.866 427.176 210.864 427.275 210.881C427.374 210.899 427.469 210.936 427.554 210.99C427.639 211.045 427.712 211.115 427.77 211.198C427.828 211.28 427.869 211.374 427.89 211.472C428.445 213.916 441.24 271.443 430.185 286.796C419.385 301.789 348.6 300.11 342.195 299.915C340.5 301.894 329.805 313.813 319.755 313.813Z" fill="#231F20"/>
<path d="M346.785 182.086C346.669 182.084 346.556 182.053 346.455 181.996C346.363 181.954 346.28 181.894 346.212 181.82C346.144 181.746 346.091 181.658 346.058 181.563C346.024 181.468 346.01 181.367 346.016 181.266C346.023 181.165 346.05 181.067 346.095 180.977C356.985 158.487 384.945 143.36 385.23 143.21C385.318 143.16 385.415 143.129 385.516 143.119C385.616 143.108 385.718 143.117 385.815 143.147C385.911 143.176 386.001 143.225 386.078 143.29C386.156 143.355 386.219 143.435 386.265 143.525C386.315 143.614 386.346 143.712 386.357 143.814C386.368 143.915 386.358 144.018 386.329 144.116C386.3 144.214 386.251 144.305 386.186 144.383C386.121 144.462 386.041 144.527 385.95 144.574C385.68 144.724 358.155 159.567 347.49 181.651C347.424 181.782 347.323 181.891 347.199 181.968C347.074 182.044 346.931 182.085 346.785 182.086Z" fill="#231F20"/>
<path d="M300.555 181.022C300.446 181.044 300.334 181.044 300.225 181.022C274.095 169.027 270.93 142.67 270.9 142.415C270.879 142.211 270.94 142.006 271.069 141.846C271.198 141.686 271.386 141.583 271.59 141.561C271.691 141.548 271.793 141.556 271.89 141.583C271.988 141.61 272.079 141.656 272.159 141.719C272.238 141.782 272.305 141.86 272.354 141.948C272.403 142.037 272.434 142.135 272.445 142.235C272.445 142.49 275.565 167.993 300.945 179.477C301.131 179.562 301.276 179.717 301.348 179.908C301.421 180.098 301.417 180.31 301.335 180.497C301.278 180.656 301.171 180.793 301.031 180.887C300.891 180.981 300.724 181.028 300.555 181.022Z" fill="#231F20"/>
<path d="M181.5 215.01C181.337 214.964 181.193 214.865 181.091 214.73C180.989 214.595 180.934 214.43 180.934 214.261C180.934 214.091 180.989 213.926 181.091 213.791C181.193 213.656 181.337 213.558 181.5 213.511C192.81 213.166 198.3 206.779 198.36 206.719C198.424 206.641 198.502 206.577 198.591 206.529C198.68 206.482 198.777 206.452 198.878 206.442C198.978 206.433 199.08 206.443 199.176 206.472C199.272 206.502 199.362 206.55 199.44 206.614C199.598 206.746 199.698 206.935 199.718 207.14C199.738 207.345 199.675 207.55 199.545 207.709C199.305 207.994 193.545 214.695 181.545 215.055L181.5 215.01Z" fill="#231F20"/>
<path d="M383.73 223.166C383.558 223.168 383.389 223.111 383.253 223.005C383.117 222.899 383.021 222.75 382.98 222.582C382.98 222.312 375.915 194.68 374.94 178.113C374.934 178.013 374.948 177.912 374.981 177.817C375.014 177.722 375.065 177.634 375.132 177.559C375.199 177.484 375.28 177.422 375.371 177.379C375.461 177.335 375.56 177.309 375.66 177.303C375.865 177.291 376.066 177.36 376.22 177.494C376.375 177.629 376.47 177.819 376.485 178.023C377.46 194.44 384.42 221.922 384.48 222.207C384.531 222.406 384.501 222.616 384.397 222.793C384.293 222.97 384.123 223.099 383.925 223.151L383.73 223.166Z" fill="#231F20"/>
<path d="M262.83 228.099C262.728 228.093 262.628 228.067 262.537 228.023C262.445 227.978 262.363 227.915 262.296 227.838C262.229 227.761 262.178 227.672 262.146 227.575C262.114 227.478 262.102 227.376 262.11 227.274L265.83 169.027C265.836 168.925 265.862 168.826 265.906 168.734C265.951 168.643 266.014 168.561 266.091 168.494C266.168 168.427 266.257 168.376 266.354 168.344C266.451 168.312 266.553 168.299 266.655 168.308C266.756 168.311 266.856 168.336 266.947 168.379C267.039 168.422 267.121 168.483 267.188 168.559C267.255 168.634 267.307 168.723 267.339 168.819C267.371 168.915 267.383 169.016 267.375 169.117L263.595 227.364C263.587 227.562 263.503 227.749 263.361 227.886C263.218 228.023 263.028 228.099 262.83 228.099Z" fill="#231F20"/>
<path d="M395.64 195.52C395.501 195.521 395.365 195.484 395.245 195.413C395.126 195.341 395.029 195.238 394.965 195.115L387.705 181.621C387.624 181.424 387.624 181.204 387.705 181.007C387.775 180.805 387.92 180.639 388.11 180.542L410.61 169.912C410.702 169.866 410.801 169.839 410.903 169.833C411.005 169.826 411.107 169.84 411.204 169.874C411.3 169.907 411.389 169.96 411.465 170.028C411.541 170.097 411.602 170.179 411.645 170.272C411.733 170.457 411.745 170.669 411.678 170.863C411.61 171.057 411.469 171.216 411.285 171.306L389.475 181.591L396.045 193.766L418.14 187.019C418.239 186.989 418.342 186.979 418.444 186.99C418.547 187 418.646 187.031 418.737 187.079C418.827 187.128 418.907 187.194 418.972 187.274C419.037 187.353 419.086 187.445 419.115 187.544C419.145 187.642 419.155 187.745 419.144 187.848C419.134 187.95 419.103 188.049 419.055 188.14C419.006 188.23 418.94 188.31 418.86 188.375C418.78 188.44 418.689 188.489 418.59 188.518L395.865 195.535L395.64 195.52Z" fill="#231F20"/>
<path d="M415.125 366.603C435.579 366.603 452.16 361.615 452.16 355.463C452.16 349.311 435.579 344.323 415.125 344.323C394.672 344.323 378.09 349.311 378.09 355.463C378.09 361.615 394.672 366.603 415.125 366.603Z" fill="white"/>
<path d="M415.125 367.352C393.945 367.352 377.34 362.135 377.34 355.463C377.34 348.791 393.945 343.574 415.125 343.574C436.305 343.574 452.91 348.791 452.91 355.463C452.91 362.135 436.305 367.352 415.125 367.352ZM415.125 345.073C393.42 345.073 378.84 350.44 378.84 355.463C378.84 360.486 393.42 365.853 415.125 365.853C436.83 365.853 451.41 360.486 451.41 355.463C451.41 350.44 436.83 345.073 415.125 345.073Z" fill="#D1D3D4"/>
<path d="M387.211 323.648L386.325 323.813C383.649 324.212 381.213 325.584 379.486 327.666C378.517 329.145 377.982 330.867 377.943 332.634C377.903 334.402 378.359 336.145 379.261 337.666C383.19 344.743 392.76 346.662 400.14 347.397C401.185 347.567 402.255 347.484 403.26 347.157C403.757 346.987 404.189 346.669 404.498 346.245C404.806 345.821 404.977 345.312 404.985 344.788C404.922 344.357 404.751 343.948 404.489 343.6C404.227 343.252 403.882 342.975 403.485 342.794C402.712 342.436 401.887 342.203 401.04 342.104C396.45 341.355 391.62 340.8 387.42 338.686C384.975 337.441 381.555 334.608 383.34 331.549C383.965 330.581 384.863 329.819 385.92 329.36C390.135 327.351 394.14 328.881 398.295 330.11C398.598 330.221 398.919 330.267 399.24 330.245C399.638 330.136 399.981 329.885 400.205 329.539C400.429 329.193 400.518 328.778 400.455 328.371C400.32 326.557 398.505 325.372 396.795 324.698C393.742 323.539 390.443 323.177 387.211 323.648Z" fill="white"/>
<path d="M401.385 348.221C400.949 348.22 400.514 348.195 400.08 348.146C388.815 347.082 381.795 343.784 378.6 338.026C377.627 336.38 377.138 334.492 377.188 332.58C377.238 330.669 377.827 328.81 378.885 327.216C380.725 324.99 383.32 323.517 386.175 323.078L387.105 322.914C390.484 322.41 393.935 322.787 397.125 324.008C398.625 324.563 401.07 325.867 401.265 328.311C401.341 328.909 401.193 329.513 400.849 330.009C400.506 330.504 399.992 330.855 399.405 330.995C398.978 331.023 398.55 330.967 398.145 330.83L397.065 330.5C393.375 329.375 389.895 328.326 386.31 330.035C385.381 330.428 384.592 331.092 384.045 331.939C383.85 332.248 383.723 332.596 383.674 332.958C383.625 333.32 383.654 333.688 383.76 334.038C384.583 335.81 386.023 337.222 387.81 338.011C391.535 339.632 395.486 340.673 399.525 341.1L401.22 341.37C402.152 341.472 403.06 341.73 403.905 342.134C404.508 342.361 405.022 342.775 405.371 343.316C405.72 343.856 405.885 344.495 405.843 345.137C405.801 345.779 405.554 346.391 405.137 346.881C404.721 347.372 404.157 347.716 403.53 347.862C402.843 348.111 402.116 348.233 401.385 348.221ZM387.33 324.398L386.475 324.548C383.985 324.918 381.714 326.181 380.085 328.101C379.2 329.467 378.716 331.053 378.686 332.68C378.657 334.307 379.085 335.91 379.92 337.307C382.845 342.584 389.49 345.643 400.215 346.647C401.137 346.799 402.081 346.737 402.975 346.467C403.323 346.35 403.629 346.132 403.853 345.841C404.077 345.55 404.21 345.199 404.235 344.833C404.187 344.535 404.066 344.253 403.882 344.012C403.699 343.772 403.46 343.58 403.185 343.454C402.488 343.135 401.743 342.933 400.98 342.854L399.285 342.584C395.092 342.138 390.994 341.046 387.135 339.346C384.975 338.383 383.256 336.644 382.32 334.473C382.156 333.924 382.11 333.346 382.184 332.777C382.259 332.209 382.454 331.663 382.755 331.175C383.45 330.069 384.465 329.201 385.665 328.686C389.775 326.722 393.705 327.906 397.5 329.061L398.58 329.39C398.782 329.464 398.996 329.5 399.21 329.495C399.57 329.495 399.795 328.881 399.765 328.431C399.645 326.752 397.5 325.762 396.585 325.432C393.638 324.307 390.45 323.961 387.33 324.428V324.398Z" fill="#231F20"/>
<path d="M390.675 316.062C390.675 316.062 397.605 350.635 398.175 352.719C398.745 354.803 415.125 363.364 428.175 354.953L439.59 319.615L390.675 316.062Z" fill="white"/>
<path d="M415.41 359.346C411.489 359.314 407.606 358.572 403.95 357.157C401.07 356.048 397.8 354.249 397.44 352.914C396.885 350.83 390.225 317.636 389.94 316.212C389.913 316.099 389.913 315.982 389.941 315.87C389.969 315.757 390.023 315.653 390.1 315.567C390.176 315.48 390.273 315.413 390.381 315.371C390.489 315.329 390.605 315.314 390.72 315.327L439.635 318.955C439.749 318.961 439.861 318.993 439.96 319.049C440.06 319.105 440.145 319.183 440.209 319.278C440.273 319.372 440.314 319.48 440.329 319.594C440.344 319.707 440.332 319.822 440.295 319.93L428.88 355.268C428.824 355.431 428.712 355.569 428.565 355.658C424.634 358.144 420.061 359.426 415.41 359.346ZM391.605 316.886C392.73 322.509 398.4 350.68 398.895 352.524C399.105 353.019 401.805 355.028 406.59 356.483C411.09 357.847 419.7 359.391 427.59 354.473L438.63 320.305L391.605 316.886Z" fill="#231F20"/>
<path d="M439.708 318.078C439.948 312.221 429.172 307.022 415.639 306.467C402.105 305.912 390.939 310.21 390.699 316.068C390.458 321.925 401.234 327.124 414.768 327.679C428.301 328.234 439.467 323.936 439.708 318.078Z" fill="#231F20"/>
<path d="M417.105 328.476C416.31 328.476 415.515 328.476 414.72 328.476C400.545 327.906 389.655 322.479 389.925 316.092C390.195 309.705 401.49 305.207 415.65 305.792C429.81 306.377 440.7 311.789 440.43 318.176C440.31 321.324 437.43 324.173 432.465 326.032C427.533 327.762 422.33 328.59 417.105 328.476ZM413.34 307.171C401.445 307.171 391.62 311.069 391.41 316.167C391.2 321.504 401.91 326.467 414.78 326.992C420.623 327.332 426.476 326.512 432 324.578C436.35 322.914 438.9 320.53 439.005 318.056C439.23 312.703 428.505 307.741 415.65 307.216L413.34 307.171Z" fill="#231F20"/>
<path d="M356.505 220.003H277.14C276.941 220.003 276.75 219.924 276.609 219.783C276.469 219.643 276.39 219.452 276.39 219.253V195.835C276.394 195.637 276.474 195.449 276.614 195.309C276.754 195.169 276.942 195.089 277.14 195.085H356.505C356.704 195.085 356.894 195.164 357.035 195.305C357.176 195.445 357.255 195.636 357.255 195.835V219.298C357.243 219.489 357.159 219.669 357.02 219.8C356.88 219.931 356.696 220.003 356.505 220.003ZM277.89 218.504H355.755V196.584H277.89V218.504Z" fill="white"/>
<path d="M503.67 385.958H96.3153V401.656H503.67V385.958Z" fill="white"/>
<path d="M503.685 402.405H96.3152C96.1163 402.405 95.9255 402.326 95.7849 402.186C95.6442 402.045 95.5652 401.855 95.5652 401.656V385.958C95.569 385.761 95.6493 385.572 95.7891 385.433C95.9289 385.293 96.1175 385.213 96.3152 385.209H503.685C503.883 385.213 504.071 385.293 504.211 385.433C504.351 385.572 504.431 385.761 504.435 385.958V401.656C504.435 401.855 504.356 402.045 504.215 402.186C504.075 402.326 503.884 402.405 503.685 402.405ZM97.0652 400.906H502.935V386.708H97.0652V400.906Z" fill="#D1D3D4"/>
<path d="M439.575 239.359C439.378 239.351 439.191 239.267 439.054 239.124C438.917 238.982 438.84 238.792 438.84 238.594C438.84 236.87 439.935 196.224 444.42 182.146C448.905 168.068 457.32 162.206 457.665 161.981C457.83 161.869 458.033 161.828 458.229 161.866C458.424 161.904 458.596 162.018 458.708 162.183C458.819 162.348 458.861 162.551 458.823 162.746C458.785 162.941 458.67 163.114 458.505 163.225C458.415 163.225 450.21 168.907 445.845 182.596C441.48 196.284 440.355 238.204 440.34 238.624C440.338 238.722 440.317 238.819 440.278 238.91C440.238 239 440.181 239.081 440.11 239.15C440.039 239.218 439.955 239.271 439.864 239.307C439.772 239.343 439.674 239.361 439.575 239.359Z" fill="white"/>
</svg>
