<svg width="268" height="100" viewBox="0 0 268 100" fill="none" xmlns="http://www.w3.org/2000/svg">
<path d="M1 90C60.0462 72.0246 62.3846 93.069 80.5077 83.4236C98.6308 73.7783 112.662 95.2611 131.954 77.2858C151.246 59.3104 138.969 50.9803 174.631 47.0345C210.292 43.0887 216.138 40.8966 233.092 23.3596C246.655 9.33005 261.349 2.60755 267 1" stroke="white" stroke-opacity="0.5" stroke-linecap="round"/>
<path d="M267 11.383C203.398 35.0166 200.879 7.34805 181.358 20.0295C161.836 32.7109 146.723 4.46585 125.942 28.0994C105.161 51.7329 118.385 62.6851 79.9723 67.8729C41.5592 73.0608 35.262 75.9429 17 99" stroke="white" stroke-opacity="0.5" stroke-linecap="round"/>
</svg>
