<svg width="36" height="27" viewBox="0 0 36 27" fill="none" xmlns="http://www.w3.org/2000/svg">
<path d="M35.2472 27V18.9034C35.2472 16.6544 34.8092 14.3816 33.9332 12.0852C33.0336 9.76515 31.8736 7.61079 30.4531 5.62216C29.009 3.60985 27.5175 1.95265 25.9787 0.650569L18.5923 4.69886C19.8707 6.7822 20.8887 8.96023 21.6463 11.233C22.4039 13.482 22.7708 16.027 22.7472 18.8679V27H35.2472ZM17.4205 27V18.9034C17.4205 16.6544 16.9825 14.3816 16.1065 12.0852C15.2069 9.76515 14.0469 7.61079 12.6264 5.62216C11.1823 3.60985 9.69081 1.95265 8.15199 0.650569L0.765625 4.69886C2.04403 6.7822 3.06203 8.96023 3.8196 11.233C4.57718 13.482 4.94413 16.027 4.92045 18.8679V27H17.4205Z" fill="#E0EAFF"/>
</svg>
