<svg width="99" height="114" viewBox="0 0 99 114" fill="none" xmlns="http://www.w3.org/2000/svg">
<path d="M39.4302 57.1865C38.1795 56.3964 37.0253 55.468 35.99 54.4194C32.3488 50.5474 31.3482 44.4252 26.8456 41.582C25.8366 45.0787 24.4355 48.4545 22.668 51.6471C24.1792 55.4505 26.679 58.798 29.918 61.3556C33.157 63.9131 37.0218 65.5914 41.127 66.2228C42.9199 66.5534 44.7681 66.4419 46.5064 65.8985C49.0852 64.9508 50.7666 63.0249 47.9505 61.6312C45.052 60.202 42.1482 58.9857 39.4302 57.1865Z" fill="#68E1FD"/>
<path d="M43.4004 66.6554C42.6286 66.6496 41.8582 66.5903 41.0949 66.478C36.9493 65.8253 33.0481 64.1231 29.7753 61.5389C26.5025 58.9547 23.9708 55.5777 22.4296 51.7401C22.4142 51.7067 22.4063 51.6704 22.4062 51.6337C22.4062 51.597 22.4142 51.5607 22.4296 51.5273C24.1853 48.3517 25.5778 44.9947 26.5815 41.5179C26.5916 41.479 26.6116 41.4434 26.6395 41.4141C26.6675 41.3849 26.7025 41.3631 26.7413 41.3507C26.7765 41.3333 26.8154 41.3242 26.8548 41.3242C26.8942 41.3242 26.9331 41.3333 26.9683 41.3507C29.6399 43.0282 31.0944 45.8561 32.5436 48.5929C33.5752 50.5745 34.6479 52.6169 36.154 54.2285C37.1754 55.2633 38.3141 56.1799 39.5477 56.9602C41.548 58.2194 43.6369 59.3372 45.7987 60.3051C46.5465 60.6599 47.2944 61.0146 48.0422 61.3846C49.4245 62.0688 49.6772 62.8442 49.6462 63.3713C49.5895 64.3849 48.4136 65.4441 46.5517 66.1131C45.5429 66.4782 44.4754 66.6619 43.4004 66.6554ZM22.9557 51.6692C24.475 55.3966 26.9511 58.6736 30.1427 61.181C33.3343 63.6883 37.1325 65.3404 41.1671 65.9762C43.3282 66.2803 44.9941 66.179 46.4227 65.662C48.0371 65.0691 49.1098 64.1416 49.1563 63.3611C49.1975 62.677 48.46 62.1651 47.8359 61.8407C47.0932 61.4708 46.3454 61.116 45.6027 60.7663C43.419 59.7857 41.3078 58.6561 39.2846 57.3859C38.0193 56.581 36.8498 55.6392 35.7981 54.5782C34.2508 52.9159 33.1522 50.838 32.1001 48.8311C30.6972 46.14 29.3666 43.5907 26.9941 41.974C25.9995 45.3366 24.6458 48.5864 22.9557 51.6692Z" fill="#231F20"/>
<path d="M37.0471 59.4068C35.6133 59.2294 34.066 58.9406 33.0809 57.8864C32.5238 57.2935 32.2041 56.5079 31.6367 55.92C30.3938 54.6327 28.3668 54.6074 26.572 54.4706C23.4216 54.2355 20.3459 53.4116 17.5101 52.043L17.2109 63.4613C17.2367 62.5743 24.0705 63.7552 24.7049 63.9681C27.0826 64.7181 28.4029 66.4159 30.9869 66.7656C35.899 67.4304 40.9009 66.9725 45.6035 65.4277C46.9135 65.0019 50.4259 64.2873 51.1892 63.0102C52.2207 61.3225 50.4207 59.8579 48.8115 59.5994C47.2643 59.3561 45.6241 59.7616 44.0975 59.8376C41.739 59.8989 39.3797 59.7547 37.0471 59.4068Z" fill="#68E1FD"/>
<path d="M35.3601 67.2981C33.8884 67.2976 32.4184 67.1977 30.9607 66.9991C29.6246 66.765 28.357 66.2461 27.2472 65.4786C26.4337 64.9484 25.5573 64.5178 24.6375 64.1964C23.7607 63.9228 18.0667 63.0561 17.4735 63.5072C17.4599 63.5649 17.4272 63.6166 17.3806 63.6542C17.3339 63.6918 17.276 63.7131 17.2157 63.715C17.1818 63.7143 17.1484 63.7071 17.1174 63.6937C17.0863 63.6804 17.0583 63.6612 17.0348 63.6372C17.0113 63.6132 16.9929 63.5849 16.9806 63.5539C16.9683 63.5229 16.9623 63.4898 16.9629 63.4565L17.2621 52.0382C17.2642 51.9951 17.277 51.9531 17.2995 51.916C17.322 51.8788 17.3534 51.8477 17.391 51.8253C17.4282 51.8054 17.4699 51.7949 17.5122 51.7949C17.5546 51.7949 17.5963 51.8054 17.6334 51.8253C20.4355 53.1795 23.4739 53.9982 26.587 54.2377L27.0512 54.2732C28.7223 54.3847 30.6203 54.5165 31.822 55.7683C32.1114 56.0805 32.3689 56.42 32.5905 56.7819C32.7874 57.1129 33.0153 57.425 33.2713 57.7144C34.2151 58.728 35.7314 58.9763 37.0827 59.1487C39.4043 59.4855 41.7513 59.6229 44.0971 59.5592C44.6128 59.5338 45.0925 59.473 45.6444 59.4122C46.7131 59.2369 47.8014 59.2079 48.8782 59.326C49.438 59.4049 49.9718 59.6091 50.4386 59.9228C50.9054 60.2365 51.2926 60.6513 51.5704 61.1353C51.722 61.4485 51.7893 61.7947 51.7658 62.1408C51.7423 62.4868 51.6289 62.8212 51.4363 63.1119C50.771 64.2268 48.414 64.8806 46.6913 65.3621C46.3045 65.4685 45.9693 65.5597 45.7114 65.6459C42.3733 66.738 38.8783 67.2959 35.3601 67.2981ZM18.5051 62.8838C20.6212 62.9795 22.7248 63.2559 24.7922 63.7099C25.7534 64.0398 26.6684 64.4876 27.5154 65.0428C28.565 65.7755 29.7659 66.2721 31.0329 66.4973C35.9069 67.1529 40.8691 66.6986 45.536 65.1695C45.7939 65.0833 46.1395 64.987 46.5366 64.8755C47.9859 64.4752 50.4151 63.7961 50.9773 62.8483C51.1299 62.6267 51.2203 62.3694 51.2393 62.1024C51.2584 61.8355 51.2053 61.5683 51.0856 61.3279C50.8435 60.9195 50.5102 60.5705 50.1109 60.3071C49.7115 60.0438 49.2565 59.8729 48.7802 59.8075C47.7495 59.6972 46.7083 59.7262 45.6856 59.8937C45.1699 59.9545 44.6541 60.0204 44.1383 60.0457C41.7615 60.1105 39.3834 59.9715 37.0312 59.6301C35.5922 59.4477 33.9675 59.1639 32.9051 58.0388C32.6254 57.7248 32.3767 57.3854 32.1624 57.0251C31.9603 56.6861 31.7254 56.3671 31.461 56.0724C30.3933 54.9625 28.681 54.8459 27.0254 54.7293L26.5612 54.6989C23.5219 54.4613 20.5514 53.6852 17.7933 52.4082L17.5096 62.975C17.8372 62.9104 18.171 62.8815 18.5051 62.8889V62.8838Z" fill="#231F20"/>
<path d="M18.6753 79.4606C21.7602 81.4549 24.517 83.9005 26.8501 86.713C28.3716 88.6338 30.5378 91.781 31.2341 94.1326C31.7498 93.7981 32.2656 93.4129 32.8174 93.0531C32.5693 92.4687 32.278 91.903 31.9458 91.3604C29.9189 88.0104 24.5808 80.2107 17.5045 77.5449C17.3229 77.9226 17.1779 78.3163 17.0713 78.7207C17.6448 78.8761 18.1873 79.1263 18.6753 79.4606Z" fill="white"/>
<path d="M31.2342 94.4082H31.1413C31.1045 94.3933 31.0716 94.3706 31.0448 94.3417C31.018 94.3128 30.9982 94.2783 30.9866 94.2409C30.3368 92.0566 28.3201 89.0209 26.6491 86.9075C24.3397 84.1084 21.605 81.6759 18.5413 79.6957C18.0699 79.3752 17.5468 79.1353 16.994 78.9861C16.9606 78.9786 16.9292 78.9644 16.9017 78.9444C16.8741 78.9243 16.8511 78.8988 16.8342 78.8696C16.816 78.8412 16.8043 78.8093 16.7999 78.7761C16.7954 78.7428 16.7983 78.709 16.8084 78.677C16.9188 78.2553 17.069 77.8447 17.2571 77.4505C17.2869 77.3949 17.3364 77.3518 17.3962 77.3294C17.456 77.307 17.5221 77.3068 17.582 77.3289C24.8026 80.0352 30.182 87.9718 32.1677 91.2559C32.5031 91.8097 32.7995 92.3854 33.0548 92.979C33.0779 93.0324 33.0813 93.092 33.0643 93.1475C33.0473 93.2031 33.0111 93.251 32.962 93.2831L32.4462 93.653C32.0955 93.8963 31.7448 94.1599 31.3889 94.3676C31.3422 94.3952 31.2886 94.4093 31.2342 94.4082ZM18.8198 79.275C21.9372 81.2788 24.7208 83.744 27.072 86.5831C28.6966 88.6104 30.641 91.5397 31.3992 93.7645L32.1574 93.2577L32.5184 93.0043C32.2944 92.4963 32.0359 92.0036 31.7448 91.5295C29.8107 88.3215 24.586 80.6333 17.6387 77.9016C17.5434 78.1244 17.4625 78.3529 17.3963 78.5858C17.9092 78.7522 18.3955 78.9894 18.8405 79.2902L18.8198 79.275Z" fill="#231F20"/>
<path d="M26.6649 76.6428C26.6649 76.6428 21.1205 76.06 18.6758 79.4606H14.2402C14.2402 79.4606 15.6122 76.5414 19.9703 75.1173C24.3285 73.6932 27.4695 75.1173 27.4695 75.1173L26.6649 76.6428Z" fill="white"/>
<path d="M18.6753 79.7341H14.2398C14.1968 79.7331 14.1547 79.722 14.117 79.7017C14.0793 79.6815 14.0471 79.6526 14.0231 79.6175C14.0028 79.5801 13.9922 79.5383 13.9922 79.4959C13.9922 79.4535 14.0028 79.4117 14.0231 79.3742C14.0799 79.2526 15.4931 76.3334 19.9028 74.8941C24.3125 73.4548 27.4587 74.8485 27.5928 74.8941C27.6243 74.9093 27.6525 74.9307 27.6755 74.9568C27.6985 74.9829 27.716 75.0133 27.7269 75.0461C27.7524 75.1096 27.7524 75.1803 27.7269 75.2438L26.9223 76.7642C26.8967 76.8082 26.8588 76.844 26.8131 76.8674C26.7674 76.8908 26.7157 76.9007 26.6644 76.896C26.6128 76.896 21.2231 76.3892 18.928 79.6276C18.9013 79.6679 18.8631 79.6996 18.8181 79.7185C18.7731 79.7374 18.7234 79.7429 18.6753 79.7341ZM14.6833 79.2273H18.5412C20.8312 76.1408 25.5297 76.3081 26.5097 76.374L27.1028 75.2691C24.801 74.5427 22.3201 74.5801 20.0421 75.3756C17.8608 76.0209 15.9699 77.38 14.6833 79.2273Z" fill="#231F20"/>
<path d="M20.4857 87.1394C20.0794 87.4786 19.6326 87.7679 19.1551 88.001C18.9431 88.1062 18.7242 88.1976 18.5 88.2746C18.2031 88.3731 17.8975 88.4444 17.5871 88.4875C17.2072 88.5382 16.8221 88.5382 16.4422 88.4875C15.1649 88.29 14.0142 87.6166 13.229 86.6072C12.6076 85.8817 12.193 85.0074 12.0273 84.0732C11.974 83.738 11.9618 83.3977 11.9912 83.0596C12.0197 82.6722 12.1012 82.2903 12.2336 81.9243C12.3046 81.7248 12.389 81.5301 12.4863 81.3415C12.8804 80.6037 13.4246 79.9534 14.0851 79.4308C14.712 78.9238 15.406 78.5027 16.1482 78.179C16.294 78.1083 16.4439 78.0457 16.5969 77.9915C18.9849 77.059 21.6565 77.1147 22.9407 78.6655C24.225 80.2164 23.7556 82.8923 22.3424 85.0665C22.2599 85.1983 22.1671 85.3301 22.0743 85.4568C21.6217 86.0834 21.0877 86.649 20.4857 87.1394Z" fill="#68E1FD"/>
<path d="M19.6549 77.3678C20.2632 77.3283 20.8728 77.4234 21.4387 77.6462C22.0047 77.869 22.5125 78.2138 22.9248 78.655C24.2245 80.2211 23.7397 82.8818 22.3265 85.056C22.244 85.1877 22.1512 85.3195 22.0583 85.4462C21.6193 86.0738 21.0992 86.6428 20.5111 87.1389C20.1034 87.4764 19.6568 87.7656 19.1804 88.0005C18.9684 88.1057 18.7496 88.1972 18.5254 88.2742C18.2284 88.3726 17.9228 88.4439 17.6125 88.487C17.4192 88.5113 17.2245 88.5232 17.0297 88.5225C16.8417 88.5235 16.6538 88.5116 16.4675 88.487C15.1903 88.2895 14.0396 87.6161 13.2543 86.6068C12.633 85.8813 12.2183 85.0069 12.0526 84.0728C11.9993 83.7375 11.9872 83.3972 12.0165 83.0592C12.045 82.6718 12.1266 82.2899 12.2589 81.9239C12.3299 81.7244 12.4144 81.5297 12.5116 81.3411C12.9057 80.6033 13.45 79.953 14.1105 79.4305C14.7374 78.9234 15.4314 78.5023 16.1735 78.1786C16.3194 78.1079 16.4692 78.0453 16.6222 77.9911C17.6057 77.5985 18.6553 77.3905 19.7168 77.3779L19.6549 77.3678ZM19.7168 76.8711C18.5968 76.8846 17.4894 77.1047 16.452 77.5198C16.2921 77.5806 16.1323 77.6465 15.9775 77.7175C15.1993 78.0597 14.4722 78.5047 13.8165 79.0402C13.1022 79.6076 12.5141 80.3131 12.0887 81.113C11.9794 81.321 11.8846 81.536 11.805 81.7567C11.6626 82.1595 11.5725 82.5784 11.5368 83.0034V83.044C11.506 83.4127 11.5216 83.7838 11.5833 84.1488C11.758 85.1755 12.2085 86.1377 12.8881 86.9362C13.7539 88.05 15.0262 88.7897 16.4366 88.9989C16.645 89.0277 16.8553 89.0413 17.0658 89.0394C17.6315 89.0409 18.1933 88.9467 18.7265 88.7607C18.9737 88.6789 19.2149 88.5807 19.4486 88.4668C19.9596 88.2127 20.439 87.9015 20.8772 87.5393C21.5088 87.0161 22.0687 86.4148 22.5432 85.7503C22.6411 85.6185 22.734 85.4817 22.8268 85.3398C24.7558 82.3699 24.4979 79.6839 23.3838 78.3459C22.5999 77.3931 21.295 76.8711 19.7168 76.8711Z" fill="#231F20"/>
<path d="M22.0581 85.4457C21.86 85.336 21.6391 85.2721 21.4121 85.259C21.1851 85.2458 20.958 85.2836 20.7481 85.3697C20.4777 85.5339 20.1723 85.6345 19.8558 85.6636C19.7043 85.6528 19.5602 85.5949 19.4443 85.4983C19.3285 85.4018 19.2468 85.2715 19.2111 85.1264C19.1405 84.8408 19.1849 84.5394 19.3349 84.2851C19.426 84.1263 19.5332 83.9769 19.6547 83.8391C19.7747 83.7238 19.8725 83.5882 19.9435 83.4387C20.0312 83.1245 19.5 83.236 19.3607 83.3019C19.0966 83.4618 18.8145 83.591 18.52 83.6871C18.3859 83.71 18.2482 83.7031 18.1172 83.6667C17.9862 83.6303 17.8652 83.5654 17.7632 83.4768C17.6612 83.3882 17.5807 83.2782 17.5278 83.155C17.4749 83.0317 17.4509 82.8983 17.4576 82.7647C17.4266 82.0704 17.9424 81.599 18.2364 81.0112C18.2673 80.9503 18.324 80.8642 18.2828 80.8084C18.2415 80.7527 18.1384 80.7426 18.0868 80.7375C17.9516 80.7264 17.8155 80.7384 17.6845 80.773C17.3874 80.8619 17.1019 80.9843 16.8335 81.1379C16.3796 81.3608 15.5802 81.7714 15.2501 81.1733C14.92 80.5753 15.3687 79.9621 15.7143 79.5161C15.9544 79.2661 16.1311 78.964 16.2301 78.6342C16.2474 78.5547 16.2486 78.4725 16.2335 78.3925C16.2185 78.3125 16.1875 78.2362 16.1424 78.168C16.2883 78.0973 16.4381 78.0347 16.5911 77.9805C16.6694 78.1758 16.7026 78.3857 16.6883 78.5952C16.674 78.8047 16.6126 79.0084 16.5086 79.1917C16.3229 79.5313 16.0547 79.805 15.8484 80.1293C15.7349 80.3118 15.4306 80.9503 15.802 81.0162C16.0702 81.0669 16.426 80.8287 16.6581 80.7121C16.9312 80.5679 17.2158 80.4458 17.5091 80.3472C17.7918 80.2503 18.098 80.2415 18.3859 80.3219C18.5255 80.3651 18.6422 80.4606 18.7107 80.5877C18.7793 80.7148 18.7941 80.8632 18.7521 81.001C18.5768 81.6041 17.8856 82.0704 17.9372 82.7444C17.9372 83.0029 18.0971 83.2512 18.4014 83.2512C18.7088 83.1566 19.002 83.0219 19.273 82.8509C19.3997 82.7922 19.5379 82.7617 19.6779 82.7617C19.8179 82.7617 19.9562 82.7922 20.0828 82.8509C20.2063 82.91 20.3063 83.0078 20.367 83.1289C20.4277 83.2501 20.4456 83.3876 20.418 83.5198C20.3458 83.8391 20.0467 84.0824 19.861 84.3409C19.6753 84.5993 19.5206 84.9389 19.7579 85.1517C19.9951 85.3646 20.32 85.0707 20.516 84.9794C20.8043 84.8495 21.1202 84.7895 21.437 84.8045C21.7539 84.8195 22.0624 84.909 22.3367 85.0656C22.2438 85.1872 22.151 85.319 22.0581 85.4457Z" fill="white"/>
<path d="M19.1553 88.0016C18.9433 88.1068 18.7245 88.1982 18.5003 88.2752C17.7702 88.002 17.0773 87.6411 16.4373 87.2008C15.498 86.5392 14.6786 85.7271 14.0132 84.7986C13.3287 83.8966 12.7362 82.9308 12.2441 81.9149C12.3152 81.7153 12.3996 81.5206 12.4969 81.332C12.6361 81.6513 12.7857 81.9655 12.9507 82.2696C13.4822 83.2671 14.1147 84.2095 14.8384 85.0824C15.4864 85.8835 16.2697 86.5692 17.1542 87.1096C17.7814 87.4865 18.4536 87.7861 19.1553 88.0016Z" fill="white"/>
<path d="M17.5874 88.4868C17.2075 88.5375 16.8223 88.5375 16.4424 88.4868C16.0863 88.3049 15.7418 88.1018 15.4109 87.8787C14.4736 87.2127 13.6546 86.3994 12.9868 85.4713C12.6516 85.0152 12.3267 84.5439 12.0224 84.0624C11.9691 83.7272 11.957 83.3869 11.9863 83.0488C12.507 84.0069 13.1183 84.9146 13.8121 85.7602C14.4631 86.5604 15.2479 87.2459 16.133 87.7874C16.595 88.0639 17.0818 88.298 17.5874 88.4868Z" fill="white"/>
<path d="M16.5026 83.4606C16.6899 83.2279 16.6551 82.8943 16.425 82.7155C16.1949 82.5366 15.8565 82.5803 15.6692 82.813C15.4819 83.0457 15.5166 83.3794 15.7467 83.5582C15.9769 83.737 16.3153 83.6934 16.5026 83.4606Z" fill="white"/>
<path d="M14.5865 82.8415C14.7738 82.6088 14.7391 82.2752 14.509 82.0963C14.2789 81.9175 13.9405 81.9612 13.7532 82.1939C13.5659 82.4266 13.6006 82.7602 13.8307 82.939C14.0609 83.1179 14.3992 83.0742 14.5865 82.8415Z" fill="white"/>
<path d="M16.5289 85.6403C16.7162 85.4076 16.6815 85.074 16.4514 84.8952C16.2213 84.7163 15.8829 84.76 15.6956 84.9927C15.5083 85.2254 15.543 85.559 15.7731 85.7379C16.0032 85.9167 16.3416 85.873 16.5289 85.6403Z" fill="white"/>
<path d="M20.6774 81.5622C20.8647 81.3295 20.8299 80.9959 20.5998 80.817C20.3697 80.6382 20.0313 80.6819 19.844 80.9146C19.6567 81.1473 19.6914 81.4809 19.9216 81.6598C20.1517 81.8386 20.4901 81.7949 20.6774 81.5622Z" fill="white"/>
<path d="M18.4615 85.8239C18.6488 85.5912 18.6141 85.2576 18.384 85.0787C18.1539 84.8999 17.8155 84.9436 17.6282 85.1763C17.4409 85.409 17.4756 85.7426 17.7057 85.9215C17.9359 86.1003 18.2742 86.0566 18.4615 85.8239Z" fill="white"/>
<path d="M23.2916 81.8649C23.4789 81.6322 23.4442 81.2986 23.2141 81.1198C22.984 80.9409 22.6456 80.9846 22.4583 81.2173C22.271 81.45 22.3057 81.7836 22.5358 81.9625C22.7659 82.1413 23.1043 82.0977 23.2916 81.8649Z" fill="white"/>
<path d="M21.3307 79.5036C21.518 79.2709 21.4833 78.9373 21.2531 78.7584C21.023 78.5796 20.6846 78.6233 20.4973 78.856C20.31 79.0887 20.3448 79.4223 20.5749 79.6012C20.805 79.78 21.1434 79.7363 21.3307 79.5036Z" fill="white"/>
<path d="M19.6256 79.1286C19.8129 78.8959 19.7782 78.5623 19.5481 78.3834C19.3179 78.2046 18.9796 78.2483 18.7923 78.481C18.605 78.7137 18.6397 79.0473 18.8698 79.2262C19.0999 79.405 19.4383 79.3613 19.6256 79.1286Z" fill="white"/>
<path d="M19.5904 87.1872C19.7777 86.9545 19.743 86.6209 19.5129 86.442C19.2828 86.2632 18.9444 86.3069 18.7571 86.5396C18.5698 86.7723 18.6045 87.1059 18.8346 87.2848C19.0648 87.4636 19.4031 87.4199 19.5904 87.1872Z" fill="white"/>
<path d="M22.2154 83.4216C22.4027 83.1889 22.368 82.8552 22.1379 82.6764C21.9078 82.4976 21.5694 82.5412 21.3821 82.7739C21.1948 83.0067 21.2295 83.3403 21.4596 83.5191C21.6898 83.698 22.0281 83.6543 22.2154 83.4216Z" fill="white"/>
<path d="M28.0879 95.8615C27.451 96.3641 26.7255 96.7472 25.9475 96.9917C24.7389 97.3706 23.4272 97.2668 22.2959 96.7028C21.7816 96.437 21.312 96.0952 20.9034 95.6892C20.5069 95.3147 20.1604 94.8924 19.8718 94.4323C19.5797 93.96 19.3607 93.4476 19.222 92.9119C19.0614 92.2898 19.0349 91.6416 19.1442 91.0089C19.2534 90.3762 19.496 89.7728 19.8564 89.2376C20.275 88.6105 20.7981 88.0571 21.4036 87.6006C21.7182 87.3608 22.049 87.1423 22.3939 86.9468C23.5855 86.2626 24.9073 85.8262 26.2776 85.6646C26.8415 85.604 27.4105 85.604 27.9744 85.6646C28.945 85.7343 29.8638 86.1215 30.5842 86.7644C30.6819 86.8563 30.7732 86.9545 30.8575 87.0583C30.9407 87.1623 31.0182 87.2706 31.0896 87.3827C31.6061 88.3107 31.7584 89.3926 31.5177 90.4235C31.4544 90.767 31.3665 91.1057 31.2547 91.4371C30.8249 92.6598 30.1497 93.7852 29.269 94.7465C28.9112 95.1532 28.5158 95.5265 28.0879 95.8615Z" fill="white"/>
<path d="M27.232 85.6501C27.4887 85.6507 27.7452 85.6643 28.0005 85.6907C28.971 85.7603 29.8899 86.1475 30.6102 86.7904C30.7079 86.8823 30.7992 86.9805 30.8836 87.0844C30.9667 87.1884 31.0442 87.2966 31.1157 87.4087C31.6321 88.3367 31.7844 89.4186 31.5437 90.4496C31.4804 90.7931 31.3925 91.1318 31.2807 91.4632C30.851 92.6858 30.1757 93.8112 29.295 94.7726C28.9286 95.1769 28.5245 95.5468 28.0881 95.8774C27.4513 96.38 26.7257 96.7631 25.9477 97.0076C25.4667 97.1543 24.966 97.2295 24.4624 97.2306C23.7096 97.2325 22.9672 97.0588 22.2962 96.7238C21.7819 96.458 21.3122 96.1161 20.9036 95.7102C20.5072 95.3356 20.1606 94.9133 19.8721 94.4533C19.58 93.981 19.361 93.4686 19.2222 92.9329C19.0617 92.3108 19.0352 91.6626 19.1444 91.0299C19.2537 90.3971 19.4963 89.7938 19.8566 89.2586C20.2753 88.6315 20.7983 88.0781 21.4039 87.6216C21.7184 87.3817 22.0493 87.1633 22.3942 86.9678C23.5857 86.2836 24.9076 85.8472 26.2778 85.6856C26.586 85.6497 26.8959 85.6311 27.2062 85.6299L27.232 85.6501ZM27.2062 85.123C26.8771 85.1244 26.5482 85.143 26.2211 85.1788C24.7837 85.363 23.3993 85.832 22.1517 86.5573C21.7952 86.7699 21.4508 87.0017 21.1202 87.2516C20.4652 87.7434 19.8986 88.3396 19.444 89.0153C19.0452 89.6054 18.7768 90.2711 18.656 90.9695C18.5351 91.6678 18.5646 92.3833 18.7426 93.0697C18.8933 93.6495 19.1333 94.2032 19.4543 94.7118C19.6089 94.9616 19.7813 95.2004 19.9701 95.4264C20.1542 95.6526 20.3523 95.8676 20.5632 96.07C21.0191 96.5062 21.5411 96.8704 22.1105 97.1495C22.8536 97.5208 23.6751 97.7153 24.5088 97.7171C25.0651 97.7161 25.6181 97.6324 26.1489 97.4688C26.986 97.2062 27.7673 96.7958 28.4543 96.2575C28.9118 95.905 29.3364 95.5133 29.7231 95.0868C30.652 94.0762 31.3642 92.8921 31.8171 91.6051C31.9376 91.2561 32.0307 90.8986 32.0956 90.5357C32.3561 89.3801 32.1724 88.1706 31.5798 87.1401C31.4987 87.008 31.4091 86.881 31.3116 86.76C31.215 86.6397 31.1098 86.5263 30.997 86.4205C30.1938 85.6996 29.1677 85.2642 28.083 85.1839C27.809 85.1531 27.5335 85.1379 27.2578 85.1383L27.2062 85.123Z" fill="#231F20"/>
<path d="M24.8388 87.4535C23.8073 87.8793 22.7191 87.7069 22.4509 87.0633C22.4383 87.0389 22.428 87.0135 22.4199 86.9873C23.6115 86.3031 24.9333 85.8667 26.3036 85.7051C26.3964 86.3183 25.7878 87.0633 24.8388 87.4535Z" fill="#68E1FD"/>
<path d="M24.164 90.7908C25.067 90.1126 25.4513 89.1158 25.0224 88.5643C24.5934 88.0127 23.5136 88.1154 22.6106 88.7936C21.7076 89.4717 21.3233 90.4686 21.7523 91.0201C22.1813 91.5716 23.261 91.4689 24.164 90.7908Z" fill="#68E1FD"/>
<path d="M30.6097 86.7892C30.4549 86.8249 30.2982 86.852 30.1404 86.8703C29.0108 86.9767 28.0515 86.5003 27.9999 85.806C27.9948 85.7673 27.9948 85.7281 27.9999 85.6895C28.9705 85.7591 29.8893 86.1463 30.6097 86.7892Z" fill="#68E1FD"/>
<path d="M31.5433 90.449C30.8986 90.2514 30.5531 89.329 30.7697 88.3052C30.8328 87.9893 30.9497 87.686 31.1153 87.4082C31.6317 88.3362 31.784 89.4181 31.5433 90.449Z" fill="#68E1FD"/>
<path d="M26.9492 94.8572C27.8522 94.179 28.2365 93.1822 27.8075 92.6307C27.3785 92.0791 26.2988 92.1818 25.3958 92.86C24.4928 93.5381 24.1085 94.535 24.5375 95.0865C24.9664 95.638 26.0462 95.5354 26.9492 94.8572Z" fill="#68E1FD"/>
<path d="M28.6006 90.408C29.5036 89.7298 29.8878 88.733 29.4589 88.1814C29.0299 87.6299 27.9501 87.7326 27.0471 88.4107C26.1441 89.0889 25.7599 90.0858 26.1888 90.6373C26.6178 91.1888 27.6976 91.0861 28.6006 90.408Z" fill="#68E1FD"/>
<path d="M22.4401 95.1172C22.0004 95.4701 21.4594 95.6792 20.8929 95.7152C20.4964 95.3407 20.1498 94.9183 19.8613 94.4583C20.0337 93.9317 20.3714 93.4722 20.8258 93.1456C21.7232 92.4614 22.8063 92.3499 23.2499 92.8922C23.6934 93.4345 23.3376 94.4329 22.4401 95.1172Z" fill="#68E1FD"/>
<path d="M19.2317 92.9517C19.0712 92.3296 19.0447 91.6814 19.1539 91.0487C19.2632 90.4159 19.5058 89.8126 19.8661 89.2773C19.9266 89.2865 19.9856 89.3035 20.0415 89.328C20.7068 89.5865 20.8873 90.6153 20.4438 91.6289C20.2187 92.2011 19.7873 92.6719 19.2317 92.9517Z" fill="#68E1FD"/>
<path d="M25.9475 96.9921C24.7389 97.371 23.4272 97.2672 22.2959 96.7032C22.7693 96.3244 23.3616 96.1184 23.9721 96.1204C24.9108 96.095 25.7051 96.465 25.9475 96.9921Z" fill="#68E1FD"/>
<path d="M29.2944 94.7576C28.9644 94.2914 29.0211 93.4551 29.475 92.6797C29.9288 91.9043 30.6818 91.4026 31.2801 91.4482C30.8504 92.6708 30.1752 93.7962 29.2944 94.7576Z" fill="#68E1FD"/>
<path d="M24.9159 91.5544C24.4555 92.1715 23.8839 92.7006 23.2294 93.1153C22.7292 93.4326 22.1689 93.6473 21.5822 93.7466C20.9955 93.8459 20.3944 93.8277 19.815 93.6931C19.2801 93.5677 18.7685 93.3608 18.2987 93.0798C18.0723 92.9492 17.8552 92.8036 17.6489 92.644C17.4408 92.4871 17.2428 92.3178 17.0557 92.1372C16.674 91.7638 16.3507 91.3368 16.0964 90.8702C15.7953 90.321 15.612 89.717 15.5579 89.0955C15.5038 88.4739 15.58 87.8481 15.7818 87.2567C16.014 86.5674 16.3628 85.9215 16.8133 85.346C17.046 85.0486 17.2975 84.766 17.5663 84.4997C18.4836 83.5779 19.5893 82.8576 20.8105 82.3863C21.3086 82.1931 21.8278 82.057 22.3577 81.9808C23.2689 81.8192 24.2088 81.9714 25.0191 82.4116C25.1302 82.4732 25.2355 82.5444 25.3337 82.6245C25.4387 82.7007 25.537 82.7855 25.6277 82.8779C26.3304 83.6393 26.7328 84.6226 26.7623 85.6501C26.7861 85.9876 26.7861 86.3262 26.7623 86.6637C26.6648 87.9137 26.3141 89.1319 25.7308 90.2468C25.5003 90.7062 25.2276 91.1438 24.9159 91.5544Z" fill="#68E1FD"/>
<path d="M23.0908 81.9192C23.7673 81.9108 24.4331 82.0862 25.0146 82.4261C25.1257 82.4876 25.231 82.5589 25.3292 82.6389C25.433 82.7166 25.5312 82.8013 25.6232 82.8923C26.3259 83.6538 26.7283 84.637 26.7578 85.6645C26.7815 86.002 26.7815 86.3407 26.7578 86.6781C26.6603 87.9281 26.3096 89.1463 25.7263 90.2612C25.492 90.7282 25.214 91.1727 24.8959 91.5891C24.4355 92.2062 23.8639 92.7353 23.2094 93.15C22.4961 93.5985 21.6682 93.8392 20.8214 93.8443C20.4742 93.8438 20.1282 93.8047 19.7899 93.7278C19.255 93.6024 18.7433 93.3955 18.2736 93.1145C18.0472 92.9839 17.83 92.8383 17.6237 92.6787C17.4157 92.5218 17.2176 92.3525 17.0306 92.1719C16.6488 91.7985 16.3255 91.3715 16.0713 90.9049C15.7702 90.3557 15.5869 89.7517 15.5328 89.1302C15.4787 88.5086 15.5549 87.8828 15.7567 87.2914C15.9889 86.6021 16.3376 85.9562 16.7882 85.3807C17.0209 85.0833 17.2724 84.8007 17.5412 84.5344C18.4584 83.6126 19.5641 82.8923 20.7853 82.421C21.2835 82.2278 21.8027 82.0917 22.3326 82.0155C22.5769 81.9812 22.8234 81.9643 23.0701 81.9649L23.0908 81.9192ZM23.0701 81.4581C22.7992 81.4568 22.5285 81.4754 22.2604 81.5138C21.6909 81.5924 21.1332 81.7388 20.5997 81.9497C19.3112 82.4485 18.143 83.2063 17.1698 84.1745C16.8871 84.458 16.6235 84.7594 16.3807 85.0766C15.8938 85.6976 15.5171 86.395 15.2667 87.1393C15.0443 87.7949 14.9606 88.4883 15.021 89.1768C15.0813 89.8653 15.2842 90.5345 15.6174 91.1431C15.8916 91.6522 16.239 92.1199 16.6489 92.5317C16.8511 92.7293 17.0647 92.9155 17.2885 93.0892C17.5133 93.2589 17.7474 93.4163 17.9899 93.5605C18.5079 93.8679 19.0718 94.0937 19.661 94.2295C20.0345 94.3161 20.417 94.3603 20.8008 94.3613C21.7445 94.359 22.6678 94.0917 23.4621 93.5909C24.1696 93.1416 24.7882 92.5697 25.2879 91.9033C25.624 91.4622 25.9192 90.9924 26.1699 90.4994C26.7749 89.3206 27.1361 88.0356 27.2323 86.7187C27.2581 86.361 27.2581 86.0019 27.2323 85.6443C27.1952 84.4973 26.7394 83.4018 25.9481 82.5578C25.842 82.4503 25.7283 82.3503 25.6077 82.2588C25.4905 82.1669 25.3664 82.0838 25.2363 82.0105C24.5729 81.6323 23.8163 81.4412 23.0495 81.4581H23.0701Z" fill="#231F20"/>
<path d="M19.8866 84.3667C19.0253 85.0154 18.0041 85.0965 17.6018 84.5543L17.5605 84.4884C18.4778 83.5666 19.5835 82.8463 20.8047 82.375C21.0368 82.9325 20.6603 83.7788 19.8866 84.3667Z" fill="white"/>
<path d="M20.1289 87.6372C20.7736 86.7759 20.8515 85.7563 20.3031 85.36C19.7546 84.9637 18.7874 85.3407 18.1428 86.2021C17.4982 87.0634 17.4202 88.083 17.9686 88.4793C18.5171 88.8756 19.4843 88.4986 20.1289 87.6372Z" fill="white"/>
<path d="M25.0148 82.3999C24.8817 82.4698 24.7438 82.5308 24.6022 82.5824C23.5965 82.9473 22.6011 82.7192 22.3793 82.0756C22.3683 82.0407 22.3597 82.0051 22.3535 81.9691C23.2646 81.8075 24.2046 81.9597 25.0148 82.3999Z" fill="white"/>
<path d="M26.7571 85.6394C26.1227 85.6039 25.5812 84.8082 25.5244 83.7946C25.5084 83.4824 25.5415 83.1695 25.6224 82.8672C26.3251 83.6286 26.7276 84.6119 26.7571 85.6394Z" fill="white"/>
<path d="M23.667 90.8286C24.3116 89.9673 24.3896 88.9477 23.8412 88.5514C23.2927 88.1551 22.3255 88.5321 21.6809 89.3935C21.0363 90.2548 20.9583 91.2744 21.5067 91.6707C22.0552 92.067 23.0224 91.69 23.667 90.8286Z" fill="white"/>
<path d="M24.0947 86.2466C24.7394 85.3852 24.8173 84.3657 24.2689 83.9693C23.7204 83.573 22.7533 83.95 22.1086 84.8114C21.464 85.6728 21.386 86.6924 21.9345 87.0887C22.4829 87.485 23.4501 87.108 24.0947 86.2466Z" fill="white"/>
<path d="M19.5727 92.1574C19.2648 92.5896 18.8236 92.913 18.3143 93.0798C18.0879 92.9491 17.8707 92.8035 17.6644 92.6439C17.4564 92.487 17.2583 92.3178 17.0713 92.1371C17.1015 91.6054 17.2978 91.0957 17.6335 90.6775C18.2885 89.8261 19.253 89.4663 19.7893 89.8768C20.3257 90.2873 20.2123 91.306 19.5727 92.1574Z" fill="white"/>
<path d="M16.0964 90.8594C15.7953 90.3103 15.612 89.7062 15.5579 89.0847C15.5038 88.4632 15.58 87.8374 15.7818 87.2459C15.8383 87.2383 15.8955 87.2383 15.952 87.2459C16.6225 87.3371 17.0403 88.2595 16.8804 89.3289C16.8171 89.9157 16.5384 90.4598 16.0964 90.8594Z" fill="white"/>
<path d="M23.2288 93.1136C22.7286 93.4309 22.1683 93.6456 21.5816 93.7449C20.9949 93.8442 20.3938 93.826 19.8145 93.6914C20.1497 93.2253 20.6437 92.8927 21.207 92.7538C22.058 92.5105 22.8781 92.6727 23.2288 93.1136Z" fill="white"/>
<path d="M25.7616 90.2256C25.5299 89.9462 25.377 89.6118 25.3181 89.2561C25.2593 88.9003 25.2966 88.5356 25.4263 88.1984C25.6584 87.3419 26.2206 86.7135 26.7776 86.6172C26.6883 87.8747 26.3428 89.1018 25.7616 90.2256Z" fill="white"/>
<path d="M13.275 79.4609C13.275 79.4609 7.19417 82.9477 4.09961 94.2343C4.09961 94.2343 4.67726 100.514 12.9243 104.821C12.9243 104.821 20.7071 106.033 30.6355 99.2465C30.6355 99.2465 24.8796 100.098 18.0561 91.9688C11.2326 83.8397 13.275 79.4609 13.275 79.4609Z" fill="#4E4E5C"/>
<path d="M14.3488 105.152C13.8524 105.16 13.356 105.133 12.8635 105.071C12.8341 105.07 12.8054 105.061 12.7809 105.045C4.52878 100.727 3.82734 94.3215 3.82218 94.2607C3.81708 94.2305 3.81708 94.1997 3.82218 94.1694C6.94769 82.9083 12.8841 79.4063 13.1368 79.2644C13.1832 79.2365 13.2376 79.2243 13.2916 79.2298C13.3457 79.2353 13.3964 79.2581 13.436 79.2948C13.4761 79.3313 13.5037 79.3793 13.5148 79.432C13.5259 79.4847 13.5199 79.5395 13.4978 79.5887C13.4978 79.6343 11.6102 83.9371 18.2222 91.8179C21.6933 95.9534 24.8703 97.6867 26.9231 98.4063C28.0769 98.8672 29.3211 99.0681 30.5643 98.9942C30.6227 98.9844 30.6827 98.9946 30.7343 99.0231C30.7858 99.0516 30.8259 99.0967 30.8477 99.1508C30.8694 99.2048 30.8716 99.2646 30.8538 99.3201C30.836 99.3756 30.7994 99.4233 30.75 99.4554C23.385 104.503 17.103 105.152 14.3488 105.152ZM12.9821 104.579C13.5855 104.655 20.7185 105.39 29.7443 99.5112C27.836 99.4199 23.1683 98.4976 17.8354 92.1169C12.5024 85.7362 12.5127 81.6565 12.8222 80.0803C11.2749 81.2713 6.84454 85.2649 4.3431 94.2353C4.41531 94.808 5.36431 100.575 12.9821 104.579Z" fill="#808080"/>
<path d="M75.4549 89.9573C75.4549 89.9573 84.3827 85.8775 87.1265 91.1736C88.4675 93.7583 88.4675 98.7756 88.4675 98.7756C88.4675 98.7756 93.491 93.8242 95.4096 97.9445C97.3283 102.065 90.7987 112.135 84.3363 110.873C77.8738 109.611 82.1701 102.992 79.2199 100.276C76.2698 97.5593 67.3936 97.0829 67.3936 97.0829L73.6807 90.611" fill="white"/>
<path d="M85.4458 111.239C85.0561 111.24 84.6674 111.202 84.2853 111.127C80.2211 110.331 80.2005 107.422 80.1592 104.858C80.1592 103.125 80.1335 101.488 79.0194 100.469C76.1673 97.8438 67.4458 97.3472 67.3581 97.3421C67.3088 97.3405 67.261 97.3248 67.2207 97.2969C67.1804 97.269 67.1492 97.2301 67.1311 97.185C67.1133 97.14 67.1087 97.0909 67.1178 97.0434C67.127 96.996 67.1494 96.9519 67.1827 96.9164L73.475 90.4192C73.499 90.3954 73.5275 90.3766 73.5589 90.3637C73.5903 90.3508 73.624 90.3442 73.6581 90.3442C73.6921 90.3442 73.7258 90.3508 73.7573 90.3637C73.7887 90.3766 73.8172 90.3954 73.8412 90.4192C73.8652 90.4423 73.8843 90.4699 73.8973 90.5003C73.9103 90.5308 73.917 90.5635 73.917 90.5965C73.917 90.6296 73.9103 90.6623 73.8973 90.6927C73.8843 90.7232 73.8652 90.7508 73.8412 90.7739L67.9306 96.886C69.9369 97.038 76.7759 97.7222 79.3701 100.109C80.6389 101.275 80.6544 103.099 80.6647 104.863C80.6905 107.468 80.7059 109.931 84.3627 110.641C87.024 111.147 90.0876 109.652 92.5478 106.586C95.008 103.52 96.055 99.9978 95.1266 98.0567C94.9966 97.696 94.7763 97.3733 94.4861 97.1183C94.1959 96.8632 93.845 96.684 93.4658 96.5971C91.4028 96.2322 88.628 98.9335 88.6022 98.9588C88.5665 98.9953 88.5204 99.0204 88.47 99.0309C88.4195 99.0414 88.3671 99.0368 88.3193 99.0177C88.2716 98.9986 88.2308 98.9659 88.2021 98.9238C88.1735 98.8816 88.1584 98.8321 88.1587 98.7814C88.1587 98.7307 88.1587 93.7894 86.8486 91.2858C84.2698 86.2684 75.5999 90.1455 75.5019 90.186C75.4403 90.2138 75.37 90.2166 75.3063 90.1938C75.2426 90.1711 75.1906 90.1246 75.1615 90.0644C75.1468 90.0345 75.1384 90.0021 75.1367 89.9689C75.135 89.9358 75.14 89.9027 75.1516 89.8715C75.1631 89.8403 75.1809 89.8117 75.2039 89.7874C75.2268 89.7631 75.2545 89.7435 75.2853 89.7299C76.8413 89.053 78.4821 88.5827 80.1644 88.3311C83.6509 87.8243 86.1163 88.7873 87.2922 91.0577C88.3959 93.1812 88.6125 96.81 88.6538 98.2138C89.5564 97.4283 91.7174 95.7761 93.5484 96.1004C94.0098 96.1994 94.4382 96.4117 94.7936 96.7175C95.1489 97.0233 95.4197 97.4125 95.5805 97.8489C96.581 99.9876 95.4825 103.713 92.914 106.9C90.7478 109.683 87.9988 111.239 85.4458 111.239Z" fill="#231F20"/>
<path d="M74.1655 67.1309C74.1655 67.1309 89.7157 66.1882 94.4349 61.2165C99.1541 56.2448 98.9993 53.579 96.4463 50.6598C95.4816 49.4446 94.0744 48.6451 92.5214 48.4298C90.9741 48.3031 89.2927 49.2002 88.9111 50.675C88.6841 51.5416 88.8698 52.5806 88.2406 53.209C88.0225 53.4107 87.7691 53.5721 87.4927 53.6854C82.1856 56.2194 76.2904 57.7753 70.4727 56.1637" fill="white"/>
<path d="M74.1656 67.3848C74.0972 67.3848 74.0316 67.3581 73.9832 67.3105C73.9349 67.263 73.9077 67.1986 73.9077 67.1314C73.9077 67.0642 73.9349 66.9997 73.9832 66.9522C74.0316 66.9047 74.0972 66.878 74.1656 66.878C74.3203 66.878 89.6384 65.8643 94.2802 61.0497C99.051 56.0425 98.6281 53.5135 96.2814 50.8326C95.3644 49.6633 94.0189 48.8922 92.5318 48.6837C91.2114 48.5722 89.5559 49.3324 89.1897 50.7464C89.1236 51.0315 89.0805 51.3213 89.0607 51.613C89.0753 52.2614 88.8622 52.895 88.4573 53.4071C88.2184 53.6335 87.9385 53.814 87.6321 53.9393C81.118 57.0206 75.4911 57.8366 70.416 56.4327C70.3837 56.424 70.3535 56.409 70.3271 56.3886C70.3007 56.3683 70.2788 56.343 70.2624 56.3142C70.2461 56.2855 70.2358 56.2538 70.232 56.2211C70.2283 56.1883 70.2312 56.1552 70.2406 56.1236C70.2587 56.0593 70.3019 56.0046 70.3608 55.9714C70.4198 55.9381 70.4896 55.9291 70.5553 55.9462C75.5014 57.3146 81.0149 56.5088 87.4103 53.4882C87.6594 53.3846 87.8881 53.2388 88.0859 53.0574C88.4049 52.6233 88.5681 52.0975 88.5501 51.5623C88.5737 51.2453 88.6203 50.9303 88.6894 50.6197C89.1329 48.932 91.0155 48.0553 92.573 48.182C94.1956 48.4004 95.6671 49.2334 96.6733 50.5031C99.1438 53.326 99.6699 56.1337 94.6567 61.3943C89.9066 66.3762 74.8515 67.3391 74.212 67.3797L74.1656 67.3848Z" fill="#231F20"/>
<path d="M54.1278 61.2154C54.1278 61.2154 40.0888 80.1192 42.9358 94.3857C45.7828 108.652 66.1089 104.846 71.9163 99.773C77.7238 94.6999 82.1799 85.6636 79.2298 74.2555C77.3287 67.1979 74.1223 60.5443 69.7708 54.627L54.1278 61.2154Z" fill="white"/>
<path d="M57.0325 104.599C54.9325 104.625 52.8422 104.315 50.8434 103.682C46.4027 102.212 43.5712 99.0192 42.6583 94.4428C39.8216 80.2523 53.7523 61.2674 53.8916 61.0799C53.92 61.0429 53.9572 61.0133 53.9999 60.9937L69.6583 54.3799C69.7105 54.3579 69.7686 54.3534 69.8236 54.3672C69.8786 54.3809 69.9275 54.4121 69.9626 54.456C74.3234 60.4222 77.5395 67.1204 79.4526 74.2213C82.0056 84.0888 79.2412 93.7231 72.0618 99.9923C69.3798 102.329 63.1391 104.599 57.0325 104.599ZM54.2835 61.4296C53.4532 62.5749 40.4612 80.7337 43.1792 94.3718C44.0663 98.8215 46.707 101.802 51.0239 103.231C58.3632 105.663 68.1936 102.724 71.7369 99.6223C78.7718 93.4748 81.4744 84.033 78.9575 74.3531C77.0754 67.3887 73.9305 60.815 69.6738 54.9476L54.2835 61.4296Z" fill="#231F20"/>
<path d="M66.7394 65.2401C61.8706 64.7333 59.003 67.4498 57.3371 71.9908C56.0168 75.6144 55.6557 79.5574 55.4339 83.3634C55.2122 87.1695 54.7635 90.7932 56.3417 94.3864C56.6485 95.1615 57.1156 95.8656 57.7136 96.4542C58.5361 97.1501 59.54 97.6064 60.6122 97.7719C62.2743 98.0424 63.9762 97.9559 65.6011 97.5185C67.2259 97.0811 68.7351 96.303 70.0248 95.2379C72.5994 93.0767 74.4165 90.1741 75.2185 86.9415C76.8586 80.8193 75.9096 66.6693 67.4254 65.3263C67.1933 65.2706 66.9612 65.2706 66.7394 65.2401Z" fill="#E6E7E8"/>
<path d="M91.2059 58.0432C90.8056 58.0637 90.4057 57.996 90.0354 57.8452C89.6651 57.6944 89.3337 57.4642 89.0655 57.1715C87.6781 55.5903 88.3898 52.443 88.4208 52.3113C88.4281 52.2792 88.4418 52.2489 88.461 52.2221C88.4803 52.1954 88.5048 52.1726 88.5331 52.1551C88.5614 52.1377 88.5929 52.1259 88.6259 52.1206C88.6588 52.1152 88.6925 52.1163 88.7251 52.1237C88.7581 52.1303 88.7895 52.1434 88.8174 52.1621C88.8452 52.1808 88.869 52.2048 88.8872 52.2326C88.9055 52.2605 88.9179 52.2917 88.9237 52.3243C88.9295 52.357 88.9286 52.3905 88.921 52.4228C88.921 52.4532 88.2351 55.4636 89.4368 56.8421C89.6983 57.1121 90.0228 57.3156 90.3823 57.4348C90.7417 57.554 91.1253 57.5854 91.4998 57.5263C93.0471 57.4097 94.1354 56.9891 94.7079 56.3049C95.0015 55.9749 95.1547 55.5467 95.136 55.1088C95.1316 55.0762 95.134 55.043 95.1428 55.0112C95.1517 54.9795 95.1668 54.9498 95.1875 54.9238C95.2081 54.8979 95.2338 54.8763 95.263 54.8602C95.2922 54.8441 95.3244 54.8338 95.3577 54.8301C95.391 54.8258 95.4247 54.8281 95.457 54.8368C95.4894 54.8455 95.5196 54.8604 95.546 54.8807C95.5724 54.901 95.5944 54.9262 95.6108 54.9549C95.6272 54.9837 95.6376 55.0153 95.6414 55.048C95.6839 55.6161 95.4988 56.1781 95.1256 56.614C94.4551 57.4249 93.2534 57.9013 91.5463 58.028L91.2059 58.0432Z" fill="#231F20"/>
<path d="M50.6732 97.1992C50.6732 97.1992 48.8886 103.605 41.962 100.341C35.0353 97.0776 34.4319 97.9949 34.4319 97.9949C34.4319 97.9949 25.4009 108.455 30.0789 112.576C34.7568 116.696 38.4651 108.455 38.4651 108.455C40.355 109.729 42.5084 110.576 44.7706 110.935C47.0329 111.294 49.348 111.157 51.55 110.533C59.2864 108.471 60.2405 102.536 60.2405 102.536" fill="white"/>
<path d="M32.7445 114C31.6748 113.958 30.6604 113.522 29.9026 112.779C27.8963 111.01 28.0201 107.848 30.274 103.657C31.4024 101.605 32.7288 99.6655 34.235 97.8637C34.4001 97.6306 35.4935 97.0427 42.0746 100.144C44.1943 101.158 46.0253 101.315 47.5158 100.651C49.6975 99.673 50.4196 97.1897 50.4247 97.1644C50.4428 97.1 50.486 97.0453 50.5449 97.0121C50.6038 96.9789 50.6737 96.9699 50.7393 96.987C50.8048 97.0048 50.8605 97.0472 50.8943 97.1051C50.9281 97.163 50.9373 97.2316 50.9199 97.2961C50.8889 97.4076 50.1359 100.028 47.7325 101.107C46.0975 101.842 44.1221 101.67 41.8528 100.6C35.8236 97.7573 34.7147 98.1526 34.6322 98.2033C34.0648 98.8773 25.9571 108.623 30.2688 112.419C31.3004 113.321 32.3319 113.666 33.3892 113.433C36.2104 112.84 38.2322 108.42 38.2528 108.365C38.2688 108.33 38.2924 108.3 38.3218 108.275C38.3512 108.251 38.3858 108.233 38.423 108.223C38.461 108.213 38.5009 108.211 38.5395 108.219C38.5781 108.227 38.6142 108.244 38.6448 108.268C40.5048 109.505 42.6176 110.328 44.8351 110.678C47.0526 111.028 49.3212 110.898 51.482 110.296C58.9605 108.304 59.9766 102.562 59.9869 102.501C59.9979 102.434 60.0355 102.374 60.0916 102.334C60.1477 102.294 60.2177 102.277 60.2861 102.288C60.3545 102.299 60.4157 102.336 60.4563 102.391C60.4969 102.446 60.5136 102.515 60.5027 102.582C60.5027 102.643 59.4402 108.704 51.6264 110.782C49.4398 111.385 47.1479 111.525 44.902 111.193C42.6562 110.861 40.5077 110.065 38.5984 108.856C38.0826 109.87 36.1794 113.362 33.5078 113.924C33.2569 113.977 33.001 114.002 32.7445 114Z" fill="#231F20"/>
<path d="M59.4306 27.0834C59.4306 27.0834 58.0329 5.04756 44.2724 1.52021C30.5119 -2.00715 14.5492 2.39191 17.3291 8.38233C22.332 19.1519 38.5836 10.5362 42.4776 13.0703C46.3716 15.6043 51.8489 28.5531 51.8489 28.5531" fill="white"/>
<path d="M51.8492 28.8215C51.7985 28.8206 51.7491 28.8053 51.707 28.7774C51.6649 28.7496 51.6319 28.7103 51.612 28.6644C51.5604 28.5377 46.114 15.7713 42.3283 13.2931C41.075 12.472 38.3002 12.913 35.1077 13.4198C28.9186 14.3979 20.4756 15.7409 17.1077 8.48349C16.8074 7.85693 16.7068 7.15583 16.8191 6.47212C16.9314 5.78841 17.2513 5.15399 17.7369 4.65205C21.1151 0.704049 33.2097 -1.57657 44.3501 1.27674C58.1364 4.82436 59.6888 26.845 59.6991 27.068C59.7011 27.1013 59.6965 27.1346 59.6854 27.1661C59.6743 27.1976 59.657 27.2267 59.6345 27.2516C59.612 27.2766 59.5847 27.2969 59.5542 27.3115C59.5237 27.3261 59.4906 27.3346 59.4567 27.3366C59.4228 27.3386 59.3889 27.334 59.3568 27.3231C59.3248 27.3122 59.2952 27.2952 59.2698 27.2731C59.2444 27.251 59.2237 27.2242 59.2089 27.1942C59.1941 27.1642 59.1854 27.1317 59.1834 27.0984C59.1834 26.8805 57.6361 5.20447 44.2263 1.7582C35.3707 -0.512279 22.0486 0.399967 18.134 4.97134C17.7092 5.39952 17.4285 5.94558 17.3298 6.53566C17.2311 7.12573 17.3192 7.73136 17.5822 8.27063C20.785 15.1733 28.6865 13.9215 35.0303 12.918C38.3518 12.4112 41.2194 11.9399 42.6378 12.8673C46.5472 15.4318 51.8802 27.9346 52.1071 28.4668C52.1205 28.4973 52.1276 28.5302 52.1278 28.5635C52.1281 28.5967 52.1215 28.6297 52.1085 28.6604C52.0955 28.6912 52.0764 28.719 52.0522 28.7423C52.028 28.7657 51.9994 28.784 51.9679 28.7962C51.9305 28.8125 51.8901 28.8211 51.8492 28.8215Z" fill="#231F20"/>
<path d="M56.2272 22.8819C56.2272 22.8819 50.9355 5.97495 46.0977 4.36332C41.2598 2.75168 23.0638 -0.400636 23.987 6.11686C25.1475 14.2815 37.5567 8.45323 41.6312 10.0395C45.7057 11.6258 51.9464 23.3837 51.9464 23.3837L56.2272 22.8819Z" fill="#E6E7E8"/>
<path d="M31.2344 94.1573C31.513 95.1 31.5594 95.9159 31.2344 96.4582C29.2075 99.7474 25.3445 96.4582 25.3445 96.4582C25.3445 96.4582 21.6723 94.0002 17.1542 88.3747C12.6361 82.7492 13.384 81.0261 14.2402 79.46C14.7253 78.8442 15.2925 78.2953 15.9267 77.8281C15.0054 77.9782 14.1348 78.3451 13.3891 78.8975C11.0115 80.6662 11.3261 85.5772 17.1439 91.9933C22.9617 98.4094 28.4493 101.425 31.2241 99.4433C33.5244 97.8013 33.9215 95.6727 32.8178 93.0525C32.2917 93.4326 31.7708 93.8178 31.2344 94.1573Z" fill="white"/>
<path d="M29.1968 100.322C26.1022 100.322 21.6925 97.4279 16.9526 92.1824C13.3423 88.1787 11.4856 84.3878 11.795 81.5091C11.8265 80.9695 11.9732 80.4425 12.2255 79.9623C12.4779 79.482 12.8303 79.0594 13.2598 78.7217C14.2913 77.9666 15.7612 77.5105 16.0449 77.6169C16.0881 77.632 16.1262 77.6584 16.1553 77.6932C16.1844 77.7281 16.2032 77.77 16.2099 77.8145C16.2152 77.8584 16.209 77.9028 16.1918 77.9437C16.1747 77.9845 16.1472 78.0203 16.1119 78.0477C15.5005 78.4891 14.9553 79.0129 14.4924 79.6036C13.7085 80.9871 12.8214 82.5481 17.3704 88.2192C21.8059 93.7434 25.4678 96.2267 25.5039 96.2521C25.54 96.2774 27.4793 97.9093 29.2277 97.6407C29.6099 97.5698 29.9707 97.4149 30.2833 97.1876C30.5959 96.9603 30.8522 96.6665 31.0329 96.3281C31.3011 95.8922 31.2959 95.1878 31.0329 94.2299C31.0174 94.1775 31.0196 94.1215 31.0391 94.0703C31.0586 94.0192 31.0944 93.9756 31.1412 93.9461C31.4919 93.7282 31.8375 93.4849 32.1727 93.2467L32.6885 92.8717C32.72 92.8511 32.7556 92.8373 32.7929 92.8312C32.8302 92.825 32.8685 92.8268 32.9051 92.8362C32.9419 92.8474 32.9757 92.8663 33.0042 92.8917C33.0327 92.9171 33.0552 92.9483 33.0701 92.9832C34.2667 95.8263 33.7148 98.0157 31.3887 99.6781C30.7484 100.12 29.9791 100.346 29.1968 100.322ZM14.8741 78.3974C14.4007 78.5817 13.9534 78.8253 13.5435 79.1221C13.1703 79.418 12.8653 79.7883 12.6484 80.2084C12.4315 80.6286 12.3076 81.0892 12.285 81.5598C12.0168 84.251 13.8323 88.0013 17.3343 91.8479C23.085 98.2033 28.4747 101.117 31.0741 99.2625C33.1372 97.7978 33.6529 95.948 32.6988 93.4647L32.4306 93.6522C32.1314 93.86 31.8323 94.0728 31.5332 94.2654C31.8065 95.279 31.7756 96.0443 31.4455 96.5866C31.2252 96.9871 30.9162 97.334 30.5413 97.6015C30.1664 97.8691 29.7351 98.0505 29.2793 98.1323C27.2988 98.4364 25.2512 96.7183 25.1532 96.6474C25.0552 96.5764 21.4243 94.1134 16.932 88.5385C12.1664 82.6089 13.1876 80.8148 14.0076 79.3704C14.2506 79.0092 14.542 78.6819 14.8741 78.3974Z" fill="#231F20"/>
<path d="M30.3356 78.3872C30.3356 78.3872 32.5946 79.9735 33.3992 83.6174C34.2038 87.2613 32.1923 91.7262 25.3379 96.4547C25.3379 96.4547 27.1482 98.634 31.1402 97.9751C31.1402 97.9751 36.9476 91.9543 37.1127 86.2477C37.2777 80.5411 31.9087 75.8633 31.9087 75.8633L30.3356 78.3872Z" fill="white"/>
<path d="M29.6401 98.3442C26.6177 98.3442 25.2045 96.6971 25.1375 96.616C25.1145 96.5888 25.0976 96.5571 25.0878 96.5231C25.078 96.489 25.0756 96.4534 25.0807 96.4184C25.0931 96.3494 25.1318 96.2878 25.189 96.246C31.2802 92.0193 34.0343 87.6709 33.1524 83.6672C32.3787 80.1702 30.2074 78.5991 30.1868 78.5991C30.1343 78.5623 30.0981 78.5072 30.0856 78.445C30.0731 78.3828 30.0853 78.3183 30.1197 78.2647L31.6928 75.7306C31.7125 75.6995 31.7389 75.673 31.77 75.6529C31.8012 75.6328 31.8364 75.6195 31.8733 75.6141C31.9101 75.6086 31.9477 75.6113 31.9834 75.6218C32.019 75.6323 32.0519 75.6504 32.0796 75.6749C32.3065 75.8675 37.5312 80.4946 37.3661 86.2519C37.2011 92.0092 31.569 97.9084 31.3317 98.1466C31.2935 98.187 31.2427 98.2137 31.1873 98.2226C30.6762 98.3072 30.1584 98.3479 29.6401 98.3442ZM25.7254 96.4893C26.2412 96.9961 27.9535 98.2124 31.012 97.7259C31.6154 97.0772 36.6853 91.4669 36.8555 86.2265C36.9896 81.3663 32.9719 77.2054 31.9661 76.2476L30.6716 78.3255C32.2186 79.7052 33.2653 81.5434 33.6527 83.5608C34.2974 86.4698 33.4309 91.0665 25.7254 96.4893Z" fill="#231F20"/>
<path d="M54.9697 62.6973C54.9697 62.6973 44.211 63.8021 38.2179 66.6554C32.2247 69.5087 30.6104 71.3535 30.6104 71.3535C30.6104 71.3535 26.5823 73.629 25.6127 75.5295C24.6431 77.4301 26.3657 81.8696 28.4081 82.3967C30.4505 82.9238 32.4001 81.4439 32.4001 81.4439C32.4001 81.4439 31.7451 79.8627 33.0345 78.9099C34.3239 77.9571 35.4018 79.9691 35.4018 79.9691C36.0963 79.7977 36.7044 79.3856 37.1141 78.8086C37.7588 77.8558 37.1141 75.8438 37.1141 75.8438C37.1141 75.8438 46.9806 70.6693 53.3399 71.5157" fill="white"/>
<path d="M29.3311 82.7705C28.9986 82.7698 28.6675 82.7273 28.346 82.6438C27.4073 82.4005 26.4841 81.4326 25.8188 79.978C25.2153 78.6705 24.7408 76.6889 25.3855 75.4168C26.3345 73.5416 30.0274 71.4029 30.4503 71.1546C30.703 70.8809 32.5133 69.0919 38.1093 66.4261C44.0715 63.5829 54.8354 62.4477 54.9437 62.4376C54.9773 62.4333 55.0115 62.4358 55.0441 62.4448C55.0767 62.4538 55.1072 62.4692 55.1337 62.49C55.1601 62.5108 55.1821 62.5366 55.1982 62.5659C55.2143 62.5952 55.2242 62.6274 55.2274 62.6605C55.2347 62.727 55.2149 62.7936 55.1724 62.8458C55.1299 62.8981 55.0681 62.9316 55.0005 62.9393C54.8922 62.9393 44.2159 64.0796 38.3311 66.8772C32.4463 69.6747 30.8216 71.4992 30.8062 71.5195C30.7872 71.5403 30.7644 71.5574 30.7391 71.5702C30.703 71.5955 26.7678 73.8305 25.8446 75.6246C25.3855 76.5267 25.5609 78.1839 26.2829 79.75C26.8812 81.0423 27.7013 81.9343 28.4749 82.137C30.0635 82.5475 31.6159 81.6302 32.0852 81.3312C31.9236 80.8653 31.9121 80.3617 32.0524 79.8892C32.1927 79.4166 32.4779 78.9981 32.8692 78.6907C33.0303 78.5703 33.2163 78.4861 33.4142 78.444C33.612 78.402 33.8169 78.4032 34.0142 78.4475C34.6467 78.667 35.1753 79.107 35.4996 79.6841C36.0617 79.5057 36.5478 79.1492 36.8818 78.6705C37.3563 77.9711 37.0211 76.4507 36.8509 75.9236C36.8339 75.8674 36.8369 75.8071 36.8594 75.7528C36.8819 75.6984 36.9226 75.6532 36.9747 75.6246C37.3821 75.4117 46.9856 70.4248 53.3552 71.2661C53.4223 71.2761 53.4828 71.3113 53.5241 71.3642C53.5655 71.4171 53.5844 71.4836 53.577 71.5499C53.568 71.6164 53.5325 71.6767 53.4784 71.7175C53.4242 71.7584 53.3558 71.7764 53.2881 71.7678C47.5477 71.0025 38.7747 75.285 37.3976 75.9794C37.5523 76.5368 37.9133 78.0877 37.3099 78.9492C36.8655 79.5878 36.1939 80.0398 35.4274 80.2162C35.374 80.2277 35.3182 80.2215 35.2687 80.1986C35.2193 80.1757 35.179 80.1373 35.154 80.0895C35.154 80.0895 34.6022 79.0759 33.9007 78.9289C33.7722 78.9037 33.6395 78.9075 33.5126 78.94C33.3857 78.9725 33.268 79.0328 33.1683 79.1165C32.0543 79.9375 32.5958 81.2957 32.6165 81.3565C32.6376 81.4072 32.6415 81.4632 32.6276 81.5161C32.6136 81.5691 32.5826 81.6163 32.5391 81.6505C31.6047 82.3249 30.4891 82.7144 29.3311 82.7705Z" fill="#231F20"/>
<path d="M50.7812 63.3144C50.7812 63.3144 54.9692 71.5905 65.5423 69.021C75.2953 66.6542 73.1446 56.6094 73.1446 56.6094L50.7812 63.3144Z" fill="#68E1FD"/>
<path d="M73.1444 56.6097C73.1444 56.6097 75.2951 66.6545 65.5421 69.0213C64.2612 69.3457 62.945 69.5159 61.6223 69.5281C59.4184 69.5352 57.2526 68.964 55.3485 67.8735C53.4445 66.7829 51.8712 65.2127 50.7914 63.3248L73.1547 56.6198L73.1444 56.6097ZM73.1547 56.113C73.1051 56.1059 73.0547 56.1059 73.0051 56.113L50.6418 62.818C50.5699 62.8393 50.5035 62.8756 50.4474 62.9247C50.3913 62.9737 50.3467 63.0342 50.3169 63.1019C50.2863 63.1697 50.2705 63.2431 50.2705 63.3172C50.2705 63.3914 50.2863 63.4648 50.3169 63.5326C50.3478 63.5935 53.6899 70.0147 61.6172 70.0147C62.9809 70.0073 64.3387 69.8372 65.6607 69.5079C75.7799 67.0499 73.6705 56.6046 73.6447 56.4982C73.6296 56.4298 73.6003 56.3653 73.5586 56.3086C73.5168 56.2519 73.4636 56.2043 73.4023 56.1688C73.3237 56.1201 73.2321 56.0954 73.1392 56.0978L73.1547 56.113Z" fill="#231F20"/>
<path d="M50.0534 21.1782C56.4488 19.8909 73.1904 23.0939 77.3886 36.3823C83.062 54.389 74.8098 59.6142 63.0299 63.2987C45.1021 68.909 33.9049 61.9252 32.4092 46.2447C30.9135 30.5642 42.4769 22.6986 50.0534 21.1782Z" fill="white"/>
<path d="M51.7095 65.428C47.4184 65.428 43.6792 64.4144 40.6465 62.4632C35.7932 59.3109 32.8534 53.6955 32.1468 46.2455C30.6562 30.5903 42.0081 22.522 50.0024 20.9154L50.054 21.1638L50.0024 20.9154C53.1898 20.2769 58.956 20.6924 64.6448 23.0643C69.2866 24.9952 75.2849 28.852 77.6265 36.2665C83.6402 55.3173 73.748 60.1623 63.0975 63.4971C59.4247 64.7106 55.5838 65.3619 51.7095 65.428ZM50.1055 21.4121C42.2918 22.9832 31.1978 30.8741 32.6574 46.1847C33.3536 53.4928 36.211 58.9764 40.9095 62.0426C46.2528 65.5142 53.8603 65.8537 62.9222 63.0156C75.9451 58.9612 82.4385 53.2799 77.1159 36.4186C74.8517 29.1865 68.972 25.4209 64.4437 23.5305C58.8838 21.2094 53.0969 20.809 50.1055 21.4121Z" fill="#231F20"/>
<path d="M43.3639 28.1218C43.3639 28.1218 23.0893 13.1103 13.5168 20.165C3.94434 27.2197 -6.16456 44.3092 7.19363 45.8144C16.4206 46.8584 17.7615 32.0952 22.1507 30.9194C26.5398 29.7436 39.1707 34.7002 39.1707 34.7002" fill="white"/>
<path d="M8.08663 46.1179C7.77113 46.1189 7.45589 46.1003 7.14279 46.0621C3.59436 45.6618 1.43849 44.1718 0.737052 41.6276C-0.882434 35.7436 6.06485 25.3389 13.3835 19.9617C17.3755 17.0172 23.8689 17.4683 32.1623 21.2693C36.1465 23.1407 39.948 25.3664 43.5193 27.9186C43.5464 27.9385 43.5693 27.9635 43.5865 27.9922C43.6038 28.0208 43.6151 28.0525 43.6199 28.0854C43.6247 28.1184 43.6228 28.1519 43.6144 28.1842C43.606 28.2164 43.5912 28.2467 43.5709 28.2733C43.5283 28.3252 43.467 28.3589 43.3997 28.3674C43.3324 28.3759 43.2644 28.3585 43.2099 28.3189C43.0087 28.172 22.9818 13.5051 13.6672 20.3672C6.65282 25.5366 -0.309944 35.8957 1.23734 41.4958C1.87688 43.817 3.88319 45.1904 7.19952 45.5503C12.7027 46.1686 15.2918 41.0296 17.5715 36.4988C19.0156 33.6252 20.2689 31.1418 22.0637 30.6604C26.4838 29.4745 38.7382 34.2485 39.2592 34.4513C39.2907 34.4636 39.3194 34.4819 39.3437 34.5051C39.368 34.5283 39.3874 34.556 39.4008 34.5866C39.4142 34.6172 39.4214 34.6501 39.4218 34.6834C39.4223 34.7167 39.4161 34.7497 39.4036 34.7807C39.391 34.8116 39.3724 34.8399 39.3488 34.8637C39.3252 34.8876 39.297 34.9067 39.2659 34.9199C39.2347 34.933 39.2013 34.9401 39.1674 34.9405C39.1335 34.941 39.0998 34.9349 39.0683 34.9226C38.9445 34.8719 26.4528 30.0066 22.1978 31.1469C20.6248 31.5676 19.423 33.9546 18.0305 36.7217C15.9159 40.9434 13.3113 46.1179 8.08663 46.1179Z" fill="#231F20"/>
<path d="M42.0491 31.4986C42.1648 31.2876 42.2364 31.056 42.2595 30.8175C42.2827 30.5789 42.257 30.3382 42.1839 30.1095C42.1108 29.8809 41.9919 29.6689 41.8341 29.4862C41.6763 29.3035 41.4828 29.1537 41.2651 29.0456C36.4479 26.6383 22.5533 19.9232 18.8399 20.9013C14.3218 22.0669 3.67651 30.8346 4.2129 36.1054C4.74929 41.3762 8.19457 43.2007 11.2014 40.1193C14.2083 37.0379 19.1029 28.8683 21.2536 28.554C23.0381 28.2905 35.7413 31.3415 39.9963 32.3804C40.3928 32.4805 40.812 32.4465 41.1863 32.2837C41.5606 32.121 41.8682 31.839 42.0594 31.4834L42.0491 31.4986Z" fill="#E6E7E8"/>
<path d="M54.4411 45.7002C55.0428 45.4526 55.0365 44.0924 54.427 42.6621C53.8175 41.2318 52.8357 40.2729 52.234 40.5205C51.6323 40.7681 51.6386 42.1283 52.2481 43.5586C52.8576 44.9889 53.8394 45.9477 54.4411 45.7002Z" fill="#231F20"/>
<path d="M70.8767 38.9404C71.4784 38.6928 71.472 37.3326 70.8625 35.9023C70.253 34.472 69.2712 33.5132 68.6695 33.7607C68.0678 34.0083 68.0742 35.3685 68.6837 36.7988C69.2931 38.2291 70.275 39.1879 70.8767 38.9404Z" fill="#231F20"/>
<path d="M66.5946 42.8548C66.9969 43.7873 66.3729 45.3888 64.9906 45.9767C63.6084 46.5646 61.9992 45.845 61.6021 44.9074C61.205 43.9698 62.1643 43.1538 63.5465 42.5862C64.9287 42.0186 66.1975 41.9172 66.5946 42.8548Z" fill="#231F20"/>
<path d="M58.3882 52.6012C57.7415 52.6073 57.1016 52.4704 56.516 52.2009C55.2566 51.5426 54.3076 50.4283 53.8701 49.0942C53.8508 49.0303 53.8578 48.9615 53.8896 48.9027C53.9215 48.8439 53.9756 48.7998 54.0403 48.7799C54.0728 48.7699 54.107 48.7664 54.1409 48.7697C54.1748 48.773 54.2077 48.783 54.2376 48.7991C54.2674 48.8152 54.2937 48.8371 54.3148 48.8634C54.3358 48.8897 54.3512 48.9199 54.3601 48.9522C54.7634 50.1458 55.6134 51.144 56.7377 51.7447C57.8776 52.2515 59.2546 52.2059 60.8329 51.542C65.8254 49.454 65.4747 47.518 65.4747 47.4876C65.4644 47.441 65.4676 47.3926 65.484 47.3478C65.5005 47.3029 65.5294 47.2636 65.5675 47.2342C65.6083 47.2084 65.6558 47.1947 65.7042 47.1947C65.7527 47.1947 65.8001 47.2084 65.8409 47.2342C65.8667 47.2342 68.2753 48.4302 71.571 47.148C74.8667 45.8658 75.1813 41.6036 75.1813 41.5732C75.1839 41.5401 75.1932 41.5078 75.2087 41.4783C75.2242 41.4487 75.2455 41.4226 75.2715 41.4013C75.2975 41.38 75.3275 41.3641 75.3599 41.3545C75.3922 41.3448 75.4262 41.3416 75.4598 41.3451C75.5273 41.3503 75.5901 41.3814 75.6345 41.4317C75.6789 41.4819 75.7013 41.5473 75.6971 41.6137C75.6971 41.8012 75.2948 46.2408 71.7309 47.6295C69.9002 48.4054 67.8413 48.4849 65.9544 47.8525C65.8512 48.633 65.1085 50.3257 61.0185 52.0387C60.1889 52.3971 59.2944 52.5884 58.3882 52.6012Z" fill="#231F20"/>
<path d="M65.5418 47.5326C65.4915 47.5327 65.4422 47.5184 65.4001 47.4914C65.3579 47.4644 65.3247 47.4258 65.3046 47.3805L64.7527 46.0831C64.7359 46.0519 64.7259 46.0176 64.7233 45.9823C64.7208 45.9471 64.7257 45.9117 64.7379 45.8785C64.7501 45.8452 64.7692 45.8149 64.794 45.7893C64.8189 45.7638 64.8489 45.7436 64.8821 45.7301C64.9153 45.7166 64.951 45.7101 64.987 45.711C65.0229 45.7119 65.0583 45.7202 65.0908 45.7353C65.1233 45.7504 65.1522 45.772 65.1757 45.7987C65.1992 45.8254 65.2168 45.8567 65.2272 45.8905L65.7791 47.1829C65.7925 47.2134 65.7995 47.2463 65.7998 47.2796C65.8 47.3128 65.7934 47.3458 65.7805 47.3765C65.7675 47.4073 65.7483 47.4351 65.7242 47.4584C65.7 47.4818 65.6713 47.5001 65.6398 47.5123C65.6093 47.5267 65.5757 47.5336 65.5418 47.5326Z" fill="#231F20"/>
<path d="M38.4653 108.724C38.4134 108.725 38.3628 108.709 38.3209 108.679C37.8051 108.314 35.1902 106.449 35.0303 105.552C35.0236 105.519 35.0238 105.486 35.0306 105.454C35.0375 105.421 35.051 105.391 35.0703 105.364C35.0896 105.337 35.1143 105.314 35.1429 105.296C35.1715 105.279 35.2034 105.268 35.2366 105.263C35.2698 105.256 35.3041 105.256 35.3373 105.263C35.3705 105.27 35.402 105.283 35.4299 105.302C35.4578 105.321 35.4816 105.345 35.4998 105.373C35.518 105.401 35.5302 105.433 35.5358 105.465C35.6286 105.972 37.3925 107.412 38.6303 108.268C38.658 108.287 38.6817 108.311 38.6998 108.339C38.718 108.366 38.7303 108.398 38.7361 108.43C38.7418 108.463 38.7409 108.496 38.7334 108.528C38.7259 108.56 38.7119 108.591 38.6922 108.618C38.6671 108.653 38.633 108.682 38.5932 108.701C38.5534 108.719 38.5093 108.727 38.4653 108.724Z" fill="#231F20"/>
<path d="M93.4702 99.2267C93.4702 99.2267 92.0724 98.0661 87.6627 102.926C83.2529 107.787 83.5779 109.16 86.6982 108.633C89.8186 108.106 96.4822 101.847 93.4702 99.2267Z" fill="#E6E7E8"/>
<path d="M35.2309 62.7977C31.5443 62.8103 27.936 61.7524 24.859 59.7569C24.8319 59.7369 24.8091 59.7119 24.7918 59.6833C24.7746 59.6547 24.7632 59.623 24.7585 59.59C24.7537 59.5571 24.7555 59.5235 24.7639 59.4913C24.7723 59.4591 24.7871 59.4288 24.8074 59.4021C24.8493 59.3495 24.9103 59.3148 24.9776 59.3053C25.0449 59.2959 25.1133 59.3124 25.1685 59.3515C27.3351 60.7475 29.7783 61.6762 32.3369 62.0763C34.8956 62.4764 37.5115 62.3388 40.012 61.6726C40.0459 61.664 40.0812 61.662 40.1158 61.6667C40.1505 61.6714 40.1839 61.6828 40.214 61.7003C40.2442 61.7177 40.2706 61.7407 40.2917 61.7682C40.3128 61.7956 40.3282 61.8269 40.337 61.8601C40.3458 61.8934 40.3478 61.9281 40.343 61.9621C40.3382 61.9962 40.3266 62.029 40.3088 62.0586C40.2911 62.0883 40.2676 62.1142 40.2397 62.1349C40.2118 62.1557 40.18 62.1708 40.1461 62.1794C38.5427 62.5976 36.8899 62.8055 35.2309 62.7977Z" fill="#231F20"/>
<path d="M66.7394 65.4934C66.689 65.4943 66.6394 65.4803 66.5971 65.4532C66.5548 65.4261 66.5218 65.3871 66.5022 65.3414C66.4885 65.3108 66.4812 65.2778 66.4805 65.2444C66.4799 65.211 66.486 65.1778 66.4984 65.1467C66.5109 65.1157 66.5295 65.0873 66.5531 65.0633C66.5768 65.0393 66.6051 65.0201 66.6363 65.0069C70.9274 63.1621 71.6082 59.5385 71.6134 59.503C71.625 59.4358 71.6633 59.3759 71.7199 59.3365C71.7765 59.297 71.8467 59.2813 71.9151 59.2927C71.9835 59.3041 72.0445 59.3418 72.0846 59.3974C72.1247 59.453 72.1408 59.522 72.1291 59.5892C72.0982 59.7463 71.4019 63.5118 66.8477 65.4732C66.8127 65.4847 66.7763 65.4915 66.7394 65.4934Z" fill="#231F20"/>
</svg>
