<svg width="24" height="24" viewBox="0 0 24 24" fill="none" xmlns="http://www.w3.org/2000/svg">
<circle cx="12" cy="12" r="12" fill="#1C9CEB"/>
<g clip-path="url(#clip0_1476_109518)">
<path d="M18.2481 7.0065C17.6231 7.31275 17.0106 7.43713 16.3731 7.62525C15.6724 6.83463 14.6337 6.79088 13.6356 7.16463C12.6374 7.53838 11.9837 8.45213 11.9981 9.50025V10.1253C9.96993 10.1771 8.16367 9.25338 6.99805 7.62525C6.99805 7.62525 4.3843 12.2709 9.49805 14.5003C8.32805 15.2796 7.16117 15.8053 5.74805 15.7503C7.81555 16.8771 10.0687 17.2646 12.0193 16.6984C14.2568 16.0484 16.0956 14.3715 16.8012 11.8596C17.0117 11.0957 17.1162 10.3064 17.1118 9.514C17.1106 9.35838 18.0556 7.7815 18.2481 7.00588V7.0065Z" stroke="white" stroke-width="1.2" stroke-linecap="round" stroke-linejoin="round"/>
</g>
<defs>
<clipPath id="clip0_1476_109518">
<rect width="15" height="15" fill="white" transform="translate(4.5 4.5)"/>
</clipPath>
</defs>
</svg>
