<svg width="56" height="56" viewBox="0 0 56 56" fill="none" xmlns="http://www.w3.org/2000/svg">
<g clip-path="url(#clip0_1476_58632)">
<path d="M16.3327 42.0008C13.4214 42.0008 10.6293 40.8945 8.57064 38.9254C6.512 36.9563 5.35547 34.2856 5.35547 31.5008C5.35547 28.716 6.512 26.0453 8.57064 24.0762C10.6293 22.107 13.4214 21.0008 16.3327 21.0008C17.0203 17.9375 19.0319 15.2456 21.9248 13.5171C23.3572 12.6613 24.9629 12.0677 26.6502 11.7704C28.3375 11.473 30.0734 11.4777 31.7587 11.7841C33.444 12.0905 35.0457 12.6927 36.4724 13.5562C37.8991 14.4198 39.1229 15.5278 40.0739 16.8169C41.0248 18.1061 41.6843 19.5513 42.0147 21.0698C42.3451 22.5884 42.3399 24.1507 41.9994 25.6674H44.3327C46.4987 25.6674 48.5759 26.5279 50.1074 28.0594C51.639 29.591 52.4994 31.6682 52.4994 33.8341C52.4994 36 51.639 38.0773 50.1074 39.6088C48.5759 41.1404 46.4987 42.0008 44.3327 42.0008H41.9994" stroke="#A0AEC0" stroke-width="2.33333" stroke-linecap="round" stroke-linejoin="round"/>
<path d="M21 35L28 28L35 35" stroke="#A0AEC0" stroke-width="2.33333" stroke-linecap="round" stroke-linejoin="round"/>
<path d="M28 28V49" stroke="#A0AEC0" stroke-width="2.33333" stroke-linecap="round" stroke-linejoin="round"/>
</g>
<defs>
<clipPath id="clip0_1476_58632">
<rect width="56" height="56" fill="white"/>
</clipPath>
</defs>
</svg>
