<svg width="114" height="76" viewBox="0 0 114 76" fill="none" xmlns="http://www.w3.org/2000/svg">
<path d="M113.122 72.0522H9.92285C9.87183 72.0522 9.8229 72.032 9.78682 71.9959C9.75074 71.9598 9.73047 71.9109 9.73047 71.8598V0.704104C9.73047 0.653081 9.75074 0.604146 9.78682 0.568067C9.8229 0.531988 9.87183 0.511719 9.92285 0.511719C9.97388 0.511719 10.0228 0.531988 10.0589 0.568067C10.095 0.604146 10.1152 0.653081 10.1152 0.704104V71.6675H113.122C113.173 71.6675 113.222 71.6877 113.258 71.7238C113.294 71.7599 113.315 71.8088 113.315 71.8598C113.315 71.9109 113.294 71.9598 113.258 71.9959C113.222 72.032 113.173 72.0522 113.122 72.0522Z" fill="#D1D3D4"/>
<path d="M67.347 21.5664H45.9307V71.6598H67.347V21.5664Z" fill="white"/>
<path d="M67.3432 21.5664V71.6598H45.9307V21.5664H67.3432ZM67.3432 21.1816H45.9307C45.8286 21.1816 45.7308 21.2222 45.6586 21.2943C45.5864 21.3665 45.5459 21.4644 45.5459 21.5664V71.6598C45.5459 71.7618 45.5864 71.8597 45.6586 71.9318C45.7308 72.004 45.8286 72.0445 45.9307 72.0445H67.3432C67.4452 72.0445 67.5431 72.004 67.6153 71.9318C67.6874 71.8597 67.728 71.7618 67.728 71.6598V21.5664C67.728 21.4644 67.6874 21.3665 67.6153 21.2943C67.5431 21.2222 67.4452 21.1816 67.3432 21.1816Z" fill="#231F20"/>
<path d="M37.9691 38.4961H16.5527V71.6595H37.9691V38.4961Z" fill="white"/>
<path d="M37.9691 38.4961V71.6595H16.5527V38.4961H37.9691ZM37.9691 38.1113H16.5527C16.4507 38.1113 16.3528 38.1519 16.2807 38.224C16.2085 38.2962 16.168 38.3941 16.168 38.4961V71.6595C16.168 71.7616 16.2085 71.8595 16.2807 71.9316C16.3528 72.0038 16.4507 72.0443 16.5527 72.0443H37.9691C38.0712 72.0443 38.169 72.0038 38.2412 71.9316C38.3133 71.8595 38.3539 71.7616 38.3539 71.6595V38.4961C38.3539 38.3941 38.3133 38.2962 38.2412 38.224C38.169 38.1519 38.0712 38.1113 37.9691 38.1113Z" fill="#231F20"/>
<path d="M96.724 1.97363H75.3076V71.6596H96.724V1.97363Z" fill="white"/>
<path d="M96.7201 1.97364V71.6596H75.3076V1.97364H96.7201ZM96.7201 1.58887H75.3076C75.2056 1.58887 75.1077 1.62941 75.0355 1.70156C74.9634 1.77372 74.9229 1.87159 74.9229 1.97364V71.6596C74.9229 71.7616 74.9634 71.8595 75.0355 71.9316C75.1077 72.0038 75.2056 72.0443 75.3076 72.0443H96.7201C96.8222 72.0443 96.9201 72.0038 96.9922 71.9316C97.0644 71.8595 97.1049 71.7616 97.1049 71.6596V1.97364C97.1049 1.87159 97.0644 1.77372 96.9922 1.70156C96.9201 1.62941 96.8222 1.58887 96.7201 1.58887Z" fill="#231F20"/>
<path d="M88.3165 12.1201L83.8955 13.9285L89.3862 16.4719L88.3165 12.1201Z" fill="#68E1FD"/>
<path d="M60.1243 65.2068C60.8964 64.5162 61.7697 63.9479 62.7138 63.5215C62.7908 66.288 61.6672 68.8352 60.6283 70.5782H57.2539" fill="white"/>
<path d="M60.6284 70.7711H57.2539C57.2029 70.7711 57.154 70.7509 57.1179 70.7148C57.0818 70.6787 57.0615 70.6298 57.0615 70.5787C57.0615 70.5277 57.0818 70.4788 57.1179 70.4427C57.154 70.4066 57.2029 70.3863 57.2539 70.3863H60.5091C61.4402 68.7972 62.506 66.4155 62.5137 63.8183C61.6912 64.2289 60.9266 64.7464 60.2397 65.3574C60.2038 65.3926 60.1554 65.4124 60.1051 65.4124C60.0547 65.4124 60.0064 65.3926 59.9704 65.3574C59.9524 65.3395 59.9381 65.3182 59.9283 65.2948C59.9185 65.2713 59.9135 65.2462 59.9135 65.2208C59.9135 65.1954 59.9185 65.1703 59.9283 65.1468C59.9381 65.1234 59.9524 65.1021 59.9704 65.0842C60.7572 64.3766 61.6489 63.7951 62.6138 63.3604C62.6411 63.3463 62.6715 63.3389 62.7023 63.3389C62.7331 63.3389 62.7634 63.3463 62.7908 63.3604C62.8166 63.3773 62.838 63.4001 62.8534 63.4268C62.8688 63.4535 62.8777 63.4835 62.8793 63.5143C62.9601 66.3693 61.775 68.9858 60.7669 70.6749C60.7531 70.7008 60.7333 70.723 60.7092 70.7398C60.6851 70.7565 60.6574 70.7672 60.6284 70.7711Z" fill="#231F20"/>
<path d="M55.2842 65.9533C56.1153 61.6246 59.5167 58.9004 59.5167 58.9004C60.149 60.9387 60.3585 63.0847 60.1323 65.2068C59.9617 67.0417 59.5742 68.8499 58.978 70.5936H55.3496" fill="white"/>
<path d="M58.9698 70.771H55.3414C55.2904 70.771 55.2414 70.7507 55.2053 70.7146C55.1693 70.6785 55.149 70.6296 55.149 70.5786C55.149 70.5275 55.1693 70.4786 55.2053 70.4425C55.2414 70.4065 55.2904 70.3862 55.3414 70.3862H58.8351C59.404 68.7032 59.7772 66.9602 59.9471 65.1918C60.159 63.1927 59.9827 61.1715 59.4277 59.2393C58.6581 59.9204 56.1763 62.4099 55.4914 65.9882C55.4812 66.0385 55.4517 66.0827 55.4093 66.1114C55.3669 66.1402 55.3149 66.1512 55.2644 66.1421C55.2142 66.1319 55.17 66.1024 55.1412 66.06C55.1125 66.0176 55.1014 65.9656 55.1105 65.9151C55.9455 61.5672 59.37 58.7815 59.4046 58.7507C59.4287 58.7318 59.457 58.7188 59.487 58.7128C59.5171 58.7068 59.5482 58.7079 59.5777 58.7161C59.6076 58.7253 59.6348 58.7417 59.6569 58.7638C59.6791 58.7859 59.6955 58.8131 59.7047 58.843C60.3487 60.9054 60.5621 63.0781 60.3319 65.2264C60.1543 67.0711 59.7591 68.8883 59.1545 70.6401C59.141 70.6783 59.116 70.7114 59.0829 70.7348C59.0498 70.7583 59.0103 70.7709 58.9698 70.771Z" fill="#231F20"/>
<path d="M53.4912 70.5785H56.7079C56.7387 69.6281 56.5232 68.1852 55.492 66.3152C55.4189 66.1882 55.3535 66.0689 55.2842 65.9535C53.4219 62.7984 51.7174 62.833 51.7174 62.833C50.9979 66.1536 52.5177 69.1125 53.4912 70.5785Z" fill="white"/>
<path d="M56.7082 70.7708H53.4915C53.4603 70.7709 53.4295 70.7632 53.402 70.7484C53.3744 70.7337 53.351 70.7123 53.3338 70.6862C52.3449 69.1933 50.7943 66.1844 51.5292 62.7945C51.5386 62.752 51.5618 62.7138 51.5952 62.686C51.6287 62.6581 51.6704 62.6422 51.7139 62.6406C51.787 62.6406 53.5493 62.6406 55.45 65.8535L55.6578 66.2382C56.739 68.1967 56.9314 69.7012 56.9006 70.6054C56.8941 70.6516 56.871 70.6939 56.8356 70.7243C56.8002 70.7548 56.7549 70.7713 56.7082 70.7708ZM53.5954 70.3861H56.5197C56.4606 68.9806 56.0491 67.6125 55.323 66.4075L55.1191 66.0497C53.6647 63.5872 52.3141 63.1293 51.8716 63.0446C51.2753 66.1651 52.6566 68.9432 53.5839 70.3861H53.5954Z" fill="#231F20"/>
<path d="M54.0763 75.6763H60.3866L61.3985 70.5781H53.0605L54.0763 75.6763Z" fill="#231F20"/>
<path d="M13.5364 72.0254H0.969729C0.918705 72.0254 0.869773 72.0051 0.833693 71.9691C0.797614 71.933 0.777344 71.884 0.777344 71.833C0.777344 71.782 0.797614 71.7331 0.833693 71.697C0.869773 71.6609 0.918705 71.6406 0.969729 71.6406H13.5364C13.5874 71.6406 13.6363 71.6609 13.6724 71.697C13.7085 71.7331 13.7287 71.782 13.7287 71.833C13.7287 71.884 13.7085 71.933 13.6724 71.9691C13.6363 72.0051 13.5874 72.0254 13.5364 72.0254Z" fill="#D1D3D4"/>
<path d="M11.1924 70.8255C11.0804 70.8266 10.9706 70.7945 10.8769 70.7332C10.7491 70.6497 10.6596 70.5191 10.6278 70.3699C10.5961 70.2206 10.6248 70.0648 10.7076 69.9367L27.6914 43.6106C27.7392 43.5368 27.8031 43.4748 27.8785 43.4294C27.9539 43.3841 28.0386 43.3566 28.1262 43.349C28.2137 43.3405 28.3019 43.3525 28.384 43.3839C28.4662 43.4152 28.5399 43.4652 28.5995 43.5298L41.9703 58.0088L57.4573 29.5896C57.5025 29.506 57.5675 29.435 57.6467 29.3826C57.7259 29.3303 57.8168 29.2983 57.9113 29.2894C58.0056 29.2813 58.1005 29.2963 58.1877 29.3332C58.2749 29.3701 58.3517 29.4277 58.4115 29.5011L72.0709 46.2963L88.7738 19.0276C88.8541 18.8977 88.9826 18.8049 89.1312 18.7696C89.2798 18.7342 89.4363 18.7592 89.5665 18.839C89.6316 18.8781 89.6882 18.9297 89.7331 18.991C89.7779 19.0522 89.8101 19.1218 89.8276 19.1957C89.8452 19.2695 89.8478 19.3461 89.8354 19.421C89.8229 19.4959 89.7956 19.5675 89.755 19.6317L72.6288 47.6199C72.5807 47.6986 72.5143 47.7646 72.4353 47.8121C72.3562 47.8597 72.2669 47.8875 72.1748 47.8931C72.0829 47.8997 71.9908 47.8839 71.9063 47.847C71.8219 47.8102 71.7477 47.7534 71.69 47.6815L58.0576 30.9247L42.5974 59.2939C42.5536 59.3742 42.4914 59.4429 42.4158 59.4945C42.3402 59.546 42.2534 59.5788 42.1627 59.5902C42.0716 59.6002 41.9794 59.5891 41.8934 59.5577C41.8073 59.5263 41.7296 59.4756 41.6663 59.4093L28.257 44.8804L11.6772 70.5831C11.6222 70.6599 11.5493 70.7221 11.4648 70.7643C11.3803 70.8065 11.2868 70.8275 11.1924 70.8255Z" fill="#68E1FD"/>
<path d="M105.105 62.7231L108.518 60.9785L93.8584 32.3072L90.4462 34.0518L105.105 62.7231Z" fill="#231F20"/>
<path d="M104.981 62.7826L90.3217 34.1095C90.3053 34.0772 90.3022 34.0399 90.3129 34.0054C90.3237 33.9709 90.3476 33.9419 90.3794 33.9248L93.7923 32.1779C93.8087 32.1693 93.8266 32.1641 93.845 32.1626C93.8635 32.1611 93.882 32.1632 93.8996 32.1689C93.9171 32.1747 93.9334 32.1839 93.9473 32.196C93.9613 32.2081 93.9727 32.2229 93.9808 32.2395L108.637 60.9126C108.646 60.9284 108.652 60.9458 108.654 60.9639C108.656 60.982 108.654 61.0003 108.649 61.0177C108.643 61.0351 108.634 61.0512 108.622 61.0649C108.61 61.0786 108.596 61.0896 108.579 61.0973L105.166 62.8442C105.133 62.8573 105.096 62.8573 105.062 62.8442C105.045 62.8398 105.03 62.8321 105.016 62.8216C105.002 62.811 104.99 62.7977 104.981 62.7826ZM93.7962 32.4896L90.6295 34.1056L105.162 62.5325L108.329 60.9165L93.7962 32.4896Z" fill="#231F20"/>
<path d="M109.63 68.8697L110.843 68.2496C112.277 67.5163 112.845 65.7592 112.112 64.325L102.765 46.0445C102.032 44.6103 100.275 44.0421 98.8406 44.7754L97.6278 45.3954C96.1936 46.1287 95.6254 47.8858 96.3587 49.32L105.705 67.6006C106.439 69.0347 108.196 69.6029 109.63 68.8697Z" fill="#231F20"/>
<path d="M86.2421 44.3182C81.6219 44.3188 77.1444 42.7174 73.5725 39.7869C70.0007 36.8563 67.5555 32.7778 66.6537 28.2464C65.7518 23.7151 66.4492 19.0112 68.6268 14.9363C70.8044 10.8615 74.3276 7.66779 78.5961 5.89945C82.8645 4.13112 87.614 3.89756 92.0354 5.23859C96.4567 6.57961 100.276 9.41224 102.843 13.2538C105.41 17.0953 106.566 21.7081 106.113 26.3061C105.66 30.9041 103.627 35.2027 100.359 38.4696C98.5099 40.3295 96.3098 41.804 93.8866 42.8079C91.4634 43.8118 88.8651 44.3251 86.2421 44.3182ZM86.2421 4.76753C82.3685 4.76703 78.5817 5.91526 75.3606 8.06699C72.1396 10.2187 69.6289 13.2773 68.1462 16.856C66.6635 20.4346 66.2754 24.3726 67.0308 28.1719C67.7863 31.9712 69.6514 35.4611 72.3904 38.2003C74.6677 40.4757 77.4709 42.1545 80.5518 43.0881C83.6328 44.0217 86.8963 44.1812 90.0536 43.5527C93.2109 42.9241 96.1646 41.5267 98.653 39.4844C101.141 37.442 103.088 34.8176 104.32 31.8435C105.552 28.8694 106.032 25.6373 105.717 22.4335C105.403 19.2297 104.303 16.1529 102.515 13.4755C100.728 10.7982 98.3074 8.6029 95.469 7.08401C92.6305 5.56511 89.4614 4.76947 86.2421 4.76753Z" fill="#231F20"/>
<path d="M72.1644 38.4314C68.9004 35.173 66.8674 30.8836 66.4119 26.2941C65.9564 21.7046 67.1067 17.0992 69.6666 13.2629C72.2265 9.4265 76.0376 6.59665 80.4504 5.25565C84.8632 3.91465 89.6044 4.1455 93.866 5.90885C98.1277 7.67219 101.646 10.8589 103.821 14.9258C105.996 18.9927 106.693 23.6881 105.794 28.2116C104.895 32.7351 102.455 36.8068 98.8899 39.7326C95.3247 42.6585 90.8553 44.2574 86.2432 44.2568C80.9641 44.2558 75.9009 42.1608 72.1644 38.4314Z" fill="white"/>
<path d="M86.2431 44.4451C81.5938 44.442 77.0894 42.8269 73.4974 39.8751C69.9054 36.9232 67.448 32.8173 66.5439 28.2568C65.6397 23.6962 66.3448 18.9633 68.5389 14.8643C70.7331 10.7654 74.2806 7.55395 78.577 5.77725C82.8734 4.00055 87.6529 3.76847 92.1012 5.12056C96.5496 6.47266 100.391 9.32527 102.972 13.1924C105.553 17.0595 106.714 21.7018 106.256 26.3285C105.798 30.9552 103.75 35.2799 100.46 38.5658C98.5977 40.4381 96.3818 41.9218 93.9413 42.9311C91.5007 43.9403 88.8841 44.455 86.2431 44.4451ZM86.2431 4.64057C81.683 4.64323 77.2649 6.22681 73.7415 9.12153C70.218 12.0163 67.8072 16.0431 66.9197 20.5159C66.0322 24.9888 66.7229 29.631 68.8741 33.6517C71.0254 37.6724 74.5041 40.8229 78.7177 42.5665C82.9313 44.31 87.619 44.5387 91.9823 43.2137C96.3456 41.8887 100.115 39.0918 102.647 35.2996C105.18 31.5075 106.319 26.9546 105.871 22.4165C105.423 17.8785 103.416 13.6362 100.191 10.4121C98.361 8.57871 96.1867 7.12499 93.793 6.13451C91.3994 5.14404 88.8336 4.63633 86.2431 4.64057Z" fill="#231F20"/>
<path d="M96.9661 13.6323C95.5581 12.2238 93.8865 11.1064 92.0467 10.3439C90.2069 9.58145 88.2349 9.18883 86.2433 9.18848C82.2212 9.18776 78.3635 10.7848 75.519 13.6284C72.6744 16.472 71.0759 20.3291 71.0752 24.3512C71.0745 28.3733 72.6716 32.231 75.5151 35.0756L75.7652 35.318C77.1307 36.6316 78.7344 37.6725 80.4902 38.3846C83.731 39.7148 87.3326 39.8816 90.6825 38.8566C94.0324 37.8316 96.9239 35.678 98.8655 32.7621C100.807 29.8461 101.679 26.3477 101.333 22.8616C100.986 19.3756 99.4434 16.117 96.9661 13.6399V13.6323Z" fill="white"/>
<path d="M86.2424 9.19612C88.479 9.19992 90.6871 9.69869 92.7081 10.6566C94.7292 11.6146 96.5132 13.008 97.9322 14.7369C99.3511 16.4657 100.37 18.4872 100.915 20.6563C101.461 22.8254 101.519 25.0883 101.087 27.2827C100.654 29.4772 99.7416 31.5486 98.414 33.3486C97.0863 35.1486 95.3768 36.6324 93.408 37.6937C91.4392 38.7549 89.2599 39.3672 87.0265 39.4867C84.7931 39.6062 82.5609 39.23 80.4901 38.3849C78.7361 37.6684 77.135 36.6237 75.7728 35.3067L75.5227 35.0643C73.4025 32.9441 71.9587 30.2429 71.3737 27.3021C70.7888 24.3614 71.089 21.3132 72.2364 18.5431C73.3838 15.773 75.3269 13.4053 77.82 11.7395C80.313 10.0737 83.2441 9.18458 86.2424 9.18458V9.19612ZM86.2424 8.79981C83.1692 8.80089 80.1653 9.71288 77.6102 11.4206C75.0551 13.1282 73.0636 15.5549 71.8871 18.3941C70.7107 21.2332 70.4023 24.3573 71.0007 27.3717C71.5992 30.3861 73.0777 33.1554 75.2495 35.3298L75.5112 35.5799C76.9078 36.9233 78.548 37.9876 80.3439 38.7158C82.4679 39.5884 84.759 39.9795 87.0523 39.8609C89.3456 39.7423 91.5841 39.1169 93.6068 38.0298C95.6295 36.9427 97.3862 35.4208 98.7505 33.5737C100.115 31.7266 101.053 29.6 101.497 27.347C101.941 25.0941 101.881 22.7707 101.32 20.5439C100.759 18.3171 99.711 16.2424 98.2523 14.4688C96.7936 12.6953 94.96 11.267 92.8834 10.2868C90.8068 9.30659 88.5388 8.79874 86.2424 8.79981Z" fill="#231F20"/>
<path d="M92.9804 15.7947L92.2609 32.436C92.2556 32.5638 92.2172 32.688 92.1494 32.7965C92.0817 32.905 91.987 32.994 91.8745 33.0549C91.762 33.1158 91.6357 33.1464 91.5078 33.1438C91.38 33.1412 91.255 33.1055 91.1451 33.0401L86.2585 30.1236L80.4869 38.3769C78.7348 37.6623 77.1351 36.6202 75.7734 35.3064L81.4219 27.2262L76.2044 24.1481C76.0903 24.0801 75.9966 23.9826 75.9332 23.8659C75.8698 23.7492 75.8391 23.6176 75.8442 23.4849C75.8493 23.3521 75.8901 23.2233 75.9623 23.1118C76.0345 23.0003 76.1354 22.9103 76.2544 22.8514L91.9185 15.1175C92.0321 15.0622 92.158 15.0369 92.2841 15.0442C92.4103 15.0514 92.5325 15.0909 92.639 15.1588C92.7455 15.2268 92.8329 15.3209 92.8926 15.4322C92.9524 15.5435 92.9826 15.6683 92.9804 15.7947Z" fill="#68E1FD"/>
<path d="M58.3428 32.4903C59.8664 32.4903 61.1016 31.2551 61.1016 29.7315C61.1016 28.2078 59.8664 26.9727 58.3428 26.9727C56.8191 26.9727 55.584 28.2078 55.584 29.7315C55.584 31.2551 56.8191 32.4903 58.3428 32.4903Z" fill="#68E1FD"/>
<path d="M28.5576 46.5381C30.0813 46.5381 31.3164 45.303 31.3164 43.7793C31.3164 42.2557 30.0813 41.0205 28.5576 41.0205C27.034 41.0205 25.7988 42.2557 25.7988 43.7793C25.7988 45.303 27.034 46.5381 28.5576 46.5381Z" fill="#68E1FD"/>
<path d="M30.5281 25.8145H17.9346C17.8839 25.8135 17.8355 25.7929 17.7996 25.757C17.7638 25.7212 17.7432 25.6728 17.7422 25.6221C17.7422 25.5711 17.7625 25.5221 17.7985 25.486C17.8346 25.45 17.8835 25.4297 17.9346 25.4297H30.5281C30.5792 25.4297 30.6281 25.45 30.6642 25.486C30.7002 25.5221 30.7205 25.5711 30.7205 25.6221C30.7195 25.6728 30.6989 25.7212 30.6631 25.757C30.6272 25.7929 30.5788 25.8135 30.5281 25.8145Z" fill="#D1D3D4"/>
<path d="M37.9696 21.7588H17.9346C17.8839 21.7578 17.8355 21.7372 17.7996 21.7013C17.7638 21.6655 17.7432 21.6171 17.7422 21.5664C17.7422 21.5154 17.7625 21.4664 17.7985 21.4304C17.8346 21.3943 17.8835 21.374 17.9346 21.374H37.9696C38.0206 21.374 38.0696 21.3943 38.1057 21.4304C38.1417 21.4664 38.162 21.5154 38.162 21.5664C38.161 21.6171 38.1404 21.6655 38.1046 21.7013C38.0687 21.7372 38.0203 21.7578 37.9696 21.7588Z" fill="#D1D3D4"/>
<path d="M37.9696 17.7031H17.9346C17.8835 17.7031 17.8346 17.6829 17.7985 17.6468C17.7625 17.6107 17.7422 17.5618 17.7422 17.5107C17.7422 17.4597 17.7625 17.4108 17.7985 17.3747C17.8346 17.3386 17.8835 17.3184 17.9346 17.3184H37.9696C38.0206 17.3184 38.0696 17.3386 38.1057 17.3747C38.1417 17.4108 38.162 17.4597 38.162 17.5107C38.162 17.5618 38.1417 17.6107 38.1057 17.6468C38.0696 17.6829 38.0206 17.7031 37.9696 17.7031Z" fill="#D1D3D4"/>
<path d="M37.9696 13.6484H17.9346C17.8835 13.6484 17.8346 13.6282 17.7985 13.5921C17.7625 13.556 17.7422 13.5071 17.7422 13.4561C17.7422 13.405 17.7625 13.3561 17.7985 13.32C17.8346 13.2839 17.8835 13.2637 17.9346 13.2637H37.9696C38.0206 13.2637 38.0696 13.2839 38.1057 13.32C38.1417 13.3561 38.162 13.405 38.162 13.4561C38.162 13.5071 38.1417 13.556 38.1057 13.5921C38.0696 13.6282 38.0206 13.6484 37.9696 13.6484Z" fill="#D1D3D4"/>
<path d="M37.9696 9.59181H17.9346C17.8835 9.59181 17.8346 9.57154 17.7985 9.53546C17.7625 9.49938 17.7422 9.45044 17.7422 9.39942C17.7432 9.3487 17.7638 9.30034 17.7996 9.26447C17.8355 9.2286 17.8839 9.20802 17.9346 9.20703H37.9696C38.0203 9.20802 38.0687 9.2286 38.1046 9.26447C38.1404 9.30034 38.161 9.3487 38.162 9.39942C38.162 9.45044 38.1417 9.49938 38.1057 9.53546C38.0696 9.57154 38.0206 9.59181 37.9696 9.59181Z" fill="#D1D3D4"/>
</svg>
