<svg width="111" height="84" viewBox="0 0 111 84" fill="none" xmlns="http://www.w3.org/2000/svg">
<path d="M42.7945 18.7707H64.8896L62.5796 11.0176H40.4845L42.7945 18.7707Z" fill="white"/>
<path d="M42.7942 18.9982H64.8894C64.9247 18.9978 64.9594 18.9892 64.9909 18.9732C65.0224 18.9572 65.0498 18.9342 65.071 18.9059C65.0922 18.8777 65.1066 18.8449 65.1132 18.8103C65.1197 18.7756 65.1182 18.7398 65.1088 18.7058L62.7988 10.9527C62.7852 10.9053 62.7563 10.8638 62.7166 10.8345C62.6769 10.8053 62.6287 10.79 62.5794 10.7911H40.4842C40.4486 10.7908 40.4135 10.7988 40.3816 10.8146C40.3497 10.8304 40.3219 10.8534 40.3006 10.8819C40.2792 10.9103 40.2649 10.9434 40.2586 10.9784C40.2524 11.0134 40.2545 11.0494 40.2648 11.0835L42.5748 18.8366C42.5884 18.884 42.6173 18.9256 42.657 18.9548C42.6967 18.984 42.7449 18.9993 42.7942 18.9982ZM64.5852 18.5288H42.9636L40.7884 11.2182H62.4061L64.5852 18.5288Z" fill="#231F20"/>
<path d="M43.8607 16.4544L43.3102 14.6113H61.2512L61.8018 16.4544H43.8607Z" fill="white"/>
<path d="M43.8607 16.6818H61.8017C61.837 16.6819 61.8718 16.6735 61.9033 16.6574C61.9347 16.6414 61.9619 16.6181 61.9826 16.5895C62.0039 16.5613 62.0185 16.5286 62.0251 16.4939C62.0318 16.4593 62.0304 16.4235 62.0211 16.3894L61.4706 14.5464C61.4559 14.4997 61.4267 14.4588 61.3872 14.4298C61.3478 14.4007 61.3001 14.385 61.2511 14.3848H43.2947C43.2595 14.3851 43.2247 14.3936 43.1933 14.4096C43.1619 14.4256 43.1347 14.4487 43.1138 14.4771C43.0931 14.5056 43.0793 14.5385 43.0733 14.5731C43.0672 14.6078 43.0693 14.6434 43.0791 14.6772L43.6297 16.5202C43.6437 16.5696 43.6743 16.6127 43.7164 16.6421C43.7585 16.6715 43.8094 16.6856 43.8607 16.6818ZM61.4975 16.2201H44.0301L43.6181 14.8311H61.0817L61.4975 16.2201Z" fill="#231F20"/>
<path d="M52.9622 16.4544L52.4116 14.6113H61.2512L61.8018 16.4544H52.9622Z" fill="#231F20"/>
<path d="M52.9622 16.6819H61.8172C61.853 16.6816 61.8883 16.6731 61.9203 16.6571C61.9523 16.6411 61.9803 16.618 62.002 16.5895C62.0227 16.561 62.0365 16.5282 62.0425 16.4935C62.0485 16.4588 62.0465 16.4232 62.0366 16.3894L61.4861 14.5464C61.4719 14.4993 61.4429 14.4582 61.4033 14.429C61.3638 14.3999 61.3158 14.3844 61.2666 14.3848H52.4116C52.3763 14.3853 52.3416 14.3938 52.3101 14.4098C52.2786 14.4258 52.2512 14.4489 52.23 14.4771C52.2088 14.5053 52.1944 14.5381 52.1878 14.5728C52.1813 14.6074 52.1828 14.6432 52.1922 14.6772L52.7427 16.5203C52.7563 16.5676 52.7852 16.6092 52.8249 16.6384C52.8646 16.6676 52.9129 16.6829 52.9622 16.6819ZM61.4938 16.2201H53.1316L52.7196 14.835H61.0818L61.4938 16.2201Z" fill="#231F20"/>
<path d="M44.6191 36.4598C44.6191 36.4598 39.7681 30.9075 38.952 28.4219C38.1358 25.9363 35.872 21.6345 35.3099 22.4579C34.7478 23.2813 36.5765 27.7255 36.5765 27.7255C36.5765 27.7255 31.9219 20.7534 30.4781 21.6499C29.0344 22.5464 27.8178 25.3745 28.9843 27.0636C30.1509 28.7528 38.5592 38.5375 38.5592 38.5375L44.6191 36.4598Z" fill="white"/>
<path d="M38.5589 38.7518C38.5831 38.7558 38.6078 38.7558 38.632 38.7518L44.6919 36.6895C44.7273 36.677 44.7591 36.6561 44.7846 36.6286C44.8101 36.6012 44.8285 36.5679 44.8382 36.5317C44.8491 36.4954 44.8506 36.4569 44.8425 36.4199C44.8344 36.3829 44.8171 36.3485 44.792 36.3201C44.742 36.2662 39.9603 30.7717 39.171 28.3592C38.4973 26.3083 36.5684 22.2913 35.5636 22.1413C35.4793 22.1287 35.3932 22.1405 35.3154 22.1753C35.2377 22.2101 35.1715 22.2663 35.1247 22.3375C34.7397 22.8993 35.2209 24.6846 35.7099 26.0929C34.1699 23.9728 31.5365 20.733 30.3545 21.4756C29.3296 22.2138 28.6247 23.3145 28.3833 24.5538C28.2694 25.0001 28.2476 25.465 28.319 25.9201C28.3905 26.3752 28.5539 26.811 28.7991 27.201C29.9541 28.8786 38.0391 38.2824 38.3856 38.6826C38.4082 38.7053 38.4353 38.7232 38.4651 38.7351C38.4949 38.747 38.5268 38.7527 38.5589 38.7518ZM44.2261 36.3547L38.632 38.2593C37.6772 37.1473 30.2544 28.4938 29.1726 26.9317C28.9624 26.5899 28.8238 26.2092 28.7649 25.8124C28.706 25.4156 28.7281 25.011 28.8299 24.623C29.0501 23.5094 29.6773 22.5177 30.5894 21.8411C31.113 21.5218 33.2536 23.1686 36.3644 27.8513C36.399 27.8884 36.4452 27.9129 36.4954 27.9207C36.5457 27.9285 36.5971 27.9193 36.6414 27.8945C36.6858 27.8696 36.7205 27.8307 36.7401 27.7838C36.7597 27.7369 36.7629 27.6848 36.7494 27.6358C36.0025 25.8389 35.1093 23.0839 35.4596 22.5876C35.9563 22.5876 37.8389 25.8774 38.6975 28.49C39.4444 30.714 43.252 35.2196 44.2261 36.3547Z" fill="#231F20"/>
<path d="M63.5729 77.0331L62.7567 82.9971C62.7567 82.9971 99.274 83.428 98.8389 82.9971C98.4039 82.5661 98.8389 73.8164 98.8389 73.8164L63.5729 77.0331Z" fill="#231F20"/>
<path d="M89.9643 83.4206C98.9156 83.4206 98.9772 83.2706 99.0503 83.0936C99.0681 83.0504 99.0729 83.003 99.064 82.9572C99.0551 82.9113 99.0329 82.8691 99.0003 82.8358C98.7808 82.4241 98.8655 77.8838 99.0657 73.8283C99.0675 73.7958 99.0623 73.7633 99.0504 73.7331C99.0386 73.7028 99.0203 73.6754 98.997 73.6528C98.9736 73.6302 98.9457 73.6129 98.915 73.602C98.8844 73.5911 98.8517 73.5869 98.8193 73.5897L63.5495 76.8064C63.4985 76.8118 63.4508 76.8341 63.4138 76.8696C63.3769 76.9051 63.3528 76.9519 63.3454 77.0026L62.5292 82.9666C62.5253 82.9982 62.528 83.0303 62.5373 83.0608C62.5466 83.0913 62.5622 83.1195 62.5831 83.1436C62.6038 83.1685 62.6297 83.1887 62.6589 83.2026C62.6882 83.2166 62.7201 83.224 62.7525 83.2244C62.8449 83.2244 71.8347 83.3321 80.732 83.386C84.5551 83.4091 87.5696 83.4206 89.9643 83.4206ZM98.5537 82.8358C96.286 83.0705 76.4662 82.9281 63.0182 82.7704L63.7882 77.245L98.6114 74.0668C98.4536 77.0142 98.2919 81.5545 98.5537 82.8358Z" fill="#231F20"/>
<path d="M76.3429 5.06181C76.4276 4.92329 76.5123 4.78477 76.6008 4.64625C77.4163 3.40733 78.5398 2.40135 79.8612 1.72685C81.1827 1.05236 82.6568 0.732474 84.1391 0.798541C85.3663 0.849345 86.584 1.03647 87.7697 1.35646C88.967 1.69506 89.3828 2.76472 90.3992 3.28031C90.6152 3.36992 90.8469 3.4157 91.0807 3.41499C91.8269 3.47554 92.558 3.65885 93.2444 3.95751C95.1155 4.76938 96.3667 7.37043 97.0405 9.17116C98.3065 12.7106 99.0899 16.4042 99.3697 20.1525C99.6816 23.6155 100.09 27.494 98.7768 30.8222C97.5133 34.1417 95.6628 37.2071 93.3137 39.872C88.9593 44.6471 82.422 47.479 75.9887 46.9595C72.1387 46.6479 68.4927 45.2204 65.1009 43.4119C63.1528 42.3731 61.2278 41.1687 59.8995 39.4065C57.3932 36.0897 57.5895 31.0454 60.2845 27.8633C63.1836 24.4004 67.7458 22.9229 70.6372 19.3984C73.825 15.4853 73.7095 9.41357 76.3429 5.06181Z" fill="black" fill-opacity="0.5"/>
<path d="M77.4755 47.2673C83.3314 47.2673 89.3489 44.5739 93.4838 40.049C95.8569 37.3687 97.7213 34.2785 98.9855 30.9299C100.275 27.6709 99.9326 23.8809 99.6284 20.5411L99.5938 20.1563C99.3174 16.388 98.5313 12.6745 97.2568 9.11724C96.5138 7.13182 95.2279 4.59233 93.3337 3.76892C92.6239 3.46106 91.8681 3.27255 91.0968 3.211H91.0352C90.8545 3.20932 90.6756 3.17409 90.5078 3.10711C90.1204 2.88718 89.7718 2.6051 89.476 2.27216C89.0428 1.75776 88.4749 1.37406 87.8359 1.16402C86.6329 0.837049 85.397 0.646034 84.1514 0.594559C82.6302 0.527305 81.1175 0.854428 79.7602 1.54415C78.4028 2.23386 77.2471 3.26272 76.4052 4.53077C76.3128 4.66929 76.2281 4.81165 76.1434 4.95017C74.9461 6.93559 74.307 9.29809 73.6833 11.5798C72.9402 14.3155 72.1702 17.1436 70.4454 19.2752C69.0017 21.0451 67.0882 22.3264 65.2364 23.5616C63.3845 24.7967 61.5442 26.0318 60.0966 27.7556C57.34 31.0377 57.1706 36.2205 59.7116 39.5873C61.1092 41.4419 63.1766 42.6654 64.9861 43.6543C68.9863 45.7859 72.5745 46.9518 75.9625 47.2288C76.463 47.2481 76.9712 47.2673 77.4755 47.2673ZM83.8242 1.03705H84.1322C85.3415 1.09181 86.541 1.28021 87.7088 1.59881C88.2696 1.79387 88.7671 2.13689 89.1487 2.59152C89.4819 2.95797 89.8719 3.26846 90.3037 3.51113C90.5252 3.60703 90.7631 3.65928 91.0044 3.66503H91.0699C91.7909 3.72282 92.4973 3.89964 93.1604 4.18832C94.8852 4.94632 96.1172 7.37038 96.8102 9.29424C98.0695 12.8134 98.8465 16.4866 99.1202 20.214L99.1549 20.5988C99.4513 23.8925 99.7901 27.6247 98.5427 30.7876C97.2963 34.0831 95.4608 37.1248 93.1258 39.7643C88.7252 44.5893 82.1533 47.275 75.974 46.7786C72.6515 46.5093 69.121 45.3588 65.194 43.258C63.4115 42.3115 61.4133 41.0994 60.0658 39.3179C57.6557 36.1243 57.8213 31.1762 60.4508 28.0518C61.8561 26.3781 63.7079 25.1391 65.4982 23.9425C67.377 22.6881 69.3174 21.3914 70.8073 19.5638C72.5899 17.3783 73.3753 14.504 74.1299 11.7221C74.742 9.46738 75.3773 7.13952 76.54 5.20797C76.6208 5.06945 76.7055 4.93478 76.7941 4.80011C77.5602 3.6379 78.6043 2.68509 79.8319 2.028C81.0594 1.37091 82.4316 1.0303 83.8242 1.03705Z" fill="#231F20"/>
<path d="M100.487 79.2535C101.792 70.7885 106.755 35.9513 101.045 30.3875C94.5347 24.0388 76.6322 24.3158 73.352 30.0566C71.5694 33.1694 66.5567 38.41 66.1717 45.2204C65.625 54.8821 62.7452 73.0625 62.0561 79.2612L100.487 79.2535Z" fill="#68E1FD"/>
<path d="M86.0379 79.2534L90.0342 30.0488L79.8663 31.1223L74.3377 79.2534H86.0379Z" fill="#231F20"/>
<path d="M74.3372 79.4808H86.0296C86.0864 79.4801 86.141 79.4585 86.1829 79.4202C86.2248 79.3819 86.2511 79.3295 86.2568 79.273L90.2646 30.0723C90.2678 30.039 90.2634 30.0054 90.2518 29.9741C90.2402 29.9427 90.2218 29.9143 90.1977 29.891C90.1737 29.8678 90.1448 29.8502 90.113 29.8396C90.0813 29.829 90.0476 29.8257 90.0144 29.8299L79.8465 30.9034C79.795 30.909 79.7468 30.9318 79.7098 30.9681C79.6728 31.0044 79.6491 31.0521 79.6425 31.1035L74.0946 79.2268C74.0904 79.2585 74.0931 79.2906 74.1024 79.3212C74.1117 79.3517 74.1274 79.3799 74.1485 79.4038C74.1722 79.43 74.2014 79.4505 74.2341 79.4638C74.2667 79.4771 74.302 79.4829 74.3372 79.4808ZM85.8256 79.0267H74.5913L80.0698 31.3151L89.7834 30.2878L85.8256 79.0267Z" fill="#231F20"/>
<path d="M80.4479 24.7702L79.8704 31.1228C79.8704 31.1228 81.7954 33.339 84.398 33.5468C88.633 33.8893 90.0382 30.0492 90.0382 30.0492C90.2038 27.1057 90.3924 24.1661 90.5503 21.2264C90.6581 19.2218 91.7361 15.1009 89.8188 13.758C89.2875 13.3733 88.6638 13.1501 88.1209 12.8076C87.3053 12.2864 86.652 11.5474 86.235 10.6743C85.8179 9.80113 85.6536 8.82876 85.7609 7.86719C85.0486 8.73677 84.2902 9.64098 83.2507 10.0719C82.3702 10.3672 81.4395 10.4837 80.5133 10.4144C79.597 10.4144 78.4651 10.2104 77.5681 10.3836C76.6056 10.5721 76.9059 10.3836 76.6556 11.2147C76.3592 12.2189 76.5055 13.5849 76.44 14.6315C76.3245 16.5245 76.159 18.4292 76.159 20.3261C76.3361 23.662 80.4479 24.7702 80.4479 24.7702Z" fill="white"/>
<path d="M84.9176 33.796C88.8715 33.796 90.2344 30.1638 90.2498 30.1253C90.2535 30.1036 90.2535 30.0815 90.2498 30.0599C90.3268 28.7324 90.4038 27.4088 90.4847 26.0813C90.5797 24.4704 90.6733 22.8557 90.7657 21.2371C90.7657 20.8254 90.8504 20.3059 90.9197 19.7557C91.1931 17.6279 91.5627 14.7113 89.9341 13.5686C89.6221 13.3592 89.2953 13.1728 88.9562 13.0107C88.7098 12.8837 88.4557 12.7567 88.2247 12.6259C87.4494 12.1258 86.8282 11.4203 86.4305 10.588C86.0328 9.75577 85.8743 8.82948 85.9725 7.91244C85.9785 7.86351 85.9686 7.81395 85.9444 7.77103C85.9201 7.7281 85.8827 7.69406 85.8377 7.67388C85.7919 7.65351 85.7406 7.64888 85.6918 7.66071C85.6431 7.67254 85.5996 7.70017 85.5682 7.73929C84.9099 8.54346 84.1591 9.45537 83.1504 9.87477C82.2958 10.1548 81.3949 10.2659 80.4978 10.2018C80.2052 10.2018 79.8933 10.1749 79.5622 10.1518C78.88 10.0724 78.1905 10.0801 77.5102 10.1749L77.1598 10.2365C76.7017 10.3173 76.6054 10.3673 76.5207 10.7674C76.5015 10.8598 76.4745 10.9906 76.4245 11.1522C76.2416 11.9412 76.1716 12.7522 76.2166 13.5609C76.2166 13.9456 76.2166 14.2958 76.2166 14.6228C76.1896 15.0692 76.1588 15.5155 76.128 15.9619C76.0356 17.3932 75.9355 18.8707 75.9355 20.329C76.1049 23.4072 79.4005 24.6731 80.2129 24.9463L79.6469 31.1026C79.6441 31.133 79.6474 31.1636 79.6566 31.1927C79.6659 31.2218 79.6809 31.2487 79.7008 31.2719C79.7817 31.3642 81.7259 33.5613 84.3824 33.7729C84.5621 33.7883 84.7405 33.796 84.9176 33.796ZM89.8109 29.9983C89.6646 30.3831 88.2709 33.6228 84.4209 33.3189C82.2072 33.1419 80.4631 31.395 80.1089 31.041L80.6864 24.7885C80.6909 24.7352 80.6763 24.682 80.6453 24.6383C80.6143 24.5947 80.5689 24.5634 80.517 24.5499C80.4785 24.5499 76.5631 23.4418 76.3937 20.3175C76.3937 18.89 76.4899 17.4201 76.5862 15.9965C76.617 15.5463 76.6439 15.1 76.6709 14.6536C76.694 14.3112 76.6901 13.9495 76.6901 13.5647C76.649 12.8004 76.7125 12.034 76.8788 11.2869C76.9227 11.144 76.9587 10.9989 76.9866 10.8521C76.9954 10.804 77.007 10.7565 77.0212 10.7097C77.1003 10.7067 77.1789 10.6964 77.2561 10.6789L77.618 10.6174C78.2571 10.5367 78.9039 10.5367 79.543 10.6174C79.8818 10.6405 80.2013 10.6636 80.5055 10.6674C81.4632 10.7399 82.4258 10.6182 83.3352 10.3096C84.1864 9.89364 84.9266 9.28176 85.4951 8.52422C85.5166 9.41473 85.7555 10.2865 86.1909 11.0637C86.6264 11.8409 87.2453 12.5 87.9937 12.9837C88.244 13.1376 88.5058 13.2723 88.7637 13.3993C89.0832 13.5541 89.3919 13.7302 89.6877 13.9264C91.0891 14.9114 90.7388 17.6702 90.4847 19.698C90.4115 20.2559 90.3461 20.783 90.323 21.214C90.2383 22.8249 90.1446 24.4384 90.0419 26.0544C89.9624 27.3703 89.8854 28.6849 89.8109 29.9983Z" fill="#231F20"/>
<path d="M87.955 17.6176C88.4363 16.267 90.2034 15.3089 91.6087 15.6552C93.422 16.1208 93.1987 18.2063 92.4903 19.5029C92.2744 19.8935 91.9832 20.2375 91.6334 20.5148C91.2837 20.7922 90.8824 20.9974 90.4527 21.1187C90.023 21.24 89.5736 21.275 89.1303 21.2215C88.687 21.1681 88.2588 21.0273 87.8703 20.8073" fill="white"/>
<path d="M89.5407 21.4644C90.1848 21.4639 90.8171 21.291 91.3716 20.9634C91.9262 20.6359 92.3828 20.1658 92.6938 19.6021C93.125 18.8325 93.4638 17.5474 93.0519 16.5585C92.9258 16.2753 92.7345 16.0259 92.4937 15.8307C92.2528 15.6354 91.9692 15.4999 91.6659 15.435C90.1721 15.0502 88.2625 16.0737 87.7427 17.5397C87.7326 17.568 87.7282 17.598 87.7297 17.628C87.7312 17.658 87.7386 17.6875 87.7514 17.7146C87.7643 17.7418 87.7824 17.7661 87.8047 17.7863C87.827 17.8065 87.853 17.822 87.8813 17.8321C87.9096 17.8422 87.9397 17.8467 87.9697 17.8452C87.9997 17.8437 88.0292 17.8363 88.0563 17.8234C88.0835 17.8106 88.1079 17.7925 88.128 17.7702C88.1482 17.7479 88.1638 17.7219 88.1739 17.6936C88.4479 17.0526 88.9315 16.5234 89.5456 16.1928C90.1597 15.8622 90.8678 15.7497 91.5542 15.8737C91.789 15.924 92.0087 16.0285 92.1959 16.1788C92.3831 16.3291 92.5325 16.5211 92.6322 16.7394C92.971 17.5089 92.7054 18.6325 92.2934 19.3789C92.0927 19.7442 91.8213 20.066 91.495 20.3256C91.1688 20.5851 90.7941 20.7772 90.3929 20.8907C89.9916 21.0042 89.5718 21.0369 89.1578 20.9867C88.7438 20.9366 88.3439 20.8046 87.9814 20.5986C87.9556 20.583 87.9268 20.5728 87.8969 20.5686C87.867 20.5644 87.8365 20.5663 87.8074 20.5743C87.7782 20.5822 87.751 20.5959 87.7273 20.6147C87.7036 20.6334 87.684 20.6567 87.6696 20.6833C87.6545 20.7093 87.6447 20.738 87.6408 20.7678C87.6369 20.7975 87.6389 20.8278 87.6468 20.8568C87.6547 20.8858 87.6682 20.9129 87.6867 20.9366C87.7051 20.9604 87.7281 20.9802 87.7543 20.995C88.2997 21.3018 88.9148 21.4634 89.5407 21.4644Z" fill="#231F20"/>
<path d="M81.0254 13.708C81.0254 13.708 78.3612 16.7092 78.8078 17.3518C79.2544 17.9944 80.779 17.8212 80.779 17.8212" fill="white"/>
<path d="M80.2891 18.0712C80.5432 18.0712 80.7357 18.0712 80.7896 18.0481C80.8496 18.0404 80.9041 18.0095 80.9416 17.962C80.979 17.9145 80.9963 17.8542 80.9898 17.7941C80.987 17.764 80.978 17.7348 80.9636 17.7083C80.9491 17.6817 80.9294 17.6584 80.9056 17.6397C80.8819 17.621 80.8546 17.6073 80.8253 17.5994C80.7961 17.5916 80.7656 17.5898 80.7357 17.5941C80.3776 17.6364 79.2804 17.6556 78.9801 17.2093C78.7991 16.9476 79.8463 15.3432 81.1784 13.8425C81.2032 13.821 81.2231 13.7944 81.2368 13.7646C81.2505 13.7348 81.2576 13.7023 81.2578 13.6695C81.258 13.6367 81.2511 13.6042 81.2377 13.5742C81.2244 13.5443 81.2047 13.5175 81.1802 13.4957C81.1556 13.4739 81.1267 13.4576 81.0953 13.4479C81.0639 13.4381 81.0309 13.4352 80.9983 13.4393C80.9657 13.4433 80.9343 13.4543 80.9063 13.4714C80.8783 13.4885 80.8542 13.5114 80.8358 13.5386C80.0003 14.4813 78.1061 16.7514 78.6028 17.4671C78.9493 17.9827 79.7539 18.0712 80.2891 18.0712Z" fill="#231F20"/>
<path d="M80.4475 24.77C80.4475 24.77 82.823 25.4433 85.8799 23.835C85.8799 23.835 84.3861 28.2021 80.1357 28.2098L80.4475 24.77Z" fill="#231F20"/>
<path d="M80.1351 28.4367C84.4972 28.4367 86.0795 23.9541 86.0949 23.9079C86.11 23.8647 86.1115 23.818 86.0991 23.7739C86.0867 23.7299 86.061 23.6907 86.0256 23.6617C85.9913 23.6316 85.9487 23.6126 85.9033 23.6071C85.858 23.6016 85.8121 23.6099 85.7715 23.6309C82.834 25.17 80.5355 24.5582 80.5124 24.5505C80.4801 24.541 80.446 24.5389 80.4127 24.5442C80.3794 24.5495 80.3477 24.5622 80.3199 24.5813C80.2918 24.6004 80.2682 24.6255 80.2509 24.6548C80.2336 24.684 80.223 24.7167 80.2198 24.7506L79.908 28.1866C79.9047 28.2183 79.9082 28.2503 79.9181 28.2806C79.9281 28.3108 79.9443 28.3387 79.9657 28.3623C79.9872 28.3859 80.0133 28.4047 80.0425 28.4175C80.0717 28.4303 80.1032 28.4369 80.1351 28.4367ZM85.4212 24.3004C84.8745 25.4124 83.3537 27.8288 80.3854 27.9634L80.651 25.0353C82.2788 25.2734 83.9407 25.0174 85.4212 24.3004Z" fill="#231F20"/>
<path d="M84.4091 15.2926C84.1647 15.2926 83.9666 14.8412 83.9666 14.2845C83.9666 13.7277 84.1647 13.2764 84.4091 13.2764C84.6535 13.2764 84.8516 13.7277 84.8516 14.2845C84.8516 14.8412 84.6535 15.2926 84.4091 15.2926Z" fill="#231F20"/>
<path d="M78.5347 14.7069C78.2907 14.6932 78.1183 14.2315 78.1496 13.6756C78.1809 13.1197 78.4041 12.6802 78.6481 12.6939C78.892 12.7076 79.0645 13.1694 79.0332 13.7253C79.0019 14.2811 78.7787 14.7206 78.5347 14.7069Z" fill="#231F20"/>
<path d="M81.8759 22.6387C81.9933 22.6379 82.1105 22.6276 82.2262 22.608C82.3941 22.5796 82.5539 22.5154 82.6947 22.4198C82.8356 22.3242 82.9542 22.1994 83.0424 22.0539C83.7123 20.9958 83.1387 18.8064 83.1156 18.7102C83.1002 18.6538 83.0635 18.6054 83.0133 18.5753C82.9631 18.5452 82.9032 18.5356 82.8461 18.5486L79.3811 19.2681C79.3246 19.2802 79.2747 19.313 79.2413 19.36C79.2078 19.407 79.1931 19.4648 79.2001 19.5221C79.3499 20.572 79.8801 21.5304 80.6901 22.2155C81.0287 22.4818 81.4451 22.6305 81.8759 22.6387ZM82.7229 19.0411C82.8807 19.7376 83.0771 21.1458 82.6574 21.8076C82.6032 21.9001 82.5292 21.9795 82.4406 22.04C82.3521 22.1005 82.2513 22.1407 82.1454 22.1578C81.9392 22.1941 81.7277 22.1865 81.5247 22.1354C81.3216 22.0844 81.1317 21.991 80.9673 21.8615C80.307 21.2974 79.8588 20.5251 79.6968 19.6722L82.7229 19.0411Z" fill="#231F20"/>
<path d="M57.8329 45.9822C56.1697 45.1511 42.9411 30.6683 42.9411 30.6683L35.2411 37.1132C35.3797 38.1713 47.4687 63.4354 54.545 62.1464C61.6213 60.8575 76.8057 51.8038 76.8057 51.8038L73.3407 30.0488C73.3407 30.0488 59.4999 46.8133 57.8329 45.9822Z" fill="#68E1FD"/>
<path d="M62.7569 74.0435C62.8103 74.0434 62.862 74.0244 62.9029 73.99C62.9437 73.9555 62.9711 73.9077 62.9802 73.855L68.9977 39.0178C69.0028 38.9883 69.0019 38.958 68.9953 38.9287C68.9887 38.8995 68.9763 38.8719 68.959 38.8474C68.9416 38.8229 68.9196 38.8021 68.8942 38.7861C68.8689 38.7701 68.8406 38.7593 68.811 38.7542C68.7814 38.7492 68.7511 38.75 68.7219 38.7566C68.6926 38.7633 68.6649 38.7756 68.6404 38.793C68.616 38.8103 68.5951 38.8323 68.5791 38.8576C68.5632 38.883 68.5523 38.9113 68.5473 38.9409L62.5451 73.7781C62.5396 73.8074 62.54 73.8376 62.5464 73.8668C62.5528 73.8959 62.5649 73.9235 62.5821 73.9479C62.5994 73.9723 62.6213 73.993 62.6467 74.0088C62.6721 74.0246 62.7004 74.0351 62.7299 74.0397L62.7569 74.0435Z" fill="#231F20"/>
<path d="M82.8919 63.9313C82.8649 63.712 81.1093 63.4696 80.8591 63.3965C79.9697 63.1348 79.038 62.9655 78.1294 62.7808C76.3623 62.4268 74.4719 62.0382 72.6624 62.1998C69.4862 62.4884 73.3862 64.5084 73.3862 64.5084C73.3862 64.5084 66.0173 62.6308 66.4562 64.5084C66.8951 66.3861 70.3601 68.1215 72.5277 68.6986C74.6952 69.2758 83.5117 68.6986 83.5117 68.6986L82.8919 63.9313Z" fill="white"/>
<path d="M76.3582 69.1755C79.5229 69.1755 83.2882 68.9331 83.5192 68.9177C83.5815 68.9126 83.6394 68.8837 83.6809 68.8369C83.7002 68.8128 83.7146 68.7851 83.7232 68.7553C83.7318 68.7256 83.7344 68.6945 83.7309 68.6638C83.7309 68.6638 83.1226 63.9311 83.1188 63.8965C83.0841 63.631 82.7684 63.5117 81.3555 63.2616C81.1476 63.2231 80.9705 63.1923 80.9204 63.1731C80.1504 62.9499 79.3458 62.7883 78.5681 62.6344L78.0753 62.5344C76.2927 62.1765 74.4524 61.8071 72.6429 61.9688C72.0731 62.0226 71.3031 62.1534 71.1992 62.6806C71.1145 63.1115 71.5842 63.5848 72.0924 63.9734C70.2598 63.5886 67.1952 63.0846 66.4175 63.8464C66.3241 63.9366 66.2571 64.0506 66.2239 64.1761C66.1906 64.3015 66.1924 64.4337 66.2288 64.5583C66.687 66.5398 70.1481 68.2982 72.462 68.9139C73.2089 69.1101 74.7027 69.1755 76.3582 69.1755ZM83.2497 68.4791C81.8175 68.5676 74.4871 68.9793 72.5775 68.4791C70.3522 67.8865 67.0643 66.1705 66.6716 64.4582C66.6529 64.4096 66.6492 64.3566 66.6608 64.3059C66.6725 64.2552 66.699 64.2091 66.737 64.1735C67.3992 63.5232 71.1337 64.1735 73.3321 64.7314C73.3861 64.7442 73.443 64.7368 73.4919 64.7106C73.5409 64.6844 73.5785 64.6411 73.5977 64.589C73.618 64.5372 73.6182 64.4797 73.5983 64.4277C73.5784 64.3758 73.5397 64.3331 73.4899 64.3082C72.5505 63.8195 71.5649 63.0884 71.6458 62.7691C71.6689 62.6498 71.9538 62.4882 72.6853 62.4228C74.4293 62.265 76.235 62.6306 77.9867 62.9807L78.4795 63.0807C79.2495 63.2308 80.0426 63.3886 80.7895 63.6117C80.8588 63.631 81.0436 63.6656 81.2708 63.7079C81.7454 63.7801 82.2139 63.8881 82.6722 64.0311C82.7453 64.5544 83.1342 67.598 83.2497 68.4791Z" fill="#231F20"/>
<path d="M101.984 31.8262C102.134 32.2109 115.917 64.9742 108.914 69.2721C101.911 73.57 80.1202 71.9039 80.1202 71.9039L81.0249 62.1923L98.5232 59.8452L101.984 31.8262Z" fill="#68E1FD"/>
<path d="M81.7944 62.4193H81.8329L102.361 59.168C102.421 59.1583 102.474 59.1253 102.51 59.0762C102.545 59.0271 102.559 58.966 102.55 58.9063C102.54 58.8466 102.507 58.7932 102.458 58.7579C102.409 58.7225 102.348 58.7081 102.288 58.7178L81.7598 61.9691C81.7007 61.9786 81.6478 62.011 81.6124 62.0593C81.5771 62.1075 81.5623 62.1678 81.5711 62.2269C81.5786 62.2806 81.6054 62.3298 81.6465 62.3652C81.6876 62.4006 81.7402 62.4198 81.7944 62.4193Z" fill="#231F20"/>
<path d="M99.5661 59.1725C99.6264 59.1725 99.6842 59.1486 99.7268 59.106C99.7694 59.0635 99.7933 59.0057 99.7933 58.9455C99.851 53.5202 98.3534 39.857 98.338 39.7069C98.3294 39.6474 98.2982 39.5934 98.2509 39.5562C98.2036 39.519 98.1438 39.5013 98.0839 39.5069C98.0242 39.5136 97.9697 39.5437 97.9321 39.5906C97.8946 39.6375 97.8772 39.6973 97.8837 39.757C97.8837 39.8955 99.3929 53.5318 99.339 58.9301C99.338 58.9601 99.343 58.9899 99.3537 59.0179C99.3645 59.0459 99.3808 59.0714 99.4016 59.0929C99.4225 59.1145 99.4474 59.1316 99.475 59.1433C99.5026 59.155 99.5323 59.161 99.5623 59.161L99.5661 59.1725Z" fill="#231F20"/>
<path d="M57.9097 63.7815H83.8818L79.3581 47.6865H53.386L57.9097 63.7815Z" fill="white"/>
<path d="M57.925 64.008H83.8817C83.9166 64.0076 83.9509 63.9994 83.9822 63.9841C84.0135 63.9688 84.041 63.9467 84.0627 63.9195C84.084 63.8913 84.0985 63.8586 84.1052 63.8239C84.1119 63.7892 84.1105 63.7535 84.1012 63.7194L79.5736 47.6244C79.5603 47.5773 79.5321 47.5357 79.4933 47.5059C79.4544 47.4761 79.407 47.4596 79.358 47.459H53.3859C53.3506 47.4593 53.3159 47.4678 53.2845 47.4838C53.2531 47.4998 53.2259 47.523 53.2049 47.5513C53.1837 47.5788 53.1692 47.6108 53.1625 47.6449C53.1558 47.679 53.1571 47.7141 53.1664 47.7476L57.694 63.8425C57.708 63.8923 57.7385 63.9358 57.7805 63.9658C57.8225 63.9959 57.8735 64.0108 57.925 64.008ZM83.5814 63.5463H58.0829L53.69 47.913H79.1847L83.5814 63.5463Z" fill="#231F20"/>
<path d="M57.6588 63.7812H90.8535V65.1049H57.6588V63.7812Z" fill="white"/>
<path d="M57.6592 65.3323H90.8539C90.8838 65.3329 90.9136 65.3274 90.9414 65.3161C90.9692 65.3049 90.9945 65.2882 91.0157 65.267C91.0368 65.2458 91.0536 65.2206 91.0648 65.1928C91.076 65.165 91.0815 65.1353 91.081 65.1053V63.7817C91.0815 63.7518 91.076 63.722 91.0648 63.6942C91.0536 63.6665 91.0368 63.6412 91.0157 63.62C90.9945 63.5989 90.9692 63.5822 90.9414 63.5709C90.9136 63.5597 90.8838 63.5542 90.8539 63.5547H57.6592C57.5989 63.5547 57.5411 63.5786 57.4985 63.6212C57.4559 63.6638 57.432 63.7215 57.432 63.7817V65.1053C57.432 65.1655 57.4559 65.2233 57.4985 65.2659C57.5411 65.3084 57.5989 65.3323 57.6592 65.3323ZM90.6267 64.8783H57.9017V64.0087H90.6267V64.8783Z" fill="#231F20"/>
<path d="M83.4962 63.7812H90.8535V65.1049H83.4962V63.7812Z" fill="white"/>
<path d="M83.4965 65.3323H90.8539C90.8838 65.3329 90.9136 65.3274 90.9414 65.3161C90.9692 65.3049 90.9945 65.2882 91.0157 65.267C91.0368 65.2458 91.0536 65.2206 91.0648 65.1928C91.076 65.165 91.0815 65.1353 91.081 65.1053V63.7817C91.0815 63.7518 91.076 63.722 91.0648 63.6942C91.0536 63.6665 91.0368 63.6412 91.0157 63.62C90.9945 63.5989 90.9692 63.5822 90.9414 63.5709C90.9136 63.5597 90.8838 63.5542 90.8539 63.5547H83.4965C83.4665 63.5542 83.4368 63.5597 83.409 63.5709C83.3812 63.5822 83.3559 63.5989 83.3347 63.62C83.3135 63.6412 83.2968 63.6665 83.2856 63.6942C83.2744 63.722 83.2688 63.7518 83.2694 63.7817V65.1053C83.2688 65.1353 83.2744 65.165 83.2856 65.1928C83.2968 65.2206 83.3135 65.2458 83.3347 65.267C83.3559 65.2882 83.3812 65.3049 83.409 65.3161C83.4368 65.3274 83.4665 65.3329 83.4965 65.3323ZM90.6267 64.8783H83.7198V64.0087H90.6267V64.8783Z" fill="#231F20"/>
<path d="M76.3359 65.1512C74.7228 64.6395 73.3175 63.6468 71.8622 62.781C70.7072 62.0846 69.4136 61.4305 68.043 61.2419C67.53 61.215 67.016 61.215 66.503 61.2419C66.0526 61.2419 65.4212 61.0611 65.1132 61.5113C64.5164 62.377 64.9707 64.5317 68.3202 66.7326" fill="white"/>
<path d="M68.3195 66.9719C68.3679 66.9712 68.4149 66.955 68.4535 66.9258C68.4921 66.8965 68.5203 66.8558 68.534 66.8094C68.5478 66.763 68.5464 66.7134 68.5299 66.6679C68.5135 66.6223 68.483 66.5833 68.4427 66.5563C66.5947 65.3404 65.3974 63.9476 65.1587 62.7355C65.1091 62.5549 65.0962 62.3662 65.1206 62.1805C65.1451 61.9949 65.2065 61.8159 65.3011 61.6543C65.4628 61.4158 65.7824 61.4235 66.2174 61.4619H66.4908C66.7101 61.4737 66.9298 61.4737 67.1491 61.4619C67.4359 61.4331 67.7248 61.4331 68.0115 61.4619C69.3427 61.7131 70.6107 62.2257 71.7422 62.9702C72.0425 63.1472 72.3428 63.3319 72.6431 63.5166C73.7706 64.2779 74.9873 64.8982 76.2659 65.3635C76.3236 65.3805 76.3857 65.3743 76.4389 65.3463C76.4921 65.3183 76.5322 65.2706 76.5508 65.2135C76.569 65.1563 76.5638 65.0943 76.5364 65.0409C76.509 64.9876 76.4616 64.9472 76.4045 64.9287C75.1614 64.4739 73.9784 63.8692 72.8818 63.128L71.977 62.5778C70.8605 61.916 69.5246 61.2118 68.077 61.0118C67.7596 60.9792 67.4396 60.9792 67.1222 61.0118C66.9104 61.0118 66.7141 61.0348 66.51 61.0118H66.2598C65.8363 60.9771 65.2511 60.9233 64.9238 61.3965C64.7957 61.6086 64.711 61.844 64.6746 62.089C64.6383 62.3341 64.651 62.5839 64.7121 62.824C64.8661 63.5936 65.5206 65.1788 68.1963 66.9334C68.2324 66.9587 68.2755 66.9722 68.3195 66.9719Z" fill="#231F20"/>
<path d="M16.9219 56.5675H53.1119C53.1479 56.5682 53.1835 56.5602 53.2158 56.5443C53.2481 56.5283 53.276 56.5047 53.2971 56.4756C53.3183 56.4465 53.3321 56.4127 53.3374 56.3771C53.3427 56.3415 53.3393 56.3052 53.3275 56.2712L37.5194 7.24364C37.5054 7.19723 37.477 7.15651 37.4382 7.12743C37.3994 7.09835 37.3523 7.08244 37.3038 7.08203H1.11382C1.07751 7.08185 1.04171 7.09051 1.0095 7.10727C0.977303 7.12403 0.949669 7.14839 0.929008 7.17823C0.908291 7.20744 0.894428 7.24094 0.888428 7.27624C0.882431 7.31155 0.884453 7.34774 0.89436 7.38216L16.7025 56.4097C16.7173 56.456 16.7466 56.4964 16.7861 56.5248C16.8257 56.5532 16.8732 56.5681 16.9219 56.5675ZM52.8116 56.1134H17.0875L1.40642 7.53991H37.1344L52.8116 56.1134Z" fill="#231F20"/>
<path d="M10.1851 71.7124H32.6614C32.6973 71.7124 32.7326 71.704 32.7647 71.688C32.7968 71.672 32.8247 71.6487 32.8462 71.62C32.8671 71.5909 32.8808 71.5572 32.8861 71.5218C32.8915 71.4863 32.8884 71.4501 32.877 71.4161L26.8787 52.8355C26.8646 52.7895 26.836 52.7493 26.7971 52.7208C26.7583 52.6924 26.7113 52.6773 26.6631 52.6777H4.17529C4.13913 52.6777 4.10347 52.6862 4.07129 52.7027C4.03909 52.7191 4.0113 52.743 3.99022 52.7724C3.96913 52.8017 3.95535 52.8357 3.95004 52.8714C3.94473 52.9072 3.94803 52.9437 3.95968 52.9779L9.95798 71.5546C9.9726 71.6026 10.003 71.6443 10.0442 71.6729C10.0854 71.7015 10.135 71.7154 10.1851 71.7124ZM32.3457 71.243H10.3391L4.49098 53.1202H26.4976L32.3457 71.243Z" fill="#231F20"/>
<path d="M39.0138 79.4152H57.6594C57.6952 79.4152 57.7306 79.4069 57.7627 79.3908C57.7948 79.3748 57.8227 79.3515 57.8442 79.3229C57.8666 79.2945 57.8815 79.261 57.8876 79.2253C57.8936 79.1897 57.8906 79.1531 57.8788 79.1189L52.9046 63.7281C52.89 63.6824 52.8612 63.6425 52.8225 63.6142C52.7837 63.5858 52.737 63.5705 52.689 63.5703H34.055C34.0191 63.5703 33.9838 63.5787 33.9517 63.5947C33.9196 63.6107 33.8917 63.634 33.8702 63.6627C33.8493 63.6918 33.8357 63.7255 33.8303 63.7609C33.825 63.7964 33.8281 63.8326 33.8394 63.8666L38.8136 79.2574C38.8264 79.3013 38.8525 79.3401 38.8884 79.3684C38.9243 79.3966 38.9682 79.413 39.0138 79.4152ZM57.3475 78.9612H39.1794L34.3553 64.009H52.535L57.3475 78.9612Z" fill="#231F20"/>
<path d="M35.0215 66.9716H53.6439C53.7042 66.9716 53.762 66.9477 53.8046 66.9051C53.8472 66.8625 53.8711 66.8048 53.8711 66.7446C53.8711 66.6844 53.8472 66.6266 53.8046 66.5841C53.762 66.5415 53.7042 66.5176 53.6439 66.5176H35.0215C34.9612 66.5176 34.9035 66.5415 34.8609 66.5841C34.8183 66.6266 34.7943 66.6844 34.7943 66.7446C34.7943 66.8048 34.8183 66.8625 34.8609 66.9051C34.9035 66.9477 34.9612 66.9716 35.0215 66.9716Z" fill="#231F20"/>
<path d="M22.8893 14.5344H35.0206C35.0485 14.5349 35.0761 14.5285 35.101 14.5157C35.1258 14.503 35.1472 14.4843 35.163 14.4613C35.1805 14.4394 35.1921 14.4135 35.1969 14.3859C35.2016 14.3583 35.1992 14.33 35.19 14.3035L33.7539 9.85558C33.7425 9.81972 33.7199 9.78844 33.6894 9.7663C33.6589 9.74416 33.6222 9.7323 33.5845 9.73245H21.4455C21.4176 9.73195 21.39 9.73836 21.3651 9.75112C21.3402 9.76387 21.3189 9.78258 21.3031 9.80556C21.2864 9.82861 21.2753 9.85518 21.2707 9.88321C21.266 9.91124 21.2679 9.93997 21.2761 9.96716L22.7122 14.4113C22.724 14.4484 22.7478 14.4806 22.7798 14.5029C22.8118 14.5252 22.8503 14.5362 22.8893 14.5344ZM34.7857 14.1804H23.0163L21.6958 10.0864H33.4575L34.7857 14.1804Z" fill="#292A2B"/>
<path d="M6.41547 10.0864H18.3004C18.3474 10.0864 18.3925 10.0678 18.4257 10.0346C18.4589 10.0014 18.4775 9.95636 18.4775 9.90942C18.4766 9.86278 18.4576 9.81833 18.4246 9.78535C18.3916 9.75237 18.3471 9.7334 18.3004 9.73242H6.41547C6.36851 9.73242 6.32346 9.75107 6.29025 9.78426C6.25704 9.81746 6.23838 9.86247 6.23838 9.90942C6.23785 9.9328 6.24207 9.95606 6.25079 9.97777C6.2595 9.99948 6.27253 10.0192 6.28908 10.0357C6.30563 10.0523 6.32536 10.0653 6.34708 10.074C6.36881 10.0827 6.39207 10.0869 6.41547 10.0864Z" fill="#292A2B"/>
<path d="M7.32464 12.9028H19.2096C19.233 12.9033 19.2562 12.8991 19.278 12.8904C19.2997 12.8817 19.3194 12.8687 19.336 12.8521C19.3525 12.8356 19.3656 12.8159 19.3743 12.7942C19.383 12.7725 19.3872 12.7492 19.3867 12.7258C19.3867 12.6789 19.368 12.6339 19.3348 12.6007C19.3016 12.5675 19.2565 12.5488 19.2096 12.5488H7.32464C7.27767 12.5488 7.23261 12.5675 7.1994 12.6007C7.16619 12.6339 7.14753 12.6789 7.14753 12.7258C7.147 12.7492 7.15123 12.7725 7.15995 12.7942C7.16866 12.8159 7.18169 12.8356 7.19824 12.8521C7.21479 12.8687 7.23452 12.8817 7.25624 12.8904C7.27797 12.8991 7.30123 12.9033 7.32464 12.9028Z" fill="#292A2B"/>
<path d="M8.23298 15.723H20.1179C20.1436 15.7268 20.1698 15.725 20.1948 15.7178C20.2198 15.7105 20.2429 15.698 20.2625 15.681C20.2822 15.664 20.298 15.643 20.3088 15.6194C20.3196 15.5958 20.3252 15.5701 20.3252 15.5441C20.3252 15.5182 20.3196 15.4925 20.3088 15.4689C20.298 15.4453 20.2822 15.4242 20.2625 15.4073C20.2429 15.3903 20.2198 15.3777 20.1948 15.3705C20.1698 15.3632 20.1436 15.3614 20.1179 15.3652H8.23298C8.19001 15.3715 8.15075 15.3931 8.12236 15.4259C8.09398 15.4588 8.07836 15.5007 8.07836 15.5441C8.07836 15.5875 8.09398 15.6295 8.12236 15.6623C8.15075 15.6952 8.19001 15.7167 8.23298 15.723Z" fill="#292A2B"/>
<path d="M9.14212 18.5278H21.0309C21.0739 18.5214 21.1131 18.4999 21.1415 18.467C21.1699 18.4342 21.1855 18.3922 21.1855 18.3488C21.1855 18.3054 21.1699 18.2635 21.1415 18.2306C21.1131 18.1978 21.0739 18.1762 21.0309 18.1699H9.14212C9.09915 18.1762 9.05989 18.1978 9.0315 18.2306C9.00311 18.2635 8.98749 18.3054 8.98749 18.3488C8.98749 18.3922 9.00311 18.4342 9.0315 18.467C9.05989 18.4999 9.09915 18.5214 9.14212 18.5278Z" fill="#292A2B"/>
<path d="M22.1207 30.8415H24.1612C24.1887 30.8418 24.2159 30.8357 24.2406 30.8237C24.2654 30.8117 24.2869 30.7941 24.3037 30.7723C24.3212 30.7496 24.3328 30.7231 24.3375 30.6949C24.3422 30.6667 24.3398 30.6377 24.3306 30.6107L23.0717 26.7091C23.0602 26.6732 23.0376 26.642 23.0071 26.6198C22.9767 26.5977 22.9399 26.5858 22.9023 26.586H20.8618C20.8339 26.5855 20.8062 26.5919 20.7814 26.6046C20.7565 26.6174 20.7352 26.6361 20.7193 26.6591C20.7028 26.6814 20.6917 26.7073 20.687 26.7347C20.6823 26.7621 20.6842 26.7903 20.6924 26.8168L21.9513 30.7222C21.9629 30.7577 21.9857 30.7885 22.0162 30.81C22.0467 30.8315 22.0834 30.8425 22.1207 30.8415ZM23.9187 30.4875H22.2516L21.0966 26.94H22.7675L23.9187 30.4875Z" fill="#292A2B"/>
<path d="M17.4001 30.8409H19.4252C19.4525 30.8404 19.4794 30.8339 19.504 30.8219C19.5286 30.81 19.5503 30.7928 19.5676 30.7717C19.5843 30.7486 19.5954 30.722 19.6 30.694C19.6047 30.666 19.6028 30.6372 19.5946 30.61L17.2615 23.3956C17.2508 23.36 17.2289 23.3289 17.1991 23.3067C17.1692 23.2845 17.1331 23.2725 17.0959 23.2725H15.0516C15.0238 23.2729 14.9965 23.2797 14.9718 23.2924C14.9471 23.3051 14.9257 23.3233 14.9091 23.3456C14.8932 23.3682 14.8828 23.3943 14.8788 23.4217C14.8748 23.4491 14.8773 23.4771 14.886 23.5033L17.2307 30.7255C17.2429 30.7602 17.266 30.7902 17.2965 30.8109C17.3269 30.8317 17.3632 30.8422 17.4001 30.8409ZM19.1942 30.4869H17.5271L15.3134 23.6264H16.9804L19.1942 30.4869Z" fill="#292A2B"/>
<path d="M12.665 30.8414H14.7055C14.733 30.8417 14.7601 30.8356 14.7849 30.8235C14.8096 30.8115 14.8312 30.7939 14.8479 30.7721C14.8645 30.7491 14.8756 30.7225 14.8803 30.6945C14.885 30.6664 14.8831 30.6377 14.8749 30.6105L11.7949 21.0489C11.7834 21.0131 11.7608 20.9818 11.7303 20.9597C11.6999 20.9375 11.6631 20.9257 11.6255 20.9258H9.58496C9.55702 20.9253 9.5294 20.9317 9.50454 20.9445C9.47969 20.9572 9.45838 20.9759 9.44251 20.9989C9.42593 21.0212 9.41486 21.0472 9.41017 21.0746C9.40549 21.102 9.40733 21.1301 9.41555 21.1567L12.4956 30.7221C12.5072 30.7576 12.5299 30.7883 12.5605 30.8098C12.591 30.8313 12.6276 30.8424 12.665 30.8414ZM14.4629 30.4874H12.792L9.80056 21.2836H11.4715L14.4629 30.4874Z" fill="#292A2B"/>
<path d="M10.8858 30.8403H25.9509C25.9745 30.8408 25.9979 30.8366 26.0198 30.828C26.0418 30.8193 26.0617 30.8063 26.0786 30.7899C26.0955 30.7734 26.1089 30.7537 26.118 30.732C26.1271 30.7102 26.1318 30.6869 26.1318 30.6633C26.1308 30.616 26.1113 30.571 26.0775 30.5379C26.0437 30.5048 25.9982 30.4863 25.9509 30.4863H10.8858C10.8389 30.4863 10.7938 30.505 10.7606 30.5382C10.7274 30.5714 10.7087 30.6164 10.7087 30.6633C10.7082 30.6867 10.7124 30.71 10.7211 30.7317C10.7299 30.7534 10.7429 30.7731 10.7594 30.7896C10.776 30.8062 10.7957 30.8192 10.8174 30.8279C10.8392 30.8366 10.8624 30.8408 10.8858 30.8403Z" fill="#292A2B"/>
<path d="M41.0158 51.9074H47.0873C47.1152 51.9076 47.1427 51.901 47.1675 51.8883C47.1923 51.8756 47.2136 51.857 47.2297 51.8343C47.2464 51.8112 47.2575 51.7847 47.2621 51.7566C47.2668 51.7286 47.2649 51.6999 47.2567 51.6727L43.0409 38.6251C43.0302 38.5896 43.0083 38.5584 42.9785 38.5362C42.9487 38.5141 42.9126 38.502 42.8754 38.502H36.8039C36.776 38.5015 36.7484 38.5079 36.7235 38.5207C36.6987 38.5334 36.6774 38.5521 36.6615 38.5751C36.6449 38.5974 36.6338 38.6233 36.6292 38.6507C36.6245 38.6782 36.6263 38.7063 36.6345 38.7328L40.8464 51.7843C40.8579 51.8201 40.8805 51.8514 40.911 51.8736C40.9414 51.8957 40.9782 51.9076 41.0158 51.9074ZM46.8409 51.5534H41.1467L37.0465 38.856H42.7445L46.8409 51.5534Z" fill="#292A2B"/>
<path d="M26.2585 51.2845C28.2489 51.2845 29.8967 50.515 30.8977 49.1491C31.9719 47.6754 32.1875 45.6861 31.5022 43.5699C30.147 39.3759 25.6309 35.9668 21.4306 35.9668C21.4031 35.9665 21.3759 35.9726 21.3512 35.9846C21.3264 35.9966 21.3048 36.0143 21.2881 36.0361C21.2715 36.0591 21.2604 36.0857 21.2557 36.1137C21.2511 36.1417 21.2529 36.1705 21.2612 36.1977L23.602 43.4468H16.3447C16.3168 43.4463 16.2891 43.4527 16.2643 43.4654C16.2394 43.4782 16.2181 43.4969 16.2023 43.5199C16.1848 43.5417 16.1731 43.5677 16.1684 43.5953C16.1637 43.6229 16.1661 43.6512 16.1753 43.6776C17.5459 47.8716 22.062 51.2845 26.2585 51.2845ZM31.1634 43.6776C31.814 45.69 31.6177 47.56 30.6128 48.9413C29.6773 50.2226 28.1334 50.9267 26.2585 50.9267C22.2814 50.9267 18.0041 47.7523 16.6065 43.8007H23.8445C23.8725 43.8012 23.9001 43.7948 23.9249 43.7821C23.9498 43.7693 23.9711 43.7506 23.987 43.7276C24.0044 43.7058 24.0161 43.6798 24.0208 43.6522C24.0255 43.6246 24.0231 43.5963 24.0139 43.5699L21.6731 36.3246C25.6617 36.4516 29.8775 39.7029 31.1634 43.6776Z" fill="#292A2B"/>
<path d="M14.8047 42.6953H22.2814C22.3092 42.6948 22.3365 42.688 22.3612 42.6753C22.3859 42.6627 22.4073 42.6445 22.4239 42.6222C22.4398 42.5995 22.4502 42.5734 22.4542 42.546C22.4582 42.5186 22.4557 42.4907 22.447 42.4644L20.033 34.9845C20.0215 34.9486 19.9989 34.9173 19.9685 34.8952C19.938 34.873 19.9013 34.8612 19.8636 34.8613C17.877 34.8613 16.2292 35.6309 15.2436 36.9968C14.1695 38.4705 13.9539 40.4598 14.6392 42.576C14.6506 42.6108 14.6727 42.6411 14.7025 42.6626C14.7322 42.684 14.768 42.6955 14.8047 42.6953ZM22.0466 42.3413H14.9356C14.3311 40.3751 14.5506 38.5551 15.5246 37.2046C16.4371 35.9502 17.9348 35.2499 19.7597 35.2153L22.0466 42.3413Z" fill="#292A2B"/>
<path d="M34.3245 51.5455H38.5133C38.5603 51.5455 38.6053 51.5268 38.6385 51.4936C38.6717 51.4604 38.6904 51.4154 38.6904 51.3685C38.6909 51.3451 38.6867 51.3218 38.678 51.3001C38.6693 51.2784 38.6562 51.2587 38.6397 51.2421C38.6231 51.2256 38.6034 51.2126 38.5817 51.2039C38.56 51.1951 38.5367 51.1909 38.5133 51.1915H34.3245C34.3011 51.1909 34.2778 51.1951 34.2561 51.2039C34.2344 51.2126 34.2146 51.2256 34.1981 51.2421C34.1815 51.2587 34.1685 51.2784 34.1598 51.3001C34.1511 51.3218 34.1469 51.3451 34.1474 51.3685C34.1474 51.4154 34.1661 51.4604 34.1993 51.4936C34.2325 51.5268 34.2775 51.5455 34.3245 51.5455Z" fill="#292A2B"/>
<path d="M35.2523 49.0522H37.7086C37.7556 49.0522 37.8007 49.0336 37.8339 49.0004C37.8671 48.9672 37.8857 48.9222 37.8857 48.8752C37.8857 48.8283 37.8671 48.7833 37.8339 48.7501C37.8007 48.7169 37.7556 48.6982 37.7086 48.6982H35.2523C35.2054 48.6982 35.1603 48.7169 35.1271 48.7501C35.0939 48.7833 35.0752 48.8283 35.0752 48.8752C35.0752 48.9222 35.0939 48.9672 35.1271 49.0004C35.1603 49.0336 35.2054 49.0522 35.2523 49.0522Z" fill="#292A2B"/>
<path d="M34.9328 32.4069C36.7577 32.4069 38.2746 31.7066 39.1947 30.4407C40.1842 29.0863 40.3805 27.2664 39.7491 25.3117C38.5056 21.464 34.3591 18.3281 30.5091 18.3281C28.6804 18.3281 27.1673 19.0246 26.2433 20.2905C25.2577 21.6449 25.0614 23.4687 25.6889 25.4195C26.9248 29.271 31.0751 32.4069 34.9328 32.4069ZM30.5014 18.6821C34.2167 18.6821 38.2014 21.7064 39.4142 25.4195C40.0071 27.2625 39.83 28.9709 38.9098 30.233C38.0551 31.3873 36.6422 32.0491 34.9328 32.0491C31.2175 32.0491 27.2328 29.0286 26.02 25.3117C25.4233 23.4687 25.6042 21.7603 26.5244 20.4982C27.3752 19.3285 28.7882 18.6821 30.5014 18.6821Z" fill="#292A2B"/>
<path d="M8.36024 58.7407H25.9509C25.9745 58.7412 25.9979 58.737 26.0198 58.7283C26.0418 58.7197 26.0617 58.7067 26.0786 58.6902C26.0955 58.6738 26.1089 58.6541 26.118 58.6323C26.1271 58.6106 26.1318 58.5873 26.1318 58.5637C26.1308 58.5164 26.1113 58.4714 26.0775 58.4383C26.0437 58.4052 25.9982 58.3867 25.9509 58.3867H8.36024C8.31358 58.3877 8.2691 58.4067 8.2361 58.4396C8.2031 58.4726 8.18412 58.5171 8.18314 58.5637C8.18314 58.6107 8.2018 58.6557 8.23501 58.6889C8.26822 58.7221 8.31327 58.7407 8.36024 58.7407Z" fill="#292A2B"/>
<path d="M9.14101 61.3872H12.7331C12.78 61.3872 12.8251 61.3685 12.8583 61.3353C12.8915 61.3022 12.9102 61.2571 12.9102 61.2102C12.9092 61.1636 12.8902 61.1191 12.8572 61.0861C12.8242 61.0531 12.7797 61.0342 12.7331 61.0332H9.14101C9.09435 61.0342 9.04987 61.0531 9.01687 61.0861C8.98387 61.1191 8.96489 61.1636 8.96391 61.2102C8.96391 61.2571 8.98257 61.3022 9.01578 61.3353C9.04899 61.3685 9.09404 61.3872 9.14101 61.3872Z" fill="#292A2B"/>
<path d="M15.2633 61.3872H19.6715C19.7185 61.3872 19.7635 61.3685 19.7968 61.3353C19.83 61.3022 19.8486 61.2571 19.8486 61.2102C19.8477 61.1636 19.8287 61.1191 19.7957 61.0861C19.7627 61.0531 19.7182 61.0342 19.6715 61.0332H15.2633C15.2163 61.0332 15.1713 61.0519 15.1381 61.085C15.1048 61.1182 15.0862 61.1633 15.0862 61.2102C15.0857 61.2336 15.0899 61.2568 15.0986 61.2785C15.1073 61.3003 15.1203 61.32 15.1369 61.3365C15.1534 61.3531 15.1732 61.3661 15.1949 61.3748C15.2166 61.3835 15.2399 61.3877 15.2633 61.3872Z" fill="#292A2B"/>
<path d="M22.5973 61.3872H26.7399C26.7869 61.3872 26.8319 61.3685 26.8651 61.3353C26.8983 61.3022 26.917 61.2571 26.917 61.2102C26.916 61.1636 26.897 61.1191 26.864 61.0861C26.831 61.0531 26.7866 61.0342 26.7399 61.0332H22.6011C22.5545 61.0342 22.51 61.0531 22.477 61.0861C22.444 61.1191 22.425 61.1636 22.424 61.2102C22.424 61.2565 22.4421 61.3009 22.4745 61.334C22.5069 61.3671 22.551 61.3862 22.5973 61.3872Z" fill="#292A2B"/>
<path d="M10.0079 64.2664H23.275C23.2984 64.2669 23.3217 64.2627 23.3434 64.254C23.3651 64.2453 23.3849 64.2323 23.4014 64.2157C23.418 64.1992 23.431 64.1795 23.4397 64.1577C23.4484 64.136 23.4526 64.1128 23.4521 64.0894C23.4473 64.0459 23.4266 64.0056 23.3939 63.9765C23.3612 63.9474 23.3188 63.9314 23.275 63.9316H10.0002C9.95356 63.9326 9.90909 63.9516 9.87609 63.9846C9.84308 64.0176 9.8241 64.062 9.82312 64.1086C9.82798 64.1535 9.84981 64.1949 9.88417 64.2242C9.91852 64.2535 9.9628 64.2686 10.0079 64.2664Z" fill="#292A2B"/>
<path d="M25.7387 64.2661H27.5983C27.6217 64.2666 27.6449 64.2624 27.6666 64.2537C27.6884 64.245 27.7081 64.232 27.7246 64.2154C27.7412 64.1989 27.7542 64.1792 27.7629 64.1574C27.7717 64.1357 27.7759 64.1125 27.7753 64.0891C27.7753 64.0422 27.7567 63.9971 27.7235 63.964C27.6903 63.9308 27.6452 63.9121 27.5983 63.9121H25.7387C25.692 63.9131 25.6476 63.9321 25.6146 63.965C25.5816 63.998 25.5626 64.0425 25.5616 64.0891C25.5616 64.136 25.5803 64.1811 25.6135 64.2143C25.6467 64.2474 25.6917 64.2661 25.7387 64.2661Z" fill="#292A2B"/>
<path d="M11.1507 67.1479H15.8747C15.9176 67.1416 15.9569 67.12 15.9853 67.0872C16.0137 67.0543 16.0293 67.0124 16.0293 66.969C16.0293 66.9256 16.0137 66.8836 15.9853 66.8508C15.9569 66.8179 15.9176 66.7964 15.8747 66.79H11.1507C11.1077 66.7964 11.0685 66.8179 11.0401 66.8508C11.0117 66.8836 10.9961 66.9256 10.9961 66.969C10.9961 67.0124 11.0117 67.0543 11.0401 67.0872C11.0685 67.12 11.1077 67.1416 11.1507 67.1479Z" fill="#292A2B"/>
<path d="M19.525 67.1479H28.7419C28.7848 67.1416 28.8241 67.12 28.8525 67.0872C28.8809 67.0543 28.8965 67.0124 28.8965 66.969C28.8965 66.9256 28.8809 66.8836 28.8525 66.8508C28.8241 66.8179 28.7848 66.7964 28.7419 66.79H19.525C19.482 66.7964 19.4427 66.8179 19.4144 66.8508C19.386 66.8836 19.3703 66.9256 19.3703 66.969C19.3703 67.0124 19.386 67.0543 19.4144 67.0872C19.4427 67.12 19.482 67.1416 19.525 67.1479Z" fill="#292A2B"/>
<path d="M35.7845 30.8994C35.8447 30.8945 35.9007 30.8666 35.9409 30.8214C35.981 30.7763 36.0022 30.7174 36 30.657C35.9 28.6985 36.7118 27.8982 36.7195 27.8905C36.7616 27.848 36.7852 27.7906 36.7852 27.7308C36.7852 27.6711 36.7616 27.6137 36.7195 27.5712C36.6987 27.5499 36.6739 27.533 36.6465 27.5214C36.619 27.5099 36.5896 27.5039 36.5598 27.5039C36.5301 27.5039 36.5006 27.5099 36.4732 27.5214C36.4458 27.533 36.4209 27.5499 36.4001 27.5712C36.3617 27.6058 35.4228 28.5023 35.5344 30.6917C35.5403 30.7523 35.5698 30.8081 35.6167 30.8471C35.6635 30.886 35.7239 30.9048 35.7845 30.8994Z" fill="#231F20"/>
<path d="M46.6594 68.3149L45.978 68.1302L45.6238 68.0494C45.5589 68.0271 45.4879 68.0311 45.4259 68.0606C45.364 68.0901 45.3162 68.1427 45.2927 68.2071C45.2426 68.3572 45.208 68.5188 45.1656 68.6727C45.1487 68.7573 45.1229 68.8398 45.0886 68.919C45.0761 68.9474 45.0575 68.9727 45.0343 68.9933C45.011 69.0139 44.9836 69.0292 44.9539 69.0382C44.6998 69.0921 44.438 69.1344 44.1838 69.1729C44.1329 69.1761 44.0819 69.1685 44.0341 69.1506C43.9864 69.1327 43.9429 69.1049 43.9066 69.069L43.3792 68.5996C43.3122 68.539 43.2386 68.4861 43.1597 68.4419C43.1044 68.412 43.0399 68.4038 42.9788 68.4188C42.6638 68.557 42.3758 68.7498 42.1279 68.9882C42.0901 69.0281 42.0674 69.08 42.0639 69.1348C42.0604 69.1896 42.0762 69.244 42.1087 69.2883C42.2242 69.5 42.3359 69.7116 42.4552 69.9194C42.5032 69.9829 42.5313 70.0591 42.5361 70.1385C42.5409 70.2179 42.5221 70.2969 42.4821 70.3657C42.3782 70.5427 42.2819 70.7274 42.178 70.9044C42.1583 70.9381 42.1293 70.9654 42.0945 70.9832C42.0597 71.0009 42.0205 71.0083 41.9816 71.0044H41.5466H41.1616C41.0307 71.0044 40.9421 71.0698 40.9344 71.2007C40.9075 71.52 40.8844 71.8394 40.8728 72.1626C40.8746 72.2299 40.8959 72.2952 40.9342 72.3505C40.9725 72.4059 41.0261 72.4489 41.0884 72.4743C41.2578 72.5589 41.4349 72.6243 41.6082 72.7013C41.689 72.7359 41.7737 72.7744 41.8507 72.8167C41.9036 72.8408 41.9511 72.8754 41.9901 72.9184C42.0292 72.9614 42.059 73.0119 42.0779 73.0668C42.1587 73.29 42.2357 73.517 42.3243 73.7402C42.3529 73.7986 42.3634 73.8642 42.3545 73.9286C42.3456 73.9931 42.3176 74.0534 42.2743 74.1018L41.8584 74.5636C41.8041 74.6183 41.7737 74.6923 41.7737 74.7694C41.7737 74.8465 41.8041 74.9205 41.8584 74.9753C42.0586 75.2331 42.2434 75.487 42.4706 75.7448C42.5171 75.822 42.5891 75.8804 42.6742 75.9099C42.7594 75.9395 42.8522 75.9382 42.9365 75.9064C43.0674 75.8641 43.1944 75.8064 43.3215 75.7602C43.4485 75.714 43.5101 75.6948 43.6063 75.6679C43.6511 75.6574 43.6975 75.6564 43.7426 75.665C43.7877 75.6736 43.8305 75.6917 43.8682 75.7179C44.0876 75.8564 44.3071 75.9949 44.5227 76.1373C44.5805 76.1735 44.6297 76.2218 44.667 76.279C44.7042 76.3361 44.7285 76.4007 44.7383 76.4682C44.7575 76.6182 44.7729 76.7683 44.796 76.9145C44.808 77.0092 44.826 77.103 44.8499 77.1954C44.8639 77.263 44.8971 77.3251 44.9456 77.3743C44.9941 77.4234 45.0558 77.4575 45.1233 77.4724L46.0434 77.6995C46.0896 77.6995 46.1397 77.6995 46.1859 77.6995C46.2344 77.706 46.2837 77.6948 46.3247 77.6679C46.3657 77.6411 46.3957 77.6004 46.4092 77.5532L46.5593 76.9953V76.953C46.5715 76.8714 46.613 76.7971 46.6761 76.744C46.7392 76.6909 46.8195 76.6626 46.902 76.6644C47.0752 76.6644 47.2408 76.6106 47.4102 76.5836C47.4945 76.5709 47.5807 76.579 47.6612 76.6071C47.7417 76.6353 47.8141 76.6827 47.8722 76.7452C48.0377 76.8991 48.2033 77.053 48.3727 77.1992C48.5421 77.3455 48.6576 77.3724 48.8231 77.2685C49.058 77.1184 49.289 76.9607 49.5161 76.7991C49.6393 76.7106 49.6547 76.599 49.5739 76.4374C49.493 76.2758 49.3929 76.1065 49.3005 75.941C49.1003 75.5832 49.0965 75.5255 49.2659 75.2254L49.4699 74.8791C49.5022 74.8122 49.5566 74.7584 49.6239 74.7269C49.6912 74.6953 49.7674 74.6879 49.8395 74.7059C50.0128 74.7059 50.1899 74.7367 50.3631 74.7406C50.4462 74.7376 50.5288 74.726 50.6095 74.7059C50.6494 74.704 50.687 74.687 50.7149 74.6585C50.7427 74.6299 50.7587 74.5919 50.7597 74.552C50.7597 74.2442 50.7943 73.9364 50.8097 73.6324C50.8134 73.5889 50.8134 73.5451 50.8097 73.5016C50.8019 73.4458 50.7797 73.3931 50.7453 73.3485C50.7109 73.304 50.6654 73.2692 50.6134 73.2476L50.0051 72.9822L49.8241 72.8898C49.7745 72.8665 49.7301 72.8333 49.6937 72.7923C49.6573 72.7513 49.6296 72.7033 49.6124 72.6513C49.5392 72.4358 49.4622 72.2165 49.3852 72.001C49.3604 71.9455 49.3529 71.8838 49.3639 71.824C49.3749 71.7643 49.4038 71.7092 49.4468 71.6662L49.8318 71.2545C49.982 71.0698 49.9858 70.9813 49.8049 70.7543C49.6239 70.5273 49.4199 70.2503 49.1889 70.004C49.1498 69.9411 49.0898 69.8938 49.0194 69.8706C48.9491 69.8474 48.8727 69.8497 48.8039 69.877C48.6268 69.9386 48.4535 70.004 48.2841 70.081C48.1967 70.1185 48.1007 70.1316 48.0064 70.1187C47.9121 70.1058 47.8231 70.0675 47.749 70.0079C47.5565 69.8732 47.364 69.7501 47.1676 69.6231C47.1271 69.5981 47.0922 69.5651 47.065 69.526C47.0379 69.487 47.0191 69.4427 47.0098 69.3961C46.9751 69.1845 46.9443 68.9767 46.9097 68.7689C46.8961 68.6272 46.8397 68.493 46.748 68.3841L46.6594 68.3149ZM45.054 74.502C44.0029 73.8633 43.5332 72.6243 43.9836 71.697C44.3686 70.9275 45.5237 70.5427 46.6787 71.2276C47.7066 71.8548 48.1917 73.1053 47.7528 74.0018C47.2215 75.0599 45.8625 75.0561 45.054 74.502Z" fill="#231F20"/>
<path d="M46.2055 77.9106C46.3046 77.9187 46.4034 77.892 46.4849 77.8351C46.5665 77.7782 46.6256 77.6947 46.6521 77.5989L46.8023 77.0372V76.9833C46.8023 76.9217 46.8254 76.8871 46.9409 76.8756C47.0564 76.864 47.1911 76.8409 47.3259 76.8217L47.4799 76.7948C47.5296 76.7876 47.5803 76.793 47.6274 76.8105C47.6745 76.8279 47.7164 76.8569 47.7494 76.8948C47.9136 77.0538 48.083 77.2078 48.2576 77.3565C48.345 77.4582 48.4673 77.5236 48.6004 77.5399C48.7336 77.5563 48.868 77.5225 48.9775 77.445C49.2162 77.2911 49.4511 77.1334 49.6782 76.9679C49.7299 76.9341 49.7743 76.8904 49.809 76.8393C49.8436 76.7882 49.8677 76.7307 49.8799 76.6702C49.892 76.6096 49.8921 76.5473 49.8799 76.4868C49.8678 76.4263 49.8437 76.3688 49.8091 76.3176C49.7398 76.1791 49.6628 76.0445 49.5858 75.9059L49.5319 75.8136C49.3741 75.5366 49.3741 75.5366 49.4973 75.3249L49.6975 74.9786C49.7075 74.9577 49.7245 74.9408 49.7455 74.931C49.7666 74.9211 49.7905 74.919 49.813 74.9248H49.9862L50.3443 74.944C50.4486 74.9487 50.5531 74.9422 50.6561 74.9248C50.75 74.9134 50.8365 74.8679 50.899 74.797C50.9614 74.726 50.9956 74.6345 50.9949 74.54L51.0142 74.236C51.0142 74.0283 51.0334 73.8243 51.045 73.6166C51.0514 73.5616 51.0514 73.5061 51.045 73.4511C51.0314 73.3565 50.9938 73.2669 50.9359 73.1908C50.8779 73.1147 50.8015 73.0546 50.7139 73.0163L50.1056 72.7508L49.9439 72.67C49.9188 72.6595 49.8962 72.6438 49.8776 72.6239C49.859 72.604 49.8449 72.5804 49.8361 72.5546C49.7668 72.3507 49.6936 72.1698 49.6243 71.9466V71.9005C49.6012 71.8351 49.6243 71.8197 49.6243 71.7966L49.8977 71.4965L49.9978 71.3849C50.0547 71.3336 50.1002 71.271 50.1313 71.2011C50.1625 71.1312 50.1786 71.0555 50.1786 70.979C50.1786 70.9024 50.1625 70.8267 50.1313 70.7568C50.1002 70.6869 50.0547 70.6242 49.9978 70.573C49.7976 70.3152 49.5858 70.0651 49.3741 69.8035C49.3051 69.7038 49.2043 69.6305 49.0882 69.5955C48.9721 69.5606 48.8476 69.566 48.735 69.6111C48.5502 69.6765 48.35 69.7419 48.196 69.8227C48.1442 69.8441 48.0874 69.8504 48.0323 69.8408C47.9771 69.8313 47.9257 69.8063 47.8841 69.7688C47.7648 69.6842 47.6416 69.6034 47.4991 69.5226L47.2797 69.3802C47.2258 69.3456 47.2219 69.3148 47.2219 69.3033L47.1796 69.0455C47.1603 68.9223 47.1411 68.7992 47.118 68.6607C47.1013 68.4711 47.0244 68.2918 46.8985 68.149C46.8849 68.1341 46.8694 68.1212 46.8523 68.1105L46.7792 68.0682C46.7615 68.0561 46.742 68.047 46.7214 68.0412L46.5328 67.9912L46.0361 67.8565C45.9129 67.8219 45.7936 67.7988 45.6511 67.7719C45.5317 67.7375 45.4035 67.7502 45.2932 67.8075C45.1829 67.8648 45.0988 67.9622 45.0582 68.0797C45.0236 68.1836 44.9966 68.2913 44.9697 68.3991L44.9081 68.6261C44.898 68.6721 44.8838 68.7172 44.8657 68.7607C44.6386 68.8146 44.3845 68.8569 44.1265 68.8954C44.0912 68.8867 44.0591 68.868 44.0341 68.8415L43.807 68.6376L43.5067 68.376C43.4256 68.3021 43.3365 68.2376 43.241 68.1836C43.182 68.1534 43.1174 68.1355 43.0513 68.1309C42.9851 68.1263 42.9187 68.135 42.856 68.1567C42.5159 68.3066 42.2056 68.5165 41.9397 68.7761C41.8674 68.8507 41.8224 68.9475 41.8119 69.0508C41.8014 69.1542 41.8261 69.258 41.882 69.3456L42.0052 69.5726C42.0783 69.7073 42.1515 69.8458 42.2323 69.9805C42.3132 70.1151 42.2824 70.1613 42.2631 70.1921C42.19 70.3075 42.1284 70.4268 42.0629 70.5461L41.9551 70.7385C41.8715 70.7215 41.7864 70.7125 41.701 70.7115H41.4585C41.3507 70.7115 41.2467 70.7115 41.1428 70.7115C41.0866 70.7084 41.0304 70.7164 40.9774 70.735C40.9243 70.7537 40.8755 70.7826 40.8337 70.8201C40.7918 70.8576 40.7578 70.9031 40.7335 70.9538C40.7093 71.0044 40.6953 71.0594 40.6923 71.1155C40.6654 71.4387 40.6423 71.762 40.6307 72.0852C40.6284 72.1967 40.6594 72.3064 40.7198 72.4003C40.7801 72.4942 40.8671 72.568 40.9695 72.6123C41.0889 72.67 41.2082 72.72 41.3276 72.7701L41.5008 72.8432L41.7318 72.9509C41.7864 72.9764 41.8292 73.0218 41.8512 73.0779L41.9051 73.2279C41.9667 73.4049 42.0283 73.5819 42.0976 73.7551C42.1284 73.8359 42.0976 73.859 42.0976 73.8859C42.0976 73.9128 41.9628 74.036 41.8935 74.1129C41.8242 74.1899 41.7511 74.2668 41.6818 74.3476C41.5927 74.4425 41.5432 74.5677 41.5432 74.6978C41.5432 74.8278 41.5927 74.953 41.6818 75.0479C41.8858 75.3057 42.0899 75.5635 42.2978 75.8174C42.3712 75.9326 42.4823 76.0189 42.6121 76.0617C42.7418 76.1044 42.8824 76.1011 43.01 76.0522L43.2526 75.9637L43.4027 75.9059C43.4906 75.872 43.5807 75.8437 43.6722 75.8213C43.6722 75.8213 43.7069 75.8213 43.7492 75.8405L43.884 75.9252L44.3999 76.2561C44.431 76.2744 44.4575 76.2994 44.4775 76.3294C44.4975 76.3594 44.5105 76.3935 44.5154 76.4292L44.5423 76.6255C44.5423 76.7101 44.5616 76.7948 44.5731 76.8794C44.5847 76.9641 44.6078 77.0795 44.6309 77.1795C44.6555 77.2873 44.7095 77.386 44.787 77.4649C44.8645 77.5437 44.9624 77.5994 45.0698 77.6259L45.9938 77.849C46.0519 77.862 46.1113 77.8685 46.1709 77.8683L46.2055 77.9106ZM46.2402 77.4527L46.2094 77.6836V77.4527H46.1285C45.8205 77.3796 45.5164 77.3065 45.2084 77.2257C45.166 77.2257 45.1237 77.1949 45.1006 77.1141C45.0775 77.0333 45.0659 76.9448 45.0544 76.8602L45.0197 76.6139L44.9928 76.4138C44.9793 76.3142 44.944 76.2188 44.8894 76.1344C44.8349 76.0499 44.7624 75.9785 44.6771 75.9252L44.1535 75.5866L44.0226 75.5019C43.9582 75.4589 43.8856 75.4299 43.8094 75.4166C43.7331 75.4034 43.6549 75.4062 43.5798 75.425C43.4759 75.4519 43.3758 75.4865 43.2757 75.5212L43.1101 75.5866L42.8984 75.6635C42.8098 75.6943 42.779 75.702 42.6789 75.575C42.471 75.3249 42.2708 75.071 42.0706 74.8055C42.009 74.7285 42.0206 74.717 42.0475 74.6862L42.2516 74.4554L42.4595 74.2206C42.5315 74.1419 42.5786 74.0437 42.595 73.9383C42.6115 73.8329 42.5965 73.725 42.5519 73.6281C42.4864 73.4588 42.4248 73.2857 42.3632 73.1164L42.3093 72.9624C42.2528 72.795 42.1325 72.6567 41.9744 72.5777C41.8897 72.5353 41.8011 72.493 41.7164 72.4584L41.5355 72.3814C41.4238 72.3353 41.316 72.2891 41.2082 72.2352C41.1659 72.2121 41.1158 72.1737 41.1158 72.1352C41.1158 71.8158 41.1505 71.4965 41.1774 71.181C41.2757 71.1942 41.3747 71.2019 41.4739 71.204H41.7164H41.9821C42.0591 71.2027 42.1345 71.1824 42.2017 71.1448C42.2689 71.1071 42.3257 71.0535 42.3671 70.9886L42.4787 70.7923C42.5403 70.6808 42.6019 70.5653 42.6674 70.4576C42.7291 70.3536 42.7593 70.2339 42.7545 70.1131C42.7498 69.9923 42.7101 69.8754 42.6404 69.7765C42.5634 69.6457 42.4941 69.5149 42.4248 69.3918L42.2978 69.1609C42.2952 69.1469 42.2952 69.1326 42.2978 69.1186C42.5187 68.9144 42.7709 68.7469 43.0447 68.6222C43.1138 68.6562 43.1773 68.7003 43.2333 68.753L43.5298 69.0147L43.7608 69.2186C43.8202 69.2781 43.8922 69.3235 43.9715 69.3514C44.0508 69.3794 44.1353 69.3893 44.2189 69.3802C44.4846 69.3417 44.7502 69.2994 45.0082 69.2417C45.0702 69.2252 45.1279 69.1957 45.1777 69.1553C45.2275 69.1148 45.2681 69.0643 45.2969 69.007C45.3329 68.9322 45.3601 68.8534 45.3778 68.7723L45.4355 68.5491C45.4625 68.4491 45.4856 68.3529 45.5164 68.2605C45.5164 68.2605 45.5433 68.2605 45.5857 68.2605L45.9283 68.3375L46.4173 68.4722L46.5944 68.526C46.6419 68.6013 46.6697 68.6873 46.6752 68.7761L46.7792 69.4033C46.7912 69.482 46.8201 69.5571 46.864 69.6236C46.9078 69.69 46.9656 69.7461 47.0333 69.7881L47.2566 69.9343L47.6146 70.1767C47.7218 70.2619 47.8506 70.3156 47.9865 70.3319C48.1225 70.3482 48.2603 70.3264 48.3846 70.269C48.5463 70.1959 48.7119 70.1344 48.8851 70.0728C48.9506 70.0497 48.9583 70.0497 49.0276 70.1305C49.2355 70.3768 49.4434 70.623 49.6397 70.8731C49.6751 70.9153 49.7048 70.9619 49.7283 71.0117C49.7283 71.0117 49.7283 71.0347 49.6667 71.0925L49.5589 71.2117C49.4742 71.3118 49.3856 71.408 49.2971 71.5042C49.2248 71.5778 49.1756 71.6709 49.1558 71.7722C49.1359 71.8734 49.1462 71.9782 49.1854 72.0736V72.1159L49.3972 72.72C49.4237 72.799 49.4655 72.872 49.5204 72.9347C49.5752 72.9975 49.642 73.0487 49.7167 73.0856C49.7822 73.124 49.8476 73.1548 49.9131 73.1856L50.5214 73.4511C50.5385 73.4582 50.5533 73.4698 50.5641 73.4847C50.575 73.4997 50.5815 73.5173 50.583 73.5358C50.585 73.5627 50.585 73.5897 50.583 73.6166C50.583 73.8205 50.583 74.0244 50.5522 74.2322V74.4823C50.4907 74.4876 50.4289 74.4876 50.3674 74.4823L50.0286 74.4631H49.8515C49.7434 74.4515 49.6343 74.472 49.5378 74.522C49.4413 74.5719 49.3616 74.6491 49.3086 74.7439L49.1084 75.0941C49.0052 75.2304 48.9519 75.3981 48.9575 75.5689C48.9631 75.7398 49.0273 75.9036 49.1392 76.0329L49.1931 76.1291C49.2663 76.2561 49.3433 76.3869 49.4087 76.5139C49.4224 76.5349 49.4316 76.5584 49.4357 76.5831C49.197 76.7447 48.9698 76.8987 48.7388 77.0487L48.6772 77.0795C48.6341 77.0599 48.5949 77.0325 48.5617 76.9987C48.3962 76.8525 48.2306 76.7024 48.0689 76.5485C47.9853 76.4624 47.8822 76.3979 47.7682 76.3604C47.6542 76.3228 47.5328 76.3135 47.4144 76.333L47.2527 76.36C47.1449 76.36 47.0333 76.3984 46.9178 76.41C46.7862 76.4129 46.6597 76.4618 46.5605 76.5483C46.4613 76.6348 46.3956 76.7533 46.3749 76.8833L46.2132 77.4643C46.2212 77.4584 46.2304 77.4545 46.2402 77.4527ZM46.2402 75.0979C46.4246 75.0986 46.6084 75.0753 46.7869 75.0287C47.0367 74.9706 47.2702 74.8571 47.4701 74.6966C47.6701 74.536 47.8313 74.3326 47.9419 74.1014C48.4347 73.101 47.9149 71.7235 46.7869 71.0232C46.5053 70.8405 46.1884 70.719 45.8567 70.6667C45.5251 70.6143 45.1861 70.6322 44.8619 70.7192C44.6312 70.7816 44.416 70.891 44.2298 71.0407C44.0436 71.1904 43.8904 71.377 43.78 71.5888C43.2757 72.6238 43.78 73.9821 44.935 74.6862C45.3265 74.9493 45.7876 75.09 46.2594 75.0902L46.2402 75.0979ZM45.4471 71.0963C45.8323 71.1027 46.2082 71.2159 46.5328 71.4234C47.4491 71.9813 47.8995 73.1164 47.5145 73.9013C47.4332 74.0709 47.3155 74.2205 47.1698 74.3396C47.024 74.4586 46.8539 74.5441 46.6714 74.59C46.4143 74.6497 46.1476 74.6559 45.888 74.6083C45.6283 74.5606 45.3813 74.4601 45.1622 74.313C44.2074 73.7358 43.7762 72.6315 44.1766 71.8004C44.2596 71.6464 44.3736 71.5112 44.5114 71.4032C44.6492 71.2953 44.8079 71.217 44.9774 71.1733C45.1356 71.1234 45.3004 71.0975 45.4663 71.0963H45.4471Z" fill="#231F20"/>
<path d="M53.5088 12.9496H60.6198C60.6628 12.9433 60.702 12.9218 60.7304 12.8889C60.7588 12.8561 60.7744 12.8141 60.7744 12.7707C60.7744 12.7273 60.7588 12.6854 60.7304 12.6525C60.702 12.6197 60.6628 12.5981 60.6198 12.5918H53.5204C53.4774 12.5981 53.4382 12.6197 53.4098 12.6525C53.3814 12.6854 53.3658 12.7273 53.3658 12.7707C53.3658 12.8141 53.3814 12.8561 53.4098 12.8889C53.4382 12.9218 53.4774 12.9433 53.5204 12.9496H53.5088Z" fill="#D1D3D4"/>
</svg>
