<svg width="139" height="32" viewBox="0 0 139 32" fill="none" xmlns="http://www.w3.org/2000/svg">
<path d="M0 6C0 2.68629 2.68629 0 6 0H26C29.3137 0 32 2.68629 32 6V32H6C2.68629 32 0 29.3137 0 26V6Z" fill="#111112"/>
<path d="M20 23.2C19.0133 23.2 18.0933 23.02 17.24 22.66C16.4 22.3 15.6667 21.7933 15.04 21.14C14.4133 20.4867 13.9267 19.7333 13.58 18.88C13.2467 18.0133 13.08 17.0867 13.08 16.1C13.08 15.1133 13.2467 14.1933 13.58 13.34C13.9267 12.4733 14.4067 11.72 15.02 11.08C15.6467 10.44 16.38 9.94 17.22 9.58C18.06 9.22 18.9667 9.04 19.94 9.04C20.9933 9.04 21.9333 9.22667 22.76 9.6C23.6 9.97333 24.3333 10.4867 24.96 11.14L23.96 12.14C23.48 11.6067 22.9 11.1933 22.22 10.9C21.54 10.5933 20.78 10.44 19.94 10.44C19.1667 10.44 18.4533 10.58 17.8 10.86C17.16 11.14 16.5933 11.54 16.1 12.06C15.62 12.5667 15.2467 13.1667 14.98 13.86C14.7267 14.54 14.6 15.2867 14.6 16.1C14.6 16.9133 14.7333 17.6667 15 18.36C15.2667 19.0533 15.64 19.66 16.12 20.18C16.6 20.6867 17.1667 21.08 17.82 21.36C18.4733 21.64 19.1867 21.78 19.96 21.78C20.84 21.78 21.62 21.6267 22.3 21.32C22.9933 21.0133 23.58 20.5933 24.06 20.06L25.06 21.08C24.4467 21.7333 23.7133 22.2533 22.86 22.64C22.0067 23.0133 21.0533 23.2 20 23.2Z" fill="white"/>
<path d="M9.3 23V20.58H12.88C13.7867 20.58 14.58 20.3933 15.26 20.02C15.94 19.6333 16.4667 19.0933 16.84 18.4C17.2267 17.7067 17.42 16.8867 17.42 15.94C17.42 15.02 17.2267 14.22 16.84 13.54C16.4533 12.8467 15.92 12.3133 15.24 11.94C14.56 11.5533 13.7733 11.36 12.88 11.36H9.24V8.94H12.92C13.96 8.94 14.92 9.11333 15.8 9.46C16.6933 9.80667 17.4667 10.3 18.12 10.94C18.7867 11.5667 19.3 12.3067 19.66 13.16C20.0333 14.0133 20.22 14.9467 20.22 15.96C20.22 16.9733 20.0333 17.9133 19.66 18.78C19.3 19.6333 18.7933 20.38 18.14 21.02C17.4867 21.6467 16.7133 22.1333 15.82 22.48C14.94 22.8267 13.9867 23 12.96 23H9.3ZM7.44 23V8.94H10.16V23H7.44Z" fill="white"/>
<path d="M47.3 23V20.58H50.88C51.7867 20.58 52.58 20.3933 53.26 20.02C53.94 19.6333 54.4667 19.0933 54.84 18.4C55.2267 17.7067 55.42 16.8867 55.42 15.94C55.42 15.02 55.2267 14.22 54.84 13.54C54.4533 12.8467 53.92 12.3133 53.24 11.94C52.56 11.5533 51.7733 11.36 50.88 11.36H47.24V8.94H50.92C51.96 8.94 52.92 9.11333 53.8 9.46C54.6933 9.80667 55.4667 10.3 56.12 10.94C56.7867 11.5667 57.3 12.3067 57.66 13.16C58.0333 14.0133 58.22 14.9467 58.22 15.96C58.22 16.9733 58.0333 17.9133 57.66 18.78C57.3 19.6333 56.7933 20.38 56.14 21.02C55.4867 21.6467 54.7133 22.1333 53.82 22.48C52.94 22.8267 51.9867 23 50.96 23H47.3ZM45.44 23V8.94H48.16V23H45.44ZM64.1414 23.2C63.2614 23.2 62.4681 22.98 61.7614 22.54C61.0547 22.1 60.5014 21.5 60.1014 20.74C59.7014 19.98 59.5014 19.1267 59.5014 18.18C59.5014 17.22 59.7014 16.36 60.1014 15.6C60.5014 14.84 61.0547 14.24 61.7614 13.8C62.4681 13.36 63.2614 13.14 64.1414 13.14C64.8347 13.14 65.4547 13.28 66.0014 13.56C66.5481 13.84 66.9814 14.2333 67.3014 14.74C67.6347 15.2333 67.8147 15.7933 67.8414 16.42V19.9C67.8147 20.54 67.6347 21.1067 67.3014 21.6C66.9814 22.0933 66.5481 22.4867 66.0014 22.78C65.4547 23.06 64.8347 23.2 64.1414 23.2ZM64.6214 20.78C65.3547 20.78 65.9481 20.54 66.4014 20.06C66.8547 19.5667 67.0814 18.9333 67.0814 18.16C67.0814 17.6533 66.9747 17.2067 66.7614 16.82C66.5614 16.42 66.2747 16.1133 65.9014 15.9C65.5414 15.6733 65.1147 15.56 64.6214 15.56C64.1414 15.56 63.7147 15.6733 63.3414 15.9C62.9814 16.1133 62.6947 16.42 62.4814 16.82C62.2814 17.2067 62.1814 17.6533 62.1814 18.16C62.1814 18.68 62.2814 19.14 62.4814 19.54C62.6947 19.9267 62.9814 20.2333 63.3414 20.46C63.7147 20.6733 64.1414 20.78 64.6214 20.78ZM66.9414 23V20.4L67.3614 18.04L66.9414 15.72V13.34H69.5414V23H66.9414ZM75.1792 23.22C74.6326 23.22 74.0926 23.1467 73.5592 23C73.0392 22.8533 72.5592 22.6533 72.1192 22.4C71.6792 22.1333 71.2992 21.8133 70.9792 21.44L72.5392 19.86C72.8726 20.2333 73.2592 20.5133 73.6992 20.7C74.1392 20.8867 74.6259 20.98 75.1592 20.98C75.5859 20.98 75.9059 20.92 76.1192 20.8C76.3459 20.68 76.4592 20.5 76.4592 20.26C76.4592 19.9933 76.3392 19.7867 76.0992 19.64C75.8726 19.4933 75.5726 19.3733 75.1992 19.28C74.8259 19.1733 74.4326 19.06 74.0192 18.94C73.6192 18.8067 73.2326 18.64 72.8592 18.44C72.4859 18.2267 72.1792 17.94 71.9392 17.58C71.7126 17.2067 71.5992 16.7267 71.5992 16.14C71.5992 15.5267 71.7459 14.9933 72.0392 14.54C72.3459 14.0867 72.7792 13.7333 73.3392 13.48C73.8992 13.2267 74.5592 13.1 75.3192 13.1C76.1192 13.1 76.8392 13.24 77.4792 13.52C78.1326 13.8 78.6726 14.22 79.0992 14.78L77.5192 16.36C77.2259 16 76.8926 15.74 76.5192 15.58C76.1592 15.42 75.7659 15.34 75.3392 15.34C74.9526 15.34 74.6526 15.4 74.4392 15.52C74.2392 15.64 74.1392 15.8067 74.1392 16.02C74.1392 16.26 74.2526 16.4467 74.4792 16.58C74.7192 16.7133 75.0259 16.8333 75.3992 16.94C75.7726 17.0333 76.1592 17.1467 76.5592 17.28C76.9726 17.4 77.3592 17.5733 77.7192 17.8C78.0926 18.0267 78.3926 18.3267 78.6192 18.7C78.8592 19.0733 78.9792 19.5533 78.9792 20.14C78.9792 21.0867 78.6392 21.84 77.9592 22.4C77.2792 22.9467 76.3526 23.22 75.1792 23.22ZM87.2459 23V17.46C87.2459 16.8867 87.0659 16.42 86.7059 16.06C86.3459 15.7 85.8793 15.52 85.3059 15.52C84.9326 15.52 84.5993 15.6 84.3059 15.76C84.0126 15.92 83.7793 16.1467 83.6059 16.44C83.4459 16.7333 83.3659 17.0733 83.3659 17.46L82.3459 16.94C82.3459 16.18 82.5059 15.52 82.8259 14.96C83.1459 14.3867 83.5859 13.94 84.1459 13.62C84.7193 13.3 85.3726 13.14 86.1059 13.14C86.8393 13.14 87.4859 13.3 88.0459 13.62C88.6193 13.94 89.0659 14.38 89.3859 14.94C89.7059 15.5 89.8659 16.1467 89.8659 16.88V23H87.2459ZM80.7459 23V8.54H83.3659V23H80.7459ZM98.7764 23.2C97.7497 23.2 96.7964 23.02 95.9164 22.66C95.0364 22.2867 94.2631 21.7733 93.5964 21.12C92.9431 20.4533 92.4364 19.68 92.0764 18.8C91.7297 17.92 91.5564 16.9733 91.5564 15.96C91.5564 14.9467 91.7297 14 92.0764 13.12C92.4364 12.24 92.9431 11.4733 93.5964 10.82C94.2631 10.1667 95.0297 9.65333 95.8964 9.28C96.7764 8.90667 97.7364 8.72 98.7764 8.72C99.8964 8.72 100.883 8.90667 101.736 9.28C102.59 9.64 103.343 10.14 103.996 10.78L102.156 12.62C101.77 12.1933 101.296 11.86 100.736 11.62C100.176 11.38 99.5231 11.26 98.7764 11.26C98.1231 11.26 97.5231 11.3733 96.9764 11.6C96.4431 11.8133 95.9764 12.1333 95.5764 12.56C95.1764 12.9733 94.8697 13.4733 94.6564 14.06C94.4431 14.6333 94.3364 15.2667 94.3364 15.96C94.3364 16.6667 94.4431 17.3067 94.6564 17.88C94.8697 18.4533 95.1764 18.9533 95.5764 19.38C95.9764 19.7933 96.4431 20.1133 96.9764 20.34C97.5231 20.5667 98.1231 20.68 98.7764 20.68C99.5631 20.68 100.236 20.56 100.796 20.32C101.37 20.08 101.85 19.74 102.236 19.3L104.076 21.14C103.423 21.7933 102.663 22.3 101.796 22.66C100.93 23.02 99.9231 23.2 98.7764 23.2ZM109.973 23.2C109 23.2 108.12 22.98 107.333 22.54C106.56 22.0867 105.94 21.48 105.473 20.72C105.02 19.9467 104.793 19.0867 104.793 18.14C104.793 17.1933 105.02 16.3467 105.473 15.6C105.927 14.84 106.547 14.24 107.333 13.8C108.12 13.3467 108.993 13.12 109.953 13.12C110.94 13.12 111.82 13.3467 112.593 13.8C113.38 14.24 114 14.84 114.453 15.6C114.907 16.3467 115.133 17.1933 115.133 18.14C115.133 19.0867 114.907 19.9467 114.453 20.72C114 21.48 113.38 22.0867 112.593 22.54C111.82 22.98 110.947 23.2 109.973 23.2ZM109.953 20.76C110.447 20.76 110.88 20.6533 111.253 20.44C111.64 20.2133 111.933 19.9067 112.133 19.52C112.347 19.12 112.453 18.6667 112.453 18.16C112.453 17.6533 112.347 17.2067 112.133 16.82C111.92 16.4333 111.627 16.1333 111.253 15.92C110.88 15.6933 110.447 15.58 109.953 15.58C109.473 15.58 109.047 15.6933 108.673 15.92C108.3 16.1333 108.007 16.4333 107.793 16.82C107.58 17.2067 107.473 17.6533 107.473 18.16C107.473 18.6667 107.58 19.12 107.793 19.52C108.007 19.9067 108.3 20.2133 108.673 20.44C109.047 20.6533 109.473 20.76 109.953 20.76ZM120.9 23.2C120.007 23.2 119.207 22.98 118.5 22.54C117.793 22.1 117.233 21.5 116.82 20.74C116.42 19.98 116.22 19.1267 116.22 18.18C116.22 17.22 116.42 16.36 116.82 15.6C117.233 14.84 117.787 14.24 118.48 13.8C119.187 13.36 119.993 13.14 120.9 13.14C121.593 13.14 122.213 13.28 122.76 13.56C123.32 13.84 123.767 14.2333 124.1 14.74C124.447 15.2333 124.633 15.7933 124.66 16.42V19.86C124.633 20.4867 124.453 21.0533 124.12 21.56C123.787 22.0667 123.34 22.4667 122.78 22.76C122.22 23.0533 121.593 23.2 120.9 23.2ZM121.34 20.78C121.833 20.78 122.26 20.6733 122.62 20.46C122.993 20.2333 123.28 19.9267 123.48 19.54C123.693 19.14 123.8 18.68 123.8 18.16C123.8 17.6533 123.693 17.2067 123.48 16.82C123.28 16.42 122.993 16.1133 122.62 15.9C122.26 15.6733 121.84 15.56 121.36 15.56C120.867 15.56 120.433 15.6733 120.06 15.9C119.7 16.1267 119.413 16.4333 119.2 16.82C119 17.2067 118.9 17.6533 118.9 18.16C118.9 18.68 119 19.14 119.2 19.54C119.413 19.9267 119.707 20.2333 120.08 20.46C120.453 20.6733 120.873 20.78 121.34 20.78ZM126.26 23H123.66V20.4L124.08 18.04L123.64 15.72V8.54H126.26V23ZM133.198 23.2C132.185 23.2 131.285 22.9867 130.498 22.56C129.711 22.12 129.085 21.52 128.618 20.76C128.165 20 127.938 19.1333 127.938 18.16C127.938 17.2 128.158 16.3467 128.598 15.6C129.051 14.84 129.665 14.24 130.438 13.8C131.211 13.3467 132.071 13.12 133.018 13.12C133.951 13.12 134.771 13.3333 135.478 13.76C136.198 14.1733 136.758 14.7467 137.158 15.48C137.571 16.2 137.778 17.02 137.778 17.94C137.778 18.1133 137.765 18.2933 137.738 18.48C137.725 18.6533 137.691 18.8533 137.638 19.08L129.518 19.1V17.14L136.418 17.12L135.358 17.94C135.331 17.3667 135.225 16.8867 135.038 16.5C134.865 16.1133 134.605 15.82 134.258 15.62C133.925 15.4067 133.511 15.3 133.018 15.3C132.498 15.3 132.045 15.42 131.658 15.66C131.271 15.8867 130.971 16.2133 130.758 16.64C130.558 17.0533 130.458 17.5467 130.458 18.12C130.458 18.7067 130.565 19.22 130.778 19.66C131.005 20.0867 131.325 20.42 131.738 20.66C132.151 20.8867 132.631 21 133.178 21C133.671 21 134.118 20.92 134.518 20.76C134.918 20.5867 135.265 20.3333 135.558 20L137.098 21.54C136.631 22.0867 136.058 22.5 135.378 22.78C134.711 23.06 133.985 23.2 133.198 23.2Z" fill="#111112"/>
</svg>
