<svg width="68" height="45" viewBox="0 0 68 45" fill="none" xmlns="http://www.w3.org/2000/svg">
<rect x="5.50098" y="12.834" width="57" height="19" fill="white"/>
<path d="M55.3004 20.1263L56.355 24.9525H52.575L54.3891 20.2809L54.9938 18.6863L55.3004 20.1263ZM67.501 5.625V39.375C67.501 42.48 64.981 45 61.876 45H5.62598C2.52098 45 0.000976562 42.48 0.000976562 39.375V5.625C0.000976562 2.52 2.52098 0 5.62598 0H61.876C64.981 0 67.501 2.52 67.501 5.625ZM19.2779 30.8559L26.4469 14.1806H21.6235L17.1657 25.5741L16.6904 23.2594L15.0929 15.5813C14.8172 14.5209 14.0157 14.2059 13.0285 14.1694H5.68504L5.62598 14.5153C7.41191 14.9484 9.00941 15.5728 10.41 16.3463L14.46 30.8588L19.2779 30.8559ZM32.8425 14.1666H28.2891L25.4429 30.8756H29.9963L32.8425 14.1666ZM45.8504 25.4138C45.8672 23.5125 44.655 22.0669 42.0282 20.8744C40.4363 20.1009 39.4604 19.5863 39.4716 18.8044C39.4716 18.1097 40.2957 17.3672 42.0788 17.3672C43.5694 17.3447 44.6466 17.6681 45.4875 18.0084L45.8954 18.1997L46.5113 14.58C45.6085 14.2397 44.1938 13.8769 42.4304 13.8769C37.9304 13.8769 34.7607 16.1438 34.7325 19.3922C34.7072 21.7941 36.9966 23.1328 38.7235 23.9316C40.4954 24.75 41.0916 25.2731 41.0832 26.0044C41.0719 27.1238 39.6685 27.6356 38.3578 27.6356C36.5353 27.6356 35.5679 27.3825 34.0716 26.7581L33.4838 26.4909L32.8454 30.2316C33.9085 30.6984 35.8772 31.1034 37.9191 31.1231C42.706 31.1231 45.8138 28.8816 45.8504 25.4138ZM61.876 30.8813L58.1888 14.1834H54.6703C53.5791 14.1834 52.7635 14.4816 52.2854 15.57L45.5213 30.8813H50.3025L51.2616 28.3697L57.0947 28.3781L57.6488 30.8813H61.876Z" fill="url(#paint0_linear_1476_70963)"/>
<defs>
<linearGradient id="paint0_linear_1476_70963" x1="-1.11324" y1="0.884429" x2="67.501" y2="46.1383" gradientUnits="userSpaceOnUse">
<stop stop-color="#1EABEC"/>
<stop offset="1" stop-color="#2692ED"/>
</linearGradient>
</defs>
</svg>
