<svg width="698" height="640" viewBox="0 0 698 640" fill="none" xmlns="http://www.w3.org/2000/svg">
<path d="M383.573 499.794L396.995 502.378" stroke="#011635" stroke-width="1.5" stroke-miterlimit="10" stroke-linecap="round" stroke-linejoin="round"/>
<path d="M70.5259 65.5933L59.8983 54.215" stroke="#011635" stroke-width="1.5" stroke-miterlimit="10" stroke-linecap="round" stroke-linejoin="round"/>
<path d="M276.803 595.331L270.91 578.823" stroke="#011635" stroke-width="1.5" stroke-miterlimit="10" stroke-linecap="round" stroke-linejoin="round"/>
<path d="M218.719 597.062L212.826 613.57" stroke="#011635" stroke-width="1.5" stroke-miterlimit="10" stroke-linecap="round" stroke-linejoin="round"/>
<path d="M663.027 285.073L652.39 273.695" stroke="#011635" stroke-width="1.5" stroke-miterlimit="10" stroke-linecap="round" stroke-linejoin="round"/>
<path d="M51.7422 251.439L38.9663 257.598" stroke="#011635" stroke-width="1.5" stroke-miterlimit="10" stroke-linecap="round" stroke-linejoin="round"/>
<path d="M255.989 114L252.919 96.1424" stroke="#011635" stroke-width="1.5" stroke-miterlimit="10" stroke-linecap="round" stroke-linejoin="round"/>
<path d="M588.065 57.4922L594.043 41.0227" stroke="#011635" stroke-width="1.5" stroke-miterlimit="10" stroke-linecap="round" stroke-linejoin="round"/>
<path d="M665.508 17.4697L671.487 1.0002" stroke="#011635" stroke-width="1.5" stroke-miterlimit="10" stroke-linecap="round" stroke-linejoin="round"/>
<path d="M35.9811 493.454L41.9595 476.997" stroke="#011635" stroke-width="1.5" stroke-miterlimit="10" stroke-linecap="round" stroke-linejoin="round"/>
<path d="M605.659 366.174C605.659 368.424 607.009 370.236 608.663 370.236C610.326 370.236 611.666 368.411 611.666 366.174C611.666 363.924 610.316 362.111 608.663 362.111C606.999 362.111 605.659 363.924 605.659 366.174Z" stroke="#011635" stroke-width="1.5" stroke-miterlimit="10" stroke-linecap="round" stroke-linejoin="round"/>
<path d="M0.999963 401.401C0.999963 403.651 2.34958 405.464 4.00337 405.464C5.65716 405.464 7.00684 403.638 7.00684 401.401C7.00684 399.151 5.65716 397.338 4.00337 397.338C2.34958 397.338 0.999963 399.151 0.999963 401.401Z" stroke="#011635" stroke-width="1.5" stroke-miterlimit="10" stroke-linecap="round" stroke-linejoin="round"/>
<path d="M565.269 561.53C565.269 563.78 566.619 565.593 568.272 565.593C569.926 565.593 571.276 563.767 571.276 561.53C571.276 559.28 569.926 557.467 568.272 557.467C566.619 557.467 565.269 559.28 565.269 561.53Z" stroke="#011635" stroke-width="1.5" stroke-miterlimit="10" stroke-linecap="round" stroke-linejoin="round"/>
<path d="M507.186 630.861C507.186 628.611 508.535 626.798 510.189 626.798C511.843 626.798 513.192 628.624 513.192 630.861C513.192 633.111 511.843 634.924 510.189 634.924C508.535 634.924 507.186 633.111 507.186 630.861Z" stroke="#011635" stroke-width="1.5" stroke-miterlimit="10" stroke-linecap="round" stroke-linejoin="round"/>
<path d="M654.7 110.398C654.7 112.648 656.05 114.461 657.704 114.461C659.367 114.461 660.707 112.635 660.707 110.398C660.707 108.148 659.357 106.335 657.704 106.335C656.05 106.323 654.7 108.148 654.7 110.398Z" stroke="#011635" stroke-width="1.5" stroke-miterlimit="10" stroke-linecap="round" stroke-linejoin="round"/>
<path d="M90.6504 569.655C90.6504 571.905 92 573.718 93.6538 573.718C95.3171 573.718 96.6572 571.892 96.6572 569.655C96.6572 567.405 95.3076 565.592 93.6538 565.592C91.9905 565.592 90.6504 567.418 90.6504 569.655Z" stroke="#011635" stroke-width="1.5" stroke-miterlimit="10" stroke-linecap="round" stroke-linejoin="round"/>
<path d="M32.5669 622.736C32.5669 620.486 33.9165 618.673 35.5703 618.673C37.2336 618.673 38.5737 620.499 38.5737 622.736C38.5737 624.986 37.2241 626.799 35.5703 626.799C33.907 626.799 32.5669 624.973 32.5669 622.736Z" stroke="#011635" stroke-width="1.5" stroke-miterlimit="10" stroke-linecap="round" stroke-linejoin="round"/>
<path d="M344.143 557.455C344.143 559.705 345.493 561.518 347.146 561.518C348.81 561.518 350.15 559.692 350.15 557.455C350.15 555.205 348.8 553.393 347.146 553.393C345.493 553.393 344.143 555.205 344.143 557.455Z" stroke="#011635" stroke-width="1.5" stroke-miterlimit="10" stroke-linecap="round" stroke-linejoin="round"/>
<path d="M286.06 634.937C286.06 632.687 287.409 630.874 289.063 630.874C290.726 630.874 292.066 632.7 292.066 634.937C292.066 637.187 290.717 639 289.063 639C287.409 639 286.06 637.187 286.06 634.937Z" stroke="#011635" stroke-width="1.5" stroke-miterlimit="10" stroke-linecap="round" stroke-linejoin="round"/>
<path d="M503.486 10.9514C503.486 13.2014 504.836 15.0142 506.49 15.0142C508.153 15.0142 509.493 13.1885 509.493 10.9514C509.493 8.70148 508.144 6.88867 506.49 6.88867C504.836 6.87581 503.486 8.70148 503.486 10.9514Z" stroke="#011635" stroke-width="1.5" stroke-miterlimit="10" stroke-linecap="round" stroke-linejoin="round"/>
<path d="M375.394 60.9802C375.394 63.2302 376.743 65.043 378.397 65.043C380.06 65.043 381.4 63.2173 381.4 60.9802C381.4 58.7303 380.051 56.9175 378.397 56.9175C376.743 56.9046 375.394 58.7303 375.394 60.9802Z" stroke="#011635" stroke-width="1.5" stroke-miterlimit="10" stroke-linecap="round" stroke-linejoin="round"/>
<path d="M32.9683 140.83C32.9683 143.08 34.3179 144.893 35.9717 144.893C37.635 144.893 38.9751 143.067 38.9751 140.83C38.9751 138.58 37.6255 136.767 35.9717 136.767C34.3179 136.767 32.9683 138.58 32.9683 140.83Z" stroke="#011635" stroke-width="1.5" stroke-miterlimit="10" stroke-linecap="round" stroke-linejoin="round"/>
<path d="M640.08 573.217L647.599 557.969" stroke="#011635" stroke-width="1.5" stroke-miterlimit="10" stroke-linecap="round" stroke-linejoin="round"/>
<g clip-path="url(#clip0_1476_105830)">
<path d="M129.059 498.025C252.177 557.68 457.696 513.794 534.147 453.199C633.491 374.453 657.454 189.656 554.459 127.239C495.811 91.7086 401.008 99.9934 324.887 203.253C254.217 299.119 202.86 252.672 123.129 280.779C22.2443 316.339 23.8345 447.045 129.059 498.025Z" fill="#A3A1FB"/>
<path d="M183.107 195.829H530.796C537.427 195.829 542.798 201.202 542.798 207.836V438.72C542.798 445.354 537.427 450.727 530.796 450.727H183.107C176.476 450.727 171.105 445.354 171.105 438.72V207.836C171.105 201.202 176.476 195.829 183.107 195.829Z" fill="white"/>
<path d="M484.51 188.185C483.229 175.657 489.22 158.337 498.022 159.898C506.823 161.459 495.841 175.057 503.132 189.135L484.51 188.185Z" fill="#F9CAD2"/>
<path d="M486.93 195.829C486.93 195.829 501.142 181.771 508.533 156.696C515.914 131.632 548.628 130.831 554.689 162.5C560.76 194.168 532.266 238.624 532.266 238.624L486.93 195.829Z" fill="#57F9CC"/>
<path d="M534.187 164.111C534.187 164.111 536.027 194.228 509.193 216.842" stroke="#011635" stroke-width="1.5" stroke-miterlimit="10" stroke-linecap="round" stroke-linejoin="round"/>
<path d="M575.132 171.675C575.132 171.675 579.883 188.135 567.611 200.512" stroke="#011635" stroke-width="1.5" stroke-miterlimit="10" stroke-linecap="round" stroke-linejoin="round"/>
<path d="M184.287 435.559C184.287 435.559 187.387 450.407 179.477 463.465" stroke="#011635" stroke-width="1.5" stroke-miterlimit="10" stroke-linecap="round" stroke-linejoin="round"/>
<path d="M169.124 435.559C169.124 435.559 168.684 447.415 162.604 457.621" stroke="#011635" stroke-width="1.5" stroke-miterlimit="10" stroke-linecap="round" stroke-linejoin="round"/>
<path d="M316.936 445.384C336.148 469.959 355.671 469.188 379.144 469.098C402.618 469.008 429.271 475.572 441.073 490.701C452.875 505.83 488.54 510.002 486.93 473.671C485.319 437.34 432.762 404.801 390.396 406.232C348.03 407.652 319.546 401.239 319.546 401.239L316.936 445.384Z" fill="#57F9CC"/>
<path d="M318.286 421.671C384.155 455.681 430.221 433.428 458.425 469.088" stroke="#011635" stroke-width="1.5" stroke-miterlimit="10" stroke-linecap="round" stroke-linejoin="round"/>
<path d="M503.122 473.221C503.122 473.221 513.704 480.485 513.353 499.086" stroke="#011635" stroke-width="1.5" stroke-miterlimit="10" stroke-linecap="round" stroke-linejoin="round"/>
<path d="M187.377 191.216C179.086 174.117 181.127 147.191 192.898 147.461C204.67 147.721 193.058 176.388 208.63 188.715L187.377 191.216Z" fill="#F9CAD2"/>
<path d="M145.842 225.036C145.842 225.036 99.5453 140.857 143.862 127.8C181.117 116.813 173.276 190.016 213.561 206.205L145.842 225.036Z" fill="#57F9CC"/>
<path d="M147.822 149.963C147.822 149.963 153.133 187.435 177.386 216.261" stroke="#011635" stroke-width="1.5" stroke-miterlimit="10" stroke-linecap="round" stroke-linejoin="round"/>
<path d="M120.918 320.111C120.918 320.111 143.361 326.425 162.604 322.703" stroke="#011635" stroke-width="1.5" stroke-miterlimit="10" stroke-linecap="round" stroke-linejoin="round"/>
<path d="M111.427 201.152C111.427 201.152 124.479 206.525 130.809 220.003" stroke="#011635" stroke-width="1.5" stroke-miterlimit="10" stroke-linecap="round" stroke-linejoin="round"/>
<path d="M231.243 162.24C231.243 162.24 225.243 172.706 231.243 190.826" stroke="#011635" stroke-width="1.5" stroke-miterlimit="10" stroke-linecap="round" stroke-linejoin="round"/>
<path d="M169.906 184.823H517.595C524.226 184.823 529.596 190.196 529.596 196.83V427.714C529.596 434.348 524.226 439.721 517.595 439.721H169.906C163.275 439.721 157.904 434.348 157.904 427.714V196.83C157.904 190.196 163.285 184.823 169.906 184.823Z" fill="#011635" stroke="#011635" stroke-width="1.5" stroke-miterlimit="10" stroke-linecap="round" stroke-linejoin="round"/>
<path d="M162.104 184.823H509.793C516.424 184.823 521.795 190.196 521.795 196.83V427.714C521.795 434.348 516.424 439.721 509.793 439.721H162.104C155.473 439.721 150.103 434.348 150.103 427.714V196.83C150.103 190.196 155.473 184.823 162.104 184.823Z" fill="white" stroke="#011635" stroke-width="1.5" stroke-miterlimit="10" stroke-linecap="round" stroke-linejoin="round"/>
<path d="M162.104 439.711H509.793C516.424 439.711 521.795 434.338 521.795 427.704V415.467H150.103V427.704C150.103 434.338 155.473 439.711 162.104 439.711Z" fill="#F4DC90" stroke="#011635" stroke-width="1.5" stroke-miterlimit="10" stroke-linecap="round" stroke-linejoin="round"/>
<path d="M341.86 427.595C341.86 424.323 339.209 421.681 335.949 421.681C332.678 421.681 330.038 424.333 330.038 427.595C330.038 430.867 332.688 433.508 335.949 433.508C339.219 433.508 341.86 430.857 341.86 427.595Z" fill="#D0D0D6" stroke="#011635" stroke-width="1.5" stroke-miterlimit="10" stroke-linecap="round" stroke-linejoin="round"/>
<path d="M509.793 184.823H162.104C155.473 184.823 150.103 190.196 150.103 196.83H521.795C521.795 190.196 516.424 184.823 509.793 184.823Z" fill="#F4DC90" stroke="#011635" stroke-width="1.5" stroke-miterlimit="10" stroke-linecap="round" stroke-linejoin="round"/>
<path d="M309.265 216.842H174.876V308.165H309.265V216.842Z" fill="#F9CAD2"/>
<path d="M309.265 304.893H174.876V308.165H309.265V304.893Z" fill="#F99AAA"/>
<path d="M187.366 223.175H181.206V229.339H187.366V223.175Z" stroke="#011635" stroke-width="1.5" stroke-miterlimit="10" stroke-linecap="round" stroke-linejoin="round"/>
<path d="M199.699 229.349H193.539" stroke="#011635" stroke-width="1.5" stroke-miterlimit="10" stroke-linecap="round" stroke-linejoin="round"/>
<path d="M197.689 282.29L215.782 247.24L233.454 273.885L254.317 252.853L267.709 268.552L288.942 278.728" stroke="#011635" stroke-width="1.5" stroke-miterlimit="10" stroke-linecap="round" stroke-linejoin="round"/>
<path d="M199.899 282.29C199.899 281.069 198.909 280.079 197.689 280.079C196.469 280.079 195.479 281.069 195.479 282.29C195.479 283.511 196.469 284.501 197.689 284.501C198.909 284.501 199.899 283.511 199.899 282.29Z" fill="white" stroke="#011635" stroke-width="1.5" stroke-miterlimit="10" stroke-linecap="round" stroke-linejoin="round"/>
<path d="M256.527 252.853C256.527 251.632 255.537 250.642 254.317 250.642C253.097 250.642 252.107 251.632 252.107 252.853C252.107 254.074 253.097 255.064 254.317 255.064C255.537 255.064 256.527 254.084 256.527 252.853Z" fill="white" stroke="#011635" stroke-width="1.5" stroke-miterlimit="10" stroke-linecap="round" stroke-linejoin="round"/>
<path d="M233.454 276.096C234.675 276.096 235.664 275.106 235.664 273.885C235.664 272.664 234.675 271.674 233.454 271.674C232.234 271.674 231.244 272.664 231.244 273.885C231.244 275.106 232.234 276.096 233.454 276.096Z" fill="white" stroke="#011635" stroke-width="1.5" stroke-miterlimit="10" stroke-linecap="round" stroke-linejoin="round"/>
<path d="M269.919 268.552C269.919 267.331 268.929 266.341 267.709 266.341C266.489 266.341 265.499 267.331 265.499 268.552C265.499 269.773 266.489 270.763 267.709 270.763C268.929 270.763 269.919 269.773 269.919 268.552Z" fill="white" stroke="#011635" stroke-width="1.5" stroke-miterlimit="10" stroke-linecap="round" stroke-linejoin="round"/>
<path d="M217.992 247.24C217.992 246.019 217.002 245.028 215.782 245.028C214.562 245.028 213.572 246.019 213.572 247.24C213.572 248.46 214.562 249.451 215.782 249.451C217.002 249.451 217.992 248.46 217.992 247.24Z" fill="white" stroke="#011635" stroke-width="1.5" stroke-miterlimit="10" stroke-linecap="round" stroke-linejoin="round"/>
<path d="M291.152 278.728C291.152 277.507 290.162 276.517 288.942 276.517C287.722 276.517 286.732 277.507 286.732 278.728C286.732 279.949 287.722 280.939 288.942 280.939C290.162 280.939 291.152 279.949 291.152 278.728Z" fill="white" stroke="#011635" stroke-width="1.5" stroke-miterlimit="10" stroke-linecap="round" stroke-linejoin="round"/>
<path d="M197.689 293.417H288.942" stroke="#011635" stroke-width="1.5" stroke-miterlimit="10" stroke-linecap="round" stroke-linejoin="round"/>
<path d="M302.524 223.175H267.489V229.339H302.524V223.175Z" fill="white"/>
<path d="M302.524 232.281H284.652V238.444H302.524V232.281Z" fill="#8791FF"/>
<path d="M309.265 316.37H174.876V395.456H309.265V316.37Z" fill="#F9CAD2"/>
<path d="M309.265 392.184H174.876V395.456H309.265V392.184Z" fill="#F99AAA"/>
<path d="M187.366 322.703H181.206V328.867H187.366V322.703Z" stroke="#011635" stroke-width="1.5" stroke-miterlimit="10" stroke-linecap="round" stroke-linejoin="round"/>
<path d="M199.699 328.877H193.539" stroke="#011635" stroke-width="1.5" stroke-miterlimit="10" stroke-linecap="round" stroke-linejoin="round"/>
<path d="M302.524 337.142H187.378V341.564H302.524V337.142Z" fill="#8791FF"/>
<path d="M302.524 347.608H187.378V352.03H302.524V347.608Z" fill="white"/>
<path d="M258.738 358.084H187.378V362.507H258.738V358.084Z" fill="white"/>
<path d="M239.005 368.56H187.378V372.983H239.005V368.56Z" fill="#8791FF"/>
<path d="M273.52 368.56H244.516V372.983H273.52V368.56Z" fill="#8791FF"/>
<path d="M218.782 379.026H187.378V383.448H218.782V379.026Z" fill="white"/>
<path d="M497.031 216.842H323.467V239.455H497.031V216.842Z" fill="#F9CAD2"/>
<path d="M497.031 239.455H323.467V242.727H497.031V239.455Z" fill="#F99AAA"/>
<path d="M329.797 223.176H335.967" stroke="#011635" stroke-width="1.5" stroke-miterlimit="10" stroke-linecap="round" stroke-linejoin="round"/>
<path d="M342.129 223.176H348.299" stroke="#011635" stroke-width="1.5" stroke-miterlimit="10" stroke-linecap="round" stroke-linejoin="round"/>
<path d="M335.957 220.784H329.797V223.176H335.957V220.784Z" stroke="#011635" stroke-width="1.5" stroke-miterlimit="10" stroke-linecap="round" stroke-linejoin="round"/>
<path d="M397.617 228.588H335.969V233.011H397.617V228.588Z" fill="#8791FF"/>
<path d="M427.252 228.588H401.378V233.011H427.252V228.588Z" fill="white"/>
<path d="M497.031 247.31H323.467V269.923H497.031V247.31Z" fill="#F9CAD2"/>
<path d="M497.031 269.923H323.467V273.195H497.031V269.923Z" fill="#F99AAA"/>
<path d="M329.797 253.644H335.967" stroke="#011635" stroke-width="1.5" stroke-miterlimit="10" stroke-linecap="round" stroke-linejoin="round"/>
<path d="M342.129 253.644H348.299" stroke="#011635" stroke-width="1.5" stroke-miterlimit="10" stroke-linecap="round" stroke-linejoin="round"/>
<path d="M335.957 251.252H329.797V253.643H335.957V251.252Z" stroke="#011635" stroke-width="1.5" stroke-miterlimit="10" stroke-linecap="round" stroke-linejoin="round"/>
<path d="M364.153 259.057H335.969V263.479H364.153V259.057Z" fill="#8791FF"/>
<path d="M480.919 259.057H398.618V263.479H480.919V259.057Z" fill="#8791FF"/>
<path d="M394.707 259.057H368.833V263.479H394.707V259.057Z" fill="white"/>
<path d="M497.031 277.777H323.467V300.39H497.031V277.777Z" fill="#F9CAD2"/>
<path d="M497.031 300.39H323.467V303.662H497.031V300.39Z" fill="#F99AAA"/>
<path d="M329.797 284.121H335.967" stroke="#011635" stroke-width="1.5" stroke-miterlimit="10" stroke-linecap="round" stroke-linejoin="round"/>
<path d="M342.129 284.121H348.299" stroke="#011635" stroke-width="1.5" stroke-miterlimit="10" stroke-linecap="round" stroke-linejoin="round"/>
<path d="M335.957 281.729H329.797V284.12H335.957V281.729Z" stroke="#011635" stroke-width="1.5" stroke-miterlimit="10" stroke-linecap="round" stroke-linejoin="round"/>
<path d="M397.617 289.524H335.969V293.947H397.617V289.524Z" fill="#8791FF"/>
<path d="M497.031 308.245H323.467V330.858H497.031V308.245Z" fill="#F9CAD2"/>
<path d="M497.031 330.858H323.467V334.13H497.031V330.858Z" fill="#F99AAA"/>
<path d="M329.797 314.588H335.967" stroke="#011635" stroke-width="1.5" stroke-miterlimit="10" stroke-linecap="round" stroke-linejoin="round"/>
<path d="M342.129 314.588H348.299" stroke="#011635" stroke-width="1.5" stroke-miterlimit="10" stroke-linecap="round" stroke-linejoin="round"/>
<path d="M335.957 312.197H329.797V314.588H335.957V312.197Z" stroke="#011635" stroke-width="1.5" stroke-miterlimit="10" stroke-linecap="round" stroke-linejoin="round"/>
<path d="M379.155 319.992H335.969V324.414H379.155V319.992Z" fill="#8791FF"/>
<path d="M456.856 319.992H384.156V324.414H456.856V319.992Z" fill="white"/>
<path d="M474.288 319.992H462.316V324.414H474.288V319.992Z" fill="white"/>
<path d="M497.031 343.795H323.467V395.455H497.031V343.795Z" fill="#F9CAD2"/>
<path d="M497.031 392.184H323.467V395.456H497.031V392.184Z" fill="#F99AAA"/>
<path d="M335.958 350.139H329.798V356.303H335.958V350.139Z" stroke="#011635" stroke-width="1.5" stroke-miterlimit="10" stroke-linecap="round" stroke-linejoin="round"/>
<path d="M348.299 356.303H342.129" stroke="#011635" stroke-width="1.5" stroke-miterlimit="10" stroke-linecap="round" stroke-linejoin="round"/>
<path d="M381.295 357.163H356.372V382.098H381.295V357.163Z" fill="#8791FF"/>
<path d="M362.662 375.804L375.013 363.447" stroke="#011635" stroke-width="1.5" stroke-miterlimit="10" stroke-linecap="round" stroke-linejoin="round"/>
<path d="M375.013 375.804L362.662 363.447" stroke="#011635" stroke-width="1.5" stroke-miterlimit="10" stroke-linecap="round" stroke-linejoin="round"/>
<path d="M415.32 357.163H390.396V382.098H415.32V357.163Z" fill="#8791FF"/>
<path d="M396.687 375.804L409.028 363.447" stroke="#011635" stroke-width="1.5" stroke-miterlimit="10" stroke-linecap="round" stroke-linejoin="round"/>
<path d="M449.335 357.163H424.411V382.098H449.335V357.163Z" fill="#8791FF"/>
<path d="M443.034 364.027H431.852V375.214H443.034V364.027Z" stroke="#011635" stroke-width="1.5" stroke-miterlimit="10" stroke-linecap="round" stroke-linejoin="round"/>
<path d="M483.36 357.163H458.436V382.098H483.36V357.163Z" fill="#8791FF"/>
<g opacity="0.45">
<path opacity="0.45" d="M599.706 486.018H455.275C451.295 486.018 448.074 482.796 448.074 478.814V334.32C448.074 330.338 451.295 327.116 455.275 327.116H599.706C603.686 327.116 606.907 330.338 606.907 334.32V478.814C606.907 482.796 603.686 486.018 599.706 486.018Z" fill="#8791FF"/>
<path opacity="0.45" d="M599.706 486.018H455.275C451.295 486.018 448.074 482.796 448.074 478.814V334.32C448.074 330.338 451.295 327.116 455.275 327.116H599.706C603.686 327.116 606.907 330.338 606.907 334.32V478.814C606.907 482.796 603.686 486.018 599.706 486.018Z" stroke="#8791FF" stroke-width="1.5" stroke-miterlimit="10" stroke-linecap="round" stroke-linejoin="round"/>
</g>
<path d="M592.705 479.014H448.274C444.294 479.014 441.073 475.792 441.073 471.81V327.316C441.073 323.334 444.294 320.112 448.274 320.112H592.705C596.685 320.112 599.906 323.334 599.906 327.316V471.81C599.906 475.792 596.685 479.014 592.705 479.014Z" fill="white"/>
<path d="M592.705 479.014H448.274C444.294 479.014 441.073 475.792 441.073 471.81V327.316C441.073 323.334 444.294 320.112 448.274 320.112H592.705C596.685 320.112 599.906 323.334 599.906 327.316V471.81C599.906 475.792 596.685 479.014 592.705 479.014Z" stroke="#011635" stroke-width="1.5" stroke-miterlimit="10" stroke-linecap="round" stroke-linejoin="round"/>
<path d="M450.415 334.43L456.095 328.747" stroke="#011635" stroke-width="1.5" stroke-miterlimit="10" stroke-linecap="round" stroke-linejoin="round"/>
<path d="M450.415 328.747L456.095 334.43" stroke="#011635" stroke-width="1.5" stroke-miterlimit="10" stroke-linecap="round" stroke-linejoin="round"/>
<path d="M472.017 373.403C465.346 373.403 459.945 378.816 459.945 385.48V388.402H484.089V385.48C484.099 378.806 478.688 373.403 472.017 373.403Z" fill="#8791FF"/>
<path d="M478.879 364.138C478.879 360.355 475.808 357.284 472.028 357.284C468.247 357.284 465.177 360.355 465.177 364.138C465.177 367.92 468.247 370.992 472.028 370.992C475.808 370.992 478.879 367.92 478.879 364.138Z" fill="#8791FF"/>
<path d="M487.95 346.017H456.095V388.412H487.95V346.017Z" stroke="#011635" stroke-width="1.5" stroke-miterlimit="10" stroke-linecap="round" stroke-linejoin="round"/>
<path d="M495.847 379.299H530.882V373.135H495.847V379.299Z" fill="#8791FF"/>
<path d="M495.848 388.402H513.72V382.238H495.848V388.402Z" fill="#8791FF"/>
<path d="M584.894 384.64C584.894 382.558 583.213 380.877 581.133 380.877C579.053 380.877 577.373 382.558 577.373 384.64C577.373 386.721 579.053 388.402 581.133 388.402C583.203 388.402 584.894 386.721 584.894 384.64Z" stroke="#011635" stroke-width="1.5" stroke-miterlimit="10" stroke-linecap="round" stroke-linejoin="round"/>
<path d="M584.893 398.277H456.095V423.612H584.893V398.277Z" fill="#F9CAD2"/>
<path d="M578.061 404.011H462.915V408.433H578.061V404.011Z" fill="#8791FF"/>
<path d="M506.441 414.487H462.915V418.909H506.441V414.487Z" fill="white"/>
<path d="M584.893 433.478H456.095V458.812H584.893V433.478Z" fill="#F9CAD2"/>
<path d="M515.602 439.221H462.915V443.643H515.602V439.221Z" fill="#8791FF"/>
<path d="M578.072 439.221H519.504V443.643H578.072V439.221Z" fill="white"/>
<path d="M528.995 449.697H486.929V454.119H528.995V449.697Z" fill="white"/>
<path d="M483.038 449.697H462.915V454.119H483.038V449.697Z" fill="white"/>
<path d="M446.823 404.08C431.521 404.08 432.341 391.233 415.399 391.233C410.838 391.233 407.148 387.531 407.148 382.978V379.686" stroke="#011635" stroke-width="1.5" stroke-miterlimit="10" stroke-linecap="round" stroke-linejoin="round"/>
<path d="M452.504 404.08C452.504 402.51 451.234 401.239 449.664 401.239C448.094 401.239 446.824 402.51 446.824 404.08C446.824 405.651 448.094 406.922 449.664 406.922C451.234 406.922 452.504 405.651 452.504 404.08Z" fill="#011635" stroke="#011635" stroke-width="1.5" stroke-miterlimit="10" stroke-linecap="round" stroke-linejoin="round"/>
<path d="M409.988 376.845C409.988 375.274 408.718 374.003 407.148 374.003C405.578 374.003 404.308 375.274 404.308 376.845C404.308 378.416 405.578 379.686 407.148 379.686C408.718 379.686 409.988 378.406 409.988 376.845Z" fill="#011635" stroke="#011635" stroke-width="1.5" stroke-miterlimit="10" stroke-linecap="round" stroke-linejoin="round"/>
<g opacity="0.45">
<path opacity="0.45" d="M620.879 309.796H524.365C520.385 309.796 517.164 306.574 517.164 302.591V206.035C517.164 202.053 520.385 198.831 524.365 198.831H620.879C624.859 198.831 628.08 202.053 628.08 206.035V302.591C628.08 306.574 624.849 309.796 620.879 309.796Z" fill="#8791FF"/>
<path opacity="0.45" d="M620.879 309.796H524.365C520.385 309.796 517.164 306.574 517.164 302.591V206.035C517.164 202.053 520.385 198.831 524.365 198.831H620.879C624.859 198.831 628.08 202.053 628.08 206.035V302.591C628.08 306.574 624.849 309.796 620.879 309.796Z" stroke="#8791FF" stroke-width="1.5" stroke-miterlimit="10" stroke-linecap="round" stroke-linejoin="round"/>
</g>
<path d="M613.688 303.162H517.174C513.194 303.162 509.973 299.94 509.973 295.958V199.401C509.973 195.419 513.194 192.197 517.174 192.197H613.688C617.668 192.197 620.889 195.419 620.889 199.401V295.958C620.889 299.94 617.658 303.162 613.688 303.162Z" fill="white"/>
<path d="M572.981 232.779V251.783C572.981 254.804 572.011 257.199 570.071 258.97C568.144 260.728 565.572 261.607 562.356 261.607C559.101 261.607 556.516 260.741 554.602 259.009C552.688 257.264 551.731 254.849 551.731 251.763V232.779H556.653V251.802C556.653 253.703 557.135 255.155 558.098 256.158C559.062 257.16 560.481 257.662 562.356 257.662C566.158 257.662 568.059 255.656 568.059 251.646V232.779H572.981ZM583.489 261.216H578.567V232.779H583.489V261.216Z" fill="#111112"/>
<path d="M613.878 302.792H517.364C513.384 302.792 510.163 299.57 510.163 295.587V199.031C510.163 195.049 513.384 191.827 517.364 191.827H613.878C617.858 191.827 621.079 195.049 621.079 199.031V295.587C621.079 299.57 617.848 302.792 613.878 302.792Z" stroke="#011635" stroke-width="1.5" stroke-miterlimit="10" stroke-linecap="round" stroke-linejoin="round"/>
<path d="M519.495 206.145L525.175 200.462" stroke="#011635" stroke-width="1.5" stroke-miterlimit="10" stroke-linecap="round" stroke-linejoin="round"/>
<path d="M519.495 200.462L525.175 206.145" stroke="#011635" stroke-width="1.5" stroke-miterlimit="10" stroke-linecap="round" stroke-linejoin="round"/>
<path d="M486.229 222.936C503.171 222.936 502.351 235.783 517.653 235.783" stroke="#011635" stroke-width="1.5" stroke-miterlimit="10" stroke-linecap="round" stroke-linejoin="round"/>
<path d="M523.334 235.783C523.334 234.212 522.064 232.941 520.494 232.941C518.924 232.941 517.654 234.212 517.654 235.783C517.654 237.354 518.924 238.625 520.494 238.625C522.064 238.625 523.334 237.354 523.334 235.783Z" fill="#011635" stroke="#011635" stroke-width="1.5" stroke-miterlimit="10" stroke-linecap="round" stroke-linejoin="round"/>
<path d="M486.229 222.935C486.229 221.364 484.959 220.094 483.389 220.094C481.819 220.094 480.549 221.364 480.549 222.935C480.549 224.506 481.819 225.777 483.389 225.777C484.959 225.777 486.229 224.506 486.229 222.935Z" fill="#011635" stroke="#011635" stroke-width="1.5" stroke-miterlimit="10" stroke-linecap="round" stroke-linejoin="round"/>
<path d="M523.334 253.403C523.334 251.832 522.064 250.562 520.494 250.562C518.924 250.562 517.654 251.832 517.654 253.403C517.654 254.974 518.924 256.245 520.494 256.245C522.064 256.245 523.334 254.974 523.334 253.403Z" fill="#011635" stroke="#011635" stroke-width="1.5" stroke-miterlimit="10" stroke-linecap="round" stroke-linejoin="round"/>
<path d="M486.229 253.403C486.229 251.832 484.959 250.562 483.389 250.562C481.819 250.562 480.549 251.832 480.549 253.403C480.549 254.974 481.819 256.245 483.389 256.245C484.959 256.245 486.229 254.974 486.229 253.403Z" fill="#011635" stroke="#011635" stroke-width="1.5" stroke-miterlimit="10" stroke-linecap="round" stroke-linejoin="round"/>
<path d="M486.229 253.403H517.653" stroke="#011635" stroke-width="1.5" stroke-miterlimit="10" stroke-linecap="round" stroke-linejoin="round"/>
<path d="M486.229 283.881C503.171 283.881 502.351 271.033 517.653 271.033" stroke="#011635" stroke-width="1.5" stroke-miterlimit="10" stroke-linecap="round" stroke-linejoin="round"/>
<path d="M523.334 271.023C523.334 272.594 522.064 273.865 520.494 273.865C518.924 273.865 517.654 272.594 517.654 271.023C517.654 269.452 518.924 268.182 520.494 268.182C522.064 268.182 523.334 269.452 523.334 271.023Z" fill="#011635" stroke="#011635" stroke-width="1.5" stroke-miterlimit="10" stroke-linecap="round" stroke-linejoin="round"/>
<path d="M486.229 283.881C486.229 285.452 484.959 286.722 483.389 286.722C481.819 286.722 480.549 285.452 480.549 283.881C480.549 282.31 481.819 281.039 483.389 281.039C484.959 281.029 486.229 282.31 486.229 283.881Z" fill="#011635" stroke="#011635" stroke-width="1.5" stroke-miterlimit="10" stroke-linecap="round" stroke-linejoin="round"/>
<g opacity="0.45">
<path opacity="0.45" d="M323.776 499.406H212.17C208.19 499.406 204.969 496.184 204.969 492.202V438.28C204.969 434.298 208.19 431.076 212.17 431.076H323.776C327.757 431.076 330.977 434.298 330.977 438.28V492.202C330.977 496.184 327.757 499.406 323.776 499.406Z" fill="#8791FF"/>
<path opacity="0.45" d="M323.776 499.406H212.17C208.19 499.406 204.969 496.184 204.969 492.202V438.28C204.969 434.298 208.19 431.076 212.17 431.076H323.776C327.757 431.076 330.977 434.298 330.977 438.28V492.202C330.977 496.184 327.757 499.406 323.776 499.406Z" stroke="#8791FF" stroke-width="1.5" stroke-miterlimit="10" stroke-linecap="round" stroke-linejoin="round"/>
</g>
<path d="M316.776 492.402H205.17C201.19 492.402 197.969 489.18 197.969 485.198V431.276C197.969 427.294 201.19 424.072 205.17 424.072H316.776C320.757 424.072 323.977 427.294 323.977 431.276V485.198C323.977 489.18 320.757 492.402 316.776 492.402Z" fill="white"/>
<path d="M258.927 447.903V466.907C258.927 469.928 257.956 472.324 256.016 474.095C254.089 475.853 251.518 476.731 248.302 476.731C245.046 476.731 242.462 475.866 240.548 474.134C238.634 472.389 237.677 469.974 237.677 466.888V447.903H242.598V466.927C242.598 468.828 243.08 470.28 244.044 471.282C245.007 472.285 246.427 472.786 248.302 472.786C252.104 472.786 254.005 470.781 254.005 466.771V447.903H258.927ZM274.005 458.177L279.981 447.903H285.684L277.091 462.005L285.88 476.341H280.118L274.005 465.911L267.872 476.341H262.13L270.938 462.005L262.325 447.903H268.028L274.005 458.177Z" fill="#111112"/>
<path d="M316.776 492.402H205.17C201.19 492.402 197.969 489.18 197.969 485.198V431.276C197.969 427.294 201.19 424.072 205.17 424.072H316.776C320.757 424.072 323.977 427.294 323.977 431.276V485.198C323.977 489.18 320.757 492.402 316.776 492.402Z" stroke="#011635" stroke-width="1.5" stroke-miterlimit="10" stroke-linecap="round" stroke-linejoin="round"/>
<path d="M207.311 438.401L212.991 432.717" stroke="#011635" stroke-width="1.5" stroke-miterlimit="10" stroke-linecap="round" stroke-linejoin="round"/>
<path d="M207.311 432.717L212.991 438.401" stroke="#011635" stroke-width="1.5" stroke-miterlimit="10" stroke-linecap="round" stroke-linejoin="round"/>
<path d="M261.318 427.824C261.318 412.516 248.476 413.336 248.476 396.386C248.476 391.823 244.775 388.131 240.225 388.131H236.934" stroke="#011635" stroke-width="1.5" stroke-miterlimit="10" stroke-linecap="round" stroke-linejoin="round"/>
<path d="M261.318 433.508C259.748 433.508 258.478 432.237 258.478 430.666C258.478 429.095 259.748 427.824 261.318 427.824C262.888 427.824 264.158 429.095 264.158 430.666C264.158 432.237 262.888 433.508 261.318 433.508Z" fill="#011635" stroke="#011635" stroke-width="1.5" stroke-miterlimit="10" stroke-linecap="round" stroke-linejoin="round"/>
<path d="M234.084 390.973C232.514 390.973 231.244 389.702 231.244 388.131C231.244 386.56 232.514 385.29 234.084 385.29C235.654 385.29 236.924 386.56 236.924 388.131C236.924 389.702 235.654 390.973 234.084 390.973Z" fill="#011635" stroke="#011635" stroke-width="1.5" stroke-miterlimit="10" stroke-linecap="round" stroke-linejoin="round"/>
<g opacity="0.45">
<path opacity="0.45" d="M417.83 511.083H358.771C354.791 511.083 351.57 507.861 351.57 503.879V471.82C351.57 467.838 354.791 464.616 358.771 464.616H417.83C421.81 464.616 425.031 467.838 425.031 471.82V503.879C425.031 507.861 421.81 511.083 417.83 511.083Z" fill="#8791FF"/>
<path opacity="0.45" d="M417.83 511.083H358.771C354.791 511.083 351.57 507.861 351.57 503.879V471.82C351.57 467.838 354.791 464.616 358.771 464.616H417.83C421.81 464.616 425.031 467.838 425.031 471.82V503.879C425.031 507.861 421.81 511.083 417.83 511.083Z" stroke="#8791FF" stroke-width="1.5" stroke-miterlimit="10" stroke-linecap="round" stroke-linejoin="round"/>
</g>
<path d="M410.83 504.079H351.771C347.791 504.079 344.57 500.857 344.57 496.875V464.816C344.57 460.834 347.791 457.612 351.771 457.612H410.83C414.81 457.612 418.031 460.834 418.031 464.816V496.875C418.031 500.857 414.81 504.079 410.83 504.079Z" fill="white"/>
<path d="M410.83 504.079H351.771C347.791 504.079 344.57 500.857 344.57 496.875V464.816C344.57 460.834 347.791 457.612 351.771 457.612H410.83C414.81 457.612 418.031 460.834 418.031 464.816V496.875C418.031 500.857 414.81 504.079 410.83 504.079Z" stroke="#011635" stroke-width="1.5" stroke-miterlimit="10" stroke-linecap="round" stroke-linejoin="round"/>
<path d="M353.912 471.94L359.592 466.257" stroke="#011635" stroke-width="1.5" stroke-miterlimit="10" stroke-linecap="round" stroke-linejoin="round"/>
<path d="M353.912 466.257L359.592 471.94" stroke="#011635" stroke-width="1.5" stroke-miterlimit="10" stroke-linecap="round" stroke-linejoin="round"/>
<path d="M371.453 490.691C371.453 489.22 370.263 488.029 368.793 488.029C367.323 488.029 366.133 489.22 366.133 490.691C366.133 492.162 367.323 493.352 368.793 493.352C370.263 493.352 371.453 492.172 371.453 490.691Z" fill="#011635" stroke="#011635" stroke-width="1.5" stroke-miterlimit="10" stroke-linecap="round" stroke-linejoin="round"/>
<path d="M399.297 470.999C399.297 469.529 398.107 468.338 396.637 468.338C395.167 468.338 393.977 469.529 393.977 470.999C393.977 472.47 395.167 473.661 396.637 473.661C398.107 473.671 399.297 472.47 399.297 470.999Z" fill="#011635" stroke="#011635" stroke-width="1.5" stroke-miterlimit="10" stroke-linecap="round" stroke-linejoin="round"/>
<path d="M368.783 490.691C368.783 490.691 391.977 496.825 396.627 471" stroke="#011635" stroke-width="1.5" stroke-miterlimit="10" stroke-linecap="round" stroke-linejoin="round"/>
<path d="M316.936 470.82C333.878 470.82 333.058 483.667 348.36 483.667" stroke="#011635" stroke-width="1.5" stroke-miterlimit="10" stroke-linecap="round" stroke-linejoin="round"/>
<path d="M354.051 483.667C354.051 482.096 352.781 480.826 351.211 480.826C349.641 480.826 348.371 482.096 348.371 483.667C348.371 485.238 349.641 486.509 351.211 486.509C352.771 486.519 354.051 485.238 354.051 483.667Z" fill="#011635" stroke="#011635" stroke-width="1.5" stroke-miterlimit="10" stroke-linecap="round" stroke-linejoin="round"/>
<path d="M316.935 470.82C316.935 469.249 315.665 467.978 314.095 467.978C312.525 467.978 311.255 469.249 311.255 470.82C311.255 472.391 312.525 473.661 314.095 473.661C315.665 473.671 316.935 472.391 316.935 470.82Z" fill="#011635" stroke="#011635" stroke-width="1.5" stroke-miterlimit="10" stroke-linecap="round" stroke-linejoin="round"/>
<g opacity="0.45">
<path opacity="0.45" d="M162.743 451.948H108.456C104.225 451.948 100.794 448.516 100.794 444.284V347.808C100.794 343.575 104.225 340.143 108.456 340.143H162.743C166.974 340.143 170.404 343.575 170.404 347.808V444.284C170.404 448.516 166.974 451.948 162.743 451.948Z" fill="#8791FF"/>
<path opacity="0.45" d="M162.743 451.948H108.456C104.225 451.948 100.794 448.516 100.794 444.284V347.808C100.794 343.575 104.225 340.143 108.456 340.143H162.743C166.974 340.143 170.404 343.575 170.404 347.808V444.284C170.404 448.516 166.974 451.948 162.743 451.948Z" stroke="#8791FF" stroke-width="1.5" stroke-miterlimit="10" stroke-linecap="round" stroke-linejoin="round"/>
</g>
<path d="M155.743 444.944H101.456C97.2249 444.944 93.7944 441.512 93.7944 437.28V340.804C93.7944 336.571 97.2249 333.139 101.456 333.139H155.743C159.974 333.139 163.404 336.571 163.404 340.804V437.28C163.404 441.512 159.974 444.944 155.743 444.944Z" fill="white"/>
<path d="M155.743 444.944H101.456C97.2249 444.944 93.7944 441.512 93.7944 437.28V340.804C93.7944 336.571 97.2249 333.139 101.456 333.139H155.743C159.974 333.139 163.404 336.571 163.404 340.804V437.28C163.404 441.512 159.974 444.944 155.743 444.944Z" stroke="#011635" stroke-width="1.5" stroke-miterlimit="10" stroke-linecap="round" stroke-linejoin="round"/>
<path d="M103.126 347.458L108.806 341.774" stroke="#011635" stroke-width="1.5" stroke-miterlimit="10" stroke-linecap="round" stroke-linejoin="round"/>
<path d="M103.126 341.774L108.806 347.458" stroke="#011635" stroke-width="1.5" stroke-miterlimit="10" stroke-linecap="round" stroke-linejoin="round"/>
<path d="M151.912 375.014C151.902 374.814 151.812 374.623 151.662 374.493C151.512 374.363 151.322 374.283 151.122 374.303C136.71 375.154 129.319 362.276 129.249 362.146C128.979 361.676 128.209 361.676 127.939 362.146C127.869 362.276 120.458 375.154 106.066 374.303C105.866 374.293 105.666 374.363 105.526 374.493C105.376 374.623 105.286 374.814 105.276 375.014C105.256 375.354 103.946 409.454 128.479 413.276C128.519 413.286 128.559 413.286 128.599 413.286C128.639 413.286 128.679 413.286 128.719 413.276C153.243 409.464 151.932 375.354 151.912 375.014Z" fill="#8791FF"/>
<path d="M187.207 348.858C170.265 348.858 171.085 361.706 155.783 361.706" stroke="#011635" stroke-width="1.5" stroke-miterlimit="10" stroke-linecap="round" stroke-linejoin="round"/>
<path d="M150.103 361.706C150.103 360.135 151.373 358.864 152.943 358.864C154.513 358.864 155.783 360.135 155.783 361.706C155.783 363.277 154.513 364.548 152.943 364.548C151.373 364.548 150.103 363.277 150.103 361.706Z" fill="#011635" stroke="#011635" stroke-width="1.5" stroke-miterlimit="10" stroke-linecap="round" stroke-linejoin="round"/>
<path d="M187.208 348.858C187.208 347.287 188.478 346.017 190.048 346.017C191.618 346.017 192.888 347.287 192.888 348.858C192.888 350.429 191.618 351.7 190.048 351.7C188.488 351.7 187.208 350.429 187.208 348.858Z" fill="#011635" stroke="#011635" stroke-width="1.5" stroke-miterlimit="10" stroke-linecap="round" stroke-linejoin="round"/>
<g opacity="0.45">
<path opacity="0.45" d="M163.203 313.398H107.985C104.005 313.398 100.784 310.176 100.784 306.194V225.577C100.784 221.594 104.005 218.373 107.985 218.373H163.203C167.184 218.373 170.404 221.594 170.404 225.577V306.194C170.404 310.176 167.184 313.398 163.203 313.398Z" fill="#8791FF"/>
<path opacity="0.45" d="M163.203 313.398H107.985C104.005 313.398 100.784 310.176 100.784 306.194V225.577C100.784 221.594 104.005 218.373 107.985 218.373H163.203C167.184 218.373 170.404 221.594 170.404 225.577V306.194C170.404 310.176 167.184 313.398 163.203 313.398Z" stroke="#8791FF" stroke-width="1.5" stroke-miterlimit="10" stroke-linecap="round" stroke-linejoin="round"/>
</g>
<path d="M156.203 306.394H100.985C97.0046 306.394 93.7842 303.172 93.7842 299.19V218.573C93.7842 214.591 97.0046 211.369 100.985 211.369H156.203C160.184 211.369 163.404 214.591 163.404 218.573V299.19C163.404 303.172 160.184 306.394 156.203 306.394Z" fill="white"/>
<path d="M156.203 306.394H100.985C97.0046 306.394 93.7842 303.172 93.7842 299.19V218.573C93.7842 214.591 97.0046 211.369 100.985 211.369H156.203C160.184 211.369 163.404 214.591 163.404 218.573V299.19C163.404 303.172 160.184 306.394 156.203 306.394Z" stroke="#011635" stroke-width="1.5" stroke-miterlimit="10" stroke-linecap="round" stroke-linejoin="round"/>
<path d="M103.125 225.687L108.805 220.004" stroke="#011635" stroke-width="1.5" stroke-miterlimit="10" stroke-linecap="round" stroke-linejoin="round"/>
<path d="M103.125 220.004L108.805 225.687" stroke="#011635" stroke-width="1.5" stroke-miterlimit="10" stroke-linecap="round" stroke-linejoin="round"/>
<path d="M105.603 256.26L116.607 260.707V264.152L102.228 257.49V254.924L116.607 248.279V251.725L105.603 256.26ZM122.39 269.777H119.595L130.283 241.986H133.06L122.39 269.777ZM148.089 256.154L136.47 251.602V248.262L151.482 254.906V257.473L136.47 264.135V260.76L148.089 256.154Z" fill="#011635"/>
<path d="M187.207 247.51C170.264 247.51 171.084 234.662 155.782 234.662" stroke="#011635" stroke-width="1.5" stroke-miterlimit="10" stroke-linecap="round" stroke-linejoin="round"/>
<path d="M150.102 234.662C150.102 236.233 151.372 237.504 152.942 237.504C154.512 237.504 155.782 236.233 155.782 234.662C155.782 233.091 154.512 231.82 152.942 231.82C151.372 231.82 150.102 233.091 150.102 234.662Z" fill="#011635" stroke="#011635" stroke-width="1.5" stroke-miterlimit="10" stroke-linecap="round" stroke-linejoin="round"/>
<path d="M187.208 247.51C187.208 249.081 188.478 250.351 190.048 250.351C191.618 250.351 192.888 249.081 192.888 247.51C192.888 245.939 191.618 244.668 190.048 244.668C188.488 244.668 187.208 245.939 187.208 247.51Z" fill="#011635" stroke="#011635" stroke-width="1.5" stroke-miterlimit="10" stroke-linecap="round" stroke-linejoin="round"/>
<g opacity="0.45">
<path opacity="0.45" d="M276.379 233.541H217.331C213.35 233.541 210.13 230.319 210.13 226.337V194.278C210.13 190.296 213.35 187.074 217.331 187.074H276.389C280.37 187.074 283.59 190.296 283.59 194.278V226.337C283.58 230.319 280.36 233.541 276.379 233.541Z" fill="#8791FF"/>
<path opacity="0.45" d="M276.379 233.541H217.331C213.35 233.541 210.13 230.319 210.13 226.337V194.278C210.13 190.296 213.35 187.074 217.331 187.074H276.389C280.37 187.074 283.59 190.296 283.59 194.278V226.337C283.58 230.319 280.36 233.541 276.379 233.541Z" stroke="#8791FF" stroke-width="1.5" stroke-miterlimit="10" stroke-linecap="round" stroke-linejoin="round"/>
</g>
<path d="M269.379 226.537H210.331C206.35 226.537 203.13 223.315 203.13 219.333V187.275C203.13 183.292 206.35 180.07 210.331 180.07H269.389C273.37 180.07 276.59 183.292 276.59 187.275V219.333C276.58 223.315 273.36 226.537 269.379 226.537Z" fill="white"/>
<path d="M269.379 226.537H210.331C206.35 226.537 203.13 223.315 203.13 219.333V187.275C203.13 183.292 206.35 180.07 210.331 180.07H269.389C273.37 180.07 276.59 183.292 276.59 187.275V219.333C276.58 223.315 273.36 226.537 269.379 226.537Z" stroke="#011635" stroke-width="1.5" stroke-miterlimit="10" stroke-linecap="round" stroke-linejoin="round"/>
<path d="M212.461 194.399L218.141 188.706" stroke="#011635" stroke-width="1.5" stroke-miterlimit="10" stroke-linecap="round" stroke-linejoin="round"/>
<path d="M212.461 188.706L218.141 194.399" stroke="#011635" stroke-width="1.5" stroke-miterlimit="10" stroke-linecap="round" stroke-linejoin="round"/>
<path d="M225.243 195.803H227.222V206.375C227.222 207.803 226.792 208.921 225.93 209.728C225.076 210.534 223.934 210.938 222.505 210.938C221.022 210.938 219.867 210.558 219.04 209.799C218.212 209.041 217.799 207.978 217.799 206.61H219.768C219.768 207.465 220 208.131 220.465 208.61C220.937 209.088 221.617 209.328 222.505 209.328C223.319 209.328 223.975 209.071 224.474 208.559C224.98 208.046 225.236 207.328 225.243 206.405V195.803ZM238.594 206.836H232.339L230.934 210.732H228.904L234.605 195.803H236.328L242.039 210.732H240.019L238.594 206.836ZM232.934 205.216H238.009L235.466 198.233L232.934 205.216ZM248.089 208.118L252.354 195.803H254.508L248.971 210.732H247.228L241.701 195.803H243.844L248.089 208.118ZM263.982 206.836H257.728L256.323 210.732H254.292L259.994 195.803H261.716L267.428 210.732H265.408L263.982 206.836ZM258.322 205.216H263.398L260.855 198.233L258.322 205.216Z" fill="#011635"/>
<g opacity="0.45">
<path opacity="0.45" d="M456.165 198.541H307.924C303.944 198.541 300.723 201.763 300.723 205.745V212.049C300.723 216.031 303.944 219.253 307.924 219.253H456.165C460.146 219.253 463.366 216.031 463.366 212.049V205.745C463.366 201.763 460.146 198.541 456.165 198.541Z" fill="#8791FF"/>
<path opacity="0.45" d="M456.165 198.541H307.924C303.944 198.541 300.723 201.763 300.723 205.745V212.049C300.723 216.031 303.944 219.253 307.924 219.253H456.165C460.146 219.253 463.366 216.031 463.366 212.049V205.745C463.366 201.763 460.146 198.541 456.165 198.541Z" stroke="#8791FF" stroke-width="1.5" stroke-miterlimit="10" stroke-linecap="round" stroke-linejoin="round"/>
</g>
<path d="M450.575 192.948H302.344C298.364 192.948 295.143 196.17 295.143 200.152V206.456C295.143 210.438 298.364 213.66 302.344 213.66H450.585C454.566 213.66 457.786 210.438 457.786 206.456V200.152C457.776 196.17 454.556 192.948 450.575 192.948Z" fill="white"/>
<path d="M450.575 192.948H302.344C298.364 192.948 295.143 196.17 295.143 200.152V206.456C295.143 210.438 298.364 213.66 302.344 213.66H450.585C454.566 213.66 457.786 210.438 457.786 206.456V200.152C457.776 196.17 454.556 192.948 450.575 192.948Z" stroke="#011635" stroke-width="1.5" stroke-miterlimit="10" stroke-linecap="round" stroke-linejoin="round"/>
<path d="M445.765 199.922H337.929C336.059 199.922 334.549 201.433 334.549 203.304C334.549 205.175 336.059 206.686 337.929 206.686H445.765C447.635 206.686 449.145 205.175 449.145 203.304C449.145 201.433 447.635 199.922 445.765 199.922Z" fill="#F9CAD2"/>
<path d="M424.721 199.922H337.919C336.049 199.922 334.539 201.433 334.539 203.304C334.539 205.175 336.049 206.686 337.919 206.686H424.721V199.922Z" fill="#8791FF"/>
<path d="M325.137 200.522H319.457V206.205H325.137V200.522Z" stroke="#011635" stroke-width="1.5" stroke-miterlimit="10" stroke-linecap="round" stroke-linejoin="round"/>
<g opacity="0.45">
<path opacity="0.45" d="M456.165 169.694H307.924C303.944 169.694 300.723 172.916 300.723 176.898V183.202C300.723 187.184 303.944 190.406 307.924 190.406H456.165C460.146 190.406 463.366 187.184 463.366 183.202V176.898C463.366 172.916 460.146 169.694 456.165 169.694Z" fill="#8791FF"/>
<path opacity="0.45" d="M456.165 169.694H307.924C303.944 169.694 300.723 172.916 300.723 176.898V183.202C300.723 187.184 303.944 190.406 307.924 190.406H456.165C460.146 190.406 463.366 187.184 463.366 183.202V176.898C463.366 172.916 460.146 169.694 456.165 169.694Z" stroke="#8791FF" stroke-width="1.5" stroke-miterlimit="10" stroke-linecap="round" stroke-linejoin="round"/>
</g>
<path d="M450.575 164.111H302.344C298.364 164.111 295.143 167.333 295.143 171.315V177.619C295.143 181.601 298.364 184.823 302.344 184.823H450.585C454.566 184.823 457.786 181.601 457.786 177.619V171.315C457.776 167.333 454.556 164.111 450.575 164.111Z" fill="white"/>
<path d="M450.575 164.111H302.344C298.364 164.111 295.143 167.333 295.143 171.315V177.619C295.143 181.601 298.364 184.823 302.344 184.823H450.585C454.566 184.823 457.786 181.601 457.786 177.619V171.315C457.776 167.333 454.556 164.111 450.575 164.111Z" stroke="#011635" stroke-width="1.5" stroke-miterlimit="10" stroke-linecap="round" stroke-linejoin="round"/>
<path d="M445.765 171.085H337.929C336.059 171.085 334.549 172.596 334.549 174.467C334.549 176.338 336.059 177.849 337.929 177.849H445.765C447.635 177.849 449.145 176.338 449.145 174.467C449.145 172.596 447.635 171.085 445.765 171.085Z" fill="#F9CAD2"/>
<path d="M362.182 171.085H337.919C336.049 171.085 334.539 172.596 334.539 174.467C334.539 176.338 336.049 177.849 337.919 177.849H362.182V171.085Z" fill="#8791FF"/>
<path d="M325.137 171.675H319.457V177.359H325.137V171.675Z" stroke="#011635" stroke-width="1.5" stroke-miterlimit="10" stroke-linecap="round" stroke-linejoin="round"/>
<g opacity="0.45">
<path opacity="0.45" d="M456.165 227.377H307.924C303.944 227.377 300.723 230.599 300.723 234.582V240.885C300.723 244.868 303.944 248.089 307.924 248.089H456.165C460.146 248.089 463.366 244.868 463.366 240.885V234.582C463.366 230.599 460.146 227.377 456.165 227.377Z" fill="#8791FF"/>
<path opacity="0.45" d="M456.165 227.377H307.924C303.944 227.377 300.723 230.599 300.723 234.582V240.885C300.723 244.868 303.944 248.089 307.924 248.089H456.165C460.146 248.089 463.366 244.868 463.366 240.885V234.582C463.366 230.599 460.146 227.377 456.165 227.377Z" stroke="#8791FF" stroke-width="1.5" stroke-miterlimit="10" stroke-linecap="round" stroke-linejoin="round"/>
</g>
<path d="M450.575 221.784H302.344C298.364 221.784 295.143 225.006 295.143 228.988V235.292C295.143 239.274 298.364 242.496 302.344 242.496H450.585C454.566 242.496 457.786 239.274 457.786 235.292V228.988C457.776 225.016 454.556 221.784 450.575 221.784Z" fill="white"/>
<path d="M450.575 221.784H302.344C298.364 221.784 295.143 225.006 295.143 228.988V235.292C295.143 239.274 298.364 242.496 302.344 242.496H450.585C454.566 242.496 457.786 239.274 457.786 235.292V228.988C457.776 225.016 454.556 221.784 450.575 221.784Z" stroke="#011635" stroke-width="1.5" stroke-miterlimit="10" stroke-linecap="round" stroke-linejoin="round"/>
<path d="M445.765 228.758H337.929C336.059 228.758 334.549 230.269 334.549 232.14C334.549 234.011 336.059 235.522 337.929 235.522H445.765C447.635 235.522 449.145 234.011 449.145 232.14C449.145 230.279 447.635 228.758 445.765 228.758Z" fill="#F9CAD2"/>
<path d="M441.664 228.758H337.929C336.059 228.758 334.549 230.269 334.549 232.14C334.549 234.011 336.059 235.522 337.929 235.522H441.664V228.758Z" fill="#8791FF"/>
<path d="M325.137 229.358H319.457V235.042H325.137V229.358Z" stroke="#011635" stroke-width="1.5" stroke-miterlimit="10" stroke-linecap="round" stroke-linejoin="round"/>
<path d="M301.953 175.518C285.01 175.518 285.83 188.365 270.528 188.365" stroke="#011635" stroke-width="1.5" stroke-miterlimit="10" stroke-linecap="round" stroke-linejoin="round"/>
<path d="M264.838 188.375C264.838 186.804 266.108 185.533 267.678 185.533C269.248 185.533 270.518 186.804 270.518 188.375C270.518 189.946 269.248 191.217 267.678 191.217C266.118 191.217 264.838 189.946 264.838 188.375Z" fill="#011635" stroke="#011635" stroke-width="1.5" stroke-miterlimit="10" stroke-linecap="round" stroke-linejoin="round"/>
<path d="M301.954 175.517C301.954 173.947 303.224 172.676 304.794 172.676C306.364 172.676 307.634 173.947 307.634 175.517C307.634 177.088 306.364 178.359 304.794 178.359C303.224 178.369 301.954 177.088 301.954 175.517Z" fill="#011635" stroke="#011635" stroke-width="1.5" stroke-miterlimit="10" stroke-linecap="round" stroke-linejoin="round"/>
<path d="M264.838 203.994C264.838 202.423 266.108 201.152 267.678 201.152C269.248 201.152 270.518 202.423 270.518 203.994C270.518 205.565 269.248 206.836 267.678 206.836C266.118 206.836 264.838 205.565 264.838 203.994Z" fill="#011635" stroke="#011635" stroke-width="1.5" stroke-miterlimit="10" stroke-linecap="round" stroke-linejoin="round"/>
<path d="M301.954 203.994C301.954 202.423 303.224 201.152 304.794 201.152C306.364 201.152 307.634 202.423 307.634 203.994C307.634 205.565 306.364 206.836 304.794 206.836C303.224 206.836 301.954 205.565 301.954 203.994Z" fill="#011635" stroke="#011635" stroke-width="1.5" stroke-miterlimit="10" stroke-linecap="round" stroke-linejoin="round"/>
<path d="M301.953 203.994H270.528" stroke="#011635" stroke-width="1.5" stroke-miterlimit="10" stroke-linecap="round" stroke-linejoin="round"/>
<path d="M301.953 231.46C285.01 231.46 285.83 218.613 270.528 218.613" stroke="#011635" stroke-width="1.5" stroke-miterlimit="10" stroke-linecap="round" stroke-linejoin="round"/>
<path d="M264.838 218.613C264.838 220.184 266.108 221.454 267.678 221.454C269.248 221.454 270.518 220.184 270.518 218.613C270.518 217.042 269.248 215.771 267.678 215.771C266.118 215.771 264.838 217.042 264.838 218.613Z" fill="#011635" stroke="#011635" stroke-width="1.5" stroke-miterlimit="10" stroke-linecap="round" stroke-linejoin="round"/>
<path d="M301.954 231.46C301.954 233.031 303.224 234.302 304.794 234.302C306.364 234.302 307.634 233.031 307.634 231.46C307.634 229.889 306.364 228.619 304.794 228.619C303.224 228.619 301.954 229.889 301.954 231.46Z" fill="#011635" stroke="#011635" stroke-width="1.5" stroke-miterlimit="10" stroke-linecap="round" stroke-linejoin="round"/>
</g>
<defs>
<clipPath id="clip0_1476_105830">
<rect width="579.082" height="500.291" fill="white" transform="translate(48.9082 56.1182)"/>
</clipPath>
</defs>
</svg>
